<?xml version="1.0" encoding="utf-8" standalone="no"?>
<!DOCTYPE svg PUBLIC "-//W3C//DTD SVG 1.1//EN"
  "http://www.w3.org/Graphics/SVG/1.1/DTD/svg11.dtd">
<!-- Created with matplotlib (https://matplotlib.org/) -->
<svg height="576pt" version="1.1" viewBox="0 0 864 576" width="864pt" xmlns="http://www.w3.org/2000/svg" xmlns:xlink="http://www.w3.org/1999/xlink">
 <defs>
  <style type="text/css">
*{stroke-linecap:butt;stroke-linejoin:round;}
  </style>
 </defs>
 <g id="figure_1">
  <g id="patch_1">
   <path d="M 0 576 
L 864 576 
L 864 0 
L 0 0 
z
" style="fill:#ffffff;"/>
  </g>
  <g id="axes_1">
   <g id="patch_2">
    <path d="M 108 512.64 
L 777.6 512.64 
L 777.6 69.12 
L 108 69.12 
z
" style="fill:#ffffff;"/>
   </g>
   <g id="matplotlib.axis_1">
    <g id="xtick_1">
     <g id="line2d_1">
      <defs>
       <path d="M 0 0 
L 0 3.5 
" id="m9ee5b0ca0c" style="stroke:#000000;stroke-width:0.8;"/>
      </defs>
      <g>
       <use style="stroke:#000000;stroke-width:0.8;" x="146.803253" xlink:href="#m9ee5b0ca0c" y="512.64"/>
      </g>
     </g>
     <g id="text_1">
      <!-- 0 -->
      <defs>
       <path d="M 4.15625 35.296875 
Q 4.15625 48 6.765625 55.734375 
Q 9.375 63.484375 14.515625 67.671875 
Q 19.671875 71.875 27.484375 71.875 
Q 33.25 71.875 37.59375 69.546875 
Q 41.9375 67.234375 44.765625 62.859375 
Q 47.609375 58.5 49.21875 52.21875 
Q 50.828125 45.953125 50.828125 35.296875 
Q 50.828125 22.703125 48.234375 14.96875 
Q 45.65625 7.234375 40.5 3 
Q 35.359375 -1.21875 27.484375 -1.21875 
Q 17.140625 -1.21875 11.234375 6.203125 
Q 4.15625 15.140625 4.15625 35.296875 
z
M 13.1875 35.296875 
Q 13.1875 17.671875 17.3125 11.828125 
Q 21.4375 6 27.484375 6 
Q 33.546875 6 37.671875 11.859375 
Q 41.796875 17.71875 41.796875 35.296875 
Q 41.796875 52.984375 37.671875 58.78125 
Q 33.546875 64.59375 27.390625 64.59375 
Q 21.34375 64.59375 17.71875 59.46875 
Q 13.1875 52.9375 13.1875 35.296875 
z
" id="ArialMT-48"/>
      </defs>
      <g transform="translate(141.242315 533.955625)scale(0.2 -0.2)">
       <use xlink:href="#ArialMT-48"/>
      </g>
     </g>
    </g>
    <g id="xtick_2">
     <g id="line2d_2">
      <g>
       <use style="stroke:#000000;stroke-width:0.8;" x="255.351728" xlink:href="#m9ee5b0ca0c" y="512.64"/>
      </g>
     </g>
     <g id="text_2">
      <!-- 100 -->
      <defs>
       <path d="M 37.25 0 
L 28.46875 0 
L 28.46875 56 
Q 25.296875 52.984375 20.140625 49.953125 
Q 14.984375 46.921875 10.890625 45.40625 
L 10.890625 53.90625 
Q 18.265625 57.375 23.78125 62.296875 
Q 29.296875 67.234375 31.59375 71.875 
L 37.25 71.875 
z
" id="ArialMT-49"/>
      </defs>
      <g transform="translate(238.668915 533.955625)scale(0.2 -0.2)">
       <use xlink:href="#ArialMT-49"/>
       <use x="55.615234" xlink:href="#ArialMT-48"/>
       <use x="111.230469" xlink:href="#ArialMT-48"/>
      </g>
     </g>
    </g>
    <g id="xtick_3">
     <g id="line2d_3">
      <g>
       <use style="stroke:#000000;stroke-width:0.8;" x="363.900203" xlink:href="#m9ee5b0ca0c" y="512.64"/>
      </g>
     </g>
     <g id="text_3">
      <!-- 200 -->
      <defs>
       <path d="M 50.34375 8.453125 
L 50.34375 0 
L 3.03125 0 
Q 2.9375 3.171875 4.046875 6.109375 
Q 5.859375 10.9375 9.828125 15.625 
Q 13.8125 20.3125 21.34375 26.46875 
Q 33.015625 36.03125 37.109375 41.625 
Q 41.21875 47.21875 41.21875 52.203125 
Q 41.21875 57.421875 37.46875 61 
Q 33.734375 64.59375 27.734375 64.59375 
Q 21.390625 64.59375 17.578125 60.78125 
Q 13.765625 56.984375 13.71875 50.25 
L 4.6875 51.171875 
Q 5.609375 61.28125 11.65625 66.578125 
Q 17.71875 71.875 27.9375 71.875 
Q 38.234375 71.875 44.234375 66.15625 
Q 50.25 60.453125 50.25 52 
Q 50.25 47.703125 48.484375 43.546875 
Q 46.734375 39.40625 42.65625 34.8125 
Q 38.578125 30.21875 29.109375 22.21875 
Q 21.1875 15.578125 18.9375 13.203125 
Q 16.703125 10.84375 15.234375 8.453125 
z
" id="ArialMT-50"/>
      </defs>
      <g transform="translate(347.21739 533.955625)scale(0.2 -0.2)">
       <use xlink:href="#ArialMT-50"/>
       <use x="55.615234" xlink:href="#ArialMT-48"/>
       <use x="111.230469" xlink:href="#ArialMT-48"/>
      </g>
     </g>
    </g>
    <g id="xtick_4">
     <g id="line2d_4">
      <g>
       <use style="stroke:#000000;stroke-width:0.8;" x="472.448678" xlink:href="#m9ee5b0ca0c" y="512.64"/>
      </g>
     </g>
     <g id="text_4">
      <!-- 300 -->
      <defs>
       <path d="M 4.203125 18.890625 
L 12.984375 20.0625 
Q 14.5 12.59375 18.140625 9.296875 
Q 21.78125 6 27 6 
Q 33.203125 6 37.46875 10.296875 
Q 41.75 14.59375 41.75 20.953125 
Q 41.75 27 37.796875 30.921875 
Q 33.84375 34.859375 27.734375 34.859375 
Q 25.25 34.859375 21.53125 33.890625 
L 22.515625 41.609375 
Q 23.390625 41.5 23.921875 41.5 
Q 29.546875 41.5 34.03125 44.421875 
Q 38.53125 47.359375 38.53125 53.46875 
Q 38.53125 58.296875 35.25 61.46875 
Q 31.984375 64.65625 26.8125 64.65625 
Q 21.6875 64.65625 18.265625 61.421875 
Q 14.84375 58.203125 13.875 51.765625 
L 5.078125 53.328125 
Q 6.6875 62.15625 12.390625 67.015625 
Q 18.109375 71.875 26.609375 71.875 
Q 32.46875 71.875 37.390625 69.359375 
Q 42.328125 66.84375 44.9375 62.5 
Q 47.5625 58.15625 47.5625 53.265625 
Q 47.5625 48.640625 45.0625 44.828125 
Q 42.578125 41.015625 37.703125 38.765625 
Q 44.046875 37.3125 47.5625 32.6875 
Q 51.078125 28.078125 51.078125 21.140625 
Q 51.078125 11.765625 44.234375 5.25 
Q 37.40625 -1.265625 26.953125 -1.265625 
Q 17.53125 -1.265625 11.296875 4.34375 
Q 5.078125 9.96875 4.203125 18.890625 
z
" id="ArialMT-51"/>
      </defs>
      <g transform="translate(455.765865 533.955625)scale(0.2 -0.2)">
       <use xlink:href="#ArialMT-51"/>
       <use x="55.615234" xlink:href="#ArialMT-48"/>
       <use x="111.230469" xlink:href="#ArialMT-48"/>
      </g>
     </g>
    </g>
    <g id="xtick_5">
     <g id="line2d_5">
      <g>
       <use style="stroke:#000000;stroke-width:0.8;" x="580.997153" xlink:href="#m9ee5b0ca0c" y="512.64"/>
      </g>
     </g>
     <g id="text_5">
      <!-- 400 -->
      <defs>
       <path d="M 32.328125 0 
L 32.328125 17.140625 
L 1.265625 17.140625 
L 1.265625 25.203125 
L 33.9375 71.578125 
L 41.109375 71.578125 
L 41.109375 25.203125 
L 50.78125 25.203125 
L 50.78125 17.140625 
L 41.109375 17.140625 
L 41.109375 0 
z
M 32.328125 25.203125 
L 32.328125 57.46875 
L 9.90625 25.203125 
z
" id="ArialMT-52"/>
      </defs>
      <g transform="translate(564.31434 533.955625)scale(0.2 -0.2)">
       <use xlink:href="#ArialMT-52"/>
       <use x="55.615234" xlink:href="#ArialMT-48"/>
       <use x="111.230469" xlink:href="#ArialMT-48"/>
      </g>
     </g>
    </g>
    <g id="xtick_6">
     <g id="line2d_6">
      <g>
       <use style="stroke:#000000;stroke-width:0.8;" x="689.545628" xlink:href="#m9ee5b0ca0c" y="512.64"/>
      </g>
     </g>
     <g id="text_6">
      <!-- 500 -->
      <defs>
       <path d="M 4.15625 18.75 
L 13.375 19.53125 
Q 14.40625 12.796875 18.140625 9.390625 
Q 21.875 6 27.15625 6 
Q 33.5 6 37.890625 10.78125 
Q 42.28125 15.578125 42.28125 23.484375 
Q 42.28125 31 38.0625 35.34375 
Q 33.84375 39.703125 27 39.703125 
Q 22.75 39.703125 19.328125 37.765625 
Q 15.921875 35.84375 13.96875 32.765625 
L 5.71875 33.84375 
L 12.640625 70.609375 
L 48.25 70.609375 
L 48.25 62.203125 
L 19.671875 62.203125 
L 15.828125 42.96875 
Q 22.265625 47.46875 29.34375 47.46875 
Q 38.71875 47.46875 45.15625 40.96875 
Q 51.609375 34.46875 51.609375 24.265625 
Q 51.609375 14.546875 45.953125 7.46875 
Q 39.0625 -1.21875 27.15625 -1.21875 
Q 17.390625 -1.21875 11.203125 4.25 
Q 5.03125 9.71875 4.15625 18.75 
z
" id="ArialMT-53"/>
      </defs>
      <g transform="translate(672.862815 533.955625)scale(0.2 -0.2)">
       <use xlink:href="#ArialMT-53"/>
       <use x="55.615234" xlink:href="#ArialMT-48"/>
       <use x="111.230469" xlink:href="#ArialMT-48"/>
      </g>
     </g>
    </g>
    <g id="text_7">
     <!-- Rest-frame days from discovery -->
     <defs>
      <path d="M 7.859375 0 
L 7.859375 71.578125 
L 39.59375 71.578125 
Q 49.171875 71.578125 54.140625 69.640625 
Q 59.125 67.71875 62.109375 62.828125 
Q 65.09375 57.953125 65.09375 52.046875 
Q 65.09375 44.4375 60.15625 39.203125 
Q 55.21875 33.984375 44.921875 32.5625 
Q 48.6875 30.765625 50.640625 29 
Q 54.78125 25.203125 58.5 19.484375 
L 70.953125 0 
L 59.03125 0 
L 49.5625 14.890625 
Q 45.40625 21.34375 42.71875 24.75 
Q 40.046875 28.171875 37.921875 29.53125 
Q 35.796875 30.90625 33.59375 31.453125 
Q 31.984375 31.78125 28.328125 31.78125 
L 17.328125 31.78125 
L 17.328125 0 
z
M 17.328125 39.984375 
L 37.703125 39.984375 
Q 44.1875 39.984375 47.84375 41.328125 
Q 51.515625 42.671875 53.421875 45.625 
Q 55.328125 48.578125 55.328125 52.046875 
Q 55.328125 57.125 51.640625 60.390625 
Q 47.953125 63.671875 39.984375 63.671875 
L 17.328125 63.671875 
z
" id="ArialMT-82"/>
      <path d="M 42.09375 16.703125 
L 51.171875 15.578125 
Q 49.03125 7.625 43.21875 3.21875 
Q 37.40625 -1.171875 28.375 -1.171875 
Q 17 -1.171875 10.328125 5.828125 
Q 3.65625 12.84375 3.65625 25.484375 
Q 3.65625 38.578125 10.390625 45.796875 
Q 17.140625 53.03125 27.875 53.03125 
Q 38.28125 53.03125 44.875 45.953125 
Q 51.46875 38.875 51.46875 26.03125 
Q 51.46875 25.25 51.421875 23.6875 
L 12.75 23.6875 
Q 13.234375 15.140625 17.578125 10.59375 
Q 21.921875 6.0625 28.421875 6.0625 
Q 33.25 6.0625 36.671875 8.59375 
Q 40.09375 11.140625 42.09375 16.703125 
z
M 13.234375 30.90625 
L 42.1875 30.90625 
Q 41.609375 37.453125 38.875 40.71875 
Q 34.671875 45.796875 27.984375 45.796875 
Q 21.921875 45.796875 17.796875 41.75 
Q 13.671875 37.703125 13.234375 30.90625 
z
" id="ArialMT-101"/>
      <path d="M 3.078125 15.484375 
L 11.765625 16.84375 
Q 12.5 11.625 15.84375 8.84375 
Q 19.1875 6.0625 25.203125 6.0625 
Q 31.25 6.0625 34.171875 8.515625 
Q 37.109375 10.984375 37.109375 14.3125 
Q 37.109375 17.28125 34.515625 19 
Q 32.71875 20.171875 25.53125 21.96875 
Q 15.875 24.421875 12.140625 26.203125 
Q 8.40625 27.984375 6.46875 31.125 
Q 4.546875 34.28125 4.546875 38.09375 
Q 4.546875 41.546875 6.125 44.5 
Q 7.71875 47.46875 10.453125 49.421875 
Q 12.5 50.921875 16.03125 51.96875 
Q 19.578125 53.03125 23.640625 53.03125 
Q 29.734375 53.03125 34.34375 51.265625 
Q 38.96875 49.515625 41.15625 46.5 
Q 43.359375 43.5 44.1875 38.484375 
L 35.59375 37.3125 
Q 35.015625 41.3125 32.203125 43.546875 
Q 29.390625 45.796875 24.265625 45.796875 
Q 18.21875 45.796875 15.625 43.796875 
Q 13.03125 41.796875 13.03125 39.109375 
Q 13.03125 37.40625 14.109375 36.03125 
Q 15.1875 34.625 17.484375 33.6875 
Q 18.796875 33.203125 25.25 31.453125 
Q 34.578125 28.953125 38.25 27.359375 
Q 41.9375 25.78125 44.03125 22.75 
Q 46.140625 19.734375 46.140625 15.234375 
Q 46.140625 10.84375 43.578125 6.953125 
Q 41.015625 3.078125 36.171875 0.953125 
Q 31.34375 -1.171875 25.25 -1.171875 
Q 15.140625 -1.171875 9.84375 3.03125 
Q 4.546875 7.234375 3.078125 15.484375 
z
" id="ArialMT-115"/>
      <path d="M 25.78125 7.859375 
L 27.046875 0.09375 
Q 23.34375 -0.6875 20.40625 -0.6875 
Q 15.625 -0.6875 12.984375 0.828125 
Q 10.359375 2.34375 9.28125 4.8125 
Q 8.203125 7.28125 8.203125 15.1875 
L 8.203125 45.015625 
L 1.765625 45.015625 
L 1.765625 51.859375 
L 8.203125 51.859375 
L 8.203125 64.703125 
L 16.9375 69.96875 
L 16.9375 51.859375 
L 25.78125 51.859375 
L 25.78125 45.015625 
L 16.9375 45.015625 
L 16.9375 14.703125 
Q 16.9375 10.9375 17.40625 9.859375 
Q 17.875 8.796875 18.921875 8.15625 
Q 19.96875 7.515625 21.921875 7.515625 
Q 23.390625 7.515625 25.78125 7.859375 
z
" id="ArialMT-116"/>
      <path d="M 3.171875 21.484375 
L 3.171875 30.328125 
L 30.171875 30.328125 
L 30.171875 21.484375 
z
" id="ArialMT-45"/>
      <path d="M 8.6875 0 
L 8.6875 45.015625 
L 0.921875 45.015625 
L 0.921875 51.859375 
L 8.6875 51.859375 
L 8.6875 57.375 
Q 8.6875 62.59375 9.625 65.140625 
Q 10.890625 68.5625 14.078125 70.671875 
Q 17.28125 72.796875 23.046875 72.796875 
Q 26.765625 72.796875 31.25 71.921875 
L 29.9375 64.265625 
Q 27.203125 64.75 24.75 64.75 
Q 20.75 64.75 19.09375 63.03125 
Q 17.4375 61.328125 17.4375 56.640625 
L 17.4375 51.859375 
L 27.546875 51.859375 
L 27.546875 45.015625 
L 17.4375 45.015625 
L 17.4375 0 
z
" id="ArialMT-102"/>
      <path d="M 6.5 0 
L 6.5 51.859375 
L 14.40625 51.859375 
L 14.40625 44 
Q 17.4375 49.515625 20 51.265625 
Q 22.5625 53.03125 25.640625 53.03125 
Q 30.078125 53.03125 34.671875 50.203125 
L 31.640625 42.046875 
Q 28.421875 43.953125 25.203125 43.953125 
Q 22.3125 43.953125 20.015625 42.21875 
Q 17.71875 40.484375 16.75 37.40625 
Q 15.28125 32.71875 15.28125 27.15625 
L 15.28125 0 
z
" id="ArialMT-114"/>
      <path d="M 40.4375 6.390625 
Q 35.546875 2.25 31.03125 0.53125 
Q 26.515625 -1.171875 21.34375 -1.171875 
Q 12.796875 -1.171875 8.203125 3 
Q 3.609375 7.171875 3.609375 13.671875 
Q 3.609375 17.484375 5.34375 20.625 
Q 7.078125 23.78125 9.890625 25.6875 
Q 12.703125 27.59375 16.21875 28.5625 
Q 18.796875 29.25 24.03125 29.890625 
Q 34.671875 31.15625 39.703125 32.90625 
Q 39.75 34.71875 39.75 35.203125 
Q 39.75 40.578125 37.25 42.78125 
Q 33.890625 45.75 27.25 45.75 
Q 21.046875 45.75 18.09375 43.578125 
Q 15.140625 41.40625 13.71875 35.890625 
L 5.125 37.0625 
Q 6.296875 42.578125 8.984375 45.96875 
Q 11.671875 49.359375 16.75 51.1875 
Q 21.828125 53.03125 28.515625 53.03125 
Q 35.15625 53.03125 39.296875 51.46875 
Q 43.453125 49.90625 45.40625 47.53125 
Q 47.359375 45.171875 48.140625 41.546875 
Q 48.578125 39.3125 48.578125 33.453125 
L 48.578125 21.734375 
Q 48.578125 9.46875 49.140625 6.21875 
Q 49.703125 2.984375 51.375 0 
L 42.1875 0 
Q 40.828125 2.734375 40.4375 6.390625 
z
M 39.703125 26.03125 
Q 34.90625 24.078125 25.34375 22.703125 
Q 19.921875 21.921875 17.671875 20.9375 
Q 15.4375 19.96875 14.203125 18.09375 
Q 12.984375 16.21875 12.984375 13.921875 
Q 12.984375 10.40625 15.640625 8.0625 
Q 18.3125 5.71875 23.4375 5.71875 
Q 28.515625 5.71875 32.46875 7.9375 
Q 36.421875 10.15625 38.28125 14.015625 
Q 39.703125 17 39.703125 22.796875 
z
" id="ArialMT-97"/>
      <path d="M 6.59375 0 
L 6.59375 51.859375 
L 14.453125 51.859375 
L 14.453125 44.578125 
Q 16.890625 48.390625 20.9375 50.703125 
Q 25 53.03125 30.171875 53.03125 
Q 35.9375 53.03125 39.625 50.640625 
Q 43.3125 48.25 44.828125 43.953125 
Q 50.984375 53.03125 60.84375 53.03125 
Q 68.5625 53.03125 72.703125 48.75 
Q 76.859375 44.484375 76.859375 35.59375 
L 76.859375 0 
L 68.109375 0 
L 68.109375 32.671875 
Q 68.109375 37.9375 67.25 40.25 
Q 66.40625 42.578125 64.15625 43.984375 
Q 61.921875 45.40625 58.890625 45.40625 
Q 53.421875 45.40625 49.796875 41.765625 
Q 46.1875 38.140625 46.1875 30.125 
L 46.1875 0 
L 37.40625 0 
L 37.40625 33.6875 
Q 37.40625 39.546875 35.25 42.46875 
Q 33.109375 45.40625 28.21875 45.40625 
Q 24.515625 45.40625 21.359375 43.453125 
Q 18.21875 41.5 16.796875 37.734375 
Q 15.375 33.984375 15.375 26.90625 
L 15.375 0 
z
" id="ArialMT-109"/>
      <path id="ArialMT-32"/>
      <path d="M 40.234375 0 
L 40.234375 6.546875 
Q 35.296875 -1.171875 25.734375 -1.171875 
Q 19.53125 -1.171875 14.328125 2.25 
Q 9.125 5.671875 6.265625 11.796875 
Q 3.421875 17.921875 3.421875 25.875 
Q 3.421875 33.640625 6 39.96875 
Q 8.59375 46.296875 13.765625 49.65625 
Q 18.953125 53.03125 25.34375 53.03125 
Q 30.03125 53.03125 33.6875 51.046875 
Q 37.359375 49.078125 39.65625 45.90625 
L 39.65625 71.578125 
L 48.390625 71.578125 
L 48.390625 0 
z
M 12.453125 25.875 
Q 12.453125 15.921875 16.640625 10.984375 
Q 20.84375 6.0625 26.5625 6.0625 
Q 32.328125 6.0625 36.34375 10.765625 
Q 40.375 15.484375 40.375 25.140625 
Q 40.375 35.796875 36.265625 40.765625 
Q 32.171875 45.75 26.171875 45.75 
Q 20.3125 45.75 16.375 40.96875 
Q 12.453125 36.1875 12.453125 25.875 
z
" id="ArialMT-100"/>
      <path d="M 6.203125 -19.96875 
L 5.21875 -11.71875 
Q 8.109375 -12.5 10.25 -12.5 
Q 13.1875 -12.5 14.9375 -11.515625 
Q 16.703125 -10.546875 17.828125 -8.796875 
Q 18.65625 -7.46875 20.515625 -2.25 
Q 20.75 -1.515625 21.296875 -0.09375 
L 1.609375 51.859375 
L 11.078125 51.859375 
L 21.875 21.828125 
Q 23.96875 16.109375 25.640625 9.8125 
Q 27.15625 15.875 29.25 21.625 
L 40.328125 51.859375 
L 49.125 51.859375 
L 29.390625 -0.875 
Q 26.21875 -9.421875 24.46875 -12.640625 
Q 22.125 -17 19.09375 -19.015625 
Q 16.0625 -21.046875 11.859375 -21.046875 
Q 9.328125 -21.046875 6.203125 -19.96875 
z
" id="ArialMT-121"/>
      <path d="M 3.328125 25.921875 
Q 3.328125 40.328125 11.328125 47.265625 
Q 18.015625 53.03125 27.640625 53.03125 
Q 38.328125 53.03125 45.109375 46.015625 
Q 51.90625 39.015625 51.90625 26.65625 
Q 51.90625 16.65625 48.90625 10.90625 
Q 45.90625 5.171875 40.15625 2 
Q 34.421875 -1.171875 27.640625 -1.171875 
Q 16.75 -1.171875 10.03125 5.8125 
Q 3.328125 12.796875 3.328125 25.921875 
z
M 12.359375 25.921875 
Q 12.359375 15.96875 16.703125 11.015625 
Q 21.046875 6.0625 27.640625 6.0625 
Q 34.1875 6.0625 38.53125 11.03125 
Q 42.875 16.015625 42.875 26.21875 
Q 42.875 35.84375 38.5 40.796875 
Q 34.125 45.75 27.640625 45.75 
Q 21.046875 45.75 16.703125 40.8125 
Q 12.359375 35.890625 12.359375 25.921875 
z
" id="ArialMT-111"/>
      <path d="M 6.640625 61.46875 
L 6.640625 71.578125 
L 15.4375 71.578125 
L 15.4375 61.46875 
z
M 6.640625 0 
L 6.640625 51.859375 
L 15.4375 51.859375 
L 15.4375 0 
z
" id="ArialMT-105"/>
      <path d="M 40.4375 19 
L 49.078125 17.875 
Q 47.65625 8.9375 41.8125 3.875 
Q 35.984375 -1.171875 27.484375 -1.171875 
Q 16.84375 -1.171875 10.375 5.78125 
Q 3.90625 12.75 3.90625 25.734375 
Q 3.90625 34.125 6.6875 40.421875 
Q 9.46875 46.734375 15.15625 49.875 
Q 20.84375 53.03125 27.546875 53.03125 
Q 35.984375 53.03125 41.359375 48.75 
Q 46.734375 44.484375 48.25 36.625 
L 39.703125 35.296875 
Q 38.484375 40.53125 35.375 43.15625 
Q 32.28125 45.796875 27.875 45.796875 
Q 21.234375 45.796875 17.078125 41.03125 
Q 12.9375 36.28125 12.9375 25.984375 
Q 12.9375 15.53125 16.9375 10.796875 
Q 20.953125 6.0625 27.390625 6.0625 
Q 32.5625 6.0625 36.03125 9.234375 
Q 39.5 12.40625 40.4375 19 
z
" id="ArialMT-99"/>
      <path d="M 21 0 
L 1.265625 51.859375 
L 10.546875 51.859375 
L 21.6875 20.796875 
Q 23.484375 15.765625 25 10.359375 
Q 26.171875 14.453125 28.265625 20.21875 
L 39.796875 51.859375 
L 48.828125 51.859375 
L 29.203125 0 
z
" id="ArialMT-118"/>
     </defs>
     <g transform="translate(301.660938 556.49)scale(0.2 -0.2)">
      <use xlink:href="#ArialMT-82"/>
      <use x="72.216797" xlink:href="#ArialMT-101"/>
      <use x="127.832031" xlink:href="#ArialMT-115"/>
      <use x="177.832031" xlink:href="#ArialMT-116"/>
      <use x="205.615234" xlink:href="#ArialMT-45"/>
      <use x="238.916016" xlink:href="#ArialMT-102"/>
      <use x="266.699219" xlink:href="#ArialMT-114"/>
      <use x="300" xlink:href="#ArialMT-97"/>
      <use x="355.615234" xlink:href="#ArialMT-109"/>
      <use x="438.916016" xlink:href="#ArialMT-101"/>
      <use x="494.53125" xlink:href="#ArialMT-32"/>
      <use x="522.314453" xlink:href="#ArialMT-100"/>
      <use x="577.929688" xlink:href="#ArialMT-97"/>
      <use x="633.544922" xlink:href="#ArialMT-121"/>
      <use x="683.544922" xlink:href="#ArialMT-115"/>
      <use x="733.544922" xlink:href="#ArialMT-32"/>
      <use x="761.328125" xlink:href="#ArialMT-102"/>
      <use x="789.111328" xlink:href="#ArialMT-114"/>
      <use x="822.412109" xlink:href="#ArialMT-111"/>
      <use x="878.027344" xlink:href="#ArialMT-109"/>
      <use x="961.328125" xlink:href="#ArialMT-32"/>
      <use x="989.111328" xlink:href="#ArialMT-100"/>
      <use x="1044.726562" xlink:href="#ArialMT-105"/>
      <use x="1066.943359" xlink:href="#ArialMT-115"/>
      <use x="1116.943359" xlink:href="#ArialMT-99"/>
      <use x="1166.943359" xlink:href="#ArialMT-111"/>
      <use x="1222.558594" xlink:href="#ArialMT-118"/>
      <use x="1272.558594" xlink:href="#ArialMT-101"/>
      <use x="1328.173828" xlink:href="#ArialMT-114"/>
      <use x="1361.474609" xlink:href="#ArialMT-121"/>
     </g>
    </g>
   </g>
   <g id="matplotlib.axis_2">
    <g id="ytick_1">
     <g id="line2d_7">
      <defs>
       <path d="M 0 0 
L -3.5 0 
" id="m3e8fdaa657" style="stroke:#000000;stroke-width:0.8;"/>
      </defs>
      <g>
       <use style="stroke:#000000;stroke-width:0.8;" x="108" xlink:href="#m3e8fdaa657" y="105.766982"/>
      </g>
     </g>
     <g id="text_8">
      <!-- 10 -->
      <g transform="translate(78.75625 112.924795)scale(0.2 -0.2)">
       <use xlink:href="#ArialMT-49"/>
       <use x="55.615234" xlink:href="#ArialMT-48"/>
      </g>
     </g>
    </g>
    <g id="ytick_2">
     <g id="line2d_8">
      <g>
       <use style="stroke:#000000;stroke-width:0.8;" x="108" xlink:href="#m3e8fdaa657" y="183.049809"/>
      </g>
     </g>
     <g id="text_9">
      <!-- 12 -->
      <g transform="translate(78.75625 190.207622)scale(0.2 -0.2)">
       <use xlink:href="#ArialMT-49"/>
       <use x="55.615234" xlink:href="#ArialMT-50"/>
      </g>
     </g>
    </g>
    <g id="ytick_3">
     <g id="line2d_9">
      <g>
       <use style="stroke:#000000;stroke-width:0.8;" x="108" xlink:href="#m3e8fdaa657" y="260.332636"/>
      </g>
     </g>
     <g id="text_10">
      <!-- 14 -->
      <g transform="translate(78.75625 267.490448)scale(0.2 -0.2)">
       <use xlink:href="#ArialMT-49"/>
       <use x="55.615234" xlink:href="#ArialMT-52"/>
      </g>
     </g>
    </g>
    <g id="ytick_4">
     <g id="line2d_10">
      <g>
       <use style="stroke:#000000;stroke-width:0.8;" x="108" xlink:href="#m3e8fdaa657" y="337.615463"/>
      </g>
     </g>
     <g id="text_11">
      <!-- 16 -->
      <defs>
       <path d="M 49.75 54.046875 
L 41.015625 53.375 
Q 39.84375 58.546875 37.703125 60.890625 
Q 34.125 64.65625 28.90625 64.65625 
Q 24.703125 64.65625 21.53125 62.3125 
Q 17.390625 59.28125 14.984375 53.46875 
Q 12.59375 47.65625 12.5 36.921875 
Q 15.671875 41.75 20.265625 44.09375 
Q 24.859375 46.4375 29.890625 46.4375 
Q 38.671875 46.4375 44.84375 39.96875 
Q 51.03125 33.5 51.03125 23.25 
Q 51.03125 16.5 48.125 10.71875 
Q 45.21875 4.9375 40.140625 1.859375 
Q 35.0625 -1.21875 28.609375 -1.21875 
Q 17.625 -1.21875 10.6875 6.859375 
Q 3.765625 14.9375 3.765625 33.5 
Q 3.765625 54.25 11.421875 63.671875 
Q 18.109375 71.875 29.4375 71.875 
Q 37.890625 71.875 43.28125 67.140625 
Q 48.6875 62.40625 49.75 54.046875 
z
M 13.875 23.1875 
Q 13.875 18.65625 15.796875 14.5 
Q 17.71875 10.359375 21.1875 8.171875 
Q 24.65625 6 28.46875 6 
Q 34.03125 6 38.03125 10.484375 
Q 42.046875 14.984375 42.046875 22.703125 
Q 42.046875 30.125 38.078125 34.390625 
Q 34.125 38.671875 28.125 38.671875 
Q 22.171875 38.671875 18.015625 34.390625 
Q 13.875 30.125 13.875 23.1875 
z
" id="ArialMT-54"/>
      </defs>
      <g transform="translate(78.75625 344.773275)scale(0.2 -0.2)">
       <use xlink:href="#ArialMT-49"/>
       <use x="55.615234" xlink:href="#ArialMT-54"/>
      </g>
     </g>
    </g>
    <g id="ytick_5">
     <g id="line2d_11">
      <g>
       <use style="stroke:#000000;stroke-width:0.8;" x="108" xlink:href="#m3e8fdaa657" y="414.89829"/>
      </g>
     </g>
     <g id="text_12">
      <!-- 18 -->
      <defs>
       <path d="M 17.671875 38.8125 
Q 12.203125 40.828125 9.5625 44.53125 
Q 6.9375 48.25 6.9375 53.421875 
Q 6.9375 61.234375 12.546875 66.546875 
Q 18.171875 71.875 27.484375 71.875 
Q 36.859375 71.875 42.578125 66.421875 
Q 48.296875 60.984375 48.296875 53.171875 
Q 48.296875 48.1875 45.671875 44.5 
Q 43.0625 40.828125 37.75 38.8125 
Q 44.34375 36.671875 47.78125 31.875 
Q 51.21875 27.09375 51.21875 20.453125 
Q 51.21875 11.28125 44.71875 5.03125 
Q 38.234375 -1.21875 27.640625 -1.21875 
Q 17.046875 -1.21875 10.546875 5.046875 
Q 4.046875 11.328125 4.046875 20.703125 
Q 4.046875 27.6875 7.59375 32.390625 
Q 11.140625 37.109375 17.671875 38.8125 
z
M 15.921875 53.71875 
Q 15.921875 48.640625 19.1875 45.40625 
Q 22.46875 42.1875 27.6875 42.1875 
Q 32.765625 42.1875 36.015625 45.375 
Q 39.265625 48.578125 39.265625 53.21875 
Q 39.265625 58.0625 35.90625 61.359375 
Q 32.5625 64.65625 27.59375 64.65625 
Q 22.5625 64.65625 19.234375 61.421875 
Q 15.921875 58.203125 15.921875 53.71875 
z
M 13.09375 20.65625 
Q 13.09375 16.890625 14.875 13.375 
Q 16.65625 9.859375 20.171875 7.921875 
Q 23.6875 6 27.734375 6 
Q 34.03125 6 38.125 10.046875 
Q 42.234375 14.109375 42.234375 20.359375 
Q 42.234375 26.703125 38.015625 30.859375 
Q 33.796875 35.015625 27.4375 35.015625 
Q 21.234375 35.015625 17.15625 30.90625 
Q 13.09375 26.8125 13.09375 20.65625 
z
" id="ArialMT-56"/>
      </defs>
      <g transform="translate(78.75625 422.056102)scale(0.2 -0.2)">
       <use xlink:href="#ArialMT-49"/>
       <use x="55.615234" xlink:href="#ArialMT-56"/>
      </g>
     </g>
    </g>
    <g id="ytick_6">
     <g id="line2d_12">
      <g>
       <use style="stroke:#000000;stroke-width:0.8;" x="108" xlink:href="#m3e8fdaa657" y="492.181117"/>
      </g>
     </g>
     <g id="text_13">
      <!-- 20 -->
      <g transform="translate(78.75625 499.338929)scale(0.2 -0.2)">
       <use xlink:href="#ArialMT-50"/>
       <use x="55.615234" xlink:href="#ArialMT-48"/>
      </g>
     </g>
    </g>
    <g id="text_14">
     <!-- Apparent Magnitude -->
     <defs>
      <path d="M -0.140625 0 
L 27.34375 71.578125 
L 37.546875 71.578125 
L 66.84375 0 
L 56.0625 0 
L 47.703125 21.6875 
L 17.78125 21.6875 
L 9.90625 0 
z
M 20.515625 29.390625 
L 44.78125 29.390625 
L 37.3125 49.21875 
Q 33.890625 58.25 32.234375 64.0625 
Q 30.859375 57.171875 28.375 50.390625 
z
" id="ArialMT-65"/>
      <path d="M 6.59375 -19.875 
L 6.59375 51.859375 
L 14.59375 51.859375 
L 14.59375 45.125 
Q 17.4375 49.078125 21 51.046875 
Q 24.5625 53.03125 29.640625 53.03125 
Q 36.28125 53.03125 41.359375 49.609375 
Q 46.4375 46.1875 49.015625 39.953125 
Q 51.609375 33.734375 51.609375 26.3125 
Q 51.609375 18.359375 48.75 11.984375 
Q 45.90625 5.609375 40.453125 2.21875 
Q 35.015625 -1.171875 29 -1.171875 
Q 24.609375 -1.171875 21.109375 0.6875 
Q 17.625 2.546875 15.375 5.375 
L 15.375 -19.875 
z
M 14.546875 25.640625 
Q 14.546875 15.625 18.59375 10.84375 
Q 22.65625 6.0625 28.421875 6.0625 
Q 34.28125 6.0625 38.453125 11.015625 
Q 42.625 15.96875 42.625 26.375 
Q 42.625 36.28125 38.546875 41.203125 
Q 34.46875 46.140625 28.8125 46.140625 
Q 23.1875 46.140625 18.859375 40.890625 
Q 14.546875 35.640625 14.546875 25.640625 
z
" id="ArialMT-112"/>
      <path d="M 6.59375 0 
L 6.59375 51.859375 
L 14.5 51.859375 
L 14.5 44.484375 
Q 20.21875 53.03125 31 53.03125 
Q 35.6875 53.03125 39.625 51.34375 
Q 43.5625 49.65625 45.515625 46.921875 
Q 47.46875 44.1875 48.25 40.4375 
Q 48.734375 37.984375 48.734375 31.890625 
L 48.734375 0 
L 39.9375 0 
L 39.9375 31.546875 
Q 39.9375 36.921875 38.90625 39.578125 
Q 37.890625 42.234375 35.28125 43.8125 
Q 32.671875 45.40625 29.15625 45.40625 
Q 23.53125 45.40625 19.453125 41.84375 
Q 15.375 38.28125 15.375 28.328125 
L 15.375 0 
z
" id="ArialMT-110"/>
      <path d="M 7.421875 0 
L 7.421875 71.578125 
L 21.6875 71.578125 
L 38.625 20.90625 
Q 40.96875 13.8125 42.046875 10.296875 
Q 43.265625 14.203125 45.84375 21.78125 
L 62.984375 71.578125 
L 75.734375 71.578125 
L 75.734375 0 
L 66.609375 0 
L 66.609375 59.90625 
L 45.796875 0 
L 37.25 0 
L 16.546875 60.9375 
L 16.546875 0 
z
" id="ArialMT-77"/>
      <path d="M 4.984375 -4.296875 
L 13.53125 -5.5625 
Q 14.0625 -9.515625 16.5 -11.328125 
Q 19.78125 -13.765625 25.4375 -13.765625 
Q 31.546875 -13.765625 34.859375 -11.328125 
Q 38.1875 -8.890625 39.359375 -4.5 
Q 40.046875 -1.8125 39.984375 6.78125 
Q 34.234375 0 25.640625 0 
Q 14.9375 0 9.078125 7.71875 
Q 3.21875 15.4375 3.21875 26.21875 
Q 3.21875 33.640625 5.90625 39.90625 
Q 8.59375 46.1875 13.6875 49.609375 
Q 18.796875 53.03125 25.6875 53.03125 
Q 34.859375 53.03125 40.828125 45.609375 
L 40.828125 51.859375 
L 48.921875 51.859375 
L 48.921875 7.03125 
Q 48.921875 -5.078125 46.453125 -10.125 
Q 44 -15.1875 38.640625 -18.109375 
Q 33.296875 -21.046875 25.484375 -21.046875 
Q 16.21875 -21.046875 10.5 -16.875 
Q 4.78125 -12.703125 4.984375 -4.296875 
z
M 12.25 26.859375 
Q 12.25 16.65625 16.296875 11.96875 
Q 20.359375 7.28125 26.46875 7.28125 
Q 32.515625 7.28125 36.609375 11.9375 
Q 40.71875 16.609375 40.71875 26.5625 
Q 40.71875 36.078125 36.5 40.90625 
Q 32.28125 45.75 26.3125 45.75 
Q 20.453125 45.75 16.34375 40.984375 
Q 12.25 36.234375 12.25 26.859375 
z
" id="ArialMT-103"/>
      <path d="M 40.578125 0 
L 40.578125 7.625 
Q 34.515625 -1.171875 24.125 -1.171875 
Q 19.53125 -1.171875 15.546875 0.578125 
Q 11.578125 2.34375 9.640625 5 
Q 7.71875 7.671875 6.9375 11.53125 
Q 6.390625 14.109375 6.390625 19.734375 
L 6.390625 51.859375 
L 15.1875 51.859375 
L 15.1875 23.09375 
Q 15.1875 16.21875 15.71875 13.8125 
Q 16.546875 10.359375 19.234375 8.375 
Q 21.921875 6.390625 25.875 6.390625 
Q 29.828125 6.390625 33.296875 8.421875 
Q 36.765625 10.453125 38.203125 13.9375 
Q 39.65625 17.4375 39.65625 24.078125 
L 39.65625 51.859375 
L 48.4375 51.859375 
L 48.4375 0 
z
" id="ArialMT-117"/>
     </defs>
     <g transform="translate(70.546875 380.93625)rotate(-90)scale(0.2 -0.2)">
      <use xlink:href="#ArialMT-65"/>
      <use x="66.699219" xlink:href="#ArialMT-112"/>
      <use x="122.314453" xlink:href="#ArialMT-112"/>
      <use x="177.929688" xlink:href="#ArialMT-97"/>
      <use x="233.544922" xlink:href="#ArialMT-114"/>
      <use x="266.845703" xlink:href="#ArialMT-101"/>
      <use x="322.460938" xlink:href="#ArialMT-110"/>
      <use x="378.076172" xlink:href="#ArialMT-116"/>
      <use x="405.859375" xlink:href="#ArialMT-32"/>
      <use x="433.642578" xlink:href="#ArialMT-77"/>
      <use x="516.943359" xlink:href="#ArialMT-97"/>
      <use x="572.558594" xlink:href="#ArialMT-103"/>
      <use x="628.173828" xlink:href="#ArialMT-110"/>
      <use x="683.789062" xlink:href="#ArialMT-105"/>
      <use x="706.005859" xlink:href="#ArialMT-116"/>
      <use x="733.789062" xlink:href="#ArialMT-117"/>
      <use x="789.404297" xlink:href="#ArialMT-100"/>
      <use x="845.019531" xlink:href="#ArialMT-101"/>
     </g>
    </g>
   </g>
   <g id="LineCollection_1">
    <path clip-path="url(#p1ce96e73d7)" d="M 147.186486 291.167541 
L 147.186486 308.248932 
" style="fill:none;stroke:#0000ff;stroke-width:1.5;"/>
    <path clip-path="url(#p1ce96e73d7)" d="M 147.253018 292.751839 
L 147.253018 309.83323 
" style="fill:none;stroke:#0000ff;stroke-width:1.5;"/>
    <path clip-path="url(#p1ce96e73d7)" d="M 147.542261 290.582764 
L 147.542261 307.674466 
" style="fill:none;stroke:#0000ff;stroke-width:1.5;"/>
    <path clip-path="url(#p1ce96e73d7)" d="M 147.543021 290.587919 
L 147.543021 307.669311 
" style="fill:none;stroke:#0000ff;stroke-width:1.5;"/>
    <path clip-path="url(#p1ce96e73d7)" d="M 147.595551 293.370097 
L 147.595551 310.374214 
" style="fill:none;stroke:#0000ff;stroke-width:1.5;"/>
    <path clip-path="url(#p1ce96e73d7)" d="M 148.345847 289.771294 
L 148.345847 306.862997 
" style="fill:none;stroke:#0000ff;stroke-width:1.5;"/>
    <path clip-path="url(#p1ce96e73d7)" d="M 148.346607 288.534769 
L 148.346607 305.626472 
" style="fill:none;stroke:#0000ff;stroke-width:1.5;"/>
    <path clip-path="url(#p1ce96e73d7)" d="M 148.41748 288.727976 
L 148.41748 305.819679 
" style="fill:none;stroke:#0000ff;stroke-width:1.5;"/>
    <path clip-path="url(#p1ce96e73d7)" d="M 148.418239 288.341562 
L 148.418239 305.433264 
" style="fill:none;stroke:#0000ff;stroke-width:1.5;"/>
    <path clip-path="url(#p1ce96e73d7)" d="M 149.638705 286.486774 
L 149.638705 303.578477 
" style="fill:none;stroke:#0000ff;stroke-width:1.5;"/>
    <path clip-path="url(#p1ce96e73d7)" d="M 149.639464 285.835026 
L 149.639464 302.916417 
" style="fill:none;stroke:#0000ff;stroke-width:1.5;"/>
    <path clip-path="url(#p1ce96e73d7)" d="M 149.701112 292.49254 
L 149.701112 309.706114 
" style="fill:none;stroke:#0000ff;stroke-width:1.5;"/>
    <path clip-path="url(#p1ce96e73d7)" d="M 149.922738 285.482097 
L 149.922738 302.5738 
" style="fill:none;stroke:#0000ff;stroke-width:1.5;"/>
    <path clip-path="url(#p1ce96e73d7)" d="M 149.923498 286.685137 
L 149.923498 303.766528 
" style="fill:none;stroke:#0000ff;stroke-width:1.5;"/>
    <path clip-path="url(#p1ce96e73d7)" d="M 149.998169 289.153031 
L 149.998169 306.244734 
" style="fill:none;stroke:#0000ff;stroke-width:1.5;"/>
    <path clip-path="url(#p1ce96e73d7)" d="M 149.998929 287.110192 
L 149.998929 304.191583 
" style="fill:none;stroke:#0000ff;stroke-width:1.5;"/>
    <path clip-path="url(#p1ce96e73d7)" d="M 151.799943 286.216284 
L 151.799943 303.307987 
" style="fill:none;stroke:#0000ff;stroke-width:1.5;"/>
    <path clip-path="url(#p1ce96e73d7)" d="M 151.800703 285.757743 
L 151.800703 302.839134 
" style="fill:none;stroke:#0000ff;stroke-width:1.5;"/>
    <path clip-path="url(#p1ce96e73d7)" d="M 151.871792 290.621405 
L 151.871792 307.713108 
" style="fill:none;stroke:#0000ff;stroke-width:1.5;"/>
    <path clip-path="url(#p1ce96e73d7)" d="M 151.99118 288.733127 
L 151.99118 305.737244 
" style="fill:none;stroke:#0000ff;stroke-width:1.5;"/>
    <path clip-path="url(#p1ce96e73d7)" d="M 157.992787 285.791228 
L 157.992787 302.882931 
" style="fill:none;stroke:#0000ff;stroke-width:1.5;"/>
    <path clip-path="url(#p1ce96e73d7)" d="M 157.993546 289.815091 
L 157.993546 306.896482 
" style="fill:none;stroke:#0000ff;stroke-width:1.5;"/>
    <path clip-path="url(#p1ce96e73d7)" d="M 158.503222 293.712718 
L 158.503222 310.804421 
" style="fill:none;stroke:#0000ff;stroke-width:1.5;"/>
    <path clip-path="url(#p1ce96e73d7)" d="M 160.021179 292.978531 
L 160.021179 310.070234 
" style="fill:none;stroke:#0000ff;stroke-width:1.5;"/>
    <path clip-path="url(#p1ce96e73d7)" d="M 160.021939 291.863086 
L 160.021939 308.944477 
" style="fill:none;stroke:#0000ff;stroke-width:1.5;"/>
    <path clip-path="url(#p1ce96e73d7)" d="M 161.71583 295.258375 
L 161.71583 312.350077 
" style="fill:none;stroke:#0000ff;stroke-width:1.5;"/>
    <path clip-path="url(#p1ce96e73d7)" d="M 162.906882 294.656459 
L 162.906882 311.870034 
" style="fill:none;stroke:#0000ff;stroke-width:1.5;"/>
    <path clip-path="url(#p1ce96e73d7)" d="M 163.119392 297.847349 
L 163.119392 314.939052 
" style="fill:none;stroke:#0000ff;stroke-width:1.5;"/>
    <path clip-path="url(#p1ce96e73d7)" d="M 163.120152 295.14245 
L 163.120152 312.234153 
" style="fill:none;stroke:#0000ff;stroke-width:1.5;"/>
    <path clip-path="url(#p1ce96e73d7)" d="M 164.830757 299.50893 
L 164.830757 316.600633 
" style="fill:none;stroke:#0000ff;stroke-width:1.5;"/>
    <path clip-path="url(#p1ce96e73d7)" d="M 165.057484 297.206792 
L 165.057484 314.420367 
" style="fill:none;stroke:#0000ff;stroke-width:1.5;"/>
    <path clip-path="url(#p1ce96e73d7)" d="M 166.068045 301.09838 
L 166.068045 318.102496 
" style="fill:none;stroke:#0000ff;stroke-width:1.5;"/>
    <path clip-path="url(#p1ce96e73d7)" d="M 167.833568 300.529954 
L 167.833568 317.743528 
" style="fill:none;stroke:#0000ff;stroke-width:1.5;"/>
    <path clip-path="url(#p1ce96e73d7)" d="M 169.81833 303.505343 
L 169.81833 320.718917 
" style="fill:none;stroke:#0000ff;stroke-width:1.5;"/>
    <path clip-path="url(#p1ce96e73d7)" d="M 171.730591 307.362461 
L 171.730591 324.590082 
" style="fill:none;stroke:#0000ff;stroke-width:1.5;"/>
    <path clip-path="url(#p1ce96e73d7)" d="M 173.54604 312.690804 
L 173.54604 329.694921 
" style="fill:none;stroke:#0000ff;stroke-width:1.5;"/>
    <path clip-path="url(#p1ce96e73d7)" d="M 173.556894 311.487768 
L 173.556894 328.579471 
" style="fill:none;stroke:#0000ff;stroke-width:1.5;"/>
    <path clip-path="url(#p1ce96e73d7)" d="M 174.4256 311.497092 
L 174.4256 328.724713 
" style="fill:none;stroke:#0000ff;stroke-width:1.5;"/>
    <path clip-path="url(#p1ce96e73d7)" d="M 175.792695 316.83663 
L 175.792695 334.050205 
" style="fill:none;stroke:#0000ff;stroke-width:1.5;"/>
    <path clip-path="url(#p1ce96e73d7)" d="M 176.162362 314.665688 
L 176.162362 331.893309 
" style="fill:none;stroke:#0000ff;stroke-width:1.5;"/>
    <path clip-path="url(#p1ce96e73d7)" d="M 177.898255 320.032672 
L 177.898255 337.036789 
" style="fill:none;stroke:#0000ff;stroke-width:1.5;"/>
    <path clip-path="url(#p1ce96e73d7)" d="M 177.985082 319.541529 
L 177.985082 336.755104 
" style="fill:none;stroke:#0000ff;stroke-width:1.5;"/>
    <path clip-path="url(#p1ce96e73d7)" d="M 178.985549 316.752324 
L 178.985549 333.979945 
" style="fill:none;stroke:#0000ff;stroke-width:1.5;"/>
    <path clip-path="url(#p1ce96e73d7)" d="M 181.110537 319.527315 
L 181.110537 336.769318 
" style="fill:none;stroke:#0000ff;stroke-width:1.5;"/>
    <path clip-path="url(#p1ce96e73d7)" d="M 183.228145 322.966401 
L 183.228145 340.208404 
" style="fill:none;stroke:#0000ff;stroke-width:1.5;"/>
    <path clip-path="url(#p1ce96e73d7)" d="M 183.476905 326.557919 
L 183.476905 343.649622 
" style="fill:none;stroke:#0000ff;stroke-width:1.5;"/>
    <path clip-path="url(#p1ce96e73d7)" d="M 185.560758 328.147369 
L 185.560758 345.151486 
" style="fill:none;stroke:#0000ff;stroke-width:1.5;"/>
    <path clip-path="url(#p1ce96e73d7)" d="M 188.664832 331.625096 
L 188.664832 348.629213 
" style="fill:none;stroke:#0000ff;stroke-width:1.5;"/>
    <path clip-path="url(#p1ce96e73d7)" d="M 188.81678 329.510579 
L 188.81678 346.879589 
" style="fill:none;stroke:#0000ff;stroke-width:1.5;"/>
    <path clip-path="url(#p1ce96e73d7)" d="M 189.999801 332.784339 
L 189.999801 349.788455 
" style="fill:none;stroke:#0000ff;stroke-width:1.5;"/>
    <path clip-path="url(#p1ce96e73d7)" d="M 190.944047 333.12696 
L 190.944047 350.218663 
" style="fill:none;stroke:#0000ff;stroke-width:1.5;"/>
    <path clip-path="url(#p1ce96e73d7)" d="M 191.953413 333.12696 
L 191.953413 350.218663 
" style="fill:none;stroke:#0000ff;stroke-width:1.5;"/>
    <path clip-path="url(#p1ce96e73d7)" d="M 193.0279 335.102823 
L 193.0279 352.10694 
" style="fill:none;stroke:#0000ff;stroke-width:1.5;"/>
    <path clip-path="url(#p1ce96e73d7)" d="M 194.102387 335.489238 
L 194.102387 352.493354 
" style="fill:none;stroke:#0000ff;stroke-width:1.5;"/>
    <path clip-path="url(#p1ce96e73d7)" d="M 195.166021 334.61168 
L 195.166021 351.825255 
" style="fill:none;stroke:#0000ff;stroke-width:1.5;"/>
    <path clip-path="url(#p1ce96e73d7)" d="M 196.262215 336.64848 
L 196.262215 353.652597 
" style="fill:none;stroke:#0000ff;stroke-width:1.5;"/>
    <path clip-path="url(#p1ce96e73d7)" d="M 197.336702 337.377515 
L 197.336702 354.469218 
" style="fill:none;stroke:#0000ff;stroke-width:1.5;"/>
    <path clip-path="url(#p1ce96e73d7)" d="M 197.477796 335.831859 
L 197.477796 352.923562 
" style="fill:none;stroke:#0000ff;stroke-width:1.5;"/>
    <path clip-path="url(#p1ce96e73d7)" d="M 203.870451 339.739793 
L 203.870451 356.74391 
" style="fill:none;stroke:#0000ff;stroke-width:1.5;"/>
    <path clip-path="url(#p1ce96e73d7)" d="M 206.127959 341.28545 
L 206.127959 358.289566 
" style="fill:none;stroke:#0000ff;stroke-width:1.5;"/>
    <path clip-path="url(#p1ce96e73d7)" d="M 206.149666 337.702993 
L 206.149666 354.916568 
" style="fill:none;stroke:#0000ff;stroke-width:1.5;"/>
    <path clip-path="url(#p1ce96e73d7)" d="M 208.461441 342.400899 
L 208.461441 359.492602 
" style="fill:none;stroke:#0000ff;stroke-width:1.5;"/>
    <path clip-path="url(#p1ce96e73d7)" d="M 221.387845 345.878626 
L 221.387845 362.970329 
" style="fill:none;stroke:#0000ff;stroke-width:1.5;"/>
    <path clip-path="url(#p1ce96e73d7)" d="M 225.77262 348.627318 
L 225.77262 365.631435 
" style="fill:none;stroke:#0000ff;stroke-width:1.5;"/>
    <path clip-path="url(#p1ce96e73d7)" d="M 228.613499 347.836589 
L 228.613499 365.108356 
" style="fill:none;stroke:#0000ff;stroke-width:1.5;"/>
    <path clip-path="url(#p1ce96e73d7)" d="M 233.435124 351.332217 
L 233.435124 368.336334 
" style="fill:none;stroke:#0000ff;stroke-width:1.5;"/>
    <path clip-path="url(#p1ce96e73d7)" d="M 238.55793 355.196358 
L 238.55793 372.200475 
" style="fill:none;stroke:#0000ff;stroke-width:1.5;"/>
    <path clip-path="url(#p1ce96e73d7)" d="M 242.1287 354.241083 
L 242.1287 371.610094 
" style="fill:none;stroke:#0000ff;stroke-width:1.5;"/>
    <path clip-path="url(#p1ce96e73d7)" d="M 244.48009 358.160732 
L 244.48009 375.496011 
" style="fill:none;stroke:#0000ff;stroke-width:1.5;"/>
    <path clip-path="url(#p1ce96e73d7)" d="M 245.308747 360.219742 
L 245.308747 377.223859 
" style="fill:none;stroke:#0000ff;stroke-width:1.5;"/>
    <path clip-path="url(#p1ce96e73d7)" d="M 247.446868 362.494434 
L 247.446868 379.586137 
" style="fill:none;stroke:#0000ff;stroke-width:1.5;"/>
    <path clip-path="url(#p1ce96e73d7)" d="M 248.412821 362.047084 
L 248.412821 379.260659 
" style="fill:none;stroke:#0000ff;stroke-width:1.5;"/>
    <path clip-path="url(#p1ce96e73d7)" d="M 249.016379 360.664073 
L 249.016379 378.016054 
" style="fill:none;stroke:#0000ff;stroke-width:1.5;"/>
    <path clip-path="url(#p1ce96e73d7)" d="M 249.682669 364.470298 
L 249.682669 381.474415 
" style="fill:none;stroke:#0000ff;stroke-width:1.5;"/>
    <path clip-path="url(#p1ce96e73d7)" d="M 252.949544 365.243126 
L 252.949544 382.247243 
" style="fill:none;stroke:#0000ff;stroke-width:1.5;"/>
    <path clip-path="url(#p1ce96e73d7)" d="M 253.763549 366.663712 
L 253.763549 384.690798 
" style="fill:none;stroke:#0000ff;stroke-width:1.5;"/>
    <path clip-path="url(#p1ce96e73d7)" d="M 258.191738 374.473272 
L 258.191738 391.564975 
" style="fill:none;stroke:#0000ff;stroke-width:1.5;"/>
    <path clip-path="url(#p1ce96e73d7)" d="M 258.311125 375.571579 
L 258.311125 392.785153 
" style="fill:none;stroke:#0000ff;stroke-width:1.5;"/>
    <path clip-path="url(#p1ce96e73d7)" d="M 259.287932 375.289893 
L 259.287932 392.29401 
" style="fill:none;stroke:#0000ff;stroke-width:1.5;"/>
    <path clip-path="url(#p1ce96e73d7)" d="M 260.49266 376.83555 
L 260.49266 393.839667 
" style="fill:none;stroke:#0000ff;stroke-width:1.5;"/>
    <path clip-path="url(#p1ce96e73d7)" d="M 260.59034 379.049306 
L 260.59034 396.262881 
" style="fill:none;stroke:#0000ff;stroke-width:1.5;"/>
    <path clip-path="url(#p1ce96e73d7)" d="M 261.621414 378.767621 
L 261.621414 395.771737 
" style="fill:none;stroke:#0000ff;stroke-width:1.5;"/>
    <path clip-path="url(#p1ce96e73d7)" d="M 262.63078 381.428727 
L 262.63078 398.520429 
" style="fill:none;stroke:#0000ff;stroke-width:1.5;"/>
    <path clip-path="url(#p1ce96e73d7)" d="M 263.705267 387.611353 
L 263.705267 404.703056 
" style="fill:none;stroke:#0000ff;stroke-width:1.5;"/>
    <path clip-path="url(#p1ce96e73d7)" d="M 265.713147 386.777589 
L 265.713147 403.991163 
" style="fill:none;stroke:#0000ff;stroke-width:1.5;"/>
    <path clip-path="url(#p1ce96e73d7)" d="M 265.745707 391.723254 
L 265.745707 409.092265 
" style="fill:none;stroke:#0000ff;stroke-width:1.5;"/>
    <path clip-path="url(#p1ce96e73d7)" d="M 266.863608 389.543423 
L 266.863608 406.635126 
" style="fill:none;stroke:#0000ff;stroke-width:1.5;"/>
    <path clip-path="url(#p1ce96e73d7)" d="M 268.035775 390.564012 
L 268.035775 407.933022 
" style="fill:none;stroke:#0000ff;stroke-width:1.5;"/>
    <path clip-path="url(#p1ce96e73d7)" d="M 273.299676 415.476963 
L 273.299676 432.48108 
" style="fill:none;stroke:#0000ff;stroke-width:1.5;"/>
    <path clip-path="url(#p1ce96e73d7)" d="M 274.267909 421.671493 
L 274.267909 439.270065 
" style="fill:none;stroke:#0000ff;stroke-width:1.5;"/>
    <path clip-path="url(#p1ce96e73d7)" d="M 274.471844 420.500347 
L 274.471844 437.504464 
" style="fill:none;stroke:#0000ff;stroke-width:1.5;"/>
    <path clip-path="url(#p1ce96e73d7)" d="M 275.502917 425.910145 
L 275.502917 442.914262 
" style="fill:none;stroke:#0000ff;stroke-width:1.5;"/>
    <path clip-path="url(#p1ce96e73d7)" d="M 276.523137 430.889736 
L 276.523137 447.981439 
" style="fill:none;stroke:#0000ff;stroke-width:1.5;"/>
    <path clip-path="url(#p1ce96e73d7)" d="M 277.651891 437.84519 
L 277.651891 454.936893 
" style="fill:none;stroke:#0000ff;stroke-width:1.5;"/>
    <path clip-path="url(#p1ce96e73d7)" d="M 278.682965 439.048226 
L 278.682965 456.052342 
" style="fill:none;stroke:#0000ff;stroke-width:1.5;"/>
    <path clip-path="url(#p1ce96e73d7)" d="M 278.758939 435.386896 
L 278.758939 455.076702 
" style="fill:none;stroke:#0000ff;stroke-width:1.5;"/>
    <path clip-path="url(#p1ce96e73d7)" d="M 278.92174 439.695984 
L 278.92174 457.723069 
" style="fill:none;stroke:#0000ff;stroke-width:1.5;"/>
    <path clip-path="url(#p1ce96e73d7)" d="M 279.420128 446.096429 
L 279.420128 464.61527 
" style="fill:none;stroke:#0000ff;stroke-width:1.5;"/>
    <path clip-path="url(#p1ce96e73d7)" d="M 281.05986 443.96688 
L 281.05986 461.180455 
" style="fill:none;stroke:#0000ff;stroke-width:1.5;"/>
    <path clip-path="url(#p1ce96e73d7)" d="M 289.753437 451.413519 
L 289.753437 469.190382 
" style="fill:none;stroke:#0000ff;stroke-width:1.5;"/>
    <path clip-path="url(#p1ce96e73d7)" d="M 292.846657 458.325139 
L 292.846657 475.416842 
" style="fill:none;stroke:#0000ff;stroke-width:1.5;"/>
    <path clip-path="url(#p1ce96e73d7)" d="M 296.189505 452.296219 
L 296.189505 469.853338 
" style="fill:none;stroke:#0000ff;stroke-width:1.5;"/>
    <path clip-path="url(#p1ce96e73d7)" d="M 298.327626 454.472727 
L 298.327626 473.086628 
" style="fill:none;stroke:#0000ff;stroke-width:1.5;"/>
    <path clip-path="url(#p1ce96e73d7)" d="M 299.499794 459.870796 
L 299.499794 476.962499 
" style="fill:none;stroke:#0000ff;stroke-width:1.5;"/>
    <path clip-path="url(#p1ce96e73d7)" d="M 300.552574 451.535096 
L 300.552574 469.841633 
" style="fill:none;stroke:#0000ff;stroke-width:1.5;"/>
    <path clip-path="url(#p1ce96e73d7)" d="M 325.406869 463.982698 
L 325.406869 481.351708 
" style="fill:none;stroke:#0000ff;stroke-width:1.5;"/>
    <path clip-path="url(#p1ce96e73d7)" d="M 335.012132 463.209869 
L 335.012132 480.57888 
" style="fill:none;stroke:#0000ff;stroke-width:1.5;"/>
    <path clip-path="url(#p1ce96e73d7)" d="M 337.171959 466.82625 
L 337.171959 483.917953 
" style="fill:none;stroke:#0000ff;stroke-width:1.5;"/>
    <path clip-path="url(#p1ce96e73d7)" d="M 350.337138 466.765314 
L 350.337138 483.978889 
" style="fill:none;stroke:#0000ff;stroke-width:1.5;"/>
    <path clip-path="url(#p1ce96e73d7)" d="M 351.346505 469.144735 
L 351.346505 486.236438 
" style="fill:none;stroke:#0000ff;stroke-width:1.5;"/>
    <path clip-path="url(#p1ce96e73d7)" d="M 371.989679 475.266425 
L 371.989679 492.48 
" style="fill:none;stroke:#0000ff;stroke-width:1.5;"/>
   </g>
   <g id="LineCollection_2">
    <path clip-path="url(#p1ce96e73d7)" d="M 147.191696 181.095144 
L 147.191696 198.219838 
" style="fill:none;stroke:#32cd32;stroke-width:1.5;"/>
    <path clip-path="url(#p1ce96e73d7)" d="M 147.545951 176.098551 
L 147.545951 193.246945 
" style="fill:none;stroke:#32cd32;stroke-width:1.5;"/>
    <path clip-path="url(#p1ce96e73d7)" d="M 147.546711 179.35628 
L 147.546711 196.480974 
" style="fill:none;stroke:#32cd32;stroke-width:1.5;"/>
    <path clip-path="url(#p1ce96e73d7)" d="M 147.595551 181.877362 
L 147.595551 198.82871 
" style="fill:none;stroke:#32cd32;stroke-width:1.5;"/>
    <path clip-path="url(#p1ce96e73d7)" d="M 148.349646 175.055233 
L 148.349646 192.203627 
" style="fill:none;stroke:#32cd32;stroke-width:1.5;"/>
    <path clip-path="url(#p1ce96e73d7)" d="M 148.350406 174.879546 
L 148.350406 191.992901 
" style="fill:none;stroke:#32cd32;stroke-width:1.5;"/>
    <path clip-path="url(#p1ce96e73d7)" d="M 148.421278 176.169654 
L 148.421278 193.330408 
" style="fill:none;stroke:#32cd32;stroke-width:1.5;"/>
    <path clip-path="url(#p1ce96e73d7)" d="M 148.422038 174.99547 
L 148.422038 192.108825 
" style="fill:none;stroke:#32cd32;stroke-width:1.5;"/>
    <path clip-path="url(#p1ce96e73d7)" d="M 149.642395 173.58686 
L 149.642395 190.735253 
" style="fill:none;stroke:#32cd32;stroke-width:1.5;"/>
    <path clip-path="url(#p1ce96e73d7)" d="M 149.643154 171.324536 
L 149.643154 188.437891 
" style="fill:none;stroke:#32cd32;stroke-width:1.5;"/>
    <path clip-path="url(#p1ce96e73d7)" d="M 149.701112 174.122695 
L 149.701112 191.126812 
" style="fill:none;stroke:#32cd32;stroke-width:1.5;"/>
    <path clip-path="url(#p1ce96e73d7)" d="M 149.926428 169.883294 
L 149.926428 187.019668 
" style="fill:none;stroke:#32cd32;stroke-width:1.5;"/>
    <path clip-path="url(#p1ce96e73d7)" d="M 149.927188 170.634489 
L 149.927188 187.736847 
" style="fill:none;stroke:#32cd32;stroke-width:1.5;"/>
    <path clip-path="url(#p1ce96e73d7)" d="M 150.001968 167.758016 
L 150.001968 184.89439 
" style="fill:none;stroke:#32cd32;stroke-width:1.5;"/>
    <path clip-path="url(#p1ce96e73d7)" d="M 150.002728 170.319859 
L 150.002728 187.433214 
" style="fill:none;stroke:#32cd32;stroke-width:1.5;"/>
    <path clip-path="url(#p1ce96e73d7)" d="M 151.803633 172.163137 
L 151.803633 189.299511 
" style="fill:none;stroke:#32cd32;stroke-width:1.5;"/>
    <path clip-path="url(#p1ce96e73d7)" d="M 151.804393 169.243398 
L 151.804393 186.345756 
" style="fill:none;stroke:#32cd32;stroke-width:1.5;"/>
    <path clip-path="url(#p1ce96e73d7)" d="M 151.871792 172.577038 
L 151.871792 189.581155 
" style="fill:none;stroke:#32cd32;stroke-width:1.5;"/>
    <path clip-path="url(#p1ce96e73d7)" d="M 151.99118 171.44418 
L 151.99118 188.395529 
" style="fill:none;stroke:#32cd32;stroke-width:1.5;"/>
    <path clip-path="url(#p1ce96e73d7)" d="M 157.996585 173.973274 
L 157.996585 191.121668 
" style="fill:none;stroke:#32cd32;stroke-width:1.5;"/>
    <path clip-path="url(#p1ce96e73d7)" d="M 157.997345 171.523241 
L 157.997345 188.625599 
" style="fill:none;stroke:#32cd32;stroke-width:1.5;"/>
    <path clip-path="url(#p1ce96e73d7)" d="M 158.503222 175.668352 
L 158.503222 192.672468 
" style="fill:none;stroke:#32cd32;stroke-width:1.5;"/>
    <path clip-path="url(#p1ce96e73d7)" d="M 160.02487 172.279062 
L 160.02487 189.415435 
" style="fill:none;stroke:#32cd32;stroke-width:1.5;"/>
    <path clip-path="url(#p1ce96e73d7)" d="M 160.025629 174.029435 
L 160.025629 191.142789 
" style="fill:none;stroke:#32cd32;stroke-width:1.5;"/>
    <path clip-path="url(#p1ce96e73d7)" d="M 161.68327 176.467564 
L 161.68327 193.418912 
" style="fill:none;stroke:#32cd32;stroke-width:1.5;"/>
    <path clip-path="url(#p1ce96e73d7)" d="M 161.71583 176.853978 
L 161.71583 193.805326 
" style="fill:none;stroke:#32cd32;stroke-width:1.5;"/>
    <path clip-path="url(#p1ce96e73d7)" d="M 162.910573 173.694621 
L 162.910573 190.936624 
" style="fill:none;stroke:#32cd32;stroke-width:1.5;"/>
    <path clip-path="url(#p1ce96e73d7)" d="M 163.123191 175.828061 
L 163.123191 192.976455 
" style="fill:none;stroke:#32cd32;stroke-width:1.5;"/>
    <path clip-path="url(#p1ce96e73d7)" d="M 163.123951 175.034111 
L 163.123951 192.147466 
" style="fill:none;stroke:#32cd32;stroke-width:1.5;"/>
    <path clip-path="url(#p1ce96e73d7)" d="M 164.830757 178.786049 
L 164.830757 195.737397 
" style="fill:none;stroke:#32cd32;stroke-width:1.5;"/>
    <path clip-path="url(#p1ce96e73d7)" d="M 164.950144 177.240393 
L 164.950144 194.191741 
" style="fill:none;stroke:#32cd32;stroke-width:1.5;"/>
    <path clip-path="url(#p1ce96e73d7)" d="M 165.064973 173.469963 
L 165.064973 190.697584 
" style="fill:none;stroke:#32cd32;stroke-width:1.5;"/>
    <path clip-path="url(#p1ce96e73d7)" d="M 166.068045 177.600422 
L 166.068045 194.604539 
" style="fill:none;stroke:#32cd32;stroke-width:1.5;"/>
    <path clip-path="url(#p1ce96e73d7)" d="M 167.837258 172.619852 
L 167.837258 189.847473 
" style="fill:none;stroke:#32cd32;stroke-width:1.5;"/>
    <path clip-path="url(#p1ce96e73d7)" d="M 169.826145 174.242791 
L 169.826145 191.470413 
" style="fill:none;stroke:#32cd32;stroke-width:1.5;"/>
    <path clip-path="url(#p1ce96e73d7)" d="M 171.734607 175.711165 
L 171.734607 192.938786 
" style="fill:none;stroke:#32cd32;stroke-width:1.5;"/>
    <path clip-path="url(#p1ce96e73d7)" d="M 173.54604 179.172463 
L 173.54604 196.123811 
" style="fill:none;stroke:#32cd32;stroke-width:1.5;"/>
    <path clip-path="url(#p1ce96e73d7)" d="M 173.556894 176.827594 
L 173.556894 193.831711 
" style="fill:none;stroke:#32cd32;stroke-width:1.5;"/>
    <path clip-path="url(#p1ce96e73d7)" d="M 174.43298 176.631368 
L 174.43298 193.873371 
" style="fill:none;stroke:#32cd32;stroke-width:1.5;"/>
    <path clip-path="url(#p1ce96e73d7)" d="M 175.792695 180.691735 
L 175.792695 197.695852 
" style="fill:none;stroke:#32cd32;stroke-width:1.5;"/>
    <path clip-path="url(#p1ce96e73d7)" d="M 176.170068 176.638559 
L 176.170068 193.86618 
" style="fill:none;stroke:#32cd32;stroke-width:1.5;"/>
    <path clip-path="url(#p1ce96e73d7)" d="M 177.898255 181.104534 
L 177.898255 198.055882 
" style="fill:none;stroke:#32cd32;stroke-width:1.5;"/>
    <path clip-path="url(#p1ce96e73d7)" d="M 177.985082 179.4887 
L 177.985082 196.580403 
" style="fill:none;stroke:#32cd32;stroke-width:1.5;"/>
    <path clip-path="url(#p1ce96e73d7)" d="M 181.113142 178.370232 
L 181.113142 195.612235 
" style="fill:none;stroke:#32cd32;stroke-width:1.5;"/>
    <path clip-path="url(#p1ce96e73d7)" d="M 183.236285 181.036489 
L 183.236285 198.278492 
" style="fill:none;stroke:#32cd32;stroke-width:1.5;"/>
    <path clip-path="url(#p1ce96e73d7)" d="M 183.476905 183.809433 
L 183.476905 200.760781 
" style="fill:none;stroke:#32cd32;stroke-width:1.5;"/>
    <path clip-path="url(#p1ce96e73d7)" d="M 184.470317 182.550489 
L 184.470317 199.484848 
" style="fill:none;stroke:#32cd32;stroke-width:1.5;"/>
    <path clip-path="url(#p1ce96e73d7)" d="M 185.560758 184.169463 
L 185.560758 201.173579 
" style="fill:none;stroke:#32cd32;stroke-width:1.5;"/>
    <path clip-path="url(#p1ce96e73d7)" d="M 188.664832 184.968675 
L 188.664832 201.920023 
" style="fill:none;stroke:#32cd32;stroke-width:1.5;"/>
    <path clip-path="url(#p1ce96e73d7)" d="M 188.81678 184.555877 
L 188.81678 201.559994 
" style="fill:none;stroke:#32cd32;stroke-width:1.5;"/>
    <path clip-path="url(#p1ce96e73d7)" d="M 189.999801 185.328705 
L 189.999801 202.332822 
" style="fill:none;stroke:#32cd32;stroke-width:1.5;"/>
    <path clip-path="url(#p1ce96e73d7)" d="M 190.944047 185.355089 
L 190.944047 202.306437 
" style="fill:none;stroke:#32cd32;stroke-width:1.5;"/>
    <path clip-path="url(#p1ce96e73d7)" d="M 191.953413 185.355089 
L 191.953413 202.306437 
" style="fill:none;stroke:#32cd32;stroke-width:1.5;"/>
    <path clip-path="url(#p1ce96e73d7)" d="M 193.0279 185.715119 
L 193.0279 202.719236 
" style="fill:none;stroke:#32cd32;stroke-width:1.5;"/>
    <path clip-path="url(#p1ce96e73d7)" d="M 194.102387 186.127918 
L 194.102387 203.079266 
" style="fill:none;stroke:#32cd32;stroke-width:1.5;"/>
    <path clip-path="url(#p1ce96e73d7)" d="M 195.166021 186.127918 
L 195.166021 203.079266 
" style="fill:none;stroke:#32cd32;stroke-width:1.5;"/>
    <path clip-path="url(#p1ce96e73d7)" d="M 196.262215 185.715119 
L 196.262215 202.719236 
" style="fill:none;stroke:#32cd32;stroke-width:1.5;"/>
    <path clip-path="url(#p1ce96e73d7)" d="M 197.336702 185.328705 
L 197.336702 202.332822 
" style="fill:none;stroke:#32cd32;stroke-width:1.5;"/>
    <path clip-path="url(#p1ce96e73d7)" d="M 197.477796 185.715119 
L 197.477796 202.719236 
" style="fill:none;stroke:#32cd32;stroke-width:1.5;"/>
    <path clip-path="url(#p1ce96e73d7)" d="M 203.870451 187.260776 
L 203.870451 204.264892 
" style="fill:none;stroke:#32cd32;stroke-width:1.5;"/>
    <path clip-path="url(#p1ce96e73d7)" d="M 206.127959 187.673574 
L 206.127959 204.624922 
" style="fill:none;stroke:#32cd32;stroke-width:1.5;"/>
    <path clip-path="url(#p1ce96e73d7)" d="M 206.149666 186.830568 
L 206.149666 203.922271 
" style="fill:none;stroke:#32cd32;stroke-width:1.5;"/>
    <path clip-path="url(#p1ce96e73d7)" d="M 208.461441 187.64719 
L 208.461441 204.651307 
" style="fill:none;stroke:#32cd32;stroke-width:1.5;"/>
    <path clip-path="url(#p1ce96e73d7)" d="M 221.387845 188.376225 
L 221.387845 205.467928 
" style="fill:none;stroke:#32cd32;stroke-width:1.5;"/>
    <path clip-path="url(#p1ce96e73d7)" d="M 225.77262 189.57926 
L 225.77262 206.583377 
" style="fill:none;stroke:#32cd32;stroke-width:1.5;"/>
    <path clip-path="url(#p1ce96e73d7)" d="M 228.619468 187.760095 
L 228.619468 205.002098 
" style="fill:none;stroke:#32cd32;stroke-width:1.5;"/>
    <path clip-path="url(#p1ce96e73d7)" d="M 232.100155 191.511331 
L 232.100155 208.515448 
" style="fill:none;stroke:#32cd32;stroke-width:1.5;"/>
    <path clip-path="url(#p1ce96e73d7)" d="M 233.435124 191.124917 
L 233.435124 208.129034 
" style="fill:none;stroke:#32cd32;stroke-width:1.5;"/>
    <path clip-path="url(#p1ce96e73d7)" d="M 238.55793 192.670573 
L 238.55793 209.67469 
" style="fill:none;stroke:#32cd32;stroke-width:1.5;"/>
    <path clip-path="url(#p1ce96e73d7)" d="M 242.1287 193.443402 
L 242.1287 210.447519 
" style="fill:none;stroke:#32cd32;stroke-width:1.5;"/>
    <path clip-path="url(#p1ce96e73d7)" d="M 245.240371 197.69915 
L 245.240371 215.002012 
" style="fill:none;stroke:#32cd32;stroke-width:1.5;"/>
    <path clip-path="url(#p1ce96e73d7)" d="M 245.308747 196.561099 
L 245.308747 213.512447 
" style="fill:none;stroke:#32cd32;stroke-width:1.5;"/>
    <path clip-path="url(#p1ce96e73d7)" d="M 247.446868 198.106756 
L 247.446868 215.058104 
" style="fill:none;stroke:#32cd32;stroke-width:1.5;"/>
    <path clip-path="url(#p1ce96e73d7)" d="M 248.412821 199.239614 
L 248.412821 216.243731 
" style="fill:none;stroke:#32cd32;stroke-width:1.5;"/>
    <path clip-path="url(#p1ce96e73d7)" d="M 249.018875 196.470482 
L 249.018875 213.757631 
" style="fill:none;stroke:#32cd32;stroke-width:1.5;"/>
    <path clip-path="url(#p1ce96e73d7)" d="M 249.682669 199.652412 
L 249.682669 216.60376 
" style="fill:none;stroke:#32cd32;stroke-width:1.5;"/>
    <path clip-path="url(#p1ce96e73d7)" d="M 252.949544 201.171684 
L 252.949544 218.175801 
" style="fill:none;stroke:#32cd32;stroke-width:1.5;"/>
    <path clip-path="url(#p1ce96e73d7)" d="M 253.763549 202.717341 
L 253.763549 219.721458 
" style="fill:none;stroke:#32cd32;stroke-width:1.5;"/>
    <path clip-path="url(#p1ce96e73d7)" d="M 258.191738 207.740725 
L 258.191738 224.744842 
" style="fill:none;stroke:#32cd32;stroke-width:1.5;"/>
    <path clip-path="url(#p1ce96e73d7)" d="M 258.311125 208.153523 
L 258.311125 225.104871 
" style="fill:none;stroke:#32cd32;stroke-width:1.5;"/>
    <path clip-path="url(#p1ce96e73d7)" d="M 259.287932 210.085594 
L 259.287932 227.036942 
" style="fill:none;stroke:#32cd32;stroke-width:1.5;"/>
    <path clip-path="url(#p1ce96e73d7)" d="M 260.49266 210.858422 
L 260.49266 227.80977 
" style="fill:none;stroke:#32cd32;stroke-width:1.5;"/>
    <path clip-path="url(#p1ce96e73d7)" d="M 260.59034 210.858422 
L 260.59034 227.80977 
" style="fill:none;stroke:#32cd32;stroke-width:1.5;"/>
    <path clip-path="url(#p1ce96e73d7)" d="M 261.621414 213.150523 
L 261.621414 230.154639 
" style="fill:none;stroke:#32cd32;stroke-width:1.5;"/>
    <path clip-path="url(#p1ce96e73d7)" d="M 262.63078 215.108978 
L 262.63078 232.060326 
" style="fill:none;stroke:#32cd32;stroke-width:1.5;"/>
    <path clip-path="url(#p1ce96e73d7)" d="M 263.61844 215.082593 
L 263.61844 232.08671 
" style="fill:none;stroke:#32cd32;stroke-width:1.5;"/>
    <path clip-path="url(#p1ce96e73d7)" d="M 263.705267 216.26822 
L 263.705267 233.219568 
" style="fill:none;stroke:#32cd32;stroke-width:1.5;"/>
    <path clip-path="url(#p1ce96e73d7)" d="M 265.713147 218.173906 
L 265.713147 235.178023 
" style="fill:none;stroke:#32cd32;stroke-width:1.5;"/>
    <path clip-path="url(#p1ce96e73d7)" d="M 265.745707 221.221426 
L 265.745707 238.313129 
" style="fill:none;stroke:#32cd32;stroke-width:1.5;"/>
    <path clip-path="url(#p1ce96e73d7)" d="M 265.937053 222.203779 
L 265.937053 239.139195 
" style="fill:none;stroke:#32cd32;stroke-width:1.5;"/>
    <path clip-path="url(#p1ce96e73d7)" d="M 266.863608 220.878805 
L 266.863608 237.882922 
" style="fill:none;stroke:#32cd32;stroke-width:1.5;"/>
    <path clip-path="url(#p1ce96e73d7)" d="M 268.035775 220.696358 
L 268.035775 238.065369 
" style="fill:none;stroke:#32cd32;stroke-width:1.5;"/>
    <path clip-path="url(#p1ce96e73d7)" d="M 273.299676 245.24928 
L 273.299676 262.200628 
" style="fill:none;stroke:#32cd32;stroke-width:1.5;"/>
    <path clip-path="url(#p1ce96e73d7)" d="M 274.273769 251.002812 
L 274.273769 268.5805 
" style="fill:none;stroke:#32cd32;stroke-width:1.5;"/>
    <path clip-path="url(#p1ce96e73d7)" d="M 274.471844 250.272664 
L 274.471844 267.224012 
" style="fill:none;stroke:#32cd32;stroke-width:1.5;"/>
    <path clip-path="url(#p1ce96e73d7)" d="M 275.502917 255.296048 
L 275.502917 272.247396 
" style="fill:none;stroke:#32cd32;stroke-width:1.5;"/>
    <path clip-path="url(#p1ce96e73d7)" d="M 276.523137 259.933017 
L 276.523137 276.884365 
" style="fill:none;stroke:#32cd32;stroke-width:1.5;"/>
    <path clip-path="url(#p1ce96e73d7)" d="M 277.651891 264.956401 
L 277.651891 281.907749 
" style="fill:none;stroke:#32cd32;stroke-width:1.5;"/>
    <path clip-path="url(#p1ce96e73d7)" d="M 278.682965 268.820542 
L 278.682965 285.77189 
" style="fill:none;stroke:#32cd32;stroke-width:1.5;"/>
    <path clip-path="url(#p1ce96e73d7)" d="M 278.758939 268.225297 
L 278.758939 285.594308 
" style="fill:none;stroke:#32cd32;stroke-width:1.5;"/>
    <path clip-path="url(#p1ce96e73d7)" d="M 278.92174 264.361156 
L 278.92174 281.730166 
" style="fill:none;stroke:#32cd32;stroke-width:1.5;"/>
    <path clip-path="url(#p1ce96e73d7)" d="M 279.424361 273.705651 
L 279.424361 291.706378 
" style="fill:none;stroke:#32cd32;stroke-width:1.5;"/>
    <path clip-path="url(#p1ce96e73d7)" d="M 281.05986 270.214744 
L 281.05986 288.24183 
" style="fill:none;stroke:#32cd32;stroke-width:1.5;"/>
    <path clip-path="url(#p1ce96e73d7)" d="M 283.219688 271.31661 
L 283.219688 288.685621 
" style="fill:none;stroke:#32cd32;stroke-width:1.5;"/>
    <path clip-path="url(#p1ce96e73d7)" d="M 284.174787 273.044713 
L 284.174787 290.04883 
" style="fill:none;stroke:#32cd32;stroke-width:1.5;"/>
    <path clip-path="url(#p1ce96e73d7)" d="M 289.471248 281.82751 
L 289.471248 299.041084 
" style="fill:none;stroke:#32cd32;stroke-width:1.5;"/>
    <path clip-path="url(#p1ce96e73d7)" d="M 289.753437 277.963368 
L 289.753437 295.176943 
" style="fill:none;stroke:#32cd32;stroke-width:1.5;"/>
    <path clip-path="url(#p1ce96e73d7)" d="M 291.73961 278.658479 
L 291.73961 296.027489 
" style="fill:none;stroke:#32cd32;stroke-width:1.5;"/>
    <path clip-path="url(#p1ce96e73d7)" d="M 292.846657 282.731451 
L 292.846657 299.682799 
" style="fill:none;stroke:#32cd32;stroke-width:1.5;"/>
    <path clip-path="url(#p1ce96e73d7)" d="M 293.834317 281.655738 
L 293.834317 299.212856 
" style="fill:none;stroke:#32cd32;stroke-width:1.5;"/>
    <path clip-path="url(#p1ce96e73d7)" d="M 296.189505 282.136206 
L 296.189505 299.505216 
" style="fill:none;stroke:#32cd32;stroke-width:1.5;"/>
    <path clip-path="url(#p1ce96e73d7)" d="M 298.327626 281.655738 
L 298.327626 299.212856 
" style="fill:none;stroke:#32cd32;stroke-width:1.5;"/>
    <path clip-path="url(#p1ce96e73d7)" d="M 299.499794 285.023552 
L 299.499794 302.027668 
" style="fill:none;stroke:#32cd32;stroke-width:1.5;"/>
    <path clip-path="url(#p1ce96e73d7)" d="M 300.552574 281.269323 
L 300.552574 298.826442 
" style="fill:none;stroke:#32cd32;stroke-width:1.5;"/>
    <path clip-path="url(#p1ce96e73d7)" d="M 316.561345 285.14517 
L 316.561345 303.451707 
" style="fill:none;stroke:#32cd32;stroke-width:1.5;"/>
    <path clip-path="url(#p1ce96e73d7)" d="M 325.406869 292.751834 
L 325.406869 309.755951 
" style="fill:none;stroke:#32cd32;stroke-width:1.5;"/>
    <path clip-path="url(#p1ce96e73d7)" d="M 335.012132 298.890667 
L 335.012132 315.98237 
" style="fill:none;stroke:#32cd32;stroke-width:1.5;"/>
    <path clip-path="url(#p1ce96e73d7)" d="M 337.171959 299.733673 
L 337.171959 316.685021 
" style="fill:none;stroke:#32cd32;stroke-width:1.5;"/>
    <path clip-path="url(#p1ce96e73d7)" d="M 349.197531 304.730672 
L 349.197531 321.734789 
" style="fill:none;stroke:#32cd32;stroke-width:1.5;"/>
    <path clip-path="url(#p1ce96e73d7)" d="M 350.337138 305.503501 
L 350.337138 322.507618 
" style="fill:none;stroke:#32cd32;stroke-width:1.5;"/>
    <path clip-path="url(#p1ce96e73d7)" d="M 351.346505 305.889915 
L 351.346505 322.894032 
" style="fill:none;stroke:#32cd32;stroke-width:1.5;"/>
    <path clip-path="url(#p1ce96e73d7)" d="M 371.989679 309.367642 
L 371.989679 326.371759 
" style="fill:none;stroke:#32cd32;stroke-width:1.5;"/>
   </g>
   <g id="LineCollection_3">
    <path clip-path="url(#p1ce96e73d7)" d="M 174.699757 89.28 
L 174.699757 112.207197 
" style="fill:none;stroke:#cd5c5c;stroke-width:1.5;"/>
    <path clip-path="url(#p1ce96e73d7)" d="M 174.700842 91.890323 
L 174.700842 108.824045 
" style="fill:none;stroke:#cd5c5c;stroke-width:1.5;"/>
    <path clip-path="url(#p1ce96e73d7)" d="M 174.781158 91.890323 
L 174.781158 108.824045 
" style="fill:none;stroke:#cd5c5c;stroke-width:1.5;"/>
    <path clip-path="url(#p1ce96e73d7)" d="M 205.895696 96.913707 
L 205.895696 113.847429 
" style="fill:none;stroke:#cd5c5c;stroke-width:1.5;"/>
    <path clip-path="url(#p1ce96e73d7)" d="M 247.373065 104.255576 
L 247.373065 121.189297 
" style="fill:none;stroke:#cd5c5c;stroke-width:1.5;"/>
    <path clip-path="url(#p1ce96e73d7)" d="M 247.45338 104.64199 
L 247.45338 121.575712 
" style="fill:none;stroke:#cd5c5c;stroke-width:1.5;"/>
    <path clip-path="url(#p1ce96e73d7)" d="M 271.057363 135.55512 
L 271.057363 152.488842 
" style="fill:none;stroke:#cd5c5c;stroke-width:1.5;"/>
    <path clip-path="url(#p1ce96e73d7)" d="M 337.131801 189.653099 
L 337.131801 206.586821 
" style="fill:none;stroke:#cd5c5c;stroke-width:1.5;"/>
    <path clip-path="url(#p1ce96e73d7)" d="M 406.271241 212.837947 
L 406.271241 229.771669 
" style="fill:none;stroke:#cd5c5c;stroke-width:1.5;"/>
    <path clip-path="url(#p1ce96e73d7)" d="M 439.900513 226.362442 
L 439.900513 243.296164 
" style="fill:none;stroke:#cd5c5c;stroke-width:1.5;"/>
    <path clip-path="url(#p1ce96e73d7)" d="M 478.221712 241.819007 
L 478.221712 258.752729 
" style="fill:none;stroke:#cd5c5c;stroke-width:1.5;"/>
    <path clip-path="url(#p1ce96e73d7)" d="M 478.412732 241.819007 
L 478.412732 258.752729 
" style="fill:none;stroke:#cd5c5c;stroke-width:1.5;"/>
    <path clip-path="url(#p1ce96e73d7)" d="M 510.966432 256.11633 
L 510.966432 273.050052 
" style="fill:none;stroke:#cd5c5c;stroke-width:1.5;"/>
    <path clip-path="url(#p1ce96e73d7)" d="M 511.046747 256.502745 
L 511.046747 273.436466 
" style="fill:none;stroke:#cd5c5c;stroke-width:1.5;"/>
    <path clip-path="url(#p1ce96e73d7)" d="M 548.475796 272.732138 
L 548.475796 289.66586 
" style="fill:none;stroke:#cd5c5c;stroke-width:1.5;"/>
    <path clip-path="url(#p1ce96e73d7)" d="M 548.666816 271.572896 
L 548.666816 288.506618 
" style="fill:none;stroke:#cd5c5c;stroke-width:1.5;"/>
    <path clip-path="url(#p1ce96e73d7)" d="M 586.091524 291.280017 
L 586.091524 308.213739 
" style="fill:none;stroke:#cd5c5c;stroke-width:1.5;"/>
    <path clip-path="url(#p1ce96e73d7)" d="M 586.171839 288.961532 
L 586.171839 305.895254 
" style="fill:none;stroke:#cd5c5c;stroke-width:1.5;"/>
    <path clip-path="url(#p1ce96e73d7)" d="M 615.469518 304.031683 
L 615.469518 320.965405 
" style="fill:none;stroke:#cd5c5c;stroke-width:1.5;"/>
    <path clip-path="url(#p1ce96e73d7)" d="M 657.4863 322.965976 
L 657.4863 339.899698 
" style="fill:none;stroke:#cd5c5c;stroke-width:1.5;"/>
    <path clip-path="url(#p1ce96e73d7)" d="M 680.547613 337.649713 
L 680.547613 354.583435 
" style="fill:none;stroke:#cd5c5c;stroke-width:1.5;"/>
    <path clip-path="url(#p1ce96e73d7)" d="M 722.557884 359.288904 
L 722.557884 376.222626 
" style="fill:none;stroke:#cd5c5c;stroke-width:1.5;"/>
    <path clip-path="url(#p1ce96e73d7)" d="M 747.163636 374.74547 
L 747.163636 391.679192 
" style="fill:none;stroke:#cd5c5c;stroke-width:1.5;"/>
   </g>
   <g id="line2d_13"/>
   <g id="line2d_14"/>
   <g id="line2d_15"/>
   <g id="patch_3">
    <path d="M 108 512.64 
L 108 69.12 
" style="fill:none;stroke:#000000;stroke-linecap:square;stroke-linejoin:miter;stroke-width:0.8;"/>
   </g>
   <g id="patch_4">
    <path d="M 777.6 512.64 
L 777.6 69.12 
" style="fill:none;stroke:#000000;stroke-linecap:square;stroke-linejoin:miter;stroke-width:0.8;"/>
   </g>
   <g id="patch_5">
    <path d="M 108 512.64 
L 777.6 512.64 
" style="fill:none;stroke:#000000;stroke-linecap:square;stroke-linejoin:miter;stroke-width:0.8;"/>
   </g>
   <g id="patch_6">
    <path d="M 108 69.12 
L 777.6 69.12 
" style="fill:none;stroke:#000000;stroke-linecap:square;stroke-linejoin:miter;stroke-width:0.8;"/>
   </g>
   <g id="text_15">
    <!-- Light-curve over time - SN2017eaw -->
    <defs>
     <path d="M 7.328125 0 
L 7.328125 71.578125 
L 16.796875 71.578125 
L 16.796875 8.453125 
L 52.046875 8.453125 
L 52.046875 0 
z
" id="ArialMT-76"/>
     <path d="M 6.59375 0 
L 6.59375 71.578125 
L 15.375 71.578125 
L 15.375 45.90625 
Q 21.53125 53.03125 30.90625 53.03125 
Q 36.671875 53.03125 40.921875 50.75 
Q 45.171875 48.484375 47 44.484375 
Q 48.828125 40.484375 48.828125 32.859375 
L 48.828125 0 
L 40.046875 0 
L 40.046875 32.859375 
Q 40.046875 39.453125 37.1875 42.453125 
Q 34.328125 45.453125 29.109375 45.453125 
Q 25.203125 45.453125 21.75 43.421875 
Q 18.3125 41.40625 16.84375 37.9375 
Q 15.375 34.46875 15.375 28.375 
L 15.375 0 
z
" id="ArialMT-104"/>
     <path d="M 4.5 23 
L 13.421875 23.78125 
Q 14.0625 18.40625 16.375 14.96875 
Q 18.703125 11.53125 23.578125 9.40625 
Q 28.46875 7.28125 34.578125 7.28125 
Q 39.984375 7.28125 44.140625 8.890625 
Q 48.296875 10.5 50.3125 13.296875 
Q 52.34375 16.109375 52.34375 19.4375 
Q 52.34375 22.796875 50.390625 25.3125 
Q 48.4375 27.828125 43.953125 29.546875 
Q 41.0625 30.671875 31.203125 33.03125 
Q 21.34375 35.40625 17.390625 37.5 
Q 12.25 40.1875 9.734375 44.15625 
Q 7.234375 48.140625 7.234375 53.078125 
Q 7.234375 58.5 10.296875 63.203125 
Q 13.375 67.921875 19.28125 70.359375 
Q 25.203125 72.796875 32.421875 72.796875 
Q 40.375 72.796875 46.453125 70.234375 
Q 52.546875 67.671875 55.8125 62.6875 
Q 59.078125 57.71875 59.328125 51.421875 
L 50.25 50.734375 
Q 49.515625 57.515625 45.28125 60.984375 
Q 41.0625 64.453125 32.8125 64.453125 
Q 24.21875 64.453125 20.28125 61.296875 
Q 16.359375 58.15625 16.359375 53.71875 
Q 16.359375 49.859375 19.140625 47.359375 
Q 21.875 44.875 33.421875 42.265625 
Q 44.96875 39.65625 49.265625 37.703125 
Q 55.515625 34.8125 58.484375 30.390625 
Q 61.46875 25.984375 61.46875 20.21875 
Q 61.46875 14.5 58.203125 9.4375 
Q 54.9375 4.390625 48.796875 1.578125 
Q 42.671875 -1.21875 35.015625 -1.21875 
Q 25.296875 -1.21875 18.71875 1.609375 
Q 12.15625 4.4375 8.421875 10.125 
Q 4.6875 15.828125 4.5 23 
z
" id="ArialMT-83"/>
     <path d="M 7.625 0 
L 7.625 71.578125 
L 17.328125 71.578125 
L 54.9375 15.375 
L 54.9375 71.578125 
L 64.015625 71.578125 
L 64.015625 0 
L 54.296875 0 
L 16.703125 56.25 
L 16.703125 0 
z
" id="ArialMT-78"/>
     <path d="M 4.734375 62.203125 
L 4.734375 70.65625 
L 51.078125 70.65625 
L 51.078125 63.8125 
Q 44.234375 56.546875 37.515625 44.484375 
Q 30.8125 32.421875 27.15625 19.671875 
Q 24.515625 10.6875 23.78125 0 
L 14.75 0 
Q 14.890625 8.453125 18.0625 20.40625 
Q 21.234375 32.375 27.171875 43.484375 
Q 33.109375 54.59375 39.796875 62.203125 
z
" id="ArialMT-55"/>
     <path d="M 16.15625 0 
L 0.296875 51.859375 
L 9.375 51.859375 
L 17.625 21.921875 
L 20.703125 10.796875 
Q 20.90625 11.625 23.390625 21.484375 
L 31.640625 51.859375 
L 40.671875 51.859375 
L 48.4375 21.78125 
L 51.03125 11.859375 
L 54 21.875 
L 62.890625 51.859375 
L 71.4375 51.859375 
L 55.21875 0 
L 46.09375 0 
L 37.84375 31.0625 
L 35.84375 39.890625 
L 25.34375 0 
z
" id="ArialMT-119"/>
    </defs>
    <g transform="translate(286.071875 41.731875)scale(0.2 -0.2)">
     <use xlink:href="#ArialMT-76"/>
     <use x="55.615234" xlink:href="#ArialMT-105"/>
     <use x="77.832031" xlink:href="#ArialMT-103"/>
     <use x="133.447266" xlink:href="#ArialMT-104"/>
     <use x="189.0625" xlink:href="#ArialMT-116"/>
     <use x="216.845703" xlink:href="#ArialMT-45"/>
     <use x="250.146484" xlink:href="#ArialMT-99"/>
     <use x="300.146484" xlink:href="#ArialMT-117"/>
     <use x="355.761719" xlink:href="#ArialMT-114"/>
     <use x="389.0625" xlink:href="#ArialMT-118"/>
     <use x="439.0625" xlink:href="#ArialMT-101"/>
     <use x="494.677734" xlink:href="#ArialMT-32"/>
     <use x="522.460938" xlink:href="#ArialMT-111"/>
     <use x="578.076172" xlink:href="#ArialMT-118"/>
     <use x="628.076172" xlink:href="#ArialMT-101"/>
     <use x="683.691406" xlink:href="#ArialMT-114"/>
     <use x="716.992188" xlink:href="#ArialMT-32"/>
     <use x="744.775391" xlink:href="#ArialMT-116"/>
     <use x="772.558594" xlink:href="#ArialMT-105"/>
     <use x="794.775391" xlink:href="#ArialMT-109"/>
     <use x="878.076172" xlink:href="#ArialMT-101"/>
     <use x="933.691406" xlink:href="#ArialMT-32"/>
     <use x="961.474609" xlink:href="#ArialMT-45"/>
     <use x="994.775391" xlink:href="#ArialMT-32"/>
     <use x="1022.558594" xlink:href="#ArialMT-83"/>
     <use x="1089.257812" xlink:href="#ArialMT-78"/>
     <use x="1161.474609" xlink:href="#ArialMT-50"/>
     <use x="1217.089844" xlink:href="#ArialMT-48"/>
     <use x="1272.705078" xlink:href="#ArialMT-49"/>
     <use x="1328.320312" xlink:href="#ArialMT-55"/>
     <use x="1383.935547" xlink:href="#ArialMT-101"/>
     <use x="1439.550781" xlink:href="#ArialMT-97"/>
     <use x="1495.166016" xlink:href="#ArialMT-119"/>
    </g>
    <!--  -->
    <g transform="translate(442.8 63.12)scale(0.2 -0.2)"/>
   </g>
  </g>
  <g id="axes_2">
   <g id="matplotlib.axis_3">
    <g id="ytick_7">
     <g id="line2d_16">
      <defs>
       <path d="M 0 0 
L 3.5 0 
" id="mf870f41b53" style="stroke:#000000;stroke-width:0.8;"/>
      </defs>
      <g>
       <use style="stroke:#000000;stroke-width:0.8;" x="777.6" xlink:href="#mf870f41b53" y="79.825044"/>
      </g>
     </g>
     <g id="text_16">
      <!-- 19 -->
      <defs>
       <path d="M 52.828125 31.203125 
L 5.5625 31.203125 
L 5.5625 39.40625 
L 52.828125 39.40625 
z
" id="ArialMT-8722"/>
       <path d="M 5.46875 16.546875 
L 13.921875 17.328125 
Q 14.984375 11.375 18.015625 8.6875 
Q 21.046875 6 25.78125 6 
Q 29.828125 6 32.875 7.859375 
Q 35.9375 9.71875 37.890625 12.8125 
Q 39.84375 15.921875 41.15625 21.1875 
Q 42.484375 26.46875 42.484375 31.9375 
Q 42.484375 32.515625 42.4375 33.6875 
Q 39.796875 29.5 35.234375 26.875 
Q 30.671875 24.265625 25.34375 24.265625 
Q 16.453125 24.265625 10.296875 30.703125 
Q 4.15625 37.15625 4.15625 47.703125 
Q 4.15625 58.59375 10.578125 65.234375 
Q 17 71.875 26.65625 71.875 
Q 33.640625 71.875 39.421875 68.109375 
Q 45.21875 64.359375 48.21875 57.390625 
Q 51.21875 50.4375 51.21875 37.25 
Q 51.21875 23.53125 48.234375 15.40625 
Q 45.265625 7.28125 39.375 3.03125 
Q 33.5 -1.21875 25.59375 -1.21875 
Q 17.1875 -1.21875 11.859375 3.4375 
Q 6.546875 8.109375 5.46875 16.546875 
z
M 41.453125 48.140625 
Q 41.453125 55.71875 37.421875 60.15625 
Q 33.40625 64.59375 27.734375 64.59375 
Q 21.875 64.59375 17.53125 59.8125 
Q 13.1875 55.03125 13.1875 47.40625 
Q 13.1875 40.578125 17.3125 36.296875 
Q 21.4375 32.03125 27.484375 32.03125 
Q 33.59375 32.03125 37.515625 36.296875 
Q 41.453125 40.578125 41.453125 48.140625 
z
" id="ArialMT-57"/>
      </defs>
      <g transform="translate(784.6 86.982856)scale(0.2 -0.2)">
       <use xlink:href="#ArialMT-8722"/>
       <use x="58.398438" xlink:href="#ArialMT-49"/>
       <use x="114.013672" xlink:href="#ArialMT-57"/>
      </g>
     </g>
    </g>
    <g id="ytick_8">
     <g id="line2d_17">
      <g>
       <use style="stroke:#000000;stroke-width:0.8;" x="777.6" xlink:href="#mf870f41b53" y="117.268691"/>
      </g>
     </g>
     <g id="text_17">
      <!-- 18 -->
      <g transform="translate(784.6 124.426504)scale(0.2 -0.2)">
       <use xlink:href="#ArialMT-8722"/>
       <use x="58.398438" xlink:href="#ArialMT-49"/>
       <use x="114.013672" xlink:href="#ArialMT-56"/>
      </g>
     </g>
    </g>
    <g id="ytick_9">
     <g id="line2d_18">
      <g>
       <use style="stroke:#000000;stroke-width:0.8;" x="777.6" xlink:href="#mf870f41b53" y="154.712338"/>
      </g>
     </g>
     <g id="text_18">
      <!-- 17 -->
      <g transform="translate(784.6 161.870151)scale(0.2 -0.2)">
       <use xlink:href="#ArialMT-8722"/>
       <use x="58.398438" xlink:href="#ArialMT-49"/>
       <use x="114.013672" xlink:href="#ArialMT-55"/>
      </g>
     </g>
    </g>
    <g id="ytick_10">
     <g id="line2d_19">
      <g>
       <use style="stroke:#000000;stroke-width:0.8;" x="777.6" xlink:href="#mf870f41b53" y="192.155985"/>
      </g>
     </g>
     <g id="text_19">
      <!-- 16 -->
      <g transform="translate(784.6 199.313798)scale(0.2 -0.2)">
       <use xlink:href="#ArialMT-8722"/>
       <use x="58.398438" xlink:href="#ArialMT-49"/>
       <use x="114.013672" xlink:href="#ArialMT-54"/>
      </g>
     </g>
    </g>
    <g id="ytick_11">
     <g id="line2d_20">
      <g>
       <use style="stroke:#000000;stroke-width:0.8;" x="777.6" xlink:href="#mf870f41b53" y="229.599632"/>
      </g>
     </g>
     <g id="text_20">
      <!-- 15 -->
      <g transform="translate(784.6 236.757445)scale(0.2 -0.2)">
       <use xlink:href="#ArialMT-8722"/>
       <use x="58.398438" xlink:href="#ArialMT-49"/>
       <use x="114.013672" xlink:href="#ArialMT-53"/>
      </g>
     </g>
    </g>
    <g id="ytick_12">
     <g id="line2d_21">
      <g>
       <use style="stroke:#000000;stroke-width:0.8;" x="777.6" xlink:href="#mf870f41b53" y="267.04328"/>
      </g>
     </g>
     <g id="text_21">
      <!-- 14 -->
      <g transform="translate(784.6 274.201092)scale(0.2 -0.2)">
       <use xlink:href="#ArialMT-8722"/>
       <use x="58.398438" xlink:href="#ArialMT-49"/>
       <use x="114.013672" xlink:href="#ArialMT-52"/>
      </g>
     </g>
    </g>
    <g id="ytick_13">
     <g id="line2d_22">
      <g>
       <use style="stroke:#000000;stroke-width:0.8;" x="777.6" xlink:href="#mf870f41b53" y="304.486927"/>
      </g>
     </g>
     <g id="text_22">
      <!-- 13 -->
      <g transform="translate(784.6 311.644739)scale(0.2 -0.2)">
       <use xlink:href="#ArialMT-8722"/>
       <use x="58.398438" xlink:href="#ArialMT-49"/>
       <use x="114.013672" xlink:href="#ArialMT-51"/>
      </g>
     </g>
    </g>
    <g id="ytick_14">
     <g id="line2d_23">
      <g>
       <use style="stroke:#000000;stroke-width:0.8;" x="777.6" xlink:href="#mf870f41b53" y="341.930574"/>
      </g>
     </g>
     <g id="text_23">
      <!-- 12 -->
      <g transform="translate(784.6 349.088386)scale(0.2 -0.2)">
       <use xlink:href="#ArialMT-8722"/>
       <use x="58.398438" xlink:href="#ArialMT-49"/>
       <use x="114.013672" xlink:href="#ArialMT-50"/>
      </g>
     </g>
    </g>
    <g id="ytick_15">
     <g id="line2d_24">
      <g>
       <use style="stroke:#000000;stroke-width:0.8;" x="777.6" xlink:href="#mf870f41b53" y="379.374221"/>
      </g>
     </g>
     <g id="text_24">
      <!-- 11 -->
      <g transform="translate(784.6 386.532033)scale(0.2 -0.2)">
       <use xlink:href="#ArialMT-8722"/>
       <use x="58.398438" xlink:href="#ArialMT-49"/>
       <use x="106.638672" xlink:href="#ArialMT-49"/>
      </g>
     </g>
    </g>
    <g id="ytick_16">
     <g id="line2d_25">
      <g>
       <use style="stroke:#000000;stroke-width:0.8;" x="777.6" xlink:href="#mf870f41b53" y="416.817868"/>
      </g>
     </g>
     <g id="text_25">
      <!-- 10 -->
      <g transform="translate(784.6 423.97568)scale(0.2 -0.2)">
       <use xlink:href="#ArialMT-8722"/>
       <use x="58.398438" xlink:href="#ArialMT-49"/>
       <use x="114.013672" xlink:href="#ArialMT-48"/>
      </g>
     </g>
    </g>
    <g id="ytick_17">
     <g id="line2d_26">
      <g>
       <use style="stroke:#000000;stroke-width:0.8;" x="777.6" xlink:href="#mf870f41b53" y="454.261515"/>
      </g>
     </g>
     <g id="text_26">
      <!-- 9 -->
      <g transform="translate(784.6 461.419328)scale(0.2 -0.2)">
       <use xlink:href="#ArialMT-8722"/>
       <use x="58.398438" xlink:href="#ArialMT-57"/>
      </g>
     </g>
    </g>
    <g id="ytick_18">
     <g id="line2d_27">
      <g>
       <use style="stroke:#000000;stroke-width:0.8;" x="777.6" xlink:href="#mf870f41b53" y="491.705162"/>
      </g>
     </g>
     <g id="text_27">
      <!-- 8 -->
      <g transform="translate(784.6 498.862975)scale(0.2 -0.2)">
       <use xlink:href="#ArialMT-8722"/>
       <use x="58.398438" xlink:href="#ArialMT-56"/>
      </g>
     </g>
    </g>
    <g id="text_28">
     <!-- Absolute Magnitude -->
     <defs>
      <path d="M 14.703125 0 
L 6.546875 0 
L 6.546875 71.578125 
L 15.328125 71.578125 
L 15.328125 46.046875 
Q 20.90625 53.03125 29.546875 53.03125 
Q 34.328125 53.03125 38.59375 51.09375 
Q 42.875 49.171875 45.625 45.671875 
Q 48.390625 42.1875 49.953125 37.25 
Q 51.515625 32.328125 51.515625 26.703125 
Q 51.515625 13.375 44.921875 6.09375 
Q 38.328125 -1.171875 29.109375 -1.171875 
Q 19.921875 -1.171875 14.703125 6.5 
z
M 14.59375 26.3125 
Q 14.59375 17 17.140625 12.84375 
Q 21.296875 6.0625 28.375 6.0625 
Q 34.125 6.0625 38.328125 11.0625 
Q 42.53125 16.0625 42.53125 25.984375 
Q 42.53125 36.140625 38.5 40.96875 
Q 34.46875 45.796875 28.765625 45.796875 
Q 23 45.796875 18.796875 40.796875 
Q 14.59375 35.796875 14.59375 26.3125 
z
" id="ArialMT-98"/>
      <path d="M 6.390625 0 
L 6.390625 71.578125 
L 15.1875 71.578125 
L 15.1875 0 
z
" id="ArialMT-108"/>
     </defs>
     <g transform="translate(836.840625 379.2675)rotate(-90)scale(0.2 -0.2)">
      <use xlink:href="#ArialMT-65"/>
      <use x="66.699219" xlink:href="#ArialMT-98"/>
      <use x="122.314453" xlink:href="#ArialMT-115"/>
      <use x="172.314453" xlink:href="#ArialMT-111"/>
      <use x="227.929688" xlink:href="#ArialMT-108"/>
      <use x="250.146484" xlink:href="#ArialMT-117"/>
      <use x="305.761719" xlink:href="#ArialMT-116"/>
      <use x="333.544922" xlink:href="#ArialMT-101"/>
      <use x="389.160156" xlink:href="#ArialMT-32"/>
      <use x="416.943359" xlink:href="#ArialMT-77"/>
      <use x="500.244141" xlink:href="#ArialMT-97"/>
      <use x="555.859375" xlink:href="#ArialMT-103"/>
      <use x="611.474609" xlink:href="#ArialMT-110"/>
      <use x="667.089844" xlink:href="#ArialMT-105"/>
      <use x="689.306641" xlink:href="#ArialMT-116"/>
      <use x="717.089844" xlink:href="#ArialMT-117"/>
      <use x="772.705078" xlink:href="#ArialMT-100"/>
      <use x="828.320312" xlink:href="#ArialMT-101"/>
     </g>
    </g>
   </g>
   <g id="line2d_28">
    <path clip-path="url(#p1ce96e73d7)" d="M 108 131.688334 
L 777.6 131.688334 
" style="fill:none;stroke:#32cd32;stroke-dasharray:5.55,2.4;stroke-dashoffset:0;stroke-opacity:0.5;stroke-width:1.5;"/>
   </g>
   <g id="line2d_29"/>
   <g id="line2d_30"/>
   <g id="line2d_31"/>
   <g id="patch_7">
    <path d="M 108 512.64 
L 108 69.12 
" style="fill:none;stroke:#000000;stroke-linecap:square;stroke-linejoin:miter;stroke-width:0.8;"/>
   </g>
   <g id="patch_8">
    <path d="M 777.6 512.64 
L 777.6 69.12 
" style="fill:none;stroke:#000000;stroke-linecap:square;stroke-linejoin:miter;stroke-width:0.8;"/>
   </g>
   <g id="patch_9">
    <path d="M 108 512.64 
L 777.6 512.64 
" style="fill:none;stroke:#000000;stroke-linecap:square;stroke-linejoin:miter;stroke-width:0.8;"/>
   </g>
   <g id="patch_10">
    <path d="M 108 69.12 
L 777.6 69.12 
" style="fill:none;stroke:#000000;stroke-linecap:square;stroke-linejoin:miter;stroke-width:0.8;"/>
   </g>
   <g id="legend_1">
    <g id="patch_11">
     <path d="M 420.429375 120.59625 
L 767.8 120.59625 
Q 770.6 120.59625 770.6 117.79625 
L 770.6 78.92 
Q 770.6 76.12 767.8 76.12 
L 420.429375 76.12 
Q 417.629375 76.12 417.629375 78.92 
L 417.629375 117.79625 
Q 417.629375 120.59625 420.429375 120.59625 
z
" style="fill:#ffffff;opacity:0.8;stroke:#cccccc;stroke-linejoin:miter;"/>
    </g>
    <g id="line2d_32"/>
    <g id="line2d_33"/>
    <g id="text_29">
     <!-- B +3 (SNe catalog) -->
     <defs>
      <path d="M 7.328125 0 
L 7.328125 71.578125 
L 34.1875 71.578125 
Q 42.390625 71.578125 47.34375 69.40625 
Q 52.296875 67.234375 55.09375 62.71875 
Q 57.90625 58.203125 57.90625 53.265625 
Q 57.90625 48.6875 55.421875 44.625 
Q 52.9375 40.578125 47.90625 38.09375 
Q 54.390625 36.1875 57.875 31.59375 
Q 61.375 27 61.375 20.75 
Q 61.375 15.71875 59.25 11.390625 
Q 57.125 7.078125 54 4.734375 
Q 50.875 2.390625 46.15625 1.1875 
Q 41.453125 0 34.625 0 
z
M 16.796875 41.5 
L 32.28125 41.5 
Q 38.578125 41.5 41.3125 42.328125 
Q 44.921875 43.40625 46.75 45.890625 
Q 48.578125 48.390625 48.578125 52.15625 
Q 48.578125 55.71875 46.875 58.421875 
Q 45.171875 61.140625 41.984375 62.140625 
Q 38.8125 63.140625 31.109375 63.140625 
L 16.796875 63.140625 
z
M 16.796875 8.453125 
L 34.625 8.453125 
Q 39.203125 8.453125 41.0625 8.796875 
Q 44.34375 9.375 46.53125 10.734375 
Q 48.734375 12.109375 50.140625 14.71875 
Q 51.5625 17.328125 51.5625 20.75 
Q 51.5625 24.75 49.515625 27.703125 
Q 47.46875 30.671875 43.828125 31.859375 
Q 40.1875 33.0625 33.34375 33.0625 
L 16.796875 33.0625 
z
" id="ArialMT-66"/>
      <path d="M 25.046875 11.578125 
L 25.046875 31.203125 
L 5.5625 31.203125 
L 5.5625 39.40625 
L 25.046875 39.40625 
L 25.046875 58.890625 
L 33.34375 58.890625 
L 33.34375 39.40625 
L 52.828125 39.40625 
L 52.828125 31.203125 
L 33.34375 31.203125 
L 33.34375 11.578125 
z
" id="ArialMT-43"/>
      <path d="M 23.390625 -21.046875 
Q 16.109375 -11.859375 11.078125 0.4375 
Q 6.0625 12.75 6.0625 25.921875 
Q 6.0625 37.546875 9.8125 48.1875 
Q 14.203125 60.546875 23.390625 72.796875 
L 29.6875 72.796875 
Q 23.78125 62.640625 21.875 58.296875 
Q 18.890625 51.5625 17.1875 44.234375 
Q 15.09375 35.109375 15.09375 25.875 
Q 15.09375 2.390625 29.6875 -21.046875 
z
" id="ArialMT-40"/>
      <path d="M 12.359375 -21.046875 
L 6.0625 -21.046875 
Q 20.65625 2.390625 20.65625 25.875 
Q 20.65625 35.0625 18.5625 44.09375 
Q 16.890625 51.421875 13.921875 58.15625 
Q 12.015625 62.546875 6.0625 72.796875 
L 12.359375 72.796875 
Q 21.53125 60.546875 25.921875 48.1875 
Q 29.6875 37.546875 29.6875 25.921875 
Q 29.6875 12.75 24.625 0.4375 
Q 19.578125 -11.859375 12.359375 -21.046875 
z
" id="ArialMT-41"/>
     </defs>
     <g transform="translate(462.429375 91.911563)scale(0.14 -0.14)">
      <use xlink:href="#ArialMT-66"/>
      <use x="66.699219" xlink:href="#ArialMT-32"/>
      <use x="94.482422" xlink:href="#ArialMT-43"/>
      <use x="152.880859" xlink:href="#ArialMT-51"/>
      <use x="208.496094" xlink:href="#ArialMT-32"/>
      <use x="236.279297" xlink:href="#ArialMT-40"/>
      <use x="269.580078" xlink:href="#ArialMT-83"/>
      <use x="336.279297" xlink:href="#ArialMT-78"/>
      <use x="408.496094" xlink:href="#ArialMT-101"/>
      <use x="464.111328" xlink:href="#ArialMT-32"/>
      <use x="491.894531" xlink:href="#ArialMT-99"/>
      <use x="541.894531" xlink:href="#ArialMT-97"/>
      <use x="597.509766" xlink:href="#ArialMT-116"/>
      <use x="625.292969" xlink:href="#ArialMT-97"/>
      <use x="680.908203" xlink:href="#ArialMT-108"/>
      <use x="703.125" xlink:href="#ArialMT-111"/>
      <use x="758.740234" xlink:href="#ArialMT-103"/>
      <use x="814.355469" xlink:href="#ArialMT-41"/>
     </g>
    </g>
    <g id="line2d_34"/>
    <g id="line2d_35"/>
    <g id="text_30">
     <!-- V +0 (SNe catalog) -->
     <defs>
      <path d="M 28.171875 0 
L 0.4375 71.578125 
L 10.6875 71.578125 
L 29.296875 19.578125 
Q 31.546875 13.328125 33.0625 7.859375 
Q 34.71875 13.71875 36.921875 19.578125 
L 56.25 71.578125 
L 65.921875 71.578125 
L 37.890625 0 
z
" id="ArialMT-86"/>
     </defs>
     <g transform="translate(462.429375 112.049688)scale(0.14 -0.14)">
      <use xlink:href="#ArialMT-86"/>
      <use x="66.699219" xlink:href="#ArialMT-32"/>
      <use x="94.482422" xlink:href="#ArialMT-43"/>
      <use x="152.880859" xlink:href="#ArialMT-48"/>
      <use x="208.496094" xlink:href="#ArialMT-32"/>
      <use x="236.279297" xlink:href="#ArialMT-40"/>
      <use x="269.580078" xlink:href="#ArialMT-83"/>
      <use x="336.279297" xlink:href="#ArialMT-78"/>
      <use x="408.496094" xlink:href="#ArialMT-101"/>
      <use x="464.111328" xlink:href="#ArialMT-32"/>
      <use x="491.894531" xlink:href="#ArialMT-99"/>
      <use x="541.894531" xlink:href="#ArialMT-97"/>
      <use x="597.509766" xlink:href="#ArialMT-116"/>
      <use x="625.292969" xlink:href="#ArialMT-97"/>
      <use x="680.908203" xlink:href="#ArialMT-108"/>
      <use x="703.125" xlink:href="#ArialMT-111"/>
      <use x="758.740234" xlink:href="#ArialMT-103"/>
      <use x="814.355469" xlink:href="#ArialMT-41"/>
     </g>
    </g>
    <g id="line2d_36"/>
    <g id="line2d_37"/>
    <g id="text_31">
     <!-- G -3 (SNe catalog) -->
     <defs>
      <path d="M 41.21875 28.078125 
L 41.21875 36.46875 
L 71.53125 36.53125 
L 71.53125 9.96875 
Q 64.546875 4.390625 57.125 1.578125 
Q 49.703125 -1.21875 41.890625 -1.21875 
Q 31.34375 -1.21875 22.71875 3.296875 
Q 14.109375 7.8125 9.71875 16.359375 
Q 5.328125 24.90625 5.328125 35.453125 
Q 5.328125 45.90625 9.6875 54.953125 
Q 14.0625 64.015625 22.265625 68.40625 
Q 30.46875 72.796875 41.15625 72.796875 
Q 48.921875 72.796875 55.1875 70.28125 
Q 61.46875 67.78125 65.03125 63.28125 
Q 68.609375 58.796875 70.453125 51.5625 
L 61.921875 49.21875 
Q 60.296875 54.6875 57.90625 57.8125 
Q 55.515625 60.9375 51.0625 62.8125 
Q 46.625 64.703125 41.21875 64.703125 
Q 34.71875 64.703125 29.984375 62.71875 
Q 25.25 60.75 22.34375 57.515625 
Q 19.4375 54.296875 17.828125 50.4375 
Q 15.09375 43.796875 15.09375 36.03125 
Q 15.09375 26.46875 18.390625 20.015625 
Q 21.6875 13.578125 27.984375 10.453125 
Q 34.28125 7.328125 41.359375 7.328125 
Q 47.515625 7.328125 53.375 9.6875 
Q 59.234375 12.0625 62.25 14.75 
L 62.25 28.078125 
z
" id="ArialMT-71"/>
     </defs>
     <g transform="translate(648.296875 91.911563)scale(0.14 -0.14)">
      <use xlink:href="#ArialMT-71"/>
      <use x="77.783203" xlink:href="#ArialMT-32"/>
      <use x="105.566406" xlink:href="#ArialMT-45"/>
      <use x="138.867188" xlink:href="#ArialMT-51"/>
      <use x="194.482422" xlink:href="#ArialMT-32"/>
      <use x="222.265625" xlink:href="#ArialMT-40"/>
      <use x="255.566406" xlink:href="#ArialMT-83"/>
      <use x="322.265625" xlink:href="#ArialMT-78"/>
      <use x="394.482422" xlink:href="#ArialMT-101"/>
      <use x="450.097656" xlink:href="#ArialMT-32"/>
      <use x="477.880859" xlink:href="#ArialMT-99"/>
      <use x="527.880859" xlink:href="#ArialMT-97"/>
      <use x="583.496094" xlink:href="#ArialMT-116"/>
      <use x="611.279297" xlink:href="#ArialMT-97"/>
      <use x="666.894531" xlink:href="#ArialMT-108"/>
      <use x="689.111328" xlink:href="#ArialMT-111"/>
      <use x="744.726562" xlink:href="#ArialMT-103"/>
      <use x="800.341797" xlink:href="#ArialMT-41"/>
     </g>
    </g>
   </g>
  </g>
 </g>
 <defs>
  <clipPath id="p1ce96e73d7">
   <rect height="443.52" width="669.6" x="108" y="69.12"/>
  </clipPath>
 </defs>
</svg>
