<?xml version="1.0" encoding="utf-8" standalone="no"?>
<!DOCTYPE svg PUBLIC "-//W3C//DTD SVG 1.1//EN"
  "http://www.w3.org/Graphics/SVG/1.1/DTD/svg11.dtd">
<!-- Created with matplotlib (https://matplotlib.org/) -->
<svg height="360pt" version="1.1" viewBox="0 0 360 360" width="360pt" xmlns="http://www.w3.org/2000/svg" xmlns:xlink="http://www.w3.org/1999/xlink">
 <defs>
  <style type="text/css">
*{stroke-linecap:butt;stroke-linejoin:round;}
  </style>
 </defs>
 <g id="figure_1">
  <g id="patch_1">
   <path d="M 0 360 
L 360 360 
L 360 0 
L 0 0 
z
" style="fill:#ffffff;"/>
  </g>
  <g id="axes_1">
   <g id="patch_2">
    <path d="M 45 169.2 
L 324 169.2 
L 324 43.2 
L 45 43.2 
z
" style="fill:#ffffff;"/>
   </g>
   <g id="PolyCollection_1">
    <path clip-path="url(#p4bbb073427)" d="M 60.663158 43.23287 
L 60.663158 66.241565 
L 67.515789 118.394609 
L 76.163158 113.03687 
L 84.321053 125.154783 
L 91.826316 121.626783 
L 100.636842 124.826087 
L 108.794737 132.353217 
L 116.463158 139.453043 
L 124.621053 136.900174 
L 133.268421 139.770783 
L 142.242105 140.077565 
L 149.910526 140.241913 
L 157.578947 138.981913 
L 165.410526 141.304696 
L 174.221053 144.460174 
L 182.868421 145.588696 
L 189.394737 142.159304 
L 198.857895 144.78887 
L 206.852632 148.985217 
L 214.684211 151.735304 
L 223.168421 145.446261 
L 235.405263 149.785043 
L 235.405263 134.906087 
L 235.405263 134.906087 
L 223.168421 135.432 
L 214.684211 140.230957 
L 206.852632 135.158087 
L 198.857895 129.055304 
L 189.394737 124.957565 
L 182.868421 125.450609 
L 174.221053 126.491478 
L 165.410526 123.160696 
L 157.578947 124.979478 
L 149.910526 123.631826 
L 142.242105 118.756174 
L 133.268421 121.122783 
L 124.621053 115.206261 
L 116.463158 116.553913 
L 108.794737 109.015826 
L 100.636842 105.279652 
L 91.826316 97.566261 
L 84.321053 97.675826 
L 76.163158 87.310957 
L 67.515789 69.44087 
L 60.663158 43.23287 
z
" style="fill:#808080;fill-opacity:0.1;stroke:#808080;stroke-dasharray:3.7,1.6;stroke-dashoffset:0;stroke-opacity:0.1;"/>
   </g>
   <g id="matplotlib.axis_1">
    <g id="xtick_1">
     <g id="line2d_1">
      <defs>
       <path d="M 0 0 
L 0 3.5 
" id="m6907077494" style="stroke:#000000;stroke-width:0.8;"/>
      </defs>
      <g>
       <use style="stroke:#000000;stroke-width:0.8;" x="46.631579" xlink:href="#m6907077494" y="169.2"/>
      </g>
     </g>
    </g>
    <g id="xtick_2">
     <g id="line2d_2">
      <g>
       <use style="stroke:#000000;stroke-width:0.8;" x="79.263158" xlink:href="#m6907077494" y="169.2"/>
      </g>
     </g>
    </g>
    <g id="xtick_3">
     <g id="line2d_3">
      <g>
       <use style="stroke:#000000;stroke-width:0.8;" x="111.894737" xlink:href="#m6907077494" y="169.2"/>
      </g>
     </g>
    </g>
    <g id="xtick_4">
     <g id="line2d_4">
      <g>
       <use style="stroke:#000000;stroke-width:0.8;" x="144.526316" xlink:href="#m6907077494" y="169.2"/>
      </g>
     </g>
    </g>
    <g id="xtick_5">
     <g id="line2d_5">
      <g>
       <use style="stroke:#000000;stroke-width:0.8;" x="177.157895" xlink:href="#m6907077494" y="169.2"/>
      </g>
     </g>
    </g>
    <g id="xtick_6">
     <g id="line2d_6">
      <g>
       <use style="stroke:#000000;stroke-width:0.8;" x="209.789474" xlink:href="#m6907077494" y="169.2"/>
      </g>
     </g>
    </g>
    <g id="xtick_7">
     <g id="line2d_7">
      <g>
       <use style="stroke:#000000;stroke-width:0.8;" x="242.421053" xlink:href="#m6907077494" y="169.2"/>
      </g>
     </g>
    </g>
    <g id="xtick_8">
     <g id="line2d_8">
      <g>
       <use style="stroke:#000000;stroke-width:0.8;" x="275.052632" xlink:href="#m6907077494" y="169.2"/>
      </g>
     </g>
    </g>
    <g id="xtick_9">
     <g id="line2d_9">
      <g>
       <use style="stroke:#000000;stroke-width:0.8;" x="307.684211" xlink:href="#m6907077494" y="169.2"/>
      </g>
     </g>
    </g>
   </g>
   <g id="matplotlib.axis_2">
    <g id="ytick_1">
     <g id="line2d_10">
      <defs>
       <path d="M 0 0 
L -3.5 0 
" id="m14d6504dee" style="stroke:#000000;stroke-width:0.8;"/>
      </defs>
      <g>
       <use style="stroke:#000000;stroke-width:0.8;" x="45" xlink:href="#m14d6504dee" y="169.2"/>
      </g>
     </g>
     <g id="text_1">
      <!-- 0 -->
      <defs>
       <path d="M 4.15625 35.296875 
Q 4.15625 48 6.765625 55.734375 
Q 9.375 63.484375 14.515625 67.671875 
Q 19.671875 71.875 27.484375 71.875 
Q 33.25 71.875 37.59375 69.546875 
Q 41.9375 67.234375 44.765625 62.859375 
Q 47.609375 58.5 49.21875 52.21875 
Q 50.828125 45.953125 50.828125 35.296875 
Q 50.828125 22.703125 48.234375 14.96875 
Q 45.65625 7.234375 40.5 3 
Q 35.359375 -1.21875 27.484375 -1.21875 
Q 17.140625 -1.21875 11.234375 6.203125 
Q 4.15625 15.140625 4.15625 35.296875 
z
M 13.1875 35.296875 
Q 13.1875 17.671875 17.3125 11.828125 
Q 21.4375 6 27.484375 6 
Q 33.546875 6 37.671875 11.859375 
Q 41.796875 17.71875 41.796875 35.296875 
Q 41.796875 52.984375 37.671875 58.78125 
Q 33.546875 64.59375 27.390625 64.59375 
Q 21.34375 64.59375 17.71875 59.46875 
Q 13.1875 52.9375 13.1875 35.296875 
z
" id="ArialMT-48"/>
      </defs>
      <g transform="translate(32.995156 172.421016)scale(0.09 -0.09)">
       <use xlink:href="#ArialMT-48"/>
      </g>
     </g>
    </g>
    <g id="ytick_2">
     <g id="line2d_11">
      <g>
       <use style="stroke:#000000;stroke-width:0.8;" x="45" xlink:href="#m14d6504dee" y="141.808696"/>
      </g>
     </g>
     <g id="text_2">
      <!-- 2500 -->
      <defs>
       <path d="M 50.34375 8.453125 
L 50.34375 0 
L 3.03125 0 
Q 2.9375 3.171875 4.046875 6.109375 
Q 5.859375 10.9375 9.828125 15.625 
Q 13.8125 20.3125 21.34375 26.46875 
Q 33.015625 36.03125 37.109375 41.625 
Q 41.21875 47.21875 41.21875 52.203125 
Q 41.21875 57.421875 37.46875 61 
Q 33.734375 64.59375 27.734375 64.59375 
Q 21.390625 64.59375 17.578125 60.78125 
Q 13.765625 56.984375 13.71875 50.25 
L 4.6875 51.171875 
Q 5.609375 61.28125 11.65625 66.578125 
Q 17.71875 71.875 27.9375 71.875 
Q 38.234375 71.875 44.234375 66.15625 
Q 50.25 60.453125 50.25 52 
Q 50.25 47.703125 48.484375 43.546875 
Q 46.734375 39.40625 42.65625 34.8125 
Q 38.578125 30.21875 29.109375 22.21875 
Q 21.1875 15.578125 18.9375 13.203125 
Q 16.703125 10.84375 15.234375 8.453125 
z
" id="ArialMT-50"/>
       <path d="M 4.15625 18.75 
L 13.375 19.53125 
Q 14.40625 12.796875 18.140625 9.390625 
Q 21.875 6 27.15625 6 
Q 33.5 6 37.890625 10.78125 
Q 42.28125 15.578125 42.28125 23.484375 
Q 42.28125 31 38.0625 35.34375 
Q 33.84375 39.703125 27 39.703125 
Q 22.75 39.703125 19.328125 37.765625 
Q 15.921875 35.84375 13.96875 32.765625 
L 5.71875 33.84375 
L 12.640625 70.609375 
L 48.25 70.609375 
L 48.25 62.203125 
L 19.671875 62.203125 
L 15.828125 42.96875 
Q 22.265625 47.46875 29.34375 47.46875 
Q 38.71875 47.46875 45.15625 40.96875 
Q 51.609375 34.46875 51.609375 24.265625 
Q 51.609375 14.546875 45.953125 7.46875 
Q 39.0625 -1.21875 27.15625 -1.21875 
Q 17.390625 -1.21875 11.203125 4.25 
Q 5.03125 9.71875 4.15625 18.75 
z
" id="ArialMT-53"/>
      </defs>
      <g transform="translate(17.980625 145.029711)scale(0.09 -0.09)">
       <use xlink:href="#ArialMT-50"/>
       <use x="55.615234" xlink:href="#ArialMT-53"/>
       <use x="111.230469" xlink:href="#ArialMT-48"/>
       <use x="166.845703" xlink:href="#ArialMT-48"/>
      </g>
     </g>
    </g>
    <g id="ytick_3">
     <g id="line2d_12">
      <g>
       <use style="stroke:#000000;stroke-width:0.8;" x="45" xlink:href="#m14d6504dee" y="114.417391"/>
      </g>
     </g>
     <g id="text_3">
      <!-- 5000 -->
      <g transform="translate(17.980625 117.638407)scale(0.09 -0.09)">
       <use xlink:href="#ArialMT-53"/>
       <use x="55.615234" xlink:href="#ArialMT-48"/>
       <use x="111.230469" xlink:href="#ArialMT-48"/>
       <use x="166.845703" xlink:href="#ArialMT-48"/>
      </g>
     </g>
    </g>
    <g id="ytick_4">
     <g id="line2d_13">
      <g>
       <use style="stroke:#000000;stroke-width:0.8;" x="45" xlink:href="#m14d6504dee" y="87.026087"/>
      </g>
     </g>
     <g id="text_4">
      <!-- 7500 -->
      <defs>
       <path d="M 4.734375 62.203125 
L 4.734375 70.65625 
L 51.078125 70.65625 
L 51.078125 63.8125 
Q 44.234375 56.546875 37.515625 44.484375 
Q 30.8125 32.421875 27.15625 19.671875 
Q 24.515625 10.6875 23.78125 0 
L 14.75 0 
Q 14.890625 8.453125 18.0625 20.40625 
Q 21.234375 32.375 27.171875 43.484375 
Q 33.109375 54.59375 39.796875 62.203125 
z
" id="ArialMT-55"/>
      </defs>
      <g transform="translate(17.980625 90.247103)scale(0.09 -0.09)">
       <use xlink:href="#ArialMT-55"/>
       <use x="55.615234" xlink:href="#ArialMT-53"/>
       <use x="111.230469" xlink:href="#ArialMT-48"/>
       <use x="166.845703" xlink:href="#ArialMT-48"/>
      </g>
     </g>
    </g>
    <g id="ytick_5">
     <g id="line2d_14">
      <g>
       <use style="stroke:#000000;stroke-width:0.8;" x="45" xlink:href="#m14d6504dee" y="59.634783"/>
      </g>
     </g>
     <g id="text_5">
      <!-- 10000 -->
      <defs>
       <path d="M 37.25 0 
L 28.46875 0 
L 28.46875 56 
Q 25.296875 52.984375 20.140625 49.953125 
Q 14.984375 46.921875 10.890625 45.40625 
L 10.890625 53.90625 
Q 18.265625 57.375 23.78125 62.296875 
Q 29.296875 67.234375 31.59375 71.875 
L 37.25 71.875 
z
" id="ArialMT-49"/>
      </defs>
      <g transform="translate(12.975781 62.855798)scale(0.09 -0.09)">
       <use xlink:href="#ArialMT-49"/>
       <use x="55.615234" xlink:href="#ArialMT-48"/>
       <use x="111.230469" xlink:href="#ArialMT-48"/>
       <use x="166.845703" xlink:href="#ArialMT-48"/>
       <use x="222.460938" xlink:href="#ArialMT-48"/>
      </g>
     </g>
    </g>
    <g id="text_6">
     <!-- Expansion velocity (km/s) -->
     <defs>
      <path d="M 7.90625 0 
L 7.90625 71.578125 
L 59.671875 71.578125 
L 59.671875 63.140625 
L 17.390625 63.140625 
L 17.390625 41.21875 
L 56.984375 41.21875 
L 56.984375 32.8125 
L 17.390625 32.8125 
L 17.390625 8.453125 
L 61.328125 8.453125 
L 61.328125 0 
z
" id="ArialMT-69"/>
      <path d="M 0.734375 0 
L 19.671875 26.953125 
L 2.15625 51.859375 
L 13.140625 51.859375 
L 21.09375 39.703125 
Q 23.34375 36.234375 24.703125 33.890625 
Q 26.859375 37.109375 28.65625 39.59375 
L 37.40625 51.859375 
L 47.90625 51.859375 
L 29.984375 27.4375 
L 49.265625 0 
L 38.484375 0 
L 27.828125 16.109375 
L 25 20.453125 
L 11.375 0 
z
" id="ArialMT-120"/>
      <path d="M 6.59375 -19.875 
L 6.59375 51.859375 
L 14.59375 51.859375 
L 14.59375 45.125 
Q 17.4375 49.078125 21 51.046875 
Q 24.5625 53.03125 29.640625 53.03125 
Q 36.28125 53.03125 41.359375 49.609375 
Q 46.4375 46.1875 49.015625 39.953125 
Q 51.609375 33.734375 51.609375 26.3125 
Q 51.609375 18.359375 48.75 11.984375 
Q 45.90625 5.609375 40.453125 2.21875 
Q 35.015625 -1.171875 29 -1.171875 
Q 24.609375 -1.171875 21.109375 0.6875 
Q 17.625 2.546875 15.375 5.375 
L 15.375 -19.875 
z
M 14.546875 25.640625 
Q 14.546875 15.625 18.59375 10.84375 
Q 22.65625 6.0625 28.421875 6.0625 
Q 34.28125 6.0625 38.453125 11.015625 
Q 42.625 15.96875 42.625 26.375 
Q 42.625 36.28125 38.546875 41.203125 
Q 34.46875 46.140625 28.8125 46.140625 
Q 23.1875 46.140625 18.859375 40.890625 
Q 14.546875 35.640625 14.546875 25.640625 
z
" id="ArialMT-112"/>
      <path d="M 40.4375 6.390625 
Q 35.546875 2.25 31.03125 0.53125 
Q 26.515625 -1.171875 21.34375 -1.171875 
Q 12.796875 -1.171875 8.203125 3 
Q 3.609375 7.171875 3.609375 13.671875 
Q 3.609375 17.484375 5.34375 20.625 
Q 7.078125 23.78125 9.890625 25.6875 
Q 12.703125 27.59375 16.21875 28.5625 
Q 18.796875 29.25 24.03125 29.890625 
Q 34.671875 31.15625 39.703125 32.90625 
Q 39.75 34.71875 39.75 35.203125 
Q 39.75 40.578125 37.25 42.78125 
Q 33.890625 45.75 27.25 45.75 
Q 21.046875 45.75 18.09375 43.578125 
Q 15.140625 41.40625 13.71875 35.890625 
L 5.125 37.0625 
Q 6.296875 42.578125 8.984375 45.96875 
Q 11.671875 49.359375 16.75 51.1875 
Q 21.828125 53.03125 28.515625 53.03125 
Q 35.15625 53.03125 39.296875 51.46875 
Q 43.453125 49.90625 45.40625 47.53125 
Q 47.359375 45.171875 48.140625 41.546875 
Q 48.578125 39.3125 48.578125 33.453125 
L 48.578125 21.734375 
Q 48.578125 9.46875 49.140625 6.21875 
Q 49.703125 2.984375 51.375 0 
L 42.1875 0 
Q 40.828125 2.734375 40.4375 6.390625 
z
M 39.703125 26.03125 
Q 34.90625 24.078125 25.34375 22.703125 
Q 19.921875 21.921875 17.671875 20.9375 
Q 15.4375 19.96875 14.203125 18.09375 
Q 12.984375 16.21875 12.984375 13.921875 
Q 12.984375 10.40625 15.640625 8.0625 
Q 18.3125 5.71875 23.4375 5.71875 
Q 28.515625 5.71875 32.46875 7.9375 
Q 36.421875 10.15625 38.28125 14.015625 
Q 39.703125 17 39.703125 22.796875 
z
" id="ArialMT-97"/>
      <path d="M 6.59375 0 
L 6.59375 51.859375 
L 14.5 51.859375 
L 14.5 44.484375 
Q 20.21875 53.03125 31 53.03125 
Q 35.6875 53.03125 39.625 51.34375 
Q 43.5625 49.65625 45.515625 46.921875 
Q 47.46875 44.1875 48.25 40.4375 
Q 48.734375 37.984375 48.734375 31.890625 
L 48.734375 0 
L 39.9375 0 
L 39.9375 31.546875 
Q 39.9375 36.921875 38.90625 39.578125 
Q 37.890625 42.234375 35.28125 43.8125 
Q 32.671875 45.40625 29.15625 45.40625 
Q 23.53125 45.40625 19.453125 41.84375 
Q 15.375 38.28125 15.375 28.328125 
L 15.375 0 
z
" id="ArialMT-110"/>
      <path d="M 3.078125 15.484375 
L 11.765625 16.84375 
Q 12.5 11.625 15.84375 8.84375 
Q 19.1875 6.0625 25.203125 6.0625 
Q 31.25 6.0625 34.171875 8.515625 
Q 37.109375 10.984375 37.109375 14.3125 
Q 37.109375 17.28125 34.515625 19 
Q 32.71875 20.171875 25.53125 21.96875 
Q 15.875 24.421875 12.140625 26.203125 
Q 8.40625 27.984375 6.46875 31.125 
Q 4.546875 34.28125 4.546875 38.09375 
Q 4.546875 41.546875 6.125 44.5 
Q 7.71875 47.46875 10.453125 49.421875 
Q 12.5 50.921875 16.03125 51.96875 
Q 19.578125 53.03125 23.640625 53.03125 
Q 29.734375 53.03125 34.34375 51.265625 
Q 38.96875 49.515625 41.15625 46.5 
Q 43.359375 43.5 44.1875 38.484375 
L 35.59375 37.3125 
Q 35.015625 41.3125 32.203125 43.546875 
Q 29.390625 45.796875 24.265625 45.796875 
Q 18.21875 45.796875 15.625 43.796875 
Q 13.03125 41.796875 13.03125 39.109375 
Q 13.03125 37.40625 14.109375 36.03125 
Q 15.1875 34.625 17.484375 33.6875 
Q 18.796875 33.203125 25.25 31.453125 
Q 34.578125 28.953125 38.25 27.359375 
Q 41.9375 25.78125 44.03125 22.75 
Q 46.140625 19.734375 46.140625 15.234375 
Q 46.140625 10.84375 43.578125 6.953125 
Q 41.015625 3.078125 36.171875 0.953125 
Q 31.34375 -1.171875 25.25 -1.171875 
Q 15.140625 -1.171875 9.84375 3.03125 
Q 4.546875 7.234375 3.078125 15.484375 
z
" id="ArialMT-115"/>
      <path d="M 6.640625 61.46875 
L 6.640625 71.578125 
L 15.4375 71.578125 
L 15.4375 61.46875 
z
M 6.640625 0 
L 6.640625 51.859375 
L 15.4375 51.859375 
L 15.4375 0 
z
" id="ArialMT-105"/>
      <path d="M 3.328125 25.921875 
Q 3.328125 40.328125 11.328125 47.265625 
Q 18.015625 53.03125 27.640625 53.03125 
Q 38.328125 53.03125 45.109375 46.015625 
Q 51.90625 39.015625 51.90625 26.65625 
Q 51.90625 16.65625 48.90625 10.90625 
Q 45.90625 5.171875 40.15625 2 
Q 34.421875 -1.171875 27.640625 -1.171875 
Q 16.75 -1.171875 10.03125 5.8125 
Q 3.328125 12.796875 3.328125 25.921875 
z
M 12.359375 25.921875 
Q 12.359375 15.96875 16.703125 11.015625 
Q 21.046875 6.0625 27.640625 6.0625 
Q 34.1875 6.0625 38.53125 11.03125 
Q 42.875 16.015625 42.875 26.21875 
Q 42.875 35.84375 38.5 40.796875 
Q 34.125 45.75 27.640625 45.75 
Q 21.046875 45.75 16.703125 40.8125 
Q 12.359375 35.890625 12.359375 25.921875 
z
" id="ArialMT-111"/>
      <path id="ArialMT-32"/>
      <path d="M 21 0 
L 1.265625 51.859375 
L 10.546875 51.859375 
L 21.6875 20.796875 
Q 23.484375 15.765625 25 10.359375 
Q 26.171875 14.453125 28.265625 20.21875 
L 39.796875 51.859375 
L 48.828125 51.859375 
L 29.203125 0 
z
" id="ArialMT-118"/>
      <path d="M 42.09375 16.703125 
L 51.171875 15.578125 
Q 49.03125 7.625 43.21875 3.21875 
Q 37.40625 -1.171875 28.375 -1.171875 
Q 17 -1.171875 10.328125 5.828125 
Q 3.65625 12.84375 3.65625 25.484375 
Q 3.65625 38.578125 10.390625 45.796875 
Q 17.140625 53.03125 27.875 53.03125 
Q 38.28125 53.03125 44.875 45.953125 
Q 51.46875 38.875 51.46875 26.03125 
Q 51.46875 25.25 51.421875 23.6875 
L 12.75 23.6875 
Q 13.234375 15.140625 17.578125 10.59375 
Q 21.921875 6.0625 28.421875 6.0625 
Q 33.25 6.0625 36.671875 8.59375 
Q 40.09375 11.140625 42.09375 16.703125 
z
M 13.234375 30.90625 
L 42.1875 30.90625 
Q 41.609375 37.453125 38.875 40.71875 
Q 34.671875 45.796875 27.984375 45.796875 
Q 21.921875 45.796875 17.796875 41.75 
Q 13.671875 37.703125 13.234375 30.90625 
z
" id="ArialMT-101"/>
      <path d="M 6.390625 0 
L 6.390625 71.578125 
L 15.1875 71.578125 
L 15.1875 0 
z
" id="ArialMT-108"/>
      <path d="M 40.4375 19 
L 49.078125 17.875 
Q 47.65625 8.9375 41.8125 3.875 
Q 35.984375 -1.171875 27.484375 -1.171875 
Q 16.84375 -1.171875 10.375 5.78125 
Q 3.90625 12.75 3.90625 25.734375 
Q 3.90625 34.125 6.6875 40.421875 
Q 9.46875 46.734375 15.15625 49.875 
Q 20.84375 53.03125 27.546875 53.03125 
Q 35.984375 53.03125 41.359375 48.75 
Q 46.734375 44.484375 48.25 36.625 
L 39.703125 35.296875 
Q 38.484375 40.53125 35.375 43.15625 
Q 32.28125 45.796875 27.875 45.796875 
Q 21.234375 45.796875 17.078125 41.03125 
Q 12.9375 36.28125 12.9375 25.984375 
Q 12.9375 15.53125 16.9375 10.796875 
Q 20.953125 6.0625 27.390625 6.0625 
Q 32.5625 6.0625 36.03125 9.234375 
Q 39.5 12.40625 40.4375 19 
z
" id="ArialMT-99"/>
      <path d="M 25.78125 7.859375 
L 27.046875 0.09375 
Q 23.34375 -0.6875 20.40625 -0.6875 
Q 15.625 -0.6875 12.984375 0.828125 
Q 10.359375 2.34375 9.28125 4.8125 
Q 8.203125 7.28125 8.203125 15.1875 
L 8.203125 45.015625 
L 1.765625 45.015625 
L 1.765625 51.859375 
L 8.203125 51.859375 
L 8.203125 64.703125 
L 16.9375 69.96875 
L 16.9375 51.859375 
L 25.78125 51.859375 
L 25.78125 45.015625 
L 16.9375 45.015625 
L 16.9375 14.703125 
Q 16.9375 10.9375 17.40625 9.859375 
Q 17.875 8.796875 18.921875 8.15625 
Q 19.96875 7.515625 21.921875 7.515625 
Q 23.390625 7.515625 25.78125 7.859375 
z
" id="ArialMT-116"/>
      <path d="M 6.203125 -19.96875 
L 5.21875 -11.71875 
Q 8.109375 -12.5 10.25 -12.5 
Q 13.1875 -12.5 14.9375 -11.515625 
Q 16.703125 -10.546875 17.828125 -8.796875 
Q 18.65625 -7.46875 20.515625 -2.25 
Q 20.75 -1.515625 21.296875 -0.09375 
L 1.609375 51.859375 
L 11.078125 51.859375 
L 21.875 21.828125 
Q 23.96875 16.109375 25.640625 9.8125 
Q 27.15625 15.875 29.25 21.625 
L 40.328125 51.859375 
L 49.125 51.859375 
L 29.390625 -0.875 
Q 26.21875 -9.421875 24.46875 -12.640625 
Q 22.125 -17 19.09375 -19.015625 
Q 16.0625 -21.046875 11.859375 -21.046875 
Q 9.328125 -21.046875 6.203125 -19.96875 
z
" id="ArialMT-121"/>
      <path d="M 23.390625 -21.046875 
Q 16.109375 -11.859375 11.078125 0.4375 
Q 6.0625 12.75 6.0625 25.921875 
Q 6.0625 37.546875 9.8125 48.1875 
Q 14.203125 60.546875 23.390625 72.796875 
L 29.6875 72.796875 
Q 23.78125 62.640625 21.875 58.296875 
Q 18.890625 51.5625 17.1875 44.234375 
Q 15.09375 35.109375 15.09375 25.875 
Q 15.09375 2.390625 29.6875 -21.046875 
z
" id="ArialMT-40"/>
      <path d="M 6.640625 0 
L 6.640625 71.578125 
L 15.4375 71.578125 
L 15.4375 30.765625 
L 36.234375 51.859375 
L 47.609375 51.859375 
L 27.78125 32.625 
L 49.609375 0 
L 38.765625 0 
L 21.625 26.515625 
L 15.4375 20.5625 
L 15.4375 0 
z
" id="ArialMT-107"/>
      <path d="M 6.59375 0 
L 6.59375 51.859375 
L 14.453125 51.859375 
L 14.453125 44.578125 
Q 16.890625 48.390625 20.9375 50.703125 
Q 25 53.03125 30.171875 53.03125 
Q 35.9375 53.03125 39.625 50.640625 
Q 43.3125 48.25 44.828125 43.953125 
Q 50.984375 53.03125 60.84375 53.03125 
Q 68.5625 53.03125 72.703125 48.75 
Q 76.859375 44.484375 76.859375 35.59375 
L 76.859375 0 
L 68.109375 0 
L 68.109375 32.671875 
Q 68.109375 37.9375 67.25 40.25 
Q 66.40625 42.578125 64.15625 43.984375 
Q 61.921875 45.40625 58.890625 45.40625 
Q 53.421875 45.40625 49.796875 41.765625 
Q 46.1875 38.140625 46.1875 30.125 
L 46.1875 0 
L 37.40625 0 
L 37.40625 33.6875 
Q 37.40625 39.546875 35.25 42.46875 
Q 33.109375 45.40625 28.21875 45.40625 
Q 24.515625 45.40625 21.359375 43.453125 
Q 18.21875 41.5 16.796875 37.734375 
Q 15.375 33.984375 15.375 26.90625 
L 15.375 0 
z
" id="ArialMT-109"/>
      <path d="M 0 -1.21875 
L 20.75 72.796875 
L 27.78125 72.796875 
L 7.078125 -1.21875 
z
" id="ArialMT-47"/>
      <path d="M 12.359375 -21.046875 
L 6.0625 -21.046875 
Q 20.65625 2.390625 20.65625 25.875 
Q 20.65625 35.0625 18.5625 44.09375 
Q 16.890625 51.421875 13.921875 58.15625 
Q 12.015625 62.546875 6.0625 72.796875 
L 12.359375 72.796875 
Q 21.53125 60.546875 25.921875 48.1875 
Q 29.6875 37.546875 29.6875 25.921875 
Q 29.6875 12.75 24.625 0.4375 
Q 19.578125 -11.859375 12.359375 -21.046875 
z
" id="ArialMT-41"/>
     </defs>
     <g transform="translate(7.081562 157.213828)rotate(-90)scale(0.09 -0.09)">
      <use xlink:href="#ArialMT-69"/>
      <use x="66.699219" xlink:href="#ArialMT-120"/>
      <use x="116.699219" xlink:href="#ArialMT-112"/>
      <use x="172.314453" xlink:href="#ArialMT-97"/>
      <use x="227.929688" xlink:href="#ArialMT-110"/>
      <use x="283.544922" xlink:href="#ArialMT-115"/>
      <use x="333.544922" xlink:href="#ArialMT-105"/>
      <use x="355.761719" xlink:href="#ArialMT-111"/>
      <use x="411.376953" xlink:href="#ArialMT-110"/>
      <use x="466.992188" xlink:href="#ArialMT-32"/>
      <use x="494.775391" xlink:href="#ArialMT-118"/>
      <use x="544.775391" xlink:href="#ArialMT-101"/>
      <use x="600.390625" xlink:href="#ArialMT-108"/>
      <use x="622.607422" xlink:href="#ArialMT-111"/>
      <use x="678.222656" xlink:href="#ArialMT-99"/>
      <use x="728.222656" xlink:href="#ArialMT-105"/>
      <use x="750.439453" xlink:href="#ArialMT-116"/>
      <use x="778.222656" xlink:href="#ArialMT-121"/>
      <use x="828.222656" xlink:href="#ArialMT-32"/>
      <use x="856.005859" xlink:href="#ArialMT-40"/>
      <use x="889.306641" xlink:href="#ArialMT-107"/>
      <use x="939.306641" xlink:href="#ArialMT-109"/>
      <use x="1022.607422" xlink:href="#ArialMT-47"/>
      <use x="1050.390625" xlink:href="#ArialMT-115"/>
      <use x="1100.390625" xlink:href="#ArialMT-41"/>
     </g>
    </g>
   </g>
   <g id="LineCollection_1">
    <path clip-path="url(#p4bbb073427)" d="M 84.310739 85.674013 
L 84.310739 66.354491 
" style="fill:none;stroke:#1b9e77;stroke-width:1.5;"/>
    <path clip-path="url(#p4bbb073427)" d="M 101.437613 88.768079 
L 101.437613 81.37454 
" style="fill:none;stroke:#1b9e77;stroke-width:1.5;"/>
    <path clip-path="url(#p4bbb073427)" d="M 110.890227 98.710809 
L 110.890227 94.582932 
" style="fill:none;stroke:#1b9e77;stroke-width:1.5;"/>
    <path clip-path="url(#p4bbb073427)" d="M 120.325522 103.124622 
L 120.325522 97.120527 
" style="fill:none;stroke:#1b9e77;stroke-width:1.5;"/>
    <path clip-path="url(#p4bbb073427)" d="M 120.474593 104.13388 
L 120.474593 96.235796 
" style="fill:none;stroke:#1b9e77;stroke-width:1.5;"/>
    <path clip-path="url(#p4bbb073427)" d="M 123.266171 103.756177 
L 123.266171 98.178948 
" style="fill:none;stroke:#1b9e77;stroke-width:1.5;"/>
    <path clip-path="url(#p4bbb073427)" d="M 139.32548 110.210906 
L 139.32548 105.537652 
" style="fill:none;stroke:#1b9e77;stroke-width:1.5;"/>
    <path clip-path="url(#p4bbb073427)" d="M 151.600654 120.570568 
L 151.600654 112.388258 
" style="fill:none;stroke:#1b9e77;stroke-width:1.5;"/>
    <path clip-path="url(#p4bbb073427)" d="M 181.43069 121.045278 
L 181.43069 103.904619 
" style="fill:none;stroke:#1b9e77;stroke-width:1.5;"/>
    <path clip-path="url(#p4bbb073427)" d="M 183.320197 120.389078 
L 183.320197 114.886645 
" style="fill:none;stroke:#1b9e77;stroke-width:1.5;"/>
    <path clip-path="url(#p4bbb073427)" d="M 200.518368 122.507487 
L 200.518368 117.912056 
" style="fill:none;stroke:#1b9e77;stroke-width:1.5;"/>
    <path clip-path="url(#p4bbb073427)" d="M 220.814937 127.89849 
L 220.814937 122.477716 
" style="fill:none;stroke:#1b9e77;stroke-width:1.5;"/>
   </g>
   <g id="LineCollection_2">
    <path clip-path="url(#p4bbb073427)" d="M 222.793385 122.153901 
L 222.793385 121.156857 
" style="fill:none;stroke:#7570b3;stroke-width:1.5;"/>
    <path clip-path="url(#p4bbb073427)" d="M 239.109174 127.61485 
L 239.109174 125.879776 
" style="fill:none;stroke:#7570b3;stroke-width:1.5;"/>
    <path clip-path="url(#p4bbb073427)" d="M 261.951279 122.782696 
L 261.951279 121.529927 
" style="fill:none;stroke:#7570b3;stroke-width:1.5;"/>
    <path clip-path="url(#p4bbb073427)" d="M 278.267069 121.297101 
L 278.267069 120.362071 
" style="fill:none;stroke:#7570b3;stroke-width:1.5;"/>
    <path clip-path="url(#p4bbb073427)" d="M 278.267069 123.523685 
L 278.267069 122.840656 
" style="fill:none;stroke:#7570b3;stroke-width:1.5;"/>
    <path clip-path="url(#p4bbb073427)" d="M 286.424963 122.667652 
L 286.424963 121.373249 
" style="fill:none;stroke:#7570b3;stroke-width:1.5;"/>
    <path clip-path="url(#p4bbb073427)" d="M 312.530227 123.834631 
L 312.530227 122.996019 
" style="fill:none;stroke:#7570b3;stroke-width:1.5;"/>
   </g>
   <g id="LineCollection_3">
    <path clip-path="url(#p4bbb073427)" d="M 250.732308 155.337931 
L 250.732308 143.046297 
" style="fill:none;stroke:#d95f02;stroke-width:1.5;"/>
    <path clip-path="url(#p4bbb073427)" d="M 255.514893 157.943176 
L 255.514893 125.87 
" style="fill:none;stroke:#d95f02;stroke-width:1.5;"/>
    <path clip-path="url(#p4bbb073427)" d="M 311.224124 156.68871 
L 311.224124 137.183394 
" style="fill:none;stroke:#d95f02;stroke-width:1.5;"/>
   </g>
   <g id="line2d_15">
    <path clip-path="url(#p4bbb073427)" d="M 60.663158 54.737217 
L 67.515789 93.917739 
L 76.163158 100.173913 
L 84.321053 111.415304 
L 91.826316 109.596522 
L 100.636842 115.05287 
L 108.794737 120.684522 
L 116.463158 128.003478 
L 124.621053 126.053217 
L 133.268421 130.446783 
L 142.242105 129.41687 
L 149.910526 131.93687 
L 157.578947 131.980696 
L 165.410526 132.232696 
L 174.221053 135.475826 
L 182.868421 135.519652 
L 189.394737 133.558435 
L 198.857895 136.922087 
L 206.852632 142.071652 
L 214.684211 145.98313 
L 223.168421 140.43913 
L 235.405263 142.345565 
" style="fill:none;stroke:#808080;stroke-dasharray:5.55,2.4;stroke-dashoffset:0;stroke-opacity:0.4;stroke-width:1.5;"/>
   </g>
   <g id="line2d_16">
    <defs>
     <path d="M 0 1.5 
C 0.397805 1.5 0.77937 1.341951 1.06066 1.06066 
C 1.341951 0.77937 1.5 0.397805 1.5 0 
C 1.5 -0.397805 1.341951 -0.77937 1.06066 -1.06066 
C 0.77937 -1.341951 0.397805 -1.5 0 -1.5 
C -0.397805 -1.5 -0.77937 -1.341951 -1.06066 -1.06066 
C -1.341951 -0.77937 -1.5 -0.397805 -1.5 0 
C -1.5 0.397805 -1.341951 0.77937 -1.06066 1.06066 
C -0.77937 1.341951 -0.397805 1.5 0 1.5 
z
" id="m19d02bfaeb" style="stroke:#1b9e77;"/>
    </defs>
    <g clip-path="url(#p4bbb073427)">
     <use style="fill:#1b9e77;stroke:#1b9e77;" x="84.310739" xlink:href="#m19d02bfaeb" y="76.014252"/>
     <use style="fill:#1b9e77;stroke:#1b9e77;" x="101.437613" xlink:href="#m19d02bfaeb" y="85.071309"/>
     <use style="fill:#1b9e77;stroke:#1b9e77;" x="110.890227" xlink:href="#m19d02bfaeb" y="96.646871"/>
     <use style="fill:#1b9e77;stroke:#1b9e77;" x="120.325522" xlink:href="#m19d02bfaeb" y="100.122574"/>
     <use style="fill:#1b9e77;stroke:#1b9e77;" x="120.474593" xlink:href="#m19d02bfaeb" y="100.184838"/>
     <use style="fill:#1b9e77;stroke:#1b9e77;" x="123.266171" xlink:href="#m19d02bfaeb" y="100.967562"/>
     <use style="fill:#1b9e77;stroke:#1b9e77;" x="139.32548" xlink:href="#m19d02bfaeb" y="107.874279"/>
     <use style="fill:#1b9e77;stroke:#1b9e77;" x="151.600654" xlink:href="#m19d02bfaeb" y="116.479413"/>
     <use style="fill:#1b9e77;stroke:#1b9e77;" x="181.43069" xlink:href="#m19d02bfaeb" y="112.474948"/>
     <use style="fill:#1b9e77;stroke:#1b9e77;" x="183.320197" xlink:href="#m19d02bfaeb" y="117.637861"/>
     <use style="fill:#1b9e77;stroke:#1b9e77;" x="200.518368" xlink:href="#m19d02bfaeb" y="120.209771"/>
     <use style="fill:#1b9e77;stroke:#1b9e77;" x="220.814937" xlink:href="#m19d02bfaeb" y="125.188103"/>
    </g>
   </g>
   <g id="line2d_17">
    <defs>
     <path d="M -1.5 1.5 
L 1.5 1.5 
L 1.5 -1.5 
L -1.5 -1.5 
z
" id="m0e75dde199" style="stroke:#7570b3;stroke-linejoin:miter;"/>
    </defs>
    <g clip-path="url(#p4bbb073427)">
     <use style="fill:#7570b3;stroke:#7570b3;stroke-linejoin:miter;" x="222.793385" xlink:href="#m0e75dde199" y="121.655379"/>
     <use style="fill:#7570b3;stroke:#7570b3;stroke-linejoin:miter;" x="239.109174" xlink:href="#m0e75dde199" y="126.747313"/>
     <use style="fill:#7570b3;stroke:#7570b3;stroke-linejoin:miter;" x="261.951279" xlink:href="#m0e75dde199" y="122.156311"/>
     <use style="fill:#7570b3;stroke:#7570b3;stroke-linejoin:miter;" x="278.267069" xlink:href="#m0e75dde199" y="120.829586"/>
     <use style="fill:#7570b3;stroke:#7570b3;stroke-linejoin:miter;" x="278.267069" xlink:href="#m0e75dde199" y="123.18217"/>
     <use style="fill:#7570b3;stroke:#7570b3;stroke-linejoin:miter;" x="286.424963" xlink:href="#m0e75dde199" y="122.02045"/>
     <use style="fill:#7570b3;stroke:#7570b3;stroke-linejoin:miter;" x="312.530227" xlink:href="#m0e75dde199" y="123.415325"/>
    </g>
   </g>
   <g id="line2d_18">
    <defs>
     <path d="M 0 -1.5 
L -1.5 1.5 
L 1.5 1.5 
z
" id="me01452d7f6" style="stroke:#d95f02;stroke-linejoin:miter;"/>
    </defs>
    <g clip-path="url(#p4bbb073427)">
     <use style="fill:#d95f02;stroke:#d95f02;stroke-linejoin:miter;" x="250.732308" xlink:href="#me01452d7f6" y="149.192114"/>
     <use style="fill:#d95f02;stroke:#d95f02;stroke-linejoin:miter;" x="255.514893" xlink:href="#me01452d7f6" y="141.906588"/>
     <use style="fill:#d95f02;stroke:#d95f02;stroke-linejoin:miter;" x="311.224124" xlink:href="#me01452d7f6" y="146.936052"/>
    </g>
   </g>
   <g id="patch_3">
    <path d="M 45 169.2 
L 45 43.2 
" style="fill:none;stroke:#000000;stroke-linecap:square;stroke-linejoin:miter;stroke-width:0.8;"/>
   </g>
   <g id="patch_4">
    <path d="M 324 169.2 
L 324 43.2 
" style="fill:none;stroke:#000000;stroke-linecap:square;stroke-linejoin:miter;stroke-width:0.8;"/>
   </g>
   <g id="patch_5">
    <path d="M 45 169.2 
L 324 169.2 
" style="fill:none;stroke:#000000;stroke-linecap:square;stroke-linejoin:miter;stroke-width:0.8;"/>
   </g>
   <g id="patch_6">
    <path d="M 45 43.2 
L 324 43.2 
" style="fill:none;stroke:#000000;stroke-linecap:square;stroke-linejoin:miter;stroke-width:0.8;"/>
   </g>
   <g id="text_7">
    <!-- FeII 5169$\AA$ -->
    <defs>
     <path d="M 8.203125 0 
L 8.203125 71.578125 
L 56.5 71.578125 
L 56.5 63.140625 
L 17.671875 63.140625 
L 17.671875 40.96875 
L 51.265625 40.96875 
L 51.265625 32.515625 
L 17.671875 32.515625 
L 17.671875 0 
z
" id="ArialMT-70"/>
     <path d="M 9.328125 0 
L 9.328125 71.578125 
L 18.796875 71.578125 
L 18.796875 0 
z
" id="ArialMT-73"/>
     <path d="M 49.75 54.046875 
L 41.015625 53.375 
Q 39.84375 58.546875 37.703125 60.890625 
Q 34.125 64.65625 28.90625 64.65625 
Q 24.703125 64.65625 21.53125 62.3125 
Q 17.390625 59.28125 14.984375 53.46875 
Q 12.59375 47.65625 12.5 36.921875 
Q 15.671875 41.75 20.265625 44.09375 
Q 24.859375 46.4375 29.890625 46.4375 
Q 38.671875 46.4375 44.84375 39.96875 
Q 51.03125 33.5 51.03125 23.25 
Q 51.03125 16.5 48.125 10.71875 
Q 45.21875 4.9375 40.140625 1.859375 
Q 35.0625 -1.21875 28.609375 -1.21875 
Q 17.625 -1.21875 10.6875 6.859375 
Q 3.765625 14.9375 3.765625 33.5 
Q 3.765625 54.25 11.421875 63.671875 
Q 18.109375 71.875 29.4375 71.875 
Q 37.890625 71.875 43.28125 67.140625 
Q 48.6875 62.40625 49.75 54.046875 
z
M 13.875 23.1875 
Q 13.875 18.65625 15.796875 14.5 
Q 17.71875 10.359375 21.1875 8.171875 
Q 24.65625 6 28.46875 6 
Q 34.03125 6 38.03125 10.484375 
Q 42.046875 14.984375 42.046875 22.703125 
Q 42.046875 30.125 38.078125 34.390625 
Q 34.125 38.671875 28.125 38.671875 
Q 22.171875 38.671875 18.015625 34.390625 
Q 13.875 30.125 13.875 23.1875 
z
" id="ArialMT-54"/>
     <path d="M 5.46875 16.546875 
L 13.921875 17.328125 
Q 14.984375 11.375 18.015625 8.6875 
Q 21.046875 6 25.78125 6 
Q 29.828125 6 32.875 7.859375 
Q 35.9375 9.71875 37.890625 12.8125 
Q 39.84375 15.921875 41.15625 21.1875 
Q 42.484375 26.46875 42.484375 31.9375 
Q 42.484375 32.515625 42.4375 33.6875 
Q 39.796875 29.5 35.234375 26.875 
Q 30.671875 24.265625 25.34375 24.265625 
Q 16.453125 24.265625 10.296875 30.703125 
Q 4.15625 37.15625 4.15625 47.703125 
Q 4.15625 58.59375 10.578125 65.234375 
Q 17 71.875 26.65625 71.875 
Q 33.640625 71.875 39.421875 68.109375 
Q 45.21875 64.359375 48.21875 57.390625 
Q 51.21875 50.4375 51.21875 37.25 
Q 51.21875 23.53125 48.234375 15.40625 
Q 45.265625 7.28125 39.375 3.03125 
Q 33.5 -1.21875 25.59375 -1.21875 
Q 17.1875 -1.21875 11.859375 3.4375 
Q 6.546875 8.109375 5.46875 16.546875 
z
M 41.453125 48.140625 
Q 41.453125 55.71875 37.421875 60.15625 
Q 33.40625 64.59375 27.734375 64.59375 
Q 21.875 64.59375 17.53125 59.8125 
Q 13.1875 55.03125 13.1875 47.40625 
Q 13.1875 40.578125 17.3125 36.296875 
Q 21.4375 32.03125 27.484375 32.03125 
Q 33.59375 32.03125 37.515625 36.296875 
Q 41.453125 40.578125 41.453125 48.140625 
z
" id="ArialMT-57"/>
     <path d="M 49.8125 79.390625 
Q 49.8125 82.46875 47.625 84.640625 
Q 45.453125 86.8125 42.390625 86.8125 
Q 39.265625 86.8125 37.140625 84.6875 
Q 35.015625 82.5625 35.015625 79.390625 
Q 35.015625 76.3125 37.140625 74.15625 
Q 39.265625 72.015625 42.390625 72.015625 
Q 45.453125 72.015625 47.625 74.15625 
Q 49.8125 76.3125 49.8125 79.390625 
z
M 34.421875 68.703125 
Q 31.78125 70.515625 30.390625 73.265625 
Q 29 76.03125 29 79.390625 
Q 29 84.96875 32.90625 88.890625 
Q 36.8125 92.828125 42.390625 92.828125 
Q 47.953125 92.828125 51.875 88.890625 
Q 55.8125 84.96875 55.8125 79.390625 
Q 55.8125 75.53125 54.03125 72.546875 
Q 52.25 69.578125 48.875 67.828125 
L 61.53125 0 
L 51.21875 0 
L 48.1875 18.703125 
L 15.375 18.703125 
L 5.078125 0 
L -5.328125 0 
z
M 40.375 63.1875 
L 19.921875 26.90625 
L 46.6875 26.90625 
z
" id="DejaVuSans-Oblique-197"/>
    </defs>
    <g transform="translate(155.915789 37.721739)scale(0.12 -0.12)">
     <use transform="translate(0 0.171875)" xlink:href="#ArialMT-70"/>
     <use transform="translate(61.083984 0.171875)" xlink:href="#ArialMT-101"/>
     <use transform="translate(116.699219 0.171875)" xlink:href="#ArialMT-73"/>
     <use transform="translate(142.732422 0.171875)" xlink:href="#ArialMT-73"/>
     <use transform="translate(170.515625 0.171875)" xlink:href="#ArialMT-32"/>
     <use transform="translate(198.298828 0.171875)" xlink:href="#ArialMT-53"/>
     <use transform="translate(253.914062 0.171875)" xlink:href="#ArialMT-49"/>
     <use transform="translate(309.529297 0.171875)" xlink:href="#ArialMT-54"/>
     <use transform="translate(365.144531 0.171875)" xlink:href="#ArialMT-57"/>
     <use transform="translate(420.759766 0.171875)" xlink:href="#DejaVuSans-Oblique-197"/>
    </g>
   </g>
   <g id="legend_1">
    <g id="patch_7">
     <path d="M 212.878125 101.538281 
L 317.7 101.538281 
Q 319.5 101.538281 319.5 99.738281 
L 319.5 49.5 
Q 319.5 47.7 317.7 47.7 
L 212.878125 47.7 
Q 211.078125 47.7 211.078125 49.5 
L 211.078125 99.738281 
Q 211.078125 101.538281 212.878125 101.538281 
z
" style="fill:#ffffff;opacity:0.8;stroke:#cccccc;stroke-linejoin:miter;"/>
    </g>
    <g id="line2d_19">
     <path d="M 214.678125 54.701719 
L 232.678125 54.701719 
" style="fill:none;stroke:#808080;stroke-dasharray:5.55,2.4;stroke-dashoffset:0;stroke-opacity:0.4;stroke-width:1.5;"/>
    </g>
    <g id="line2d_20"/>
    <g id="text_8">
     <!-- Normal type II SNe -->
     <defs>
      <path d="M 7.625 0 
L 7.625 71.578125 
L 17.328125 71.578125 
L 54.9375 15.375 
L 54.9375 71.578125 
L 64.015625 71.578125 
L 64.015625 0 
L 54.296875 0 
L 16.703125 56.25 
L 16.703125 0 
z
" id="ArialMT-78"/>
      <path d="M 6.5 0 
L 6.5 51.859375 
L 14.40625 51.859375 
L 14.40625 44 
Q 17.4375 49.515625 20 51.265625 
Q 22.5625 53.03125 25.640625 53.03125 
Q 30.078125 53.03125 34.671875 50.203125 
L 31.640625 42.046875 
Q 28.421875 43.953125 25.203125 43.953125 
Q 22.3125 43.953125 20.015625 42.21875 
Q 17.71875 40.484375 16.75 37.40625 
Q 15.28125 32.71875 15.28125 27.15625 
L 15.28125 0 
z
" id="ArialMT-114"/>
      <path d="M 4.5 23 
L 13.421875 23.78125 
Q 14.0625 18.40625 16.375 14.96875 
Q 18.703125 11.53125 23.578125 9.40625 
Q 28.46875 7.28125 34.578125 7.28125 
Q 39.984375 7.28125 44.140625 8.890625 
Q 48.296875 10.5 50.3125 13.296875 
Q 52.34375 16.109375 52.34375 19.4375 
Q 52.34375 22.796875 50.390625 25.3125 
Q 48.4375 27.828125 43.953125 29.546875 
Q 41.0625 30.671875 31.203125 33.03125 
Q 21.34375 35.40625 17.390625 37.5 
Q 12.25 40.1875 9.734375 44.15625 
Q 7.234375 48.140625 7.234375 53.078125 
Q 7.234375 58.5 10.296875 63.203125 
Q 13.375 67.921875 19.28125 70.359375 
Q 25.203125 72.796875 32.421875 72.796875 
Q 40.375 72.796875 46.453125 70.234375 
Q 52.546875 67.671875 55.8125 62.6875 
Q 59.078125 57.71875 59.328125 51.421875 
L 50.25 50.734375 
Q 49.515625 57.515625 45.28125 60.984375 
Q 41.0625 64.453125 32.8125 64.453125 
Q 24.21875 64.453125 20.28125 61.296875 
Q 16.359375 58.15625 16.359375 53.71875 
Q 16.359375 49.859375 19.140625 47.359375 
Q 21.875 44.875 33.421875 42.265625 
Q 44.96875 39.65625 49.265625 37.703125 
Q 55.515625 34.8125 58.484375 30.390625 
Q 61.46875 25.984375 61.46875 20.21875 
Q 61.46875 14.5 58.203125 9.4375 
Q 54.9375 4.390625 48.796875 1.578125 
Q 42.671875 -1.21875 35.015625 -1.21875 
Q 25.296875 -1.21875 18.71875 1.609375 
Q 12.15625 4.4375 8.421875 10.125 
Q 4.6875 15.828125 4.5 23 
z
" id="ArialMT-83"/>
     </defs>
     <g transform="translate(239.878125 57.851719)scale(0.09 -0.09)">
      <use xlink:href="#ArialMT-78"/>
      <use x="72.216797" xlink:href="#ArialMT-111"/>
      <use x="127.832031" xlink:href="#ArialMT-114"/>
      <use x="161.132812" xlink:href="#ArialMT-109"/>
      <use x="244.433594" xlink:href="#ArialMT-97"/>
      <use x="300.048828" xlink:href="#ArialMT-108"/>
      <use x="322.265625" xlink:href="#ArialMT-32"/>
      <use x="350.048828" xlink:href="#ArialMT-116"/>
      <use x="377.832031" xlink:href="#ArialMT-121"/>
      <use x="427.832031" xlink:href="#ArialMT-112"/>
      <use x="483.447266" xlink:href="#ArialMT-101"/>
      <use x="539.0625" xlink:href="#ArialMT-32"/>
      <use x="566.845703" xlink:href="#ArialMT-73"/>
      <use x="594.628906" xlink:href="#ArialMT-73"/>
      <use x="622.412109" xlink:href="#ArialMT-32"/>
      <use x="650.195312" xlink:href="#ArialMT-83"/>
      <use x="716.894531" xlink:href="#ArialMT-78"/>
      <use x="789.111328" xlink:href="#ArialMT-101"/>
     </g>
    </g>
    <g id="LineCollection_4">
     <path d="M 223.678125 72.037969 
L 223.678125 63.037969 
" style="fill:none;stroke:#1b9e77;stroke-width:1.5;"/>
    </g>
    <g id="line2d_21"/>
    <g id="line2d_22">
     <g>
      <use style="fill:#1b9e77;stroke:#1b9e77;" x="223.678125" xlink:href="#m19d02bfaeb" y="67.537969"/>
     </g>
    </g>
    <g id="text_9">
     <!-- SN 2018hmx -->
     <defs>
      <path d="M 17.671875 38.8125 
Q 12.203125 40.828125 9.5625 44.53125 
Q 6.9375 48.25 6.9375 53.421875 
Q 6.9375 61.234375 12.546875 66.546875 
Q 18.171875 71.875 27.484375 71.875 
Q 36.859375 71.875 42.578125 66.421875 
Q 48.296875 60.984375 48.296875 53.171875 
Q 48.296875 48.1875 45.671875 44.5 
Q 43.0625 40.828125 37.75 38.8125 
Q 44.34375 36.671875 47.78125 31.875 
Q 51.21875 27.09375 51.21875 20.453125 
Q 51.21875 11.28125 44.71875 5.03125 
Q 38.234375 -1.21875 27.640625 -1.21875 
Q 17.046875 -1.21875 10.546875 5.046875 
Q 4.046875 11.328125 4.046875 20.703125 
Q 4.046875 27.6875 7.59375 32.390625 
Q 11.140625 37.109375 17.671875 38.8125 
z
M 15.921875 53.71875 
Q 15.921875 48.640625 19.1875 45.40625 
Q 22.46875 42.1875 27.6875 42.1875 
Q 32.765625 42.1875 36.015625 45.375 
Q 39.265625 48.578125 39.265625 53.21875 
Q 39.265625 58.0625 35.90625 61.359375 
Q 32.5625 64.65625 27.59375 64.65625 
Q 22.5625 64.65625 19.234375 61.421875 
Q 15.921875 58.203125 15.921875 53.71875 
z
M 13.09375 20.65625 
Q 13.09375 16.890625 14.875 13.375 
Q 16.65625 9.859375 20.171875 7.921875 
Q 23.6875 6 27.734375 6 
Q 34.03125 6 38.125 10.046875 
Q 42.234375 14.109375 42.234375 20.359375 
Q 42.234375 26.703125 38.015625 30.859375 
Q 33.796875 35.015625 27.4375 35.015625 
Q 21.234375 35.015625 17.15625 30.90625 
Q 13.09375 26.8125 13.09375 20.65625 
z
" id="ArialMT-56"/>
      <path d="M 6.59375 0 
L 6.59375 71.578125 
L 15.375 71.578125 
L 15.375 45.90625 
Q 21.53125 53.03125 30.90625 53.03125 
Q 36.671875 53.03125 40.921875 50.75 
Q 45.171875 48.484375 47 44.484375 
Q 48.828125 40.484375 48.828125 32.859375 
L 48.828125 0 
L 40.046875 0 
L 40.046875 32.859375 
Q 40.046875 39.453125 37.1875 42.453125 
Q 34.328125 45.453125 29.109375 45.453125 
Q 25.203125 45.453125 21.75 43.421875 
Q 18.3125 41.40625 16.84375 37.9375 
Q 15.375 34.46875 15.375 28.375 
L 15.375 0 
z
" id="ArialMT-104"/>
     </defs>
     <g transform="translate(239.878125 70.687969)scale(0.09 -0.09)">
      <use xlink:href="#ArialMT-83"/>
      <use x="66.699219" xlink:href="#ArialMT-78"/>
      <use x="138.916016" xlink:href="#ArialMT-32"/>
      <use x="166.699219" xlink:href="#ArialMT-50"/>
      <use x="222.314453" xlink:href="#ArialMT-48"/>
      <use x="277.929688" xlink:href="#ArialMT-49"/>
      <use x="333.544922" xlink:href="#ArialMT-56"/>
      <use x="389.160156" xlink:href="#ArialMT-104"/>
      <use x="444.775391" xlink:href="#ArialMT-109"/>
      <use x="528.076172" xlink:href="#ArialMT-120"/>
     </g>
    </g>
    <g id="LineCollection_5">
     <path d="M 223.678125 84.76875 
L 223.678125 75.76875 
" style="fill:none;stroke:#7570b3;stroke-width:1.5;"/>
    </g>
    <g id="line2d_23"/>
    <g id="line2d_24">
     <g>
      <use style="fill:#7570b3;stroke:#7570b3;stroke-linejoin:miter;" x="223.678125" xlink:href="#m0e75dde199" y="80.26875"/>
     </g>
    </g>
    <g id="text_10">
     <!-- iPTF14hls -->
     <defs>
      <path d="M 7.71875 0 
L 7.71875 71.578125 
L 34.71875 71.578125 
Q 41.84375 71.578125 45.609375 70.90625 
Q 50.875 70.015625 54.4375 67.546875 
Q 58.015625 65.09375 60.1875 60.640625 
Q 62.359375 56.203125 62.359375 50.875 
Q 62.359375 41.75 56.546875 35.421875 
Q 50.734375 29.109375 35.546875 29.109375 
L 17.1875 29.109375 
L 17.1875 0 
z
M 17.1875 37.546875 
L 35.6875 37.546875 
Q 44.875 37.546875 48.734375 40.96875 
Q 52.59375 44.390625 52.59375 50.59375 
Q 52.59375 55.078125 50.3125 58.265625 
Q 48.046875 61.46875 44.34375 62.5 
Q 41.9375 63.140625 35.5 63.140625 
L 17.1875 63.140625 
z
" id="ArialMT-80"/>
      <path d="M 25.921875 0 
L 25.921875 63.140625 
L 2.34375 63.140625 
L 2.34375 71.578125 
L 59.078125 71.578125 
L 59.078125 63.140625 
L 35.40625 63.140625 
L 35.40625 0 
z
" id="ArialMT-84"/>
      <path d="M 32.328125 0 
L 32.328125 17.140625 
L 1.265625 17.140625 
L 1.265625 25.203125 
L 33.9375 71.578125 
L 41.109375 71.578125 
L 41.109375 25.203125 
L 50.78125 25.203125 
L 50.78125 17.140625 
L 41.109375 17.140625 
L 41.109375 0 
z
M 32.328125 25.203125 
L 32.328125 57.46875 
L 9.90625 25.203125 
z
" id="ArialMT-52"/>
     </defs>
     <g transform="translate(239.878125 83.41875)scale(0.09 -0.09)">
      <use xlink:href="#ArialMT-105"/>
      <use x="22.216797" xlink:href="#ArialMT-80"/>
      <use x="88.916016" xlink:href="#ArialMT-84"/>
      <use x="150" xlink:href="#ArialMT-70"/>
      <use x="211.083984" xlink:href="#ArialMT-49"/>
      <use x="266.699219" xlink:href="#ArialMT-52"/>
      <use x="322.314453" xlink:href="#ArialMT-104"/>
      <use x="377.929688" xlink:href="#ArialMT-108"/>
      <use x="400.146484" xlink:href="#ArialMT-115"/>
     </g>
    </g>
    <g id="LineCollection_6">
     <path d="M 223.678125 97.499531 
L 223.678125 88.499531 
" style="fill:none;stroke:#d95f02;stroke-width:1.5;"/>
    </g>
    <g id="line2d_25"/>
    <g id="line2d_26">
     <g>
      <use style="fill:#d95f02;stroke:#d95f02;stroke-linejoin:miter;" x="223.678125" xlink:href="#me01452d7f6" y="92.999531"/>
     </g>
    </g>
    <g id="text_11">
     <!-- SN 2018aad -->
     <defs>
      <path d="M 40.234375 0 
L 40.234375 6.546875 
Q 35.296875 -1.171875 25.734375 -1.171875 
Q 19.53125 -1.171875 14.328125 2.25 
Q 9.125 5.671875 6.265625 11.796875 
Q 3.421875 17.921875 3.421875 25.875 
Q 3.421875 33.640625 6 39.96875 
Q 8.59375 46.296875 13.765625 49.65625 
Q 18.953125 53.03125 25.34375 53.03125 
Q 30.03125 53.03125 33.6875 51.046875 
Q 37.359375 49.078125 39.65625 45.90625 
L 39.65625 71.578125 
L 48.390625 71.578125 
L 48.390625 0 
z
M 12.453125 25.875 
Q 12.453125 15.921875 16.640625 10.984375 
Q 20.84375 6.0625 26.5625 6.0625 
Q 32.328125 6.0625 36.34375 10.765625 
Q 40.375 15.484375 40.375 25.140625 
Q 40.375 35.796875 36.265625 40.765625 
Q 32.171875 45.75 26.171875 45.75 
Q 20.3125 45.75 16.375 40.96875 
Q 12.453125 36.1875 12.453125 25.875 
z
" id="ArialMT-100"/>
     </defs>
     <g transform="translate(239.878125 96.149531)scale(0.09 -0.09)">
      <use xlink:href="#ArialMT-83"/>
      <use x="66.699219" xlink:href="#ArialMT-78"/>
      <use x="138.916016" xlink:href="#ArialMT-32"/>
      <use x="166.699219" xlink:href="#ArialMT-50"/>
      <use x="222.314453" xlink:href="#ArialMT-48"/>
      <use x="277.929688" xlink:href="#ArialMT-49"/>
      <use x="333.544922" xlink:href="#ArialMT-56"/>
      <use x="389.160156" xlink:href="#ArialMT-97"/>
      <use x="444.775391" xlink:href="#ArialMT-97"/>
      <use x="500.390625" xlink:href="#ArialMT-100"/>
     </g>
    </g>
   </g>
  </g>
  <g id="axes_2">
   <g id="patch_8">
    <path d="M 45 320.4 
L 324 320.4 
L 324 194.4 
L 45 194.4 
z
" style="fill:#ffffff;"/>
   </g>
   <g id="PolyCollection_2">
    <path clip-path="url(#pc4493fb5fc)" d="M 53.157895 244.827391 
L 53.157895 255.236087 
L 60.663158 269.342609 
L 67.515789 278.321478 
L 76.163158 279.000783 
L 84.321053 288.450783 
L 91.826316 284.550261 
L 100.636842 284.511913 
L 108.794737 287.913913 
L 116.463158 294.071478 
L 124.621053 290.965304 
L 133.268421 294.213913 
L 142.242105 294.57 
L 149.910526 292.71287 
L 157.578947 289.858696 
L 165.410526 292.154087 
L 174.221053 296.290174 
L 182.868421 295.161652 
L 189.394737 297.024261 
L 198.857895 300.404348 
L 206.852632 300.048261 
L 214.684211 303.587217 
L 223.168421 296.30113 
L 235.405263 295.04113 
L 235.405263 282.156261 
L 235.405263 282.156261 
L 223.168421 282.868435 
L 214.684211 288.763043 
L 206.852632 277.335391 
L 198.857895 278.316 
L 189.394737 275.878174 
L 182.868421 274.530522 
L 174.221053 278.102348 
L 165.410526 275.018087 
L 157.578947 278.485826 
L 149.910526 275.565913 
L 142.242105 273.752609 
L 133.268421 274.985217 
L 124.621053 271.550348 
L 116.463158 274.952348 
L 108.794737 270.953217 
L 100.636842 271.429826 
L 91.826316 264.554609 
L 84.321053 266.910261 
L 76.163158 263.332957 
L 67.515789 258.742174 
L 60.663158 254.200696 
L 53.157895 244.827391 
z
" style="fill:#808080;fill-opacity:0.1;stroke:#808080;stroke-dasharray:3.7,1.6;stroke-dashoffset:0;stroke-opacity:0.1;"/>
   </g>
   <g id="matplotlib.axis_3">
    <g id="xtick_10">
     <g id="line2d_27">
      <g>
       <use style="stroke:#000000;stroke-width:0.8;" x="46.631579" xlink:href="#m6907077494" y="320.4"/>
      </g>
     </g>
     <g id="text_12">
      <!-- 0 -->
      <g transform="translate(44.129157 333.842031)scale(0.09 -0.09)">
       <use xlink:href="#ArialMT-48"/>
      </g>
     </g>
    </g>
    <g id="xtick_11">
     <g id="line2d_28">
      <g>
       <use style="stroke:#000000;stroke-width:0.8;" x="79.263158" xlink:href="#m6907077494" y="320.4"/>
      </g>
     </g>
     <g id="text_13">
      <!-- 20 -->
      <g transform="translate(74.258314 333.842031)scale(0.09 -0.09)">
       <use xlink:href="#ArialMT-50"/>
       <use x="55.615234" xlink:href="#ArialMT-48"/>
      </g>
     </g>
    </g>
    <g id="xtick_12">
     <g id="line2d_29">
      <g>
       <use style="stroke:#000000;stroke-width:0.8;" x="111.894737" xlink:href="#m6907077494" y="320.4"/>
      </g>
     </g>
     <g id="text_14">
      <!-- 40 -->
      <g transform="translate(106.889893 333.842031)scale(0.09 -0.09)">
       <use xlink:href="#ArialMT-52"/>
       <use x="55.615234" xlink:href="#ArialMT-48"/>
      </g>
     </g>
    </g>
    <g id="xtick_13">
     <g id="line2d_30">
      <g>
       <use style="stroke:#000000;stroke-width:0.8;" x="144.526316" xlink:href="#m6907077494" y="320.4"/>
      </g>
     </g>
     <g id="text_15">
      <!-- 60 -->
      <g transform="translate(139.521472 333.842031)scale(0.09 -0.09)">
       <use xlink:href="#ArialMT-54"/>
       <use x="55.615234" xlink:href="#ArialMT-48"/>
      </g>
     </g>
    </g>
    <g id="xtick_14">
     <g id="line2d_31">
      <g>
       <use style="stroke:#000000;stroke-width:0.8;" x="177.157895" xlink:href="#m6907077494" y="320.4"/>
      </g>
     </g>
     <g id="text_16">
      <!-- 80 -->
      <g transform="translate(172.153051 333.842031)scale(0.09 -0.09)">
       <use xlink:href="#ArialMT-56"/>
       <use x="55.615234" xlink:href="#ArialMT-48"/>
      </g>
     </g>
    </g>
    <g id="xtick_15">
     <g id="line2d_32">
      <g>
       <use style="stroke:#000000;stroke-width:0.8;" x="209.789474" xlink:href="#m6907077494" y="320.4"/>
      </g>
     </g>
     <g id="text_17">
      <!-- 100 -->
      <g transform="translate(202.282208 333.842031)scale(0.09 -0.09)">
       <use xlink:href="#ArialMT-49"/>
       <use x="55.615234" xlink:href="#ArialMT-48"/>
       <use x="111.230469" xlink:href="#ArialMT-48"/>
      </g>
     </g>
    </g>
    <g id="xtick_16">
     <g id="line2d_33">
      <g>
       <use style="stroke:#000000;stroke-width:0.8;" x="242.421053" xlink:href="#m6907077494" y="320.4"/>
      </g>
     </g>
     <g id="text_18">
      <!-- 120 -->
      <g transform="translate(234.913787 333.842031)scale(0.09 -0.09)">
       <use xlink:href="#ArialMT-49"/>
       <use x="55.615234" xlink:href="#ArialMT-50"/>
       <use x="111.230469" xlink:href="#ArialMT-48"/>
      </g>
     </g>
    </g>
    <g id="xtick_17">
     <g id="line2d_34">
      <g>
       <use style="stroke:#000000;stroke-width:0.8;" x="275.052632" xlink:href="#m6907077494" y="320.4"/>
      </g>
     </g>
     <g id="text_19">
      <!-- 140 -->
      <g transform="translate(267.545366 333.842031)scale(0.09 -0.09)">
       <use xlink:href="#ArialMT-49"/>
       <use x="55.615234" xlink:href="#ArialMT-52"/>
       <use x="111.230469" xlink:href="#ArialMT-48"/>
      </g>
     </g>
    </g>
    <g id="xtick_18">
     <g id="line2d_35">
      <g>
       <use style="stroke:#000000;stroke-width:0.8;" x="307.684211" xlink:href="#m6907077494" y="320.4"/>
      </g>
     </g>
     <g id="text_20">
      <!-- 160 -->
      <g transform="translate(300.176945 333.842031)scale(0.09 -0.09)">
       <use xlink:href="#ArialMT-49"/>
       <use x="55.615234" xlink:href="#ArialMT-54"/>
       <use x="111.230469" xlink:href="#ArialMT-48"/>
      </g>
     </g>
    </g>
    <g id="text_21">
     <!-- Days from discovery -->
     <defs>
      <path d="M 7.71875 0 
L 7.71875 71.578125 
L 32.375 71.578125 
Q 40.71875 71.578125 45.125 70.5625 
Q 51.265625 69.140625 55.609375 65.4375 
Q 61.28125 60.640625 64.078125 53.1875 
Q 66.890625 45.75 66.890625 36.1875 
Q 66.890625 28.03125 64.984375 21.734375 
Q 63.09375 15.4375 60.109375 11.296875 
Q 57.125 7.171875 53.578125 4.796875 
Q 50.046875 2.4375 45.046875 1.21875 
Q 40.046875 0 33.546875 0 
z
M 17.1875 8.453125 
L 32.46875 8.453125 
Q 39.546875 8.453125 43.578125 9.765625 
Q 47.609375 11.078125 50 13.484375 
Q 53.375 16.84375 55.25 22.53125 
Q 57.125 28.21875 57.125 36.328125 
Q 57.125 47.5625 53.4375 53.59375 
Q 49.75 59.625 44.484375 61.671875 
Q 40.671875 63.140625 32.234375 63.140625 
L 17.1875 63.140625 
z
" id="ArialMT-68"/>
      <path d="M 8.6875 0 
L 8.6875 45.015625 
L 0.921875 45.015625 
L 0.921875 51.859375 
L 8.6875 51.859375 
L 8.6875 57.375 
Q 8.6875 62.59375 9.625 65.140625 
Q 10.890625 68.5625 14.078125 70.671875 
Q 17.28125 72.796875 23.046875 72.796875 
Q 26.765625 72.796875 31.25 71.921875 
L 29.9375 64.265625 
Q 27.203125 64.75 24.75 64.75 
Q 20.75 64.75 19.09375 63.03125 
Q 17.4375 61.328125 17.4375 56.640625 
L 17.4375 51.859375 
L 27.546875 51.859375 
L 27.546875 45.015625 
L 17.4375 45.015625 
L 17.4375 0 
z
" id="ArialMT-102"/>
     </defs>
     <g transform="translate(143.742656 346.1825)scale(0.09 -0.09)">
      <use xlink:href="#ArialMT-68"/>
      <use x="72.216797" xlink:href="#ArialMT-97"/>
      <use x="127.832031" xlink:href="#ArialMT-121"/>
      <use x="177.832031" xlink:href="#ArialMT-115"/>
      <use x="227.832031" xlink:href="#ArialMT-32"/>
      <use x="255.615234" xlink:href="#ArialMT-102"/>
      <use x="283.398438" xlink:href="#ArialMT-114"/>
      <use x="316.699219" xlink:href="#ArialMT-111"/>
      <use x="372.314453" xlink:href="#ArialMT-109"/>
      <use x="455.615234" xlink:href="#ArialMT-32"/>
      <use x="483.398438" xlink:href="#ArialMT-100"/>
      <use x="539.013672" xlink:href="#ArialMT-105"/>
      <use x="561.230469" xlink:href="#ArialMT-115"/>
      <use x="611.230469" xlink:href="#ArialMT-99"/>
      <use x="661.230469" xlink:href="#ArialMT-111"/>
      <use x="716.845703" xlink:href="#ArialMT-118"/>
      <use x="766.845703" xlink:href="#ArialMT-101"/>
      <use x="822.460938" xlink:href="#ArialMT-114"/>
      <use x="855.761719" xlink:href="#ArialMT-121"/>
     </g>
    </g>
   </g>
   <g id="matplotlib.axis_4">
    <g id="ytick_6">
     <g id="line2d_36">
      <g>
       <use style="stroke:#000000;stroke-width:0.8;" x="45" xlink:href="#m14d6504dee" y="320.4"/>
      </g>
     </g>
     <g id="text_22">
      <!-- 0 -->
      <g transform="translate(32.995156 323.621016)scale(0.09 -0.09)">
       <use xlink:href="#ArialMT-48"/>
      </g>
     </g>
    </g>
    <g id="ytick_7">
     <g id="line2d_37">
      <g>
       <use style="stroke:#000000;stroke-width:0.8;" x="45" xlink:href="#m14d6504dee" y="306.704348"/>
      </g>
     </g>
     <g id="text_23">
      <!-- 2500 -->
      <g transform="translate(17.980625 309.925363)scale(0.09 -0.09)">
       <use xlink:href="#ArialMT-50"/>
       <use x="55.615234" xlink:href="#ArialMT-53"/>
       <use x="111.230469" xlink:href="#ArialMT-48"/>
       <use x="166.845703" xlink:href="#ArialMT-48"/>
      </g>
     </g>
    </g>
    <g id="ytick_8">
     <g id="line2d_38">
      <g>
       <use style="stroke:#000000;stroke-width:0.8;" x="45" xlink:href="#m14d6504dee" y="293.008696"/>
      </g>
     </g>
     <g id="text_24">
      <!-- 5000 -->
      <g transform="translate(17.980625 296.229711)scale(0.09 -0.09)">
       <use xlink:href="#ArialMT-53"/>
       <use x="55.615234" xlink:href="#ArialMT-48"/>
       <use x="111.230469" xlink:href="#ArialMT-48"/>
       <use x="166.845703" xlink:href="#ArialMT-48"/>
      </g>
     </g>
    </g>
    <g id="ytick_9">
     <g id="line2d_39">
      <g>
       <use style="stroke:#000000;stroke-width:0.8;" x="45" xlink:href="#m14d6504dee" y="279.313043"/>
      </g>
     </g>
     <g id="text_25">
      <!-- 7500 -->
      <g transform="translate(17.980625 282.534059)scale(0.09 -0.09)">
       <use xlink:href="#ArialMT-55"/>
       <use x="55.615234" xlink:href="#ArialMT-53"/>
       <use x="111.230469" xlink:href="#ArialMT-48"/>
       <use x="166.845703" xlink:href="#ArialMT-48"/>
      </g>
     </g>
    </g>
    <g id="ytick_10">
     <g id="line2d_40">
      <g>
       <use style="stroke:#000000;stroke-width:0.8;" x="45" xlink:href="#m14d6504dee" y="265.617391"/>
      </g>
     </g>
     <g id="text_26">
      <!-- 10000 -->
      <g transform="translate(12.975781 268.838407)scale(0.09 -0.09)">
       <use xlink:href="#ArialMT-49"/>
       <use x="55.615234" xlink:href="#ArialMT-48"/>
       <use x="111.230469" xlink:href="#ArialMT-48"/>
       <use x="166.845703" xlink:href="#ArialMT-48"/>
       <use x="222.460938" xlink:href="#ArialMT-48"/>
      </g>
     </g>
    </g>
    <g id="ytick_11">
     <g id="line2d_41">
      <g>
       <use style="stroke:#000000;stroke-width:0.8;" x="45" xlink:href="#m14d6504dee" y="251.921739"/>
      </g>
     </g>
     <g id="text_27">
      <!-- 12500 -->
      <g transform="translate(12.975781 255.142755)scale(0.09 -0.09)">
       <use xlink:href="#ArialMT-49"/>
       <use x="55.615234" xlink:href="#ArialMT-50"/>
       <use x="111.230469" xlink:href="#ArialMT-53"/>
       <use x="166.845703" xlink:href="#ArialMT-48"/>
       <use x="222.460938" xlink:href="#ArialMT-48"/>
      </g>
     </g>
    </g>
    <g id="ytick_12">
     <g id="line2d_42">
      <g>
       <use style="stroke:#000000;stroke-width:0.8;" x="45" xlink:href="#m14d6504dee" y="238.226087"/>
      </g>
     </g>
     <g id="text_28">
      <!-- 15000 -->
      <g transform="translate(12.975781 241.447103)scale(0.09 -0.09)">
       <use xlink:href="#ArialMT-49"/>
       <use x="55.615234" xlink:href="#ArialMT-53"/>
       <use x="111.230469" xlink:href="#ArialMT-48"/>
       <use x="166.845703" xlink:href="#ArialMT-48"/>
       <use x="222.460938" xlink:href="#ArialMT-48"/>
      </g>
     </g>
    </g>
    <g id="ytick_13">
     <g id="line2d_43">
      <g>
       <use style="stroke:#000000;stroke-width:0.8;" x="45" xlink:href="#m14d6504dee" y="224.530435"/>
      </g>
     </g>
     <g id="text_29">
      <!-- 17500 -->
      <g transform="translate(12.975781 227.75145)scale(0.09 -0.09)">
       <use xlink:href="#ArialMT-49"/>
       <use x="55.615234" xlink:href="#ArialMT-55"/>
       <use x="111.230469" xlink:href="#ArialMT-53"/>
       <use x="166.845703" xlink:href="#ArialMT-48"/>
       <use x="222.460938" xlink:href="#ArialMT-48"/>
      </g>
     </g>
    </g>
    <g id="ytick_14">
     <g id="line2d_44">
      <g>
       <use style="stroke:#000000;stroke-width:0.8;" x="45" xlink:href="#m14d6504dee" y="210.834783"/>
      </g>
     </g>
     <g id="text_30">
      <!-- 20000 -->
      <g transform="translate(12.975781 214.055798)scale(0.09 -0.09)">
       <use xlink:href="#ArialMT-50"/>
       <use x="55.615234" xlink:href="#ArialMT-48"/>
       <use x="111.230469" xlink:href="#ArialMT-48"/>
       <use x="166.845703" xlink:href="#ArialMT-48"/>
       <use x="222.460938" xlink:href="#ArialMT-48"/>
      </g>
     </g>
    </g>
    <g id="text_31">
     <!-- Expansion velocity (km/s) -->
     <g transform="translate(7.081562 308.413828)rotate(-90)scale(0.09 -0.09)">
      <use xlink:href="#ArialMT-69"/>
      <use x="66.699219" xlink:href="#ArialMT-120"/>
      <use x="116.699219" xlink:href="#ArialMT-112"/>
      <use x="172.314453" xlink:href="#ArialMT-97"/>
      <use x="227.929688" xlink:href="#ArialMT-110"/>
      <use x="283.544922" xlink:href="#ArialMT-115"/>
      <use x="333.544922" xlink:href="#ArialMT-105"/>
      <use x="355.761719" xlink:href="#ArialMT-111"/>
      <use x="411.376953" xlink:href="#ArialMT-110"/>
      <use x="466.992188" xlink:href="#ArialMT-32"/>
      <use x="494.775391" xlink:href="#ArialMT-118"/>
      <use x="544.775391" xlink:href="#ArialMT-101"/>
      <use x="600.390625" xlink:href="#ArialMT-108"/>
      <use x="622.607422" xlink:href="#ArialMT-111"/>
      <use x="678.222656" xlink:href="#ArialMT-99"/>
      <use x="728.222656" xlink:href="#ArialMT-105"/>
      <use x="750.439453" xlink:href="#ArialMT-116"/>
      <use x="778.222656" xlink:href="#ArialMT-121"/>
      <use x="828.222656" xlink:href="#ArialMT-32"/>
      <use x="856.005859" xlink:href="#ArialMT-40"/>
      <use x="889.306641" xlink:href="#ArialMT-107"/>
      <use x="939.306641" xlink:href="#ArialMT-109"/>
      <use x="1022.607422" xlink:href="#ArialMT-47"/>
      <use x="1050.390625" xlink:href="#ArialMT-115"/>
      <use x="1100.390625" xlink:href="#ArialMT-41"/>
     </g>
    </g>
   </g>
   <g id="LineCollection_7">
    <path clip-path="url(#pc4493fb5fc)" d="M 77.672061 217.48709 
L 77.672061 217.48709 
" style="fill:none;stroke:#1b9e77;stroke-width:1.5;"/>
    <path clip-path="url(#pc4493fb5fc)" d="M 84.310739 233.538072 
L 84.310739 232.231184 
" style="fill:none;stroke:#1b9e77;stroke-width:1.5;"/>
    <path clip-path="url(#pc4493fb5fc)" d="M 101.437613 246.809904 
L 101.437613 244.677299 
" style="fill:none;stroke:#1b9e77;stroke-width:1.5;"/>
    <path clip-path="url(#pc4493fb5fc)" d="M 110.890227 251.916645 
L 110.890227 249.040212 
" style="fill:none;stroke:#1b9e77;stroke-width:1.5;"/>
    <path clip-path="url(#pc4493fb5fc)" d="M 120.325522 254.627767 
L 120.325522 252.678066 
" style="fill:none;stroke:#1b9e77;stroke-width:1.5;"/>
    <path clip-path="url(#pc4493fb5fc)" d="M 120.474593 254.911734 
L 120.474593 253.026826 
" style="fill:none;stroke:#1b9e77;stroke-width:1.5;"/>
    <path clip-path="url(#pc4493fb5fc)" d="M 123.266171 255.325258 
L 123.266171 253.043933 
" style="fill:none;stroke:#1b9e77;stroke-width:1.5;"/>
    <path clip-path="url(#pc4493fb5fc)" d="M 139.32548 258.729328 
L 139.32548 256.566172 
" style="fill:none;stroke:#1b9e77;stroke-width:1.5;"/>
    <path clip-path="url(#pc4493fb5fc)" d="M 151.600654 260.47031 
L 151.600654 258.187652 
" style="fill:none;stroke:#1b9e77;stroke-width:1.5;"/>
    <path clip-path="url(#pc4493fb5fc)" d="M 181.43069 263.022845 
L 181.43069 260.886537 
" style="fill:none;stroke:#1b9e77;stroke-width:1.5;"/>
    <path clip-path="url(#pc4493fb5fc)" d="M 183.320197 263.305177 
L 183.320197 261.21646 
" style="fill:none;stroke:#1b9e77;stroke-width:1.5;"/>
    <path clip-path="url(#pc4493fb5fc)" d="M 200.518368 264.03693 
L 200.518368 262.274964 
" style="fill:none;stroke:#1b9e77;stroke-width:1.5;"/>
    <path clip-path="url(#pc4493fb5fc)" d="M 220.814937 266.074877 
L 220.814937 264.11953 
" style="fill:none;stroke:#1b9e77;stroke-width:1.5;"/>
   </g>
   <g id="LineCollection_8">
    <path clip-path="url(#pc4493fb5fc)" d="M 222.793385 272.856365 
L 222.793385 270.963078 
" style="fill:none;stroke:#7570b3;stroke-width:1.5;"/>
    <path clip-path="url(#pc4493fb5fc)" d="M 239.109174 276.657402 
L 239.109174 273.22571 
" style="fill:none;stroke:#7570b3;stroke-width:1.5;"/>
    <path clip-path="url(#pc4493fb5fc)" d="M 261.951279 275.62212 
L 261.951279 271.699795 
" style="fill:none;stroke:#7570b3;stroke-width:1.5;"/>
    <path clip-path="url(#pc4493fb5fc)" d="M 278.267069 276.751737 
L 278.267069 276.412523 
" style="fill:none;stroke:#7570b3;stroke-width:1.5;"/>
    <path clip-path="url(#pc4493fb5fc)" d="M 278.267069 276.178821 
L 278.267069 275.75831 
" style="fill:none;stroke:#7570b3;stroke-width:1.5;"/>
    <path clip-path="url(#pc4493fb5fc)" d="M 286.424963 276.686984 
L 286.424963 276.150772 
" style="fill:none;stroke:#7570b3;stroke-width:1.5;"/>
    <path clip-path="url(#pc4493fb5fc)" d="M 312.530227 276.613576 
L 312.530227 276.082732 
" style="fill:none;stroke:#7570b3;stroke-width:1.5;"/>
   </g>
   <g id="LineCollection_9">
    <path clip-path="url(#pc4493fb5fc)" d="M 65.1182 221.454487 
L 65.1182 213.927003 
" style="fill:none;stroke:#d95f02;stroke-width:1.5;"/>
    <path clip-path="url(#pc4493fb5fc)" d="M 250.732308 268.928403 
L 250.732308 265.858454 
" style="fill:none;stroke:#d95f02;stroke-width:1.5;"/>
    <path clip-path="url(#pc4493fb5fc)" d="M 255.514893 269.061229 
L 255.514893 265.769825 
" style="fill:none;stroke:#d95f02;stroke-width:1.5;"/>
    <path clip-path="url(#pc4493fb5fc)" d="M 311.224124 270.664614 
L 311.224124 267.175522 
" style="fill:none;stroke:#d95f02;stroke-width:1.5;"/>
   </g>
   <g id="line2d_45">
    <path clip-path="url(#pc4493fb5fc)" d="M 53.157895 250.031739 
L 60.663158 261.771652 
L 67.515789 268.531826 
L 76.163158 271.16687 
L 84.321053 277.680522 
L 91.826316 274.552435 
L 100.636842 277.97087 
L 108.794737 279.433565 
L 116.463158 284.511913 
L 124.621053 281.257826 
L 133.268421 284.599565 
L 142.242105 284.161304 
L 149.910526 284.139391 
L 157.578947 284.172261 
L 165.410526 283.586087 
L 174.221053 287.196261 
L 182.868421 284.846087 
L 189.394737 286.451217 
L 198.857895 289.360174 
L 206.852632 288.691826 
L 214.684211 296.17513 
L 223.168421 289.584783 
L 235.405263 288.598696 
" style="fill:none;stroke:#808080;stroke-dasharray:5.55,2.4;stroke-dashoffset:0;stroke-opacity:0.4;stroke-width:1.5;"/>
   </g>
   <g id="line2d_46">
    <g clip-path="url(#pc4493fb5fc)">
     <use style="fill:#1b9e77;stroke:#1b9e77;" x="77.672061" xlink:href="#m19d02bfaeb" y="217.48709"/>
     <use style="fill:#1b9e77;stroke:#1b9e77;" x="84.310739" xlink:href="#m19d02bfaeb" y="232.884628"/>
     <use style="fill:#1b9e77;stroke:#1b9e77;" x="101.437613" xlink:href="#m19d02bfaeb" y="245.743601"/>
     <use style="fill:#1b9e77;stroke:#1b9e77;" x="110.890227" xlink:href="#m19d02bfaeb" y="250.478429"/>
     <use style="fill:#1b9e77;stroke:#1b9e77;" x="120.325522" xlink:href="#m19d02bfaeb" y="253.652916"/>
     <use style="fill:#1b9e77;stroke:#1b9e77;" x="120.474593" xlink:href="#m19d02bfaeb" y="253.96928"/>
     <use style="fill:#1b9e77;stroke:#1b9e77;" x="123.266171" xlink:href="#m19d02bfaeb" y="254.184596"/>
     <use style="fill:#1b9e77;stroke:#1b9e77;" x="139.32548" xlink:href="#m19d02bfaeb" y="257.64775"/>
     <use style="fill:#1b9e77;stroke:#1b9e77;" x="151.600654" xlink:href="#m19d02bfaeb" y="259.328981"/>
     <use style="fill:#1b9e77;stroke:#1b9e77;" x="181.43069" xlink:href="#m19d02bfaeb" y="261.954691"/>
     <use style="fill:#1b9e77;stroke:#1b9e77;" x="183.320197" xlink:href="#m19d02bfaeb" y="262.260819"/>
     <use style="fill:#1b9e77;stroke:#1b9e77;" x="200.518368" xlink:href="#m19d02bfaeb" y="263.155947"/>
     <use style="fill:#1b9e77;stroke:#1b9e77;" x="220.814937" xlink:href="#m19d02bfaeb" y="265.097203"/>
    </g>
   </g>
   <g id="line2d_47">
    <g clip-path="url(#pc4493fb5fc)">
     <use style="fill:#7570b3;stroke:#7570b3;stroke-linejoin:miter;" x="222.793385" xlink:href="#m0e75dde199" y="271.909722"/>
     <use style="fill:#7570b3;stroke:#7570b3;stroke-linejoin:miter;" x="239.109174" xlink:href="#m0e75dde199" y="274.941556"/>
     <use style="fill:#7570b3;stroke:#7570b3;stroke-linejoin:miter;" x="261.951279" xlink:href="#m0e75dde199" y="273.660957"/>
     <use style="fill:#7570b3;stroke:#7570b3;stroke-linejoin:miter;" x="278.267069" xlink:href="#m0e75dde199" y="276.58213"/>
     <use style="fill:#7570b3;stroke:#7570b3;stroke-linejoin:miter;" x="278.267069" xlink:href="#m0e75dde199" y="275.968565"/>
     <use style="fill:#7570b3;stroke:#7570b3;stroke-linejoin:miter;" x="286.424963" xlink:href="#m0e75dde199" y="276.418878"/>
     <use style="fill:#7570b3;stroke:#7570b3;stroke-linejoin:miter;" x="312.530227" xlink:href="#m0e75dde199" y="276.348154"/>
    </g>
   </g>
   <g id="line2d_48">
    <g clip-path="url(#pc4493fb5fc)">
     <use style="fill:#d95f02;stroke:#d95f02;stroke-linejoin:miter;" x="65.1182" xlink:href="#me01452d7f6" y="217.690745"/>
     <use style="fill:#d95f02;stroke:#d95f02;stroke-linejoin:miter;" x="250.732308" xlink:href="#me01452d7f6" y="267.393428"/>
     <use style="fill:#d95f02;stroke:#d95f02;stroke-linejoin:miter;" x="255.514893" xlink:href="#me01452d7f6" y="267.415527"/>
     <use style="fill:#d95f02;stroke:#d95f02;stroke-linejoin:miter;" x="311.224124" xlink:href="#me01452d7f6" y="268.920068"/>
    </g>
   </g>
   <g id="patch_9">
    <path d="M 45 320.4 
L 45 194.4 
" style="fill:none;stroke:#000000;stroke-linecap:square;stroke-linejoin:miter;stroke-width:0.8;"/>
   </g>
   <g id="patch_10">
    <path d="M 324 320.4 
L 324 194.4 
" style="fill:none;stroke:#000000;stroke-linecap:square;stroke-linejoin:miter;stroke-width:0.8;"/>
   </g>
   <g id="patch_11">
    <path d="M 45 320.4 
L 324 320.4 
" style="fill:none;stroke:#000000;stroke-linecap:square;stroke-linejoin:miter;stroke-width:0.8;"/>
   </g>
   <g id="patch_12">
    <path d="M 45 194.4 
L 324 194.4 
" style="fill:none;stroke:#000000;stroke-linecap:square;stroke-linejoin:miter;stroke-width:0.8;"/>
   </g>
   <g id="text_32">
    <!-- H$\alpha$ -->
    <defs>
     <path d="M 8.015625 0 
L 8.015625 71.578125 
L 17.484375 71.578125 
L 17.484375 42.1875 
L 54.6875 42.1875 
L 54.6875 71.578125 
L 64.15625 71.578125 
L 64.15625 0 
L 54.6875 0 
L 54.6875 33.734375 
L 17.484375 33.734375 
L 17.484375 0 
z
" id="ArialMT-72"/>
     <path d="M 40.921875 25.4375 
L 40.96875 36.71875 
Q 41.015625 48.25 32.328125 48.296875 
Q 25.828125 48.34375 21.78125 42.921875 
Q 16.703125 36.234375 14.984375 27.296875 
Q 12.890625 16.546875 15.53125 11.421875 
Q 18.265625 6.203125 24.171875 6.203125 
Q 30.71875 6.203125 36.234375 16.609375 
z
M 33.84375 55.90625 
Q 49.078125 56.15625 48.875 40.375 
Q 48.875 40.375 56.5 54.6875 
L 64.5 54.6875 
L 48.734375 25.046875 
L 48.578125 14.359375 
Q 48.578125 11.96875 49.90625 9.96875 
Q 51.421875 7.625 52.984375 7.625 
L 57.328125 7.625 
L 55.859375 0 
L 50.4375 0 
Q 45.84375 0 42.53125 4.109375 
Q 40.96875 6.15625 40.921875 10.453125 
Q 37.75 5.21875 32.28125 0.78125 
Q 29.6875 -1.265625 22.703125 -1.21875 
Q 11.28125 -1.125 7.125 6.203125 
Q 2.875 13.8125 5.515625 27.296875 
Q 8.34375 41.796875 15.765625 48.390625 
Q 24.125 55.765625 33.84375 55.90625 
z
" id="DejaVuSans-Oblique-945"/>
    </defs>
    <g transform="translate(176.975789 188.921739)scale(0.12 -0.12)">
     <use transform="translate(0 0.421875)" xlink:href="#ArialMT-72"/>
     <use transform="translate(72.216797 0.421875)" xlink:href="#DejaVuSans-Oblique-945"/>
    </g>
   </g>
   <g id="legend_2">
    <g id="patch_13">
     <path d="M 212.878125 252.738281 
L 317.7 252.738281 
Q 319.5 252.738281 319.5 250.938281 
L 319.5 200.7 
Q 319.5 198.9 317.7 198.9 
L 212.878125 198.9 
Q 211.078125 198.9 211.078125 200.7 
L 211.078125 250.938281 
Q 211.078125 252.738281 212.878125 252.738281 
z
" style="fill:#ffffff;opacity:0.8;stroke:#cccccc;stroke-linejoin:miter;"/>
    </g>
    <g id="line2d_49">
     <path d="M 214.678125 205.901719 
L 232.678125 205.901719 
" style="fill:none;stroke:#808080;stroke-dasharray:5.55,2.4;stroke-dashoffset:0;stroke-opacity:0.4;stroke-width:1.5;"/>
    </g>
    <g id="line2d_50"/>
    <g id="text_33">
     <!-- Normal type II SNe -->
     <g transform="translate(239.878125 209.051719)scale(0.09 -0.09)">
      <use xlink:href="#ArialMT-78"/>
      <use x="72.216797" xlink:href="#ArialMT-111"/>
      <use x="127.832031" xlink:href="#ArialMT-114"/>
      <use x="161.132812" xlink:href="#ArialMT-109"/>
      <use x="244.433594" xlink:href="#ArialMT-97"/>
      <use x="300.048828" xlink:href="#ArialMT-108"/>
      <use x="322.265625" xlink:href="#ArialMT-32"/>
      <use x="350.048828" xlink:href="#ArialMT-116"/>
      <use x="377.832031" xlink:href="#ArialMT-121"/>
      <use x="427.832031" xlink:href="#ArialMT-112"/>
      <use x="483.447266" xlink:href="#ArialMT-101"/>
      <use x="539.0625" xlink:href="#ArialMT-32"/>
      <use x="566.845703" xlink:href="#ArialMT-73"/>
      <use x="594.628906" xlink:href="#ArialMT-73"/>
      <use x="622.412109" xlink:href="#ArialMT-32"/>
      <use x="650.195312" xlink:href="#ArialMT-83"/>
      <use x="716.894531" xlink:href="#ArialMT-78"/>
      <use x="789.111328" xlink:href="#ArialMT-101"/>
     </g>
    </g>
    <g id="LineCollection_10">
     <path d="M 223.678125 223.237969 
L 223.678125 214.237969 
" style="fill:none;stroke:#1b9e77;stroke-width:1.5;"/>
    </g>
    <g id="line2d_51"/>
    <g id="line2d_52">
     <g>
      <use style="fill:#1b9e77;stroke:#1b9e77;" x="223.678125" xlink:href="#m19d02bfaeb" y="218.737969"/>
     </g>
    </g>
    <g id="text_34">
     <!-- SN 2018hmx -->
     <g transform="translate(239.878125 221.887969)scale(0.09 -0.09)">
      <use xlink:href="#ArialMT-83"/>
      <use x="66.699219" xlink:href="#ArialMT-78"/>
      <use x="138.916016" xlink:href="#ArialMT-32"/>
      <use x="166.699219" xlink:href="#ArialMT-50"/>
      <use x="222.314453" xlink:href="#ArialMT-48"/>
      <use x="277.929688" xlink:href="#ArialMT-49"/>
      <use x="333.544922" xlink:href="#ArialMT-56"/>
      <use x="389.160156" xlink:href="#ArialMT-104"/>
      <use x="444.775391" xlink:href="#ArialMT-109"/>
      <use x="528.076172" xlink:href="#ArialMT-120"/>
     </g>
    </g>
    <g id="LineCollection_11">
     <path d="M 223.678125 235.96875 
L 223.678125 226.96875 
" style="fill:none;stroke:#7570b3;stroke-width:1.5;"/>
    </g>
    <g id="line2d_53"/>
    <g id="line2d_54">
     <g>
      <use style="fill:#7570b3;stroke:#7570b3;stroke-linejoin:miter;" x="223.678125" xlink:href="#m0e75dde199" y="231.46875"/>
     </g>
    </g>
    <g id="text_35">
     <!-- iPTF14hls -->
     <g transform="translate(239.878125 234.61875)scale(0.09 -0.09)">
      <use xlink:href="#ArialMT-105"/>
      <use x="22.216797" xlink:href="#ArialMT-80"/>
      <use x="88.916016" xlink:href="#ArialMT-84"/>
      <use x="150" xlink:href="#ArialMT-70"/>
      <use x="211.083984" xlink:href="#ArialMT-49"/>
      <use x="266.699219" xlink:href="#ArialMT-52"/>
      <use x="322.314453" xlink:href="#ArialMT-104"/>
      <use x="377.929688" xlink:href="#ArialMT-108"/>
      <use x="400.146484" xlink:href="#ArialMT-115"/>
     </g>
    </g>
    <g id="LineCollection_12">
     <path d="M 223.678125 248.699531 
L 223.678125 239.699531 
" style="fill:none;stroke:#d95f02;stroke-width:1.5;"/>
    </g>
    <g id="line2d_55"/>
    <g id="line2d_56">
     <g>
      <use style="fill:#d95f02;stroke:#d95f02;stroke-linejoin:miter;" x="223.678125" xlink:href="#me01452d7f6" y="244.199531"/>
     </g>
    </g>
    <g id="text_36">
     <!-- SN 2018aad -->
     <g transform="translate(239.878125 247.349531)scale(0.09 -0.09)">
      <use xlink:href="#ArialMT-83"/>
      <use x="66.699219" xlink:href="#ArialMT-78"/>
      <use x="138.916016" xlink:href="#ArialMT-32"/>
      <use x="166.699219" xlink:href="#ArialMT-50"/>
      <use x="222.314453" xlink:href="#ArialMT-48"/>
      <use x="277.929688" xlink:href="#ArialMT-49"/>
      <use x="333.544922" xlink:href="#ArialMT-56"/>
      <use x="389.160156" xlink:href="#ArialMT-97"/>
      <use x="444.775391" xlink:href="#ArialMT-97"/>
      <use x="500.390625" xlink:href="#ArialMT-100"/>
     </g>
    </g>
   </g>
  </g>
 </g>
 <defs>
  <clipPath id="p4bbb073427">
   <rect height="126" width="279" x="45" y="43.2"/>
  </clipPath>
  <clipPath id="pc4493fb5fc">
   <rect height="126" width="279" x="45" y="194.4"/>
  </clipPath>
 </defs>
</svg>
