<?xml version="1.0" encoding="utf-8" standalone="no"?>
<!DOCTYPE svg PUBLIC "-//W3C//DTD SVG 1.1//EN"
  "http://www.w3.org/Graphics/SVG/1.1/DTD/svg11.dtd">
<!-- Created with matplotlib (http://matplotlib.org/) -->
<svg height="504pt" version="1.1" viewBox="0 0 648 504" width="648pt" xmlns="http://www.w3.org/2000/svg" xmlns:xlink="http://www.w3.org/1999/xlink">
 <defs>
  <style type="text/css">
*{stroke-linecap:butt;stroke-linejoin:round;}
  </style>
 </defs>
 <g id="figure_1">
  <g id="patch_1">
   <path d="M 0 504 
L 648 504 
L 648 0 
L 0 0 
z
" style="fill:#ffffff;"/>
  </g>
  <g id="axes_1">
   <g id="patch_2">
    <path d="M 81 448.56 
L 583.2 448.56 
L 583.2 60.48 
L 81 60.48 
z
" style="fill:#ffffff;"/>
   </g>
   <g id="patch_3">
    <path clip-path="url(#p331d27057b)" d="M 553.29399 83.212909 
L 549.10899 94.114635 
L 553.25214 94.114635 
L 553.25214 116.782006 
L 553.33584 116.782006 
L 553.33584 94.114635 
L 557.47899 94.114635 
z
" style="fill:#ff3333;stroke:#ff3333;stroke-linejoin:miter;"/>
   </g>
   <g id="patch_4">
    <path clip-path="url(#p331d27057b)" d="M 553.29399 73.943452 
L 549.10899 83.491347 
L 553.25214 83.491347 
L 553.25214 102.737374 
L 553.33584 102.737374 
L 553.33584 83.491347 
L 557.47899 83.491347 
z
" style="fill:#911310;stroke:#911310;stroke-linejoin:miter;"/>
   </g>
   <g id="matplotlib.axis_1">
    <g id="xtick_1">
     <g id="line2d_1">
      <defs>
       <path d="M 0 0 
L 0 3.5 
" id="m104807dadb" style="stroke:#000000;stroke-width:0.8;"/>
      </defs>
      <g>
       <use style="stroke:#000000;stroke-width:0.8;" x="583.2" xlink:href="#m104807dadb" y="448.56"/>
      </g>
     </g>
     <g id="text_1">
      <!-- −19 -->
      <defs>
       <path d="M 52.828125 31.203125 
L 5.5625 31.203125 
L 5.5625 39.40625 
L 52.828125 39.40625 
z
" id="ArialMT-2212"/>
       <path d="M 37.25 0 
L 28.46875 0 
L 28.46875 56 
Q 25.296875 52.984375 20.140625 49.953125 
Q 14.984375 46.921875 10.890625 45.40625 
L 10.890625 53.90625 
Q 18.265625 57.375 23.78125 62.296875 
Q 29.296875 67.234375 31.59375 71.875 
L 37.25 71.875 
z
" id="ArialMT-31"/>
       <path d="M 5.46875 16.546875 
L 13.921875 17.328125 
Q 14.984375 11.375 18.015625 8.6875 
Q 21.046875 6 25.78125 6 
Q 29.828125 6 32.875 7.859375 
Q 35.9375 9.71875 37.890625 12.8125 
Q 39.84375 15.921875 41.15625 21.1875 
Q 42.484375 26.46875 42.484375 31.9375 
Q 42.484375 32.515625 42.4375 33.6875 
Q 39.796875 29.5 35.234375 26.875 
Q 30.671875 24.265625 25.34375 24.265625 
Q 16.453125 24.265625 10.296875 30.703125 
Q 4.15625 37.15625 4.15625 47.703125 
Q 4.15625 58.59375 10.578125 65.234375 
Q 17 71.875 26.65625 71.875 
Q 33.640625 71.875 39.421875 68.109375 
Q 45.21875 64.359375 48.21875 57.390625 
Q 51.21875 50.4375 51.21875 37.25 
Q 51.21875 23.53125 48.234375 15.40625 
Q 45.265625 7.28125 39.375 3.03125 
Q 33.5 -1.21875 25.59375 -1.21875 
Q 17.1875 -1.21875 11.859375 3.4375 
Q 6.546875 8.109375 5.46875 16.546875 
z
M 41.453125 48.140625 
Q 41.453125 55.71875 37.421875 60.15625 
Q 33.40625 64.59375 27.734375 64.59375 
Q 21.875 64.59375 17.53125 59.8125 
Q 13.1875 55.03125 13.1875 47.40625 
Q 13.1875 40.578125 17.3125 36.296875 
Q 21.4375 32.03125 27.484375 32.03125 
Q 33.59375 32.03125 37.515625 36.296875 
Q 41.453125 40.578125 41.453125 48.140625 
z
" id="ArialMT-39"/>
      </defs>
      <g transform="translate(567.93375 468.444063)scale(0.18 -0.18)">
       <use xlink:href="#ArialMT-2212"/>
       <use x="58.398438" xlink:href="#ArialMT-31"/>
       <use x="114.013672" xlink:href="#ArialMT-39"/>
      </g>
     </g>
    </g>
    <g id="xtick_2">
     <g id="line2d_2">
      <g>
       <use style="stroke:#000000;stroke-width:0.8;" x="499.5" xlink:href="#m104807dadb" y="448.56"/>
      </g>
     </g>
     <g id="text_2">
      <!-- −18 -->
      <defs>
       <path d="M 17.671875 38.8125 
Q 12.203125 40.828125 9.5625 44.53125 
Q 6.9375 48.25 6.9375 53.421875 
Q 6.9375 61.234375 12.546875 66.546875 
Q 18.171875 71.875 27.484375 71.875 
Q 36.859375 71.875 42.578125 66.421875 
Q 48.296875 60.984375 48.296875 53.171875 
Q 48.296875 48.1875 45.671875 44.5 
Q 43.0625 40.828125 37.75 38.8125 
Q 44.34375 36.671875 47.78125 31.875 
Q 51.21875 27.09375 51.21875 20.453125 
Q 51.21875 11.28125 44.71875 5.03125 
Q 38.234375 -1.21875 27.640625 -1.21875 
Q 17.046875 -1.21875 10.546875 5.046875 
Q 4.046875 11.328125 4.046875 20.703125 
Q 4.046875 27.6875 7.59375 32.390625 
Q 11.140625 37.109375 17.671875 38.8125 
z
M 15.921875 53.71875 
Q 15.921875 48.640625 19.1875 45.40625 
Q 22.46875 42.1875 27.6875 42.1875 
Q 32.765625 42.1875 36.015625 45.375 
Q 39.265625 48.578125 39.265625 53.21875 
Q 39.265625 58.0625 35.90625 61.359375 
Q 32.5625 64.65625 27.59375 64.65625 
Q 22.5625 64.65625 19.234375 61.421875 
Q 15.921875 58.203125 15.921875 53.71875 
z
M 13.09375 20.65625 
Q 13.09375 16.890625 14.875 13.375 
Q 16.65625 9.859375 20.171875 7.921875 
Q 23.6875 6 27.734375 6 
Q 34.03125 6 38.125 10.046875 
Q 42.234375 14.109375 42.234375 20.359375 
Q 42.234375 26.703125 38.015625 30.859375 
Q 33.796875 35.015625 27.4375 35.015625 
Q 21.234375 35.015625 17.15625 30.90625 
Q 13.09375 26.8125 13.09375 20.65625 
z
" id="ArialMT-38"/>
      </defs>
      <g transform="translate(484.23375 468.444063)scale(0.18 -0.18)">
       <use xlink:href="#ArialMT-2212"/>
       <use x="58.398438" xlink:href="#ArialMT-31"/>
       <use x="114.013672" xlink:href="#ArialMT-38"/>
      </g>
     </g>
    </g>
    <g id="xtick_3">
     <g id="line2d_3">
      <g>
       <use style="stroke:#000000;stroke-width:0.8;" x="415.8" xlink:href="#m104807dadb" y="448.56"/>
      </g>
     </g>
     <g id="text_3">
      <!-- −17 -->
      <defs>
       <path d="M 4.734375 62.203125 
L 4.734375 70.65625 
L 51.078125 70.65625 
L 51.078125 63.8125 
Q 44.234375 56.546875 37.515625 44.484375 
Q 30.8125 32.421875 27.15625 19.671875 
Q 24.515625 10.6875 23.78125 0 
L 14.75 0 
Q 14.890625 8.453125 18.0625 20.40625 
Q 21.234375 32.375 27.171875 43.484375 
Q 33.109375 54.59375 39.796875 62.203125 
z
" id="ArialMT-37"/>
      </defs>
      <g transform="translate(400.53375 468.444063)scale(0.18 -0.18)">
       <use xlink:href="#ArialMT-2212"/>
       <use x="58.398438" xlink:href="#ArialMT-31"/>
       <use x="114.013672" xlink:href="#ArialMT-37"/>
      </g>
     </g>
    </g>
    <g id="xtick_4">
     <g id="line2d_4">
      <g>
       <use style="stroke:#000000;stroke-width:0.8;" x="332.1" xlink:href="#m104807dadb" y="448.56"/>
      </g>
     </g>
     <g id="text_4">
      <!-- −16 -->
      <defs>
       <path d="M 49.75 54.046875 
L 41.015625 53.375 
Q 39.84375 58.546875 37.703125 60.890625 
Q 34.125 64.65625 28.90625 64.65625 
Q 24.703125 64.65625 21.53125 62.3125 
Q 17.390625 59.28125 14.984375 53.46875 
Q 12.59375 47.65625 12.5 36.921875 
Q 15.671875 41.75 20.265625 44.09375 
Q 24.859375 46.4375 29.890625 46.4375 
Q 38.671875 46.4375 44.84375 39.96875 
Q 51.03125 33.5 51.03125 23.25 
Q 51.03125 16.5 48.125 10.71875 
Q 45.21875 4.9375 40.140625 1.859375 
Q 35.0625 -1.21875 28.609375 -1.21875 
Q 17.625 -1.21875 10.6875 6.859375 
Q 3.765625 14.9375 3.765625 33.5 
Q 3.765625 54.25 11.421875 63.671875 
Q 18.109375 71.875 29.4375 71.875 
Q 37.890625 71.875 43.28125 67.140625 
Q 48.6875 62.40625 49.75 54.046875 
z
M 13.875 23.1875 
Q 13.875 18.65625 15.796875 14.5 
Q 17.71875 10.359375 21.1875 8.171875 
Q 24.65625 6 28.46875 6 
Q 34.03125 6 38.03125 10.484375 
Q 42.046875 14.984375 42.046875 22.703125 
Q 42.046875 30.125 38.078125 34.390625 
Q 34.125 38.671875 28.125 38.671875 
Q 22.171875 38.671875 18.015625 34.390625 
Q 13.875 30.125 13.875 23.1875 
z
" id="ArialMT-36"/>
      </defs>
      <g transform="translate(316.83375 468.444063)scale(0.18 -0.18)">
       <use xlink:href="#ArialMT-2212"/>
       <use x="58.398438" xlink:href="#ArialMT-31"/>
       <use x="114.013672" xlink:href="#ArialMT-36"/>
      </g>
     </g>
    </g>
    <g id="xtick_5">
     <g id="line2d_5">
      <g>
       <use style="stroke:#000000;stroke-width:0.8;" x="248.4" xlink:href="#m104807dadb" y="448.56"/>
      </g>
     </g>
     <g id="text_5">
      <!-- −15 -->
      <defs>
       <path d="M 4.15625 18.75 
L 13.375 19.53125 
Q 14.40625 12.796875 18.140625 9.390625 
Q 21.875 6 27.15625 6 
Q 33.5 6 37.890625 10.78125 
Q 42.28125 15.578125 42.28125 23.484375 
Q 42.28125 31 38.0625 35.34375 
Q 33.84375 39.703125 27 39.703125 
Q 22.75 39.703125 19.328125 37.765625 
Q 15.921875 35.84375 13.96875 32.765625 
L 5.71875 33.84375 
L 12.640625 70.609375 
L 48.25 70.609375 
L 48.25 62.203125 
L 19.671875 62.203125 
L 15.828125 42.96875 
Q 22.265625 47.46875 29.34375 47.46875 
Q 38.71875 47.46875 45.15625 40.96875 
Q 51.609375 34.46875 51.609375 24.265625 
Q 51.609375 14.546875 45.953125 7.46875 
Q 39.0625 -1.21875 27.15625 -1.21875 
Q 17.390625 -1.21875 11.203125 4.25 
Q 5.03125 9.71875 4.15625 18.75 
z
" id="ArialMT-35"/>
      </defs>
      <g transform="translate(233.13375 468.444063)scale(0.18 -0.18)">
       <use xlink:href="#ArialMT-2212"/>
       <use x="58.398438" xlink:href="#ArialMT-31"/>
       <use x="114.013672" xlink:href="#ArialMT-35"/>
      </g>
     </g>
    </g>
    <g id="xtick_6">
     <g id="line2d_6">
      <g>
       <use style="stroke:#000000;stroke-width:0.8;" x="164.7" xlink:href="#m104807dadb" y="448.56"/>
      </g>
     </g>
     <g id="text_6">
      <!-- −14 -->
      <defs>
       <path d="M 32.328125 0 
L 32.328125 17.140625 
L 1.265625 17.140625 
L 1.265625 25.203125 
L 33.9375 71.578125 
L 41.109375 71.578125 
L 41.109375 25.203125 
L 50.78125 25.203125 
L 50.78125 17.140625 
L 41.109375 17.140625 
L 41.109375 0 
z
M 32.328125 25.203125 
L 32.328125 57.46875 
L 9.90625 25.203125 
z
" id="ArialMT-34"/>
      </defs>
      <g transform="translate(149.43375 468.444063)scale(0.18 -0.18)">
       <use xlink:href="#ArialMT-2212"/>
       <use x="58.398438" xlink:href="#ArialMT-31"/>
       <use x="114.013672" xlink:href="#ArialMT-34"/>
      </g>
     </g>
    </g>
    <g id="xtick_7">
     <g id="line2d_7">
      <g>
       <use style="stroke:#000000;stroke-width:0.8;" x="81" xlink:href="#m104807dadb" y="448.56"/>
      </g>
     </g>
     <g id="text_7">
      <!-- −13 -->
      <defs>
       <path d="M 4.203125 18.890625 
L 12.984375 20.0625 
Q 14.5 12.59375 18.140625 9.296875 
Q 21.78125 6 27 6 
Q 33.203125 6 37.46875 10.296875 
Q 41.75 14.59375 41.75 20.953125 
Q 41.75 27 37.796875 30.921875 
Q 33.84375 34.859375 27.734375 34.859375 
Q 25.25 34.859375 21.53125 33.890625 
L 22.515625 41.609375 
Q 23.390625 41.5 23.921875 41.5 
Q 29.546875 41.5 34.03125 44.421875 
Q 38.53125 47.359375 38.53125 53.46875 
Q 38.53125 58.296875 35.25 61.46875 
Q 31.984375 64.65625 26.8125 64.65625 
Q 21.6875 64.65625 18.265625 61.421875 
Q 14.84375 58.203125 13.875 51.765625 
L 5.078125 53.328125 
Q 6.6875 62.15625 12.390625 67.015625 
Q 18.109375 71.875 26.609375 71.875 
Q 32.46875 71.875 37.390625 69.359375 
Q 42.328125 66.84375 44.9375 62.5 
Q 47.5625 58.15625 47.5625 53.265625 
Q 47.5625 48.640625 45.0625 44.828125 
Q 42.578125 41.015625 37.703125 38.765625 
Q 44.046875 37.3125 47.5625 32.6875 
Q 51.078125 28.078125 51.078125 21.140625 
Q 51.078125 11.765625 44.234375 5.25 
Q 37.40625 -1.265625 26.953125 -1.265625 
Q 17.53125 -1.265625 11.296875 4.34375 
Q 5.078125 9.96875 4.203125 18.890625 
z
" id="ArialMT-33"/>
      </defs>
      <g transform="translate(65.73375 468.444063)scale(0.18 -0.18)">
       <use xlink:href="#ArialMT-2212"/>
       <use x="58.398438" xlink:href="#ArialMT-31"/>
       <use x="114.013672" xlink:href="#ArialMT-33"/>
      </g>
     </g>
    </g>
    <g id="text_8">
     <!-- V band absolute mag at day 50 -->
     <defs>
      <path d="M 28.171875 0 
L 0.4375 71.578125 
L 10.6875 71.578125 
L 29.296875 19.578125 
Q 31.546875 13.328125 33.0625 7.859375 
Q 34.71875 13.71875 36.921875 19.578125 
L 56.25 71.578125 
L 65.921875 71.578125 
L 37.890625 0 
z
" id="ArialMT-56"/>
      <path id="ArialMT-20"/>
      <path d="M 14.703125 0 
L 6.546875 0 
L 6.546875 71.578125 
L 15.328125 71.578125 
L 15.328125 46.046875 
Q 20.90625 53.03125 29.546875 53.03125 
Q 34.328125 53.03125 38.59375 51.09375 
Q 42.875 49.171875 45.625 45.671875 
Q 48.390625 42.1875 49.953125 37.25 
Q 51.515625 32.328125 51.515625 26.703125 
Q 51.515625 13.375 44.921875 6.09375 
Q 38.328125 -1.171875 29.109375 -1.171875 
Q 19.921875 -1.171875 14.703125 6.5 
z
M 14.59375 26.3125 
Q 14.59375 17 17.140625 12.84375 
Q 21.296875 6.0625 28.375 6.0625 
Q 34.125 6.0625 38.328125 11.0625 
Q 42.53125 16.0625 42.53125 25.984375 
Q 42.53125 36.140625 38.5 40.96875 
Q 34.46875 45.796875 28.765625 45.796875 
Q 23 45.796875 18.796875 40.796875 
Q 14.59375 35.796875 14.59375 26.3125 
z
" id="ArialMT-62"/>
      <path d="M 40.4375 6.390625 
Q 35.546875 2.25 31.03125 0.53125 
Q 26.515625 -1.171875 21.34375 -1.171875 
Q 12.796875 -1.171875 8.203125 3 
Q 3.609375 7.171875 3.609375 13.671875 
Q 3.609375 17.484375 5.34375 20.625 
Q 7.078125 23.78125 9.890625 25.6875 
Q 12.703125 27.59375 16.21875 28.5625 
Q 18.796875 29.25 24.03125 29.890625 
Q 34.671875 31.15625 39.703125 32.90625 
Q 39.75 34.71875 39.75 35.203125 
Q 39.75 40.578125 37.25 42.78125 
Q 33.890625 45.75 27.25 45.75 
Q 21.046875 45.75 18.09375 43.578125 
Q 15.140625 41.40625 13.71875 35.890625 
L 5.125 37.0625 
Q 6.296875 42.578125 8.984375 45.96875 
Q 11.671875 49.359375 16.75 51.1875 
Q 21.828125 53.03125 28.515625 53.03125 
Q 35.15625 53.03125 39.296875 51.46875 
Q 43.453125 49.90625 45.40625 47.53125 
Q 47.359375 45.171875 48.140625 41.546875 
Q 48.578125 39.3125 48.578125 33.453125 
L 48.578125 21.734375 
Q 48.578125 9.46875 49.140625 6.21875 
Q 49.703125 2.984375 51.375 0 
L 42.1875 0 
Q 40.828125 2.734375 40.4375 6.390625 
z
M 39.703125 26.03125 
Q 34.90625 24.078125 25.34375 22.703125 
Q 19.921875 21.921875 17.671875 20.9375 
Q 15.4375 19.96875 14.203125 18.09375 
Q 12.984375 16.21875 12.984375 13.921875 
Q 12.984375 10.40625 15.640625 8.0625 
Q 18.3125 5.71875 23.4375 5.71875 
Q 28.515625 5.71875 32.46875 7.9375 
Q 36.421875 10.15625 38.28125 14.015625 
Q 39.703125 17 39.703125 22.796875 
z
" id="ArialMT-61"/>
      <path d="M 6.59375 0 
L 6.59375 51.859375 
L 14.5 51.859375 
L 14.5 44.484375 
Q 20.21875 53.03125 31 53.03125 
Q 35.6875 53.03125 39.625 51.34375 
Q 43.5625 49.65625 45.515625 46.921875 
Q 47.46875 44.1875 48.25 40.4375 
Q 48.734375 37.984375 48.734375 31.890625 
L 48.734375 0 
L 39.9375 0 
L 39.9375 31.546875 
Q 39.9375 36.921875 38.90625 39.578125 
Q 37.890625 42.234375 35.28125 43.8125 
Q 32.671875 45.40625 29.15625 45.40625 
Q 23.53125 45.40625 19.453125 41.84375 
Q 15.375 38.28125 15.375 28.328125 
L 15.375 0 
z
" id="ArialMT-6e"/>
      <path d="M 40.234375 0 
L 40.234375 6.546875 
Q 35.296875 -1.171875 25.734375 -1.171875 
Q 19.53125 -1.171875 14.328125 2.25 
Q 9.125 5.671875 6.265625 11.796875 
Q 3.421875 17.921875 3.421875 25.875 
Q 3.421875 33.640625 6 39.96875 
Q 8.59375 46.296875 13.765625 49.65625 
Q 18.953125 53.03125 25.34375 53.03125 
Q 30.03125 53.03125 33.6875 51.046875 
Q 37.359375 49.078125 39.65625 45.90625 
L 39.65625 71.578125 
L 48.390625 71.578125 
L 48.390625 0 
z
M 12.453125 25.875 
Q 12.453125 15.921875 16.640625 10.984375 
Q 20.84375 6.0625 26.5625 6.0625 
Q 32.328125 6.0625 36.34375 10.765625 
Q 40.375 15.484375 40.375 25.140625 
Q 40.375 35.796875 36.265625 40.765625 
Q 32.171875 45.75 26.171875 45.75 
Q 20.3125 45.75 16.375 40.96875 
Q 12.453125 36.1875 12.453125 25.875 
z
" id="ArialMT-64"/>
      <path d="M 3.078125 15.484375 
L 11.765625 16.84375 
Q 12.5 11.625 15.84375 8.84375 
Q 19.1875 6.0625 25.203125 6.0625 
Q 31.25 6.0625 34.171875 8.515625 
Q 37.109375 10.984375 37.109375 14.3125 
Q 37.109375 17.28125 34.515625 19 
Q 32.71875 20.171875 25.53125 21.96875 
Q 15.875 24.421875 12.140625 26.203125 
Q 8.40625 27.984375 6.46875 31.125 
Q 4.546875 34.28125 4.546875 38.09375 
Q 4.546875 41.546875 6.125 44.5 
Q 7.71875 47.46875 10.453125 49.421875 
Q 12.5 50.921875 16.03125 51.96875 
Q 19.578125 53.03125 23.640625 53.03125 
Q 29.734375 53.03125 34.34375 51.265625 
Q 38.96875 49.515625 41.15625 46.5 
Q 43.359375 43.5 44.1875 38.484375 
L 35.59375 37.3125 
Q 35.015625 41.3125 32.203125 43.546875 
Q 29.390625 45.796875 24.265625 45.796875 
Q 18.21875 45.796875 15.625 43.796875 
Q 13.03125 41.796875 13.03125 39.109375 
Q 13.03125 37.40625 14.109375 36.03125 
Q 15.1875 34.625 17.484375 33.6875 
Q 18.796875 33.203125 25.25 31.453125 
Q 34.578125 28.953125 38.25 27.359375 
Q 41.9375 25.78125 44.03125 22.75 
Q 46.140625 19.734375 46.140625 15.234375 
Q 46.140625 10.84375 43.578125 6.953125 
Q 41.015625 3.078125 36.171875 0.953125 
Q 31.34375 -1.171875 25.25 -1.171875 
Q 15.140625 -1.171875 9.84375 3.03125 
Q 4.546875 7.234375 3.078125 15.484375 
z
" id="ArialMT-73"/>
      <path d="M 3.328125 25.921875 
Q 3.328125 40.328125 11.328125 47.265625 
Q 18.015625 53.03125 27.640625 53.03125 
Q 38.328125 53.03125 45.109375 46.015625 
Q 51.90625 39.015625 51.90625 26.65625 
Q 51.90625 16.65625 48.90625 10.90625 
Q 45.90625 5.171875 40.15625 2 
Q 34.421875 -1.171875 27.640625 -1.171875 
Q 16.75 -1.171875 10.03125 5.8125 
Q 3.328125 12.796875 3.328125 25.921875 
z
M 12.359375 25.921875 
Q 12.359375 15.96875 16.703125 11.015625 
Q 21.046875 6.0625 27.640625 6.0625 
Q 34.1875 6.0625 38.53125 11.03125 
Q 42.875 16.015625 42.875 26.21875 
Q 42.875 35.84375 38.5 40.796875 
Q 34.125 45.75 27.640625 45.75 
Q 21.046875 45.75 16.703125 40.8125 
Q 12.359375 35.890625 12.359375 25.921875 
z
" id="ArialMT-6f"/>
      <path d="M 6.390625 0 
L 6.390625 71.578125 
L 15.1875 71.578125 
L 15.1875 0 
z
" id="ArialMT-6c"/>
      <path d="M 40.578125 0 
L 40.578125 7.625 
Q 34.515625 -1.171875 24.125 -1.171875 
Q 19.53125 -1.171875 15.546875 0.578125 
Q 11.578125 2.34375 9.640625 5 
Q 7.71875 7.671875 6.9375 11.53125 
Q 6.390625 14.109375 6.390625 19.734375 
L 6.390625 51.859375 
L 15.1875 51.859375 
L 15.1875 23.09375 
Q 15.1875 16.21875 15.71875 13.8125 
Q 16.546875 10.359375 19.234375 8.375 
Q 21.921875 6.390625 25.875 6.390625 
Q 29.828125 6.390625 33.296875 8.421875 
Q 36.765625 10.453125 38.203125 13.9375 
Q 39.65625 17.4375 39.65625 24.078125 
L 39.65625 51.859375 
L 48.4375 51.859375 
L 48.4375 0 
z
" id="ArialMT-75"/>
      <path d="M 25.78125 7.859375 
L 27.046875 0.09375 
Q 23.34375 -0.6875 20.40625 -0.6875 
Q 15.625 -0.6875 12.984375 0.828125 
Q 10.359375 2.34375 9.28125 4.8125 
Q 8.203125 7.28125 8.203125 15.1875 
L 8.203125 45.015625 
L 1.765625 45.015625 
L 1.765625 51.859375 
L 8.203125 51.859375 
L 8.203125 64.703125 
L 16.9375 69.96875 
L 16.9375 51.859375 
L 25.78125 51.859375 
L 25.78125 45.015625 
L 16.9375 45.015625 
L 16.9375 14.703125 
Q 16.9375 10.9375 17.40625 9.859375 
Q 17.875 8.796875 18.921875 8.15625 
Q 19.96875 7.515625 21.921875 7.515625 
Q 23.390625 7.515625 25.78125 7.859375 
z
" id="ArialMT-74"/>
      <path d="M 42.09375 16.703125 
L 51.171875 15.578125 
Q 49.03125 7.625 43.21875 3.21875 
Q 37.40625 -1.171875 28.375 -1.171875 
Q 17 -1.171875 10.328125 5.828125 
Q 3.65625 12.84375 3.65625 25.484375 
Q 3.65625 38.578125 10.390625 45.796875 
Q 17.140625 53.03125 27.875 53.03125 
Q 38.28125 53.03125 44.875 45.953125 
Q 51.46875 38.875 51.46875 26.03125 
Q 51.46875 25.25 51.421875 23.6875 
L 12.75 23.6875 
Q 13.234375 15.140625 17.578125 10.59375 
Q 21.921875 6.0625 28.421875 6.0625 
Q 33.25 6.0625 36.671875 8.59375 
Q 40.09375 11.140625 42.09375 16.703125 
z
M 13.234375 30.90625 
L 42.1875 30.90625 
Q 41.609375 37.453125 38.875 40.71875 
Q 34.671875 45.796875 27.984375 45.796875 
Q 21.921875 45.796875 17.796875 41.75 
Q 13.671875 37.703125 13.234375 30.90625 
z
" id="ArialMT-65"/>
      <path d="M 6.59375 0 
L 6.59375 51.859375 
L 14.453125 51.859375 
L 14.453125 44.578125 
Q 16.890625 48.390625 20.9375 50.703125 
Q 25 53.03125 30.171875 53.03125 
Q 35.9375 53.03125 39.625 50.640625 
Q 43.3125 48.25 44.828125 43.953125 
Q 50.984375 53.03125 60.84375 53.03125 
Q 68.5625 53.03125 72.703125 48.75 
Q 76.859375 44.484375 76.859375 35.59375 
L 76.859375 0 
L 68.109375 0 
L 68.109375 32.671875 
Q 68.109375 37.9375 67.25 40.25 
Q 66.40625 42.578125 64.15625 43.984375 
Q 61.921875 45.40625 58.890625 45.40625 
Q 53.421875 45.40625 49.796875 41.765625 
Q 46.1875 38.140625 46.1875 30.125 
L 46.1875 0 
L 37.40625 0 
L 37.40625 33.6875 
Q 37.40625 39.546875 35.25 42.46875 
Q 33.109375 45.40625 28.21875 45.40625 
Q 24.515625 45.40625 21.359375 43.453125 
Q 18.21875 41.5 16.796875 37.734375 
Q 15.375 33.984375 15.375 26.90625 
L 15.375 0 
z
" id="ArialMT-6d"/>
      <path d="M 4.984375 -4.296875 
L 13.53125 -5.5625 
Q 14.0625 -9.515625 16.5 -11.328125 
Q 19.78125 -13.765625 25.4375 -13.765625 
Q 31.546875 -13.765625 34.859375 -11.328125 
Q 38.1875 -8.890625 39.359375 -4.5 
Q 40.046875 -1.8125 39.984375 6.78125 
Q 34.234375 0 25.640625 0 
Q 14.9375 0 9.078125 7.71875 
Q 3.21875 15.4375 3.21875 26.21875 
Q 3.21875 33.640625 5.90625 39.90625 
Q 8.59375 46.1875 13.6875 49.609375 
Q 18.796875 53.03125 25.6875 53.03125 
Q 34.859375 53.03125 40.828125 45.609375 
L 40.828125 51.859375 
L 48.921875 51.859375 
L 48.921875 7.03125 
Q 48.921875 -5.078125 46.453125 -10.125 
Q 44 -15.1875 38.640625 -18.109375 
Q 33.296875 -21.046875 25.484375 -21.046875 
Q 16.21875 -21.046875 10.5 -16.875 
Q 4.78125 -12.703125 4.984375 -4.296875 
z
M 12.25 26.859375 
Q 12.25 16.65625 16.296875 11.96875 
Q 20.359375 7.28125 26.46875 7.28125 
Q 32.515625 7.28125 36.609375 11.9375 
Q 40.71875 16.609375 40.71875 26.5625 
Q 40.71875 36.078125 36.5 40.90625 
Q 32.28125 45.75 26.3125 45.75 
Q 20.453125 45.75 16.34375 40.984375 
Q 12.25 36.234375 12.25 26.859375 
z
" id="ArialMT-67"/>
      <path d="M 6.203125 -19.96875 
L 5.21875 -11.71875 
Q 8.109375 -12.5 10.25 -12.5 
Q 13.1875 -12.5 14.9375 -11.515625 
Q 16.703125 -10.546875 17.828125 -8.796875 
Q 18.65625 -7.46875 20.515625 -2.25 
Q 20.75 -1.515625 21.296875 -0.09375 
L 1.609375 51.859375 
L 11.078125 51.859375 
L 21.875 21.828125 
Q 23.96875 16.109375 25.640625 9.8125 
Q 27.15625 15.875 29.25 21.625 
L 40.328125 51.859375 
L 49.125 51.859375 
L 29.390625 -0.875 
Q 26.21875 -9.421875 24.46875 -12.640625 
Q 22.125 -17 19.09375 -19.015625 
Q 16.0625 -21.046875 11.859375 -21.046875 
Q 9.328125 -21.046875 6.203125 -19.96875 
z
" id="ArialMT-79"/>
      <path d="M 4.15625 35.296875 
Q 4.15625 48 6.765625 55.734375 
Q 9.375 63.484375 14.515625 67.671875 
Q 19.671875 71.875 27.484375 71.875 
Q 33.25 71.875 37.59375 69.546875 
Q 41.9375 67.234375 44.765625 62.859375 
Q 47.609375 58.5 49.21875 52.21875 
Q 50.828125 45.953125 50.828125 35.296875 
Q 50.828125 22.703125 48.234375 14.96875 
Q 45.65625 7.234375 40.5 3 
Q 35.359375 -1.21875 27.484375 -1.21875 
Q 17.140625 -1.21875 11.234375 6.203125 
Q 4.15625 15.140625 4.15625 35.296875 
z
M 13.1875 35.296875 
Q 13.1875 17.671875 17.3125 11.828125 
Q 21.4375 6 27.484375 6 
Q 33.546875 6 37.671875 11.859375 
Q 41.796875 17.71875 41.796875 35.296875 
Q 41.796875 52.984375 37.671875 58.78125 
Q 33.546875 64.59375 27.390625 64.59375 
Q 21.34375 64.59375 17.71875 59.46875 
Q 13.1875 52.9375 13.1875 35.296875 
z
" id="ArialMT-30"/>
     </defs>
     <g transform="translate(193.678125 490.396563)scale(0.2 -0.2)">
      <use xlink:href="#ArialMT-56"/>
      <use x="66.699219" xlink:href="#ArialMT-20"/>
      <use x="94.482422" xlink:href="#ArialMT-62"/>
      <use x="150.097656" xlink:href="#ArialMT-61"/>
      <use x="205.712891" xlink:href="#ArialMT-6e"/>
      <use x="261.328125" xlink:href="#ArialMT-64"/>
      <use x="316.943359" xlink:href="#ArialMT-20"/>
      <use x="344.726562" xlink:href="#ArialMT-61"/>
      <use x="400.341797" xlink:href="#ArialMT-62"/>
      <use x="455.957031" xlink:href="#ArialMT-73"/>
      <use x="505.957031" xlink:href="#ArialMT-6f"/>
      <use x="561.572266" xlink:href="#ArialMT-6c"/>
      <use x="583.789062" xlink:href="#ArialMT-75"/>
      <use x="639.404297" xlink:href="#ArialMT-74"/>
      <use x="667.1875" xlink:href="#ArialMT-65"/>
      <use x="722.802734" xlink:href="#ArialMT-20"/>
      <use x="750.585938" xlink:href="#ArialMT-6d"/>
      <use x="833.886719" xlink:href="#ArialMT-61"/>
      <use x="889.501953" xlink:href="#ArialMT-67"/>
      <use x="945.117188" xlink:href="#ArialMT-20"/>
      <use x="972.900391" xlink:href="#ArialMT-61"/>
      <use x="1028.515625" xlink:href="#ArialMT-74"/>
      <use x="1056.298828" xlink:href="#ArialMT-20"/>
      <use x="1084.082031" xlink:href="#ArialMT-64"/>
      <use x="1139.697266" xlink:href="#ArialMT-61"/>
      <use x="1195.3125" xlink:href="#ArialMT-79"/>
      <use x="1245.3125" xlink:href="#ArialMT-20"/>
      <use x="1273.095703" xlink:href="#ArialMT-35"/>
      <use x="1328.710938" xlink:href="#ArialMT-30"/>
     </g>
    </g>
   </g>
   <g id="matplotlib.axis_2">
    <g id="ytick_1">
     <g id="line2d_8">
      <defs>
       <path d="M 0 0 
L -3.5 0 
" id="m2365996fae" style="stroke:#000000;stroke-width:0.8;"/>
      </defs>
      <g>
       <use style="stroke:#000000;stroke-width:0.8;" x="81" xlink:href="#m2365996fae" y="315.209158"/>
      </g>
     </g>
     <g id="text_9">
      <!-- $\mathdefault{10^{-2}}$ -->
      <defs>
       <path d="M 50.34375 8.453125 
L 50.34375 0 
L 3.03125 0 
Q 2.9375 3.171875 4.046875 6.109375 
Q 5.859375 10.9375 9.828125 15.625 
Q 13.8125 20.3125 21.34375 26.46875 
Q 33.015625 36.03125 37.109375 41.625 
Q 41.21875 47.21875 41.21875 52.203125 
Q 41.21875 57.421875 37.46875 61 
Q 33.734375 64.59375 27.734375 64.59375 
Q 21.390625 64.59375 17.578125 60.78125 
Q 13.765625 56.984375 13.71875 50.25 
L 4.6875 51.171875 
Q 5.609375 61.28125 11.65625 66.578125 
Q 17.71875 71.875 27.9375 71.875 
Q 38.234375 71.875 44.234375 66.15625 
Q 50.25 60.453125 50.25 52 
Q 50.25 47.703125 48.484375 43.546875 
Q 46.734375 39.40625 42.65625 34.8125 
Q 38.578125 30.21875 29.109375 22.21875 
Q 21.1875 15.578125 18.9375 13.203125 
Q 16.703125 10.84375 15.234375 8.453125 
z
" id="ArialMT-32"/>
      </defs>
      <g transform="translate(26.48 327.584158)scale(0.24 -0.24)">
       <use transform="translate(0 0.99375)" xlink:href="#ArialMT-31"/>
       <use transform="translate(55.615234 0.99375)" xlink:href="#ArialMT-30"/>
       <use transform="translate(112.972813 70.6875)scale(0.7)" xlink:href="#ArialMT-2212"/>
       <use transform="translate(153.851719 70.6875)scale(0.7)" xlink:href="#ArialMT-32"/>
      </g>
     </g>
    </g>
    <g id="ytick_2">
     <g id="line2d_9">
      <g>
       <use style="stroke:#000000;stroke-width:0.8;" x="81" xlink:href="#m2365996fae" y="142.75943"/>
      </g>
     </g>
     <g id="text_10">
      <!-- $\mathdefault{10^{-1}}$ -->
      <g transform="translate(26.48 155.13443)scale(0.24 -0.24)">
       <use transform="translate(0 0.99375)" xlink:href="#ArialMT-31"/>
       <use transform="translate(55.615234 0.99375)" xlink:href="#ArialMT-30"/>
       <use transform="translate(112.972813 70.6875)scale(0.7)" xlink:href="#ArialMT-2212"/>
       <use transform="translate(153.851719 70.6875)scale(0.7)" xlink:href="#ArialMT-31"/>
      </g>
     </g>
    </g>
    <g id="ytick_3">
     <g id="line2d_10">
      <defs>
       <path d="M 0 0 
L -2 0 
" id="m8b2aca410f" style="stroke:#000000;stroke-width:0.6;"/>
      </defs>
      <g>
       <use style="stroke:#000000;stroke-width:0.6;" x="81" xlink:href="#m8b2aca410f" y="435.746345"/>
      </g>
     </g>
    </g>
    <g id="ytick_4">
     <g id="line2d_11">
      <g>
       <use style="stroke:#000000;stroke-width:0.6;" x="81" xlink:href="#m8b2aca410f" y="405.379455"/>
      </g>
     </g>
    </g>
    <g id="ytick_5">
     <g id="line2d_12">
      <g>
       <use style="stroke:#000000;stroke-width:0.6;" x="81" xlink:href="#m8b2aca410f" y="383.833804"/>
      </g>
     </g>
    </g>
    <g id="ytick_6">
     <g id="line2d_13">
      <g>
       <use style="stroke:#000000;stroke-width:0.6;" x="81" xlink:href="#m8b2aca410f" y="367.121699"/>
      </g>
     </g>
    </g>
    <g id="ytick_7">
     <g id="line2d_14">
      <g>
       <use style="stroke:#000000;stroke-width:0.6;" x="81" xlink:href="#m8b2aca410f" y="353.466914"/>
      </g>
     </g>
    </g>
    <g id="ytick_8">
     <g id="line2d_15">
      <g>
       <use style="stroke:#000000;stroke-width:0.6;" x="81" xlink:href="#m8b2aca410f" y="341.921959"/>
      </g>
     </g>
    </g>
    <g id="ytick_9">
     <g id="line2d_16">
      <g>
       <use style="stroke:#000000;stroke-width:0.6;" x="81" xlink:href="#m8b2aca410f" y="331.921263"/>
      </g>
     </g>
    </g>
    <g id="ytick_10">
     <g id="line2d_17">
      <g>
       <use style="stroke:#000000;stroke-width:0.6;" x="81" xlink:href="#m8b2aca410f" y="323.100025"/>
      </g>
     </g>
    </g>
    <g id="ytick_11">
     <g id="line2d_18">
      <g>
       <use style="stroke:#000000;stroke-width:0.6;" x="81" xlink:href="#m8b2aca410f" y="263.296617"/>
      </g>
     </g>
    </g>
    <g id="ytick_12">
     <g id="line2d_19">
      <g>
       <use style="stroke:#000000;stroke-width:0.6;" x="81" xlink:href="#m8b2aca410f" y="232.929728"/>
      </g>
     </g>
    </g>
    <g id="ytick_13">
     <g id="line2d_20">
      <g>
       <use style="stroke:#000000;stroke-width:0.6;" x="81" xlink:href="#m8b2aca410f" y="211.384076"/>
      </g>
     </g>
    </g>
    <g id="ytick_14">
     <g id="line2d_21">
      <g>
       <use style="stroke:#000000;stroke-width:0.6;" x="81" xlink:href="#m8b2aca410f" y="194.671971"/>
      </g>
     </g>
    </g>
    <g id="ytick_15">
     <g id="line2d_22">
      <g>
       <use style="stroke:#000000;stroke-width:0.6;" x="81" xlink:href="#m8b2aca410f" y="181.017187"/>
      </g>
     </g>
    </g>
    <g id="ytick_16">
     <g id="line2d_23">
      <g>
       <use style="stroke:#000000;stroke-width:0.6;" x="81" xlink:href="#m8b2aca410f" y="169.472231"/>
      </g>
     </g>
    </g>
    <g id="ytick_17">
     <g id="line2d_24">
      <g>
       <use style="stroke:#000000;stroke-width:0.6;" x="81" xlink:href="#m8b2aca410f" y="159.471536"/>
      </g>
     </g>
    </g>
    <g id="ytick_18">
     <g id="line2d_25">
      <g>
       <use style="stroke:#000000;stroke-width:0.6;" x="81" xlink:href="#m8b2aca410f" y="150.650297"/>
      </g>
     </g>
    </g>
    <g id="ytick_19">
     <g id="line2d_26">
      <g>
       <use style="stroke:#000000;stroke-width:0.6;" x="81" xlink:href="#m8b2aca410f" y="90.84689"/>
      </g>
     </g>
    </g>
    <g id="ytick_20">
     <g id="line2d_27">
      <g>
       <use style="stroke:#000000;stroke-width:0.6;" x="81" xlink:href="#m8b2aca410f" y="60.48"/>
      </g>
     </g>
    </g>
    <g id="text_11">
     <!-- Ni mass (solar masses) -->
     <defs>
      <path d="M 7.625 0 
L 7.625 71.578125 
L 17.328125 71.578125 
L 54.9375 15.375 
L 54.9375 71.578125 
L 64.015625 71.578125 
L 64.015625 0 
L 54.296875 0 
L 16.703125 56.25 
L 16.703125 0 
z
" id="ArialMT-4e"/>
      <path d="M 6.640625 61.46875 
L 6.640625 71.578125 
L 15.4375 71.578125 
L 15.4375 61.46875 
z
M 6.640625 0 
L 6.640625 51.859375 
L 15.4375 51.859375 
L 15.4375 0 
z
" id="ArialMT-69"/>
      <path d="M 23.390625 -21.046875 
Q 16.109375 -11.859375 11.078125 0.4375 
Q 6.0625 12.75 6.0625 25.921875 
Q 6.0625 37.546875 9.8125 48.1875 
Q 14.203125 60.546875 23.390625 72.796875 
L 29.6875 72.796875 
Q 23.78125 62.640625 21.875 58.296875 
Q 18.890625 51.5625 17.1875 44.234375 
Q 15.09375 35.109375 15.09375 25.875 
Q 15.09375 2.390625 29.6875 -21.046875 
z
" id="ArialMT-28"/>
      <path d="M 6.5 0 
L 6.5 51.859375 
L 14.40625 51.859375 
L 14.40625 44 
Q 17.4375 49.515625 20 51.265625 
Q 22.5625 53.03125 25.640625 53.03125 
Q 30.078125 53.03125 34.671875 50.203125 
L 31.640625 42.046875 
Q 28.421875 43.953125 25.203125 43.953125 
Q 22.3125 43.953125 20.015625 42.21875 
Q 17.71875 40.484375 16.75 37.40625 
Q 15.28125 32.71875 15.28125 27.15625 
L 15.28125 0 
z
" id="ArialMT-72"/>
      <path d="M 12.359375 -21.046875 
L 6.0625 -21.046875 
Q 20.65625 2.390625 20.65625 25.875 
Q 20.65625 35.0625 18.5625 44.09375 
Q 16.890625 51.421875 13.921875 58.15625 
Q 12.015625 62.546875 6.0625 72.796875 
L 12.359375 72.796875 
Q 21.53125 60.546875 25.921875 48.1875 
Q 29.6875 37.546875 29.6875 25.921875 
Q 29.6875 12.75 24.625 0.4375 
Q 19.578125 -11.859375 12.359375 -21.046875 
z
" id="ArialMT-29"/>
     </defs>
     <g transform="translate(18.270625 358.973125)rotate(-90)scale(0.2 -0.2)">
      <use xlink:href="#ArialMT-4e"/>
      <use x="72.216797" xlink:href="#ArialMT-69"/>
      <use x="94.433594" xlink:href="#ArialMT-20"/>
      <use x="122.216797" xlink:href="#ArialMT-6d"/>
      <use x="205.517578" xlink:href="#ArialMT-61"/>
      <use x="261.132812" xlink:href="#ArialMT-73"/>
      <use x="311.132812" xlink:href="#ArialMT-73"/>
      <use x="361.132812" xlink:href="#ArialMT-20"/>
      <use x="388.916016" xlink:href="#ArialMT-28"/>
      <use x="422.216797" xlink:href="#ArialMT-73"/>
      <use x="472.216797" xlink:href="#ArialMT-6f"/>
      <use x="527.832031" xlink:href="#ArialMT-6c"/>
      <use x="550.048828" xlink:href="#ArialMT-61"/>
      <use x="605.664062" xlink:href="#ArialMT-72"/>
      <use x="638.964844" xlink:href="#ArialMT-20"/>
      <use x="666.748047" xlink:href="#ArialMT-6d"/>
      <use x="750.048828" xlink:href="#ArialMT-61"/>
      <use x="805.664062" xlink:href="#ArialMT-73"/>
      <use x="855.664062" xlink:href="#ArialMT-73"/>
      <use x="905.664062" xlink:href="#ArialMT-65"/>
      <use x="961.279297" xlink:href="#ArialMT-73"/>
      <use x="1011.279297" xlink:href="#ArialMT-29"/>
     </g>
    </g>
   </g>
   <g id="LineCollection_1">
    <path clip-path="url(#p331d27057b)" d="M 397.454093 260.720158 
L 378.668204 260.720158 
" style="fill:none;stroke:#000000;stroke-opacity:0.2;stroke-width:1.5;"/>
    <path clip-path="url(#p331d27057b)" d="M 397.454093 260.720158 
L 378.668204 260.720158 
" style="fill:none;stroke:#000000;stroke-opacity:0.2;stroke-width:1.5;"/>
    <path clip-path="url(#p331d27057b)" d="M 397.454093 260.720158 
L 378.668204 260.720158 
" style="fill:none;stroke:#000000;stroke-opacity:0.2;stroke-width:1.5;"/>
    <path clip-path="url(#p331d27057b)" d="M 461.8361 228.096182 
L 411.696806 228.096182 
" style="fill:none;stroke:#000000;stroke-opacity:0.2;stroke-width:1.5;"/>
    <path clip-path="url(#p331d27057b)" d="M 461.8361 228.096182 
L 411.696806 228.096182 
" style="fill:none;stroke:#000000;stroke-opacity:0.2;stroke-width:1.5;"/>
    <path clip-path="url(#p331d27057b)" d="M 461.8361 228.096182 
L 411.696806 228.096182 
" style="fill:none;stroke:#000000;stroke-opacity:0.2;stroke-width:1.5;"/>
    <path clip-path="url(#p331d27057b)" d="M 439.311257 223.33581 
L 394.003944 223.33581 
" style="fill:none;stroke:#000000;stroke-opacity:0.2;stroke-width:1.5;"/>
    <path clip-path="url(#p331d27057b)" d="M 439.311257 223.33581 
L 394.003944 223.33581 
" style="fill:none;stroke:#000000;stroke-opacity:0.2;stroke-width:1.5;"/>
    <path clip-path="url(#p331d27057b)" d="M 439.311257 223.33581 
L 394.003944 223.33581 
" style="fill:none;stroke:#000000;stroke-opacity:0.2;stroke-width:1.5;"/>
    <path clip-path="url(#p331d27057b)" d="M 392.187456 228.096182 
L 292.821659 228.096182 
" style="fill:none;stroke:#000000;stroke-opacity:0.2;stroke-width:1.5;"/>
    <path clip-path="url(#p331d27057b)" d="M 392.187456 228.096182 
L 292.821659 228.096182 
" style="fill:none;stroke:#000000;stroke-opacity:0.2;stroke-width:1.5;"/>
    <path clip-path="url(#p331d27057b)" d="M 392.187456 228.096182 
L 292.821659 228.096182 
" style="fill:none;stroke:#000000;stroke-opacity:0.2;stroke-width:1.5;"/>
    <path clip-path="url(#p331d27057b)" d="M 223.14079 371.755793 
L 182.871791 371.755793 
" style="fill:none;stroke:#000000;stroke-opacity:0.2;stroke-width:1.5;"/>
    <path clip-path="url(#p331d27057b)" d="M 223.14079 371.755793 
L 182.871791 371.755793 
" style="fill:none;stroke:#000000;stroke-opacity:0.2;stroke-width:1.5;"/>
    <path clip-path="url(#p331d27057b)" d="M 223.14079 371.755793 
L 182.871791 371.755793 
" style="fill:none;stroke:#000000;stroke-opacity:0.2;stroke-width:1.5;"/>
    <path clip-path="url(#p331d27057b)" d="M 426.766518 208.807617 
L 360.578988 208.807617 
" style="fill:none;stroke:#000000;stroke-opacity:0.2;stroke-width:1.5;"/>
    <path clip-path="url(#p331d27057b)" d="M 426.766518 208.807617 
L 360.578988 208.807617 
" style="fill:none;stroke:#000000;stroke-opacity:0.2;stroke-width:1.5;"/>
    <path clip-path="url(#p331d27057b)" d="M 426.766518 208.807617 
L 360.578988 208.807617 
" style="fill:none;stroke:#000000;stroke-opacity:0.2;stroke-width:1.5;"/>
    <path clip-path="url(#p331d27057b)" d="M 257.245081 432.092256 
L 183.893106 432.092256 
" style="fill:none;stroke:#000000;stroke-opacity:0.2;stroke-width:1.5;"/>
    <path clip-path="url(#p331d27057b)" d="M 257.245081 432.092256 
L 183.893106 432.092256 
" style="fill:none;stroke:#000000;stroke-opacity:0.2;stroke-width:1.5;"/>
    <path clip-path="url(#p331d27057b)" d="M 257.245081 432.092256 
L 183.893106 432.092256 
" style="fill:none;stroke:#000000;stroke-opacity:0.2;stroke-width:1.5;"/>
    <path clip-path="url(#p331d27057b)" d="M 410.47458 195.122688 
L 372.511901 195.122688 
" style="fill:none;stroke:#000000;stroke-opacity:0.2;stroke-width:1.5;"/>
    <path clip-path="url(#p331d27057b)" d="M 410.47458 195.122688 
L 372.511901 195.122688 
" style="fill:none;stroke:#000000;stroke-opacity:0.2;stroke-width:1.5;"/>
    <path clip-path="url(#p331d27057b)" d="M 410.47458 195.122688 
L 372.511901 195.122688 
" style="fill:none;stroke:#000000;stroke-opacity:0.2;stroke-width:1.5;"/>
    <path clip-path="url(#p331d27057b)" d="M 323.343056 325.639046 
L 283.095663 325.639046 
" style="fill:none;stroke:#000000;stroke-opacity:0.2;stroke-width:1.5;"/>
    <path clip-path="url(#p331d27057b)" d="M 323.343056 325.639046 
L 283.095663 325.639046 
" style="fill:none;stroke:#000000;stroke-opacity:0.2;stroke-width:1.5;"/>
    <path clip-path="url(#p331d27057b)" d="M 323.343056 325.639046 
L 283.095663 325.639046 
" style="fill:none;stroke:#000000;stroke-opacity:0.2;stroke-width:1.5;"/>
    <path clip-path="url(#p331d27057b)" d="M 423.29321 182.530248 
L 358.773495 182.530248 
" style="fill:none;stroke:#000000;stroke-opacity:0.2;stroke-width:1.5;"/>
    <path clip-path="url(#p331d27057b)" d="M 423.29321 182.530248 
L 358.773495 182.530248 
" style="fill:none;stroke:#000000;stroke-opacity:0.2;stroke-width:1.5;"/>
    <path clip-path="url(#p331d27057b)" d="M 423.29321 182.530248 
L 358.773495 182.530248 
" style="fill:none;stroke:#000000;stroke-opacity:0.2;stroke-width:1.5;"/>
    <path clip-path="url(#p331d27057b)" d="M 339.671897 327.380845 
L 277.094146 327.380845 
" style="fill:none;stroke:#000000;stroke-opacity:0.2;stroke-width:1.5;"/>
    <path clip-path="url(#p331d27057b)" d="M 339.671897 327.380845 
L 277.094146 327.380845 
" style="fill:none;stroke:#000000;stroke-opacity:0.2;stroke-width:1.5;"/>
    <path clip-path="url(#p331d27057b)" d="M 339.671897 327.380845 
L 277.094146 327.380845 
" style="fill:none;stroke:#000000;stroke-opacity:0.2;stroke-width:1.5;"/>
    <path clip-path="url(#p331d27057b)" d="M 271.538316 376.695647 
L 189.551067 376.695647 
" style="fill:none;stroke:#000000;stroke-opacity:0.2;stroke-width:1.5;"/>
    <path clip-path="url(#p331d27057b)" d="M 271.538316 376.695647 
L 189.551067 376.695647 
" style="fill:none;stroke:#000000;stroke-opacity:0.2;stroke-width:1.5;"/>
    <path clip-path="url(#p331d27057b)" d="M 271.538316 376.695647 
L 189.551067 376.695647 
" style="fill:none;stroke:#000000;stroke-opacity:0.2;stroke-width:1.5;"/>
    <path clip-path="url(#p331d27057b)" d="M 414.452797 188.217782 
L 381.813208 188.217782 
" style="fill:none;stroke:#000000;stroke-opacity:0.2;stroke-width:1.5;"/>
    <path clip-path="url(#p331d27057b)" d="M 414.452797 188.217782 
L 381.813208 188.217782 
" style="fill:none;stroke:#000000;stroke-opacity:0.2;stroke-width:1.5;"/>
    <path clip-path="url(#p331d27057b)" d="M 414.452797 188.217782 
L 381.813208 188.217782 
" style="fill:none;stroke:#000000;stroke-opacity:0.2;stroke-width:1.5;"/>
    <path clip-path="url(#p331d27057b)" d="M 417.791156 251.537984 
L 349.078179 251.537984 
" style="fill:none;stroke:#000000;stroke-opacity:0.2;stroke-width:1.5;"/>
    <path clip-path="url(#p331d27057b)" d="M 417.791156 251.537984 
L 349.078179 251.537984 
" style="fill:none;stroke:#000000;stroke-opacity:0.2;stroke-width:1.5;"/>
    <path clip-path="url(#p331d27057b)" d="M 417.791156 251.537984 
L 349.078179 251.537984 
" style="fill:none;stroke:#000000;stroke-opacity:0.2;stroke-width:1.5;"/>
    <path clip-path="url(#p331d27057b)" d="M 458.197464 400.545909 
L 397.33239 400.545909 
" style="fill:none;stroke:#000000;stroke-opacity:0.2;stroke-width:1.5;"/>
    <path clip-path="url(#p331d27057b)" d="M 458.197464 400.545909 
L 397.33239 400.545909 
" style="fill:none;stroke:#000000;stroke-opacity:0.2;stroke-width:1.5;"/>
    <path clip-path="url(#p331d27057b)" d="M 458.197464 400.545909 
L 397.33239 400.545909 
" style="fill:none;stroke:#000000;stroke-opacity:0.2;stroke-width:1.5;"/>
    <path clip-path="url(#p331d27057b)" d="M 207.664294 432.092256 
L 200.34062 432.092256 
" style="fill:none;stroke:#000000;stroke-opacity:0.2;stroke-width:1.5;"/>
    <path clip-path="url(#p331d27057b)" d="M 207.664294 432.092256 
L 200.34062 432.092256 
" style="fill:none;stroke:#000000;stroke-opacity:0.2;stroke-width:1.5;"/>
    <path clip-path="url(#p331d27057b)" d="M 207.664294 432.092256 
L 200.34062 432.092256 
" style="fill:none;stroke:#000000;stroke-opacity:0.2;stroke-width:1.5;"/>
    <path clip-path="url(#p331d27057b)" d="M 321.962256 389.672653 
L 277.523514 389.672653 
" style="fill:none;stroke:#000000;stroke-opacity:0.2;stroke-width:1.5;"/>
    <path clip-path="url(#p331d27057b)" d="M 321.962256 389.672653 
L 277.523514 389.672653 
" style="fill:none;stroke:#000000;stroke-opacity:0.2;stroke-width:1.5;"/>
    <path clip-path="url(#p331d27057b)" d="M 321.962256 389.672653 
L 277.523514 389.672653 
" style="fill:none;stroke:#000000;stroke-opacity:0.2;stroke-width:1.5;"/>
    <path clip-path="url(#p331d27057b)" d="M 363.866078 191.734576 
L 269.880971 191.734576 
" style="fill:none;stroke:#000000;stroke-opacity:0.2;stroke-width:1.5;"/>
    <path clip-path="url(#p331d27057b)" d="M 363.866078 191.734576 
L 269.880971 191.734576 
" style="fill:none;stroke:#000000;stroke-opacity:0.2;stroke-width:1.5;"/>
    <path clip-path="url(#p331d27057b)" d="M 363.866078 191.734576 
L 269.880971 191.734576 
" style="fill:none;stroke:#000000;stroke-opacity:0.2;stroke-width:1.5;"/>
    <path clip-path="url(#p331d27057b)" d="M 430.295731 227.16581 
L 345.694122 227.16581 
" style="fill:none;stroke:#000000;stroke-opacity:0.2;stroke-width:1.5;"/>
    <path clip-path="url(#p331d27057b)" d="M 430.295731 227.16581 
L 345.694122 227.16581 
" style="fill:none;stroke:#000000;stroke-opacity:0.2;stroke-width:1.5;"/>
    <path clip-path="url(#p331d27057b)" d="M 430.295731 227.16581 
L 345.694122 227.16581 
" style="fill:none;stroke:#000000;stroke-opacity:0.2;stroke-width:1.5;"/>
    <path clip-path="url(#p331d27057b)" d="M 423.190028 212.515997 
L 352.468437 212.515997 
" style="fill:none;stroke:#000000;stroke-opacity:0.2;stroke-width:1.5;"/>
    <path clip-path="url(#p331d27057b)" d="M 423.190028 212.515997 
L 352.468437 212.515997 
" style="fill:none;stroke:#000000;stroke-opacity:0.2;stroke-width:1.5;"/>
    <path clip-path="url(#p331d27057b)" d="M 423.190028 212.515997 
L 352.468437 212.515997 
" style="fill:none;stroke:#000000;stroke-opacity:0.2;stroke-width:1.5;"/>
    <path clip-path="url(#p331d27057b)" d="M 169.331196 389.672653 
L 127.708298 389.672653 
" style="fill:none;stroke:#000000;stroke-opacity:0.2;stroke-width:1.5;"/>
    <path clip-path="url(#p331d27057b)" d="M 169.331196 389.672653 
L 127.708298 389.672653 
" style="fill:none;stroke:#000000;stroke-opacity:0.2;stroke-width:1.5;"/>
    <path clip-path="url(#p331d27057b)" d="M 169.331196 389.672653 
L 127.708298 389.672653 
" style="fill:none;stroke:#000000;stroke-opacity:0.2;stroke-width:1.5;"/>
    <path clip-path="url(#p331d27057b)" d="M 403.992419 187.533814 
L 356.328779 187.533814 
" style="fill:none;stroke:#000000;stroke-opacity:0.2;stroke-width:1.5;"/>
    <path clip-path="url(#p331d27057b)" d="M 403.992419 187.533814 
L 356.328779 187.533814 
" style="fill:none;stroke:#000000;stroke-opacity:0.2;stroke-width:1.5;"/>
    <path clip-path="url(#p331d27057b)" d="M 403.992419 187.533814 
L 356.328779 187.533814 
" style="fill:none;stroke:#000000;stroke-opacity:0.2;stroke-width:1.5;"/>
    <path clip-path="url(#p331d27057b)" d="M 314.406167 164.305081 
L 299.046061 164.305081 
" style="fill:none;stroke:#000000;stroke-opacity:0.2;stroke-width:1.5;"/>
    <path clip-path="url(#p331d27057b)" d="M 400.934536 189.464889 
L 370.05089 189.464889 
" style="fill:none;stroke:#000000;stroke-opacity:0.2;stroke-width:1.5;"/>
    <path clip-path="url(#p331d27057b)" d="M 400.934536 189.464889 
L 370.05089 189.464889 
" style="fill:none;stroke:#000000;stroke-opacity:0.2;stroke-width:1.5;"/>
    <path clip-path="url(#p331d27057b)" d="M 400.934536 189.464889 
L 370.05089 189.464889 
" style="fill:none;stroke:#000000;stroke-opacity:0.2;stroke-width:1.5;"/>
    <path clip-path="url(#p331d27057b)" d="M 404.614341 319.843252 
L 289.598411 319.843252 
" style="fill:none;stroke:#000000;stroke-opacity:0.2;stroke-width:1.5;"/>
    <path clip-path="url(#p331d27057b)" d="M 404.614341 319.843252 
L 289.598411 319.843252 
" style="fill:none;stroke:#000000;stroke-opacity:0.2;stroke-width:1.5;"/>
    <path clip-path="url(#p331d27057b)" d="M 404.614341 319.843252 
L 289.598411 319.843252 
" style="fill:none;stroke:#000000;stroke-opacity:0.2;stroke-width:1.5;"/>
    <path clip-path="url(#p331d27057b)" d="M 416.939303 229.513776 
L 346.640822 229.513776 
" style="fill:none;stroke:#000000;stroke-opacity:0.2;stroke-width:1.5;"/>
    <path clip-path="url(#p331d27057b)" d="M 416.939303 229.513776 
L 346.640822 229.513776 
" style="fill:none;stroke:#000000;stroke-opacity:0.2;stroke-width:1.5;"/>
    <path clip-path="url(#p331d27057b)" d="M 416.939303 229.513776 
L 346.640822 229.513776 
" style="fill:none;stroke:#000000;stroke-opacity:0.2;stroke-width:1.5;"/>
    <path clip-path="url(#p331d27057b)" d="M 418.756095 219.067193 
L 369.980806 219.067193 
" style="fill:none;stroke:#000000;stroke-opacity:0.2;stroke-width:1.5;"/>
    <path clip-path="url(#p331d27057b)" d="M 306.009032 277.704111 
L 264.272332 277.704111 
" style="fill:none;stroke:#000000;stroke-opacity:0.2;stroke-width:1.5;"/>
    <path clip-path="url(#p331d27057b)" d="M 306.009032 277.704111 
L 264.272332 277.704111 
" style="fill:none;stroke:#000000;stroke-opacity:0.2;stroke-width:1.5;"/>
    <path clip-path="url(#p331d27057b)" d="M 306.009032 277.704111 
L 264.272332 277.704111 
" style="fill:none;stroke:#000000;stroke-opacity:0.2;stroke-width:1.5;"/>
   </g>
   <g id="LineCollection_2">
    <path clip-path="url(#p331d27057b)" d="M 388.061149 267.930712 
L 388.061149 254.143254 
" style="fill:none;stroke:#000000;stroke-opacity:0.2;stroke-width:1.5;"/>
    <path clip-path="url(#p331d27057b)" d="M 388.061149 267.930712 
L 388.061149 254.143254 
" style="fill:none;stroke:#000000;stroke-opacity:0.2;stroke-width:1.5;"/>
    <path clip-path="url(#p331d27057b)" d="M 388.061149 267.930712 
L 388.061149 254.143254 
" style="fill:none;stroke:#000000;stroke-opacity:0.2;stroke-width:1.5;"/>
    <path clip-path="url(#p331d27057b)" d="M 436.766453 238.903642 
L 436.766453 218.653413 
" style="fill:none;stroke:#000000;stroke-opacity:0.2;stroke-width:1.5;"/>
    <path clip-path="url(#p331d27057b)" d="M 436.766453 238.903642 
L 436.766453 218.653413 
" style="fill:none;stroke:#000000;stroke-opacity:0.2;stroke-width:1.5;"/>
    <path clip-path="url(#p331d27057b)" d="M 436.766453 238.903642 
L 436.766453 218.653413 
" style="fill:none;stroke:#000000;stroke-opacity:0.2;stroke-width:1.5;"/>
    <path clip-path="url(#p331d27057b)" d="M 416.6576 224.665324 
L 416.6576 222.029487 
" style="fill:none;stroke:#000000;stroke-opacity:0.2;stroke-width:1.5;"/>
    <path clip-path="url(#p331d27057b)" d="M 416.6576 224.665324 
L 416.6576 222.029487 
" style="fill:none;stroke:#000000;stroke-opacity:0.2;stroke-width:1.5;"/>
    <path clip-path="url(#p331d27057b)" d="M 416.6576 224.665324 
L 416.6576 222.029487 
" style="fill:none;stroke:#000000;stroke-opacity:0.2;stroke-width:1.5;"/>
    <path clip-path="url(#p331d27057b)" d="M 342.504558 233.682437 
L 342.504558 222.897833 
" style="fill:none;stroke:#000000;stroke-opacity:0.2;stroke-width:1.5;"/>
    <path clip-path="url(#p331d27057b)" d="M 342.504558 233.682437 
L 342.504558 222.897833 
" style="fill:none;stroke:#000000;stroke-opacity:0.2;stroke-width:1.5;"/>
    <path clip-path="url(#p331d27057b)" d="M 342.504558 233.682437 
L 342.504558 222.897833 
" style="fill:none;stroke:#000000;stroke-opacity:0.2;stroke-width:1.5;"/>
    <path clip-path="url(#p331d27057b)" d="M 203.006291 375.012565 
L 203.006291 368.63476 
" style="fill:none;stroke:#000000;stroke-opacity:0.2;stroke-width:1.5;"/>
    <path clip-path="url(#p331d27057b)" d="M 203.006291 375.012565 
L 203.006291 368.63476 
" style="fill:none;stroke:#000000;stroke-opacity:0.2;stroke-width:1.5;"/>
    <path clip-path="url(#p331d27057b)" d="M 203.006291 375.012565 
L 203.006291 368.63476 
" style="fill:none;stroke:#000000;stroke-opacity:0.2;stroke-width:1.5;"/>
    <path clip-path="url(#p331d27057b)" d="M 393.672753 226.246854 
L 393.672753 194.671971 
" style="fill:none;stroke:#000000;stroke-opacity:0.2;stroke-width:1.5;"/>
    <path clip-path="url(#p331d27057b)" d="M 393.672753 226.246854 
L 393.672753 194.671971 
" style="fill:none;stroke:#000000;stroke-opacity:0.2;stroke-width:1.5;"/>
    <path clip-path="url(#p331d27057b)" d="M 393.672753 226.246854 
L 393.672753 194.671971 
" style="fill:none;stroke:#000000;stroke-opacity:0.2;stroke-width:1.5;"/>
    <path clip-path="url(#p331d27057b)" d="M 220.569094 439.587903 
L 220.569094 425.279019 
" style="fill:none;stroke:#000000;stroke-opacity:0.2;stroke-width:1.5;"/>
    <path clip-path="url(#p331d27057b)" d="M 220.569094 439.587903 
L 220.569094 425.279019 
" style="fill:none;stroke:#000000;stroke-opacity:0.2;stroke-width:1.5;"/>
    <path clip-path="url(#p331d27057b)" d="M 220.569094 439.587903 
L 220.569094 425.279019 
" style="fill:none;stroke:#000000;stroke-opacity:0.2;stroke-width:1.5;"/>
    <path clip-path="url(#p331d27057b)" d="M 391.49324 204.587122 
L 391.49324 186.721213 
" style="fill:none;stroke:#000000;stroke-opacity:0.2;stroke-width:1.5;"/>
    <path clip-path="url(#p331d27057b)" d="M 391.49324 204.587122 
L 391.49324 186.721213 
" style="fill:none;stroke:#000000;stroke-opacity:0.2;stroke-width:1.5;"/>
    <path clip-path="url(#p331d27057b)" d="M 391.49324 204.587122 
L 391.49324 186.721213 
" style="fill:none;stroke:#000000;stroke-opacity:0.2;stroke-width:1.5;"/>
    <path clip-path="url(#p331d27057b)" d="M 303.21936 336.754809 
L 303.21936 315.961867 
" style="fill:none;stroke:#000000;stroke-opacity:0.2;stroke-width:1.5;"/>
    <path clip-path="url(#p331d27057b)" d="M 303.21936 336.754809 
L 303.21936 315.961867 
" style="fill:none;stroke:#000000;stroke-opacity:0.2;stroke-width:1.5;"/>
    <path clip-path="url(#p331d27057b)" d="M 303.21936 336.754809 
L 303.21936 315.961867 
" style="fill:none;stroke:#000000;stroke-opacity:0.2;stroke-width:1.5;"/>
    <path clip-path="url(#p331d27057b)" d="M 391.033353 196.491347 
L 391.033353 170.76726 
" style="fill:none;stroke:#000000;stroke-opacity:0.2;stroke-width:1.5;"/>
    <path clip-path="url(#p331d27057b)" d="M 391.033353 196.491347 
L 391.033353 170.76726 
" style="fill:none;stroke:#000000;stroke-opacity:0.2;stroke-width:1.5;"/>
    <path clip-path="url(#p331d27057b)" d="M 391.033353 196.491347 
L 391.033353 170.76726 
" style="fill:none;stroke:#000000;stroke-opacity:0.2;stroke-width:1.5;"/>
    <path clip-path="url(#p331d27057b)" d="M 308.383022 329.164119 
L 308.383022 325.639046 
" style="fill:none;stroke:#000000;stroke-opacity:0.2;stroke-width:1.5;"/>
    <path clip-path="url(#p331d27057b)" d="M 308.383022 329.164119 
L 308.383022 325.639046 
" style="fill:none;stroke:#000000;stroke-opacity:0.2;stroke-width:1.5;"/>
    <path clip-path="url(#p331d27057b)" d="M 308.383022 329.164119 
L 308.383022 325.639046 
" style="fill:none;stroke:#000000;stroke-opacity:0.2;stroke-width:1.5;"/>
    <path clip-path="url(#p331d27057b)" d="M 230.544691 480.520728 
L 230.544691 334.783801 
" style="fill:none;stroke:#000000;stroke-opacity:0.2;stroke-width:1.5;"/>
    <path clip-path="url(#p331d27057b)" d="M 230.544691 480.520728 
L 230.544691 334.783801 
" style="fill:none;stroke:#000000;stroke-opacity:0.2;stroke-width:1.5;"/>
    <path clip-path="url(#p331d27057b)" d="M 230.544691 480.520728 
L 230.544691 334.783801 
" style="fill:none;stroke:#000000;stroke-opacity:0.2;stroke-width:1.5;"/>
    <path clip-path="url(#p331d27057b)" d="M 398.133003 188.631181 
L 398.133003 187.806652 
" style="fill:none;stroke:#000000;stroke-opacity:0.2;stroke-width:1.5;"/>
    <path clip-path="url(#p331d27057b)" d="M 398.133003 188.631181 
L 398.133003 187.806652 
" style="fill:none;stroke:#000000;stroke-opacity:0.2;stroke-width:1.5;"/>
    <path clip-path="url(#p331d27057b)" d="M 398.133003 188.631181 
L 398.133003 187.806652 
" style="fill:none;stroke:#000000;stroke-opacity:0.2;stroke-width:1.5;"/>
    <path clip-path="url(#p331d27057b)" d="M 383.434667 257.186769 
L 383.434667 246.285534 
" style="fill:none;stroke:#000000;stroke-opacity:0.2;stroke-width:1.5;"/>
    <path clip-path="url(#p331d27057b)" d="M 383.434667 257.186769 
L 383.434667 246.285534 
" style="fill:none;stroke:#000000;stroke-opacity:0.2;stroke-width:1.5;"/>
    <path clip-path="url(#p331d27057b)" d="M 383.434667 257.186769 
L 383.434667 246.285534 
" style="fill:none;stroke:#000000;stroke-opacity:0.2;stroke-width:1.5;"/>
    <path clip-path="url(#p331d27057b)" d="M 427.764927 416.096845 
L 427.764927 387.675362 
" style="fill:none;stroke:#000000;stroke-opacity:0.2;stroke-width:1.5;"/>
    <path clip-path="url(#p331d27057b)" d="M 427.764927 416.096845 
L 427.764927 387.675362 
" style="fill:none;stroke:#000000;stroke-opacity:0.2;stroke-width:1.5;"/>
    <path clip-path="url(#p331d27057b)" d="M 427.764927 416.096845 
L 427.764927 387.675362 
" style="fill:none;stroke:#000000;stroke-opacity:0.2;stroke-width:1.5;"/>
    <path clip-path="url(#p331d27057b)" d="M 204.002457 462.459146 
L 204.002457 410.546605 
" style="fill:none;stroke:#000000;stroke-opacity:0.2;stroke-width:1.5;"/>
    <path clip-path="url(#p331d27057b)" d="M 204.002457 462.459146 
L 204.002457 410.546605 
" style="fill:none;stroke:#000000;stroke-opacity:0.2;stroke-width:1.5;"/>
    <path clip-path="url(#p331d27057b)" d="M 204.002457 462.459146 
L 204.002457 410.546605 
" style="fill:none;stroke:#000000;stroke-opacity:0.2;stroke-width:1.5;"/>
    <path clip-path="url(#p331d27057b)" d="M 299.742885 505 
L 299.742885 336.754809 
" style="fill:none;stroke:#000000;stroke-opacity:0.2;stroke-width:1.5;"/>
    <path clip-path="url(#p331d27057b)" d="M 299.742885 505 
L 299.742885 336.754809 
" style="fill:none;stroke:#000000;stroke-opacity:0.2;stroke-width:1.5;"/>
    <path clip-path="url(#p331d27057b)" d="M 299.742885 505 
L 299.742885 336.754809 
" style="fill:none;stroke:#000000;stroke-opacity:0.2;stroke-width:1.5;"/>
    <path clip-path="url(#p331d27057b)" d="M 316.873524 219.692181 
L 316.873524 171.42327 
" style="fill:none;stroke:#000000;stroke-opacity:0.2;stroke-width:1.5;"/>
    <path clip-path="url(#p331d27057b)" d="M 316.873524 219.692181 
L 316.873524 171.42327 
" style="fill:none;stroke:#000000;stroke-opacity:0.2;stroke-width:1.5;"/>
    <path clip-path="url(#p331d27057b)" d="M 316.873524 219.692181 
L 316.873524 171.42327 
" style="fill:none;stroke:#000000;stroke-opacity:0.2;stroke-width:1.5;"/>
    <path clip-path="url(#p331d27057b)" d="M 387.994926 238.633754 
L 387.994926 217.222925 
" style="fill:none;stroke:#000000;stroke-opacity:0.2;stroke-width:1.5;"/>
    <path clip-path="url(#p331d27057b)" d="M 387.994926 238.633754 
L 387.994926 217.222925 
" style="fill:none;stroke:#000000;stroke-opacity:0.2;stroke-width:1.5;"/>
    <path clip-path="url(#p331d27057b)" d="M 387.994926 238.633754 
L 387.994926 217.222925 
" style="fill:none;stroke:#000000;stroke-opacity:0.2;stroke-width:1.5;"/>
    <path clip-path="url(#p331d27057b)" d="M 387.829233 222.897833 
L 387.829233 203.399651 
" style="fill:none;stroke:#000000;stroke-opacity:0.2;stroke-width:1.5;"/>
    <path clip-path="url(#p331d27057b)" d="M 387.829233 222.897833 
L 387.829233 203.399651 
" style="fill:none;stroke:#000000;stroke-opacity:0.2;stroke-width:1.5;"/>
    <path clip-path="url(#p331d27057b)" d="M 387.829233 222.897833 
L 387.829233 203.399651 
" style="fill:none;stroke:#000000;stroke-opacity:0.2;stroke-width:1.5;"/>
    <path clip-path="url(#p331d27057b)" d="M 148.519747 405.379455 
L 148.519747 376.695647 
" style="fill:none;stroke:#000000;stroke-opacity:0.2;stroke-width:1.5;"/>
    <path clip-path="url(#p331d27057b)" d="M 148.519747 405.379455 
L 148.519747 376.695647 
" style="fill:none;stroke:#000000;stroke-opacity:0.2;stroke-width:1.5;"/>
    <path clip-path="url(#p331d27057b)" d="M 148.519747 405.379455 
L 148.519747 376.695647 
" style="fill:none;stroke:#000000;stroke-opacity:0.2;stroke-width:1.5;"/>
    <path clip-path="url(#p331d27057b)" d="M 380.160599 194.22395 
L 380.160599 181.392596 
" style="fill:none;stroke:#000000;stroke-opacity:0.2;stroke-width:1.5;"/>
    <path clip-path="url(#p331d27057b)" d="M 380.160599 194.22395 
L 380.160599 181.392596 
" style="fill:none;stroke:#000000;stroke-opacity:0.2;stroke-width:1.5;"/>
    <path clip-path="url(#p331d27057b)" d="M 380.160599 194.22395 
L 380.160599 181.392596 
" style="fill:none;stroke:#000000;stroke-opacity:0.2;stroke-width:1.5;"/>
    <path clip-path="url(#p331d27057b)" d="M 306.726114 165.007374 
L 306.726114 163.609313 
" style="fill:none;stroke:#000000;stroke-opacity:0.2;stroke-width:1.5;"/>
    <path clip-path="url(#p331d27057b)" d="M 385.492713 208.266864 
L 385.492713 174.448568 
" style="fill:none;stroke:#000000;stroke-opacity:0.2;stroke-width:1.5;"/>
    <path clip-path="url(#p331d27057b)" d="M 385.492713 208.266864 
L 385.492713 174.448568 
" style="fill:none;stroke:#000000;stroke-opacity:0.2;stroke-width:1.5;"/>
    <path clip-path="url(#p331d27057b)" d="M 385.492713 208.266864 
L 385.492713 174.448568 
" style="fill:none;stroke:#000000;stroke-opacity:0.2;stroke-width:1.5;"/>
    <path clip-path="url(#p331d27057b)" d="M 347.106376 326.504882 
L 347.106376 313.726061 
" style="fill:none;stroke:#000000;stroke-opacity:0.2;stroke-width:1.5;"/>
    <path clip-path="url(#p331d27057b)" d="M 347.106376 326.504882 
L 347.106376 313.726061 
" style="fill:none;stroke:#000000;stroke-opacity:0.2;stroke-width:1.5;"/>
    <path clip-path="url(#p331d27057b)" d="M 347.106376 326.504882 
L 347.106376 313.726061 
" style="fill:none;stroke:#000000;stroke-opacity:0.2;stroke-width:1.5;"/>
    <path clip-path="url(#p331d27057b)" d="M 381.790062 257.5327 
L 381.790062 209.170301 
" style="fill:none;stroke:#000000;stroke-opacity:0.2;stroke-width:1.5;"/>
    <path clip-path="url(#p331d27057b)" d="M 381.790062 257.5327 
L 381.790062 209.170301 
" style="fill:none;stroke:#000000;stroke-opacity:0.2;stroke-width:1.5;"/>
    <path clip-path="url(#p331d27057b)" d="M 381.790062 257.5327 
L 381.790062 209.170301 
" style="fill:none;stroke:#000000;stroke-opacity:0.2;stroke-width:1.5;"/>
    <path clip-path="url(#p331d27057b)" d="M 394.368451 227.862503 
L 394.368451 211.197075 
" style="fill:none;stroke:#000000;stroke-opacity:0.2;stroke-width:1.5;"/>
    <path clip-path="url(#p331d27057b)" d="M 285.140682 287.899589 
L 285.140682 268.731724 
" style="fill:none;stroke:#000000;stroke-opacity:0.2;stroke-width:1.5;"/>
    <path clip-path="url(#p331d27057b)" d="M 285.140682 287.899589 
L 285.140682 268.731724 
" style="fill:none;stroke:#000000;stroke-opacity:0.2;stroke-width:1.5;"/>
    <path clip-path="url(#p331d27057b)" d="M 285.140682 287.899589 
L 285.140682 268.731724 
" style="fill:none;stroke:#000000;stroke-opacity:0.2;stroke-width:1.5;"/>
   </g>
   <g id="LineCollection_3">
    <path clip-path="url(#p331d27057b)" d="M 554.45742 116.782006 
L 552.13056 116.782006 
" style="fill:none;stroke:#ff3333;stroke-width:1.5;"/>
   </g>
   <g id="LineCollection_4">
    <path clip-path="url(#p331d27057b)" d="M 553.29399 117.328381 
L 553.29399 116.221435 
" style="fill:none;stroke:#ff3333;stroke-width:1.5;"/>
   </g>
   <g id="LineCollection_5">
    <path clip-path="url(#p331d27057b)" d="M 554.45742 102.737374 
L 552.13056 102.737374 
" style="fill:none;stroke:#911310;stroke-width:1.5;"/>
   </g>
   <g id="LineCollection_6">
    <path clip-path="url(#p331d27057b)" d="M 437.561992 142.75943 
L 429.191992 142.75943 
" style="fill:none;stroke:#cc6600;stroke-opacity:0.6;stroke-width:1.5;"/>
   </g>
   <g id="LineCollection_7">
    <path clip-path="url(#p331d27057b)" d="M 433.376992 150.650297 
L 433.376992 135.621273 
" style="fill:none;stroke:#cc6600;stroke-opacity:0.6;stroke-width:1.5;"/>
   </g>
   <g id="line2d_28">
    <defs>
     <path d="M 0 1.5 
C 0.397805 1.5 0.77937 1.341951 1.06066 1.06066 
C 1.341951 0.77937 1.5 0.397805 1.5 0 
C 1.5 -0.397805 1.341951 -0.77937 1.06066 -1.06066 
C 0.77937 -1.341951 0.397805 -1.5 0 -1.5 
C -0.397805 -1.5 -0.77937 -1.341951 -1.06066 -1.06066 
C -1.341951 -0.77937 -1.5 -0.397805 -1.5 0 
C -1.5 0.397805 -1.341951 0.77937 -1.06066 1.06066 
C -0.77937 1.341951 -0.397805 1.5 0 1.5 
z
" id="m3b92209802" style="stroke:#000000;"/>
    </defs>
    <g clip-path="url(#p331d27057b)">
     <use style="opacity:0.2;stroke:#000000;" x="388.061149" xlink:href="#m3b92209802" y="260.720158"/>
     <use style="opacity:0.2;stroke:#000000;" x="388.061149" xlink:href="#m3b92209802" y="260.720158"/>
     <use style="opacity:0.2;stroke:#000000;" x="388.061149" xlink:href="#m3b92209802" y="260.720158"/>
     <use style="opacity:0.2;stroke:#000000;" x="436.766453" xlink:href="#m3b92209802" y="228.096182"/>
     <use style="opacity:0.2;stroke:#000000;" x="436.766453" xlink:href="#m3b92209802" y="228.096182"/>
     <use style="opacity:0.2;stroke:#000000;" x="436.766453" xlink:href="#m3b92209802" y="228.096182"/>
     <use style="opacity:0.2;stroke:#000000;" x="416.6576" xlink:href="#m3b92209802" y="223.33581"/>
     <use style="opacity:0.2;stroke:#000000;" x="416.6576" xlink:href="#m3b92209802" y="223.33581"/>
     <use style="opacity:0.2;stroke:#000000;" x="416.6576" xlink:href="#m3b92209802" y="223.33581"/>
     <use style="opacity:0.2;stroke:#000000;" x="342.504558" xlink:href="#m3b92209802" y="228.096182"/>
     <use style="opacity:0.2;stroke:#000000;" x="342.504558" xlink:href="#m3b92209802" y="228.096182"/>
     <use style="opacity:0.2;stroke:#000000;" x="342.504558" xlink:href="#m3b92209802" y="228.096182"/>
     <use style="opacity:0.2;stroke:#000000;" x="203.006291" xlink:href="#m3b92209802" y="371.755793"/>
     <use style="opacity:0.2;stroke:#000000;" x="203.006291" xlink:href="#m3b92209802" y="371.755793"/>
     <use style="opacity:0.2;stroke:#000000;" x="203.006291" xlink:href="#m3b92209802" y="371.755793"/>
     <use style="opacity:0.2;stroke:#000000;" x="393.672753" xlink:href="#m3b92209802" y="208.807617"/>
     <use style="opacity:0.2;stroke:#000000;" x="393.672753" xlink:href="#m3b92209802" y="208.807617"/>
     <use style="opacity:0.2;stroke:#000000;" x="393.672753" xlink:href="#m3b92209802" y="208.807617"/>
     <use style="opacity:0.2;stroke:#000000;" x="220.569094" xlink:href="#m3b92209802" y="432.092256"/>
     <use style="opacity:0.2;stroke:#000000;" x="220.569094" xlink:href="#m3b92209802" y="432.092256"/>
     <use style="opacity:0.2;stroke:#000000;" x="220.569094" xlink:href="#m3b92209802" y="432.092256"/>
     <use style="opacity:0.2;stroke:#000000;" x="391.49324" xlink:href="#m3b92209802" y="195.122688"/>
     <use style="opacity:0.2;stroke:#000000;" x="391.49324" xlink:href="#m3b92209802" y="195.122688"/>
     <use style="opacity:0.2;stroke:#000000;" x="391.49324" xlink:href="#m3b92209802" y="195.122688"/>
     <use style="opacity:0.2;stroke:#000000;" x="303.21936" xlink:href="#m3b92209802" y="325.639046"/>
     <use style="opacity:0.2;stroke:#000000;" x="303.21936" xlink:href="#m3b92209802" y="325.639046"/>
     <use style="opacity:0.2;stroke:#000000;" x="303.21936" xlink:href="#m3b92209802" y="325.639046"/>
     <use style="opacity:0.2;stroke:#000000;" x="391.033353" xlink:href="#m3b92209802" y="182.530248"/>
     <use style="opacity:0.2;stroke:#000000;" x="391.033353" xlink:href="#m3b92209802" y="182.530248"/>
     <use style="opacity:0.2;stroke:#000000;" x="391.033353" xlink:href="#m3b92209802" y="182.530248"/>
     <use style="opacity:0.2;stroke:#000000;" x="308.383022" xlink:href="#m3b92209802" y="327.380845"/>
     <use style="opacity:0.2;stroke:#000000;" x="308.383022" xlink:href="#m3b92209802" y="327.380845"/>
     <use style="opacity:0.2;stroke:#000000;" x="308.383022" xlink:href="#m3b92209802" y="327.380845"/>
     <use style="opacity:0.2;stroke:#000000;" x="230.544691" xlink:href="#m3b92209802" y="376.695647"/>
     <use style="opacity:0.2;stroke:#000000;" x="230.544691" xlink:href="#m3b92209802" y="376.695647"/>
     <use style="opacity:0.2;stroke:#000000;" x="230.544691" xlink:href="#m3b92209802" y="376.695647"/>
     <use style="opacity:0.2;stroke:#000000;" x="398.133003" xlink:href="#m3b92209802" y="188.217782"/>
     <use style="opacity:0.2;stroke:#000000;" x="398.133003" xlink:href="#m3b92209802" y="188.217782"/>
     <use style="opacity:0.2;stroke:#000000;" x="398.133003" xlink:href="#m3b92209802" y="188.217782"/>
     <use style="opacity:0.2;stroke:#000000;" x="383.434667" xlink:href="#m3b92209802" y="251.537984"/>
     <use style="opacity:0.2;stroke:#000000;" x="383.434667" xlink:href="#m3b92209802" y="251.537984"/>
     <use style="opacity:0.2;stroke:#000000;" x="383.434667" xlink:href="#m3b92209802" y="251.537984"/>
     <use style="opacity:0.2;stroke:#000000;" x="427.764927" xlink:href="#m3b92209802" y="400.545909"/>
     <use style="opacity:0.2;stroke:#000000;" x="427.764927" xlink:href="#m3b92209802" y="400.545909"/>
     <use style="opacity:0.2;stroke:#000000;" x="427.764927" xlink:href="#m3b92209802" y="400.545909"/>
     <use style="opacity:0.2;stroke:#000000;" x="204.002457" xlink:href="#m3b92209802" y="432.092256"/>
     <use style="opacity:0.2;stroke:#000000;" x="204.002457" xlink:href="#m3b92209802" y="432.092256"/>
     <use style="opacity:0.2;stroke:#000000;" x="204.002457" xlink:href="#m3b92209802" y="432.092256"/>
     <use style="opacity:0.2;stroke:#000000;" x="299.742885" xlink:href="#m3b92209802" y="389.672653"/>
     <use style="opacity:0.2;stroke:#000000;" x="299.742885" xlink:href="#m3b92209802" y="389.672653"/>
     <use style="opacity:0.2;stroke:#000000;" x="299.742885" xlink:href="#m3b92209802" y="389.672653"/>
     <use style="opacity:0.2;stroke:#000000;" x="316.873524" xlink:href="#m3b92209802" y="191.734576"/>
     <use style="opacity:0.2;stroke:#000000;" x="316.873524" xlink:href="#m3b92209802" y="191.734576"/>
     <use style="opacity:0.2;stroke:#000000;" x="316.873524" xlink:href="#m3b92209802" y="191.734576"/>
     <use style="opacity:0.2;stroke:#000000;" x="387.994926" xlink:href="#m3b92209802" y="227.16581"/>
     <use style="opacity:0.2;stroke:#000000;" x="387.994926" xlink:href="#m3b92209802" y="227.16581"/>
     <use style="opacity:0.2;stroke:#000000;" x="387.994926" xlink:href="#m3b92209802" y="227.16581"/>
     <use style="opacity:0.2;stroke:#000000;" x="387.829233" xlink:href="#m3b92209802" y="212.515997"/>
     <use style="opacity:0.2;stroke:#000000;" x="387.829233" xlink:href="#m3b92209802" y="212.515997"/>
     <use style="opacity:0.2;stroke:#000000;" x="387.829233" xlink:href="#m3b92209802" y="212.515997"/>
     <use style="opacity:0.2;stroke:#000000;" x="148.519747" xlink:href="#m3b92209802" y="389.672653"/>
     <use style="opacity:0.2;stroke:#000000;" x="148.519747" xlink:href="#m3b92209802" y="389.672653"/>
     <use style="opacity:0.2;stroke:#000000;" x="148.519747" xlink:href="#m3b92209802" y="389.672653"/>
     <use style="opacity:0.2;stroke:#000000;" x="380.160599" xlink:href="#m3b92209802" y="187.533814"/>
     <use style="opacity:0.2;stroke:#000000;" x="380.160599" xlink:href="#m3b92209802" y="187.533814"/>
     <use style="opacity:0.2;stroke:#000000;" x="380.160599" xlink:href="#m3b92209802" y="187.533814"/>
     <use style="opacity:0.2;stroke:#000000;" x="306.726114" xlink:href="#m3b92209802" y="164.305081"/>
     <use style="opacity:0.2;stroke:#000000;" x="385.492713" xlink:href="#m3b92209802" y="189.464889"/>
     <use style="opacity:0.2;stroke:#000000;" x="385.492713" xlink:href="#m3b92209802" y="189.464889"/>
     <use style="opacity:0.2;stroke:#000000;" x="385.492713" xlink:href="#m3b92209802" y="189.464889"/>
     <use style="opacity:0.2;stroke:#000000;" x="347.106376" xlink:href="#m3b92209802" y="319.843252"/>
     <use style="opacity:0.2;stroke:#000000;" x="347.106376" xlink:href="#m3b92209802" y="319.843252"/>
     <use style="opacity:0.2;stroke:#000000;" x="347.106376" xlink:href="#m3b92209802" y="319.843252"/>
     <use style="opacity:0.2;stroke:#000000;" x="381.790062" xlink:href="#m3b92209802" y="229.513776"/>
     <use style="opacity:0.2;stroke:#000000;" x="381.790062" xlink:href="#m3b92209802" y="229.513776"/>
     <use style="opacity:0.2;stroke:#000000;" x="381.790062" xlink:href="#m3b92209802" y="229.513776"/>
     <use style="opacity:0.2;stroke:#000000;" x="394.368451" xlink:href="#m3b92209802" y="219.067193"/>
     <use style="opacity:0.2;stroke:#000000;" x="285.140682" xlink:href="#m3b92209802" y="277.704111"/>
     <use style="opacity:0.2;stroke:#000000;" x="285.140682" xlink:href="#m3b92209802" y="277.704111"/>
     <use style="opacity:0.2;stroke:#000000;" x="285.140682" xlink:href="#m3b92209802" y="277.704111"/>
    </g>
   </g>
   <g id="line2d_29">
    <defs>
     <path d="M 0 3.5 
C 0.928211 3.5 1.81853 3.131218 2.474874 2.474874 
C 3.131218 1.81853 3.5 0.928211 3.5 0 
C 3.5 -0.928211 3.131218 -1.81853 2.474874 -2.474874 
C 1.81853 -3.131218 0.928211 -3.5 0 -3.5 
C -0.928211 -3.5 -1.81853 -3.131218 -2.474874 -2.474874 
C -3.131218 -1.81853 -3.5 -0.928211 -3.5 0 
C -3.5 0.928211 -3.131218 1.81853 -2.474874 2.474874 
C -1.81853 3.131218 -0.928211 3.5 0 3.5 
z
" id="m140ab18b1d" style="stroke:#ff3333;"/>
    </defs>
    <g clip-path="url(#p331d27057b)">
     <use style="fill:#ff3333;stroke:#ff3333;" x="553.29399" xlink:href="#m140ab18b1d" y="116.782006"/>
    </g>
   </g>
   <g id="line2d_30">
    <defs>
     <path d="M 0 3.5 
C 0.928211 3.5 1.81853 3.131218 2.474874 2.474874 
C 3.131218 1.81853 3.5 0.928211 3.5 0 
C 3.5 -0.928211 3.131218 -1.81853 2.474874 -2.474874 
C 1.81853 -3.131218 0.928211 -3.5 0 -3.5 
C -0.928211 -3.5 -1.81853 -3.131218 -2.474874 -2.474874 
C -3.131218 -1.81853 -3.5 -0.928211 -3.5 0 
C -3.5 0.928211 -3.131218 1.81853 -2.474874 2.474874 
C -1.81853 3.131218 -0.928211 3.5 0 3.5 
z
" id="mf9ac3f32e5" style="stroke:#911310;"/>
    </defs>
    <g clip-path="url(#p331d27057b)">
     <use style="fill:#911310;stroke:#911310;" x="553.29399" xlink:href="#mf9ac3f32e5" y="102.737374"/>
    </g>
   </g>
   <g id="line2d_31">
    <defs>
     <path d="M 0 1.25 
C 0.331504 1.25 0.649475 1.118292 0.883883 0.883883 
C 1.118292 0.649475 1.25 0.331504 1.25 0 
C 1.25 -0.331504 1.118292 -0.649475 0.883883 -0.883883 
C 0.649475 -1.118292 0.331504 -1.25 0 -1.25 
C -0.331504 -1.25 -0.649475 -1.118292 -0.883883 -0.883883 
C -1.118292 -0.649475 -1.25 -0.331504 -1.25 0 
C -1.25 0.331504 -1.118292 0.649475 -0.883883 0.883883 
C -0.649475 1.118292 -0.331504 1.25 0 1.25 
z
" id="m99afb48f75" style="stroke:#cc6600;"/>
    </defs>
    <g clip-path="url(#p331d27057b)">
     <use style="fill:#cc6600;opacity:0.6;stroke:#cc6600;" x="433.376992" xlink:href="#m99afb48f75" y="142.75943"/>
    </g>
   </g>
   <g id="patch_5">
    <path d="M 81 448.56 
L 81 60.48 
" style="fill:none;stroke:#000000;stroke-linecap:square;stroke-linejoin:miter;stroke-width:0.8;"/>
   </g>
   <g id="patch_6">
    <path d="M 583.2 448.56 
L 583.2 60.48 
" style="fill:none;stroke:#000000;stroke-linecap:square;stroke-linejoin:miter;stroke-width:0.8;"/>
   </g>
   <g id="patch_7">
    <path d="M 81 448.56 
L 583.2 448.56 
" style="fill:none;stroke:#000000;stroke-linecap:square;stroke-linejoin:miter;stroke-width:0.8;"/>
   </g>
   <g id="patch_8">
    <path d="M 81 60.48 
L 583.2 60.48 
" style="fill:none;stroke:#000000;stroke-linecap:square;stroke-linejoin:miter;stroke-width:0.8;"/>
   </g>
   <g id="text_12">
    <!-- Ni mass vs V band absolute mag at day 50 -->
    <defs>
     <path d="M 21 0 
L 1.265625 51.859375 
L 10.546875 51.859375 
L 21.6875 20.796875 
Q 23.484375 15.765625 25 10.359375 
Q 26.171875 14.453125 28.265625 20.21875 
L 39.796875 51.859375 
L 48.828125 51.859375 
L 29.203125 0 
z
" id="ArialMT-76"/>
    </defs>
    <g transform="translate(142.009375 54.48)scale(0.2 -0.2)">
     <use xlink:href="#ArialMT-4e"/>
     <use x="72.216797" xlink:href="#ArialMT-69"/>
     <use x="94.433594" xlink:href="#ArialMT-20"/>
     <use x="122.216797" xlink:href="#ArialMT-6d"/>
     <use x="205.517578" xlink:href="#ArialMT-61"/>
     <use x="261.132812" xlink:href="#ArialMT-73"/>
     <use x="311.132812" xlink:href="#ArialMT-73"/>
     <use x="361.132812" xlink:href="#ArialMT-20"/>
     <use x="388.916016" xlink:href="#ArialMT-76"/>
     <use x="438.916016" xlink:href="#ArialMT-73"/>
     <use x="488.916016" xlink:href="#ArialMT-20"/>
     <use x="516.699219" xlink:href="#ArialMT-56"/>
     <use x="583.398438" xlink:href="#ArialMT-20"/>
     <use x="611.181641" xlink:href="#ArialMT-62"/>
     <use x="666.796875" xlink:href="#ArialMT-61"/>
     <use x="722.412109" xlink:href="#ArialMT-6e"/>
     <use x="778.027344" xlink:href="#ArialMT-64"/>
     <use x="833.642578" xlink:href="#ArialMT-20"/>
     <use x="861.425781" xlink:href="#ArialMT-61"/>
     <use x="917.041016" xlink:href="#ArialMT-62"/>
     <use x="972.65625" xlink:href="#ArialMT-73"/>
     <use x="1022.65625" xlink:href="#ArialMT-6f"/>
     <use x="1078.271484" xlink:href="#ArialMT-6c"/>
     <use x="1100.488281" xlink:href="#ArialMT-75"/>
     <use x="1156.103516" xlink:href="#ArialMT-74"/>
     <use x="1183.886719" xlink:href="#ArialMT-65"/>
     <use x="1239.501953" xlink:href="#ArialMT-20"/>
     <use x="1267.285156" xlink:href="#ArialMT-6d"/>
     <use x="1350.585938" xlink:href="#ArialMT-61"/>
     <use x="1406.201172" xlink:href="#ArialMT-67"/>
     <use x="1461.816406" xlink:href="#ArialMT-20"/>
     <use x="1489.599609" xlink:href="#ArialMT-61"/>
     <use x="1545.214844" xlink:href="#ArialMT-74"/>
     <use x="1572.998047" xlink:href="#ArialMT-20"/>
     <use x="1600.78125" xlink:href="#ArialMT-64"/>
     <use x="1656.396484" xlink:href="#ArialMT-61"/>
     <use x="1712.011719" xlink:href="#ArialMT-79"/>
     <use x="1762.011719" xlink:href="#ArialMT-20"/>
     <use x="1789.794922" xlink:href="#ArialMT-35"/>
     <use x="1845.410156" xlink:href="#ArialMT-30"/>
    </g>
   </g>
   <g id="legend_1">
    <g id="patch_9">
     <path d="M 442.34625 442.56 
L 574.8 442.56 
Q 577.2 442.56 577.2 440.16 
L 577.2 347.85975 
Q 577.2 345.45975 574.8 345.45975 
L 442.34625 345.45975 
Q 439.94625 345.45975 439.94625 347.85975 
L 439.94625 440.16 
Q 439.94625 442.56 442.34625 442.56 
z
" style="fill:#ffffff;opacity:0.8;stroke:#cccccc;stroke-linejoin:miter;"/>
    </g>
    <g id="LineCollection_8">
     <path d="M 450.74625 354.649125 
L 462.74625 354.649125 
" style="fill:none;stroke:#000000;stroke-opacity:0.2;stroke-width:1.5;"/>
    </g>
    <g id="LineCollection_9">
     <path d="M 456.74625 360.649125 
L 456.74625 348.649125 
" style="fill:none;stroke:#000000;stroke-opacity:0.2;stroke-width:1.5;"/>
    </g>
    <g id="line2d_32"/>
    <g id="line2d_33">
     <g>
      <use style="opacity:0.2;stroke:#000000;" x="456.74625" xlink:href="#m3b92209802" y="354.649125"/>
     </g>
    </g>
    <g id="text_13">
     <!-- Valenti et al. SNe -->
     <defs>
      <path d="M 9.078125 0 
L 9.078125 10.015625 
L 19.09375 10.015625 
L 19.09375 0 
z
" id="ArialMT-2e"/>
      <path d="M 4.5 23 
L 13.421875 23.78125 
Q 14.0625 18.40625 16.375 14.96875 
Q 18.703125 11.53125 23.578125 9.40625 
Q 28.46875 7.28125 34.578125 7.28125 
Q 39.984375 7.28125 44.140625 8.890625 
Q 48.296875 10.5 50.3125 13.296875 
Q 52.34375 16.109375 52.34375 19.4375 
Q 52.34375 22.796875 50.390625 25.3125 
Q 48.4375 27.828125 43.953125 29.546875 
Q 41.0625 30.671875 31.203125 33.03125 
Q 21.34375 35.40625 17.390625 37.5 
Q 12.25 40.1875 9.734375 44.15625 
Q 7.234375 48.140625 7.234375 53.078125 
Q 7.234375 58.5 10.296875 63.203125 
Q 13.375 67.921875 19.28125 70.359375 
Q 25.203125 72.796875 32.421875 72.796875 
Q 40.375 72.796875 46.453125 70.234375 
Q 52.546875 67.671875 55.8125 62.6875 
Q 59.078125 57.71875 59.328125 51.421875 
L 50.25 50.734375 
Q 49.515625 57.515625 45.28125 60.984375 
Q 41.0625 64.453125 32.8125 64.453125 
Q 24.21875 64.453125 20.28125 61.296875 
Q 16.359375 58.15625 16.359375 53.71875 
Q 16.359375 49.859375 19.140625 47.359375 
Q 21.875 44.875 33.421875 42.265625 
Q 44.96875 39.65625 49.265625 37.703125 
Q 55.515625 34.8125 58.484375 30.390625 
Q 61.46875 25.984375 61.46875 20.21875 
Q 61.46875 14.5 58.203125 9.4375 
Q 54.9375 4.390625 48.796875 1.578125 
Q 42.671875 -1.21875 35.015625 -1.21875 
Q 25.296875 -1.21875 18.71875 1.609375 
Q 12.15625 4.4375 8.421875 10.125 
Q 4.6875 15.828125 4.5 23 
z
" id="ArialMT-53"/>
     </defs>
     <g transform="translate(478.34625 358.849125)scale(0.12 -0.12)">
      <use xlink:href="#ArialMT-56"/>
      <use x="66.589844" xlink:href="#ArialMT-61"/>
      <use x="122.205078" xlink:href="#ArialMT-6c"/>
      <use x="144.421875" xlink:href="#ArialMT-65"/>
      <use x="200.037109" xlink:href="#ArialMT-6e"/>
      <use x="255.652344" xlink:href="#ArialMT-74"/>
      <use x="283.435547" xlink:href="#ArialMT-69"/>
      <use x="305.652344" xlink:href="#ArialMT-20"/>
      <use x="333.435547" xlink:href="#ArialMT-65"/>
      <use x="389.050781" xlink:href="#ArialMT-74"/>
      <use x="416.833984" xlink:href="#ArialMT-20"/>
      <use x="444.617188" xlink:href="#ArialMT-61"/>
      <use x="500.232422" xlink:href="#ArialMT-6c"/>
      <use x="522.449219" xlink:href="#ArialMT-2e"/>
      <use x="550.232422" xlink:href="#ArialMT-20"/>
      <use x="578.015625" xlink:href="#ArialMT-53"/>
      <use x="644.714844" xlink:href="#ArialMT-4e"/>
      <use x="716.931641" xlink:href="#ArialMT-65"/>
     </g>
    </g>
    <g id="LineCollection_10">
     <path d="M 450.74625 379.249875 
L 462.74625 379.249875 
" style="fill:none;stroke:#ff3333;stroke-width:1.5;"/>
    </g>
    <g id="LineCollection_11">
     <path d="M 456.74625 385.249875 
L 456.74625 373.249875 
" style="fill:none;stroke:#ff3333;stroke-width:1.5;"/>
    </g>
    <g id="line2d_34"/>
    <g id="line2d_35">
     <g>
      <use style="fill:#ff3333;stroke:#ff3333;" x="456.74625" xlink:href="#m140ab18b1d" y="379.249875"/>
     </g>
    </g>
    <g id="text_14">
     <!-- SN 2018hmx -->
     <defs>
      <path d="M 6.59375 0 
L 6.59375 71.578125 
L 15.375 71.578125 
L 15.375 45.90625 
Q 21.53125 53.03125 30.90625 53.03125 
Q 36.671875 53.03125 40.921875 50.75 
Q 45.171875 48.484375 47 44.484375 
Q 48.828125 40.484375 48.828125 32.859375 
L 48.828125 0 
L 40.046875 0 
L 40.046875 32.859375 
Q 40.046875 39.453125 37.1875 42.453125 
Q 34.328125 45.453125 29.109375 45.453125 
Q 25.203125 45.453125 21.75 43.421875 
Q 18.3125 41.40625 16.84375 37.9375 
Q 15.375 34.46875 15.375 28.375 
L 15.375 0 
z
" id="ArialMT-68"/>
      <path d="M 0.734375 0 
L 19.671875 26.953125 
L 2.15625 51.859375 
L 13.140625 51.859375 
L 21.09375 39.703125 
Q 23.34375 36.234375 24.703125 33.890625 
Q 26.859375 37.109375 28.65625 39.59375 
L 37.40625 51.859375 
L 47.90625 51.859375 
L 29.984375 27.4375 
L 49.265625 0 
L 38.484375 0 
L 27.828125 16.109375 
L 25 20.453125 
L 11.375 0 
z
" id="ArialMT-78"/>
     </defs>
     <g transform="translate(478.34625 375.5715)scale(0.12 -0.12)">
      <use xlink:href="#ArialMT-53"/>
      <use x="66.699219" xlink:href="#ArialMT-4e"/>
      <use x="138.916016" xlink:href="#ArialMT-20"/>
      <use x="166.699219" xlink:href="#ArialMT-32"/>
      <use x="222.314453" xlink:href="#ArialMT-30"/>
      <use x="277.929688" xlink:href="#ArialMT-31"/>
      <use x="333.544922" xlink:href="#ArialMT-38"/>
      <use x="389.160156" xlink:href="#ArialMT-68"/>
      <use x="444.775391" xlink:href="#ArialMT-6d"/>
      <use x="528.076172" xlink:href="#ArialMT-78"/>
     </g>
     <!--  by Ni curve fit -->
     <defs>
      <path d="M 40.4375 19 
L 49.078125 17.875 
Q 47.65625 8.9375 41.8125 3.875 
Q 35.984375 -1.171875 27.484375 -1.171875 
Q 16.84375 -1.171875 10.375 5.78125 
Q 3.90625 12.75 3.90625 25.734375 
Q 3.90625 34.125 6.6875 40.421875 
Q 9.46875 46.734375 15.15625 49.875 
Q 20.84375 53.03125 27.546875 53.03125 
Q 35.984375 53.03125 41.359375 48.75 
Q 46.734375 44.484375 48.25 36.625 
L 39.703125 35.296875 
Q 38.484375 40.53125 35.375 43.15625 
Q 32.28125 45.796875 27.875 45.796875 
Q 21.234375 45.796875 17.078125 41.03125 
Q 12.9375 36.28125 12.9375 25.984375 
Q 12.9375 15.53125 16.9375 10.796875 
Q 20.953125 6.0625 27.390625 6.0625 
Q 32.5625 6.0625 36.03125 9.234375 
Q 39.5 12.40625 40.4375 19 
z
" id="ArialMT-63"/>
      <path d="M 8.6875 0 
L 8.6875 45.015625 
L 0.921875 45.015625 
L 0.921875 51.859375 
L 8.6875 51.859375 
L 8.6875 57.375 
Q 8.6875 62.59375 9.625 65.140625 
Q 10.890625 68.5625 14.078125 70.671875 
Q 17.28125 72.796875 23.046875 72.796875 
Q 26.765625 72.796875 31.25 71.921875 
L 29.9375 64.265625 
Q 27.203125 64.75 24.75 64.75 
Q 20.75 64.75 19.09375 63.03125 
Q 17.4375 61.328125 17.4375 56.640625 
L 17.4375 51.859375 
L 27.546875 51.859375 
L 27.546875 45.015625 
L 17.4375 45.015625 
L 17.4375 0 
z
" id="ArialMT-66"/>
     </defs>
     <g transform="translate(478.34625 388.43925)scale(0.12 -0.12)">
      <use xlink:href="#ArialMT-20"/>
      <use x="27.783203" xlink:href="#ArialMT-62"/>
      <use x="83.398438" xlink:href="#ArialMT-79"/>
      <use x="133.398438" xlink:href="#ArialMT-20"/>
      <use x="161.181641" xlink:href="#ArialMT-4e"/>
      <use x="233.398438" xlink:href="#ArialMT-69"/>
      <use x="255.615234" xlink:href="#ArialMT-20"/>
      <use x="283.398438" xlink:href="#ArialMT-63"/>
      <use x="333.398438" xlink:href="#ArialMT-75"/>
      <use x="389.013672" xlink:href="#ArialMT-72"/>
      <use x="422.314453" xlink:href="#ArialMT-76"/>
      <use x="472.314453" xlink:href="#ArialMT-65"/>
      <use x="527.929688" xlink:href="#ArialMT-20"/>
      <use x="555.712891" xlink:href="#ArialMT-66"/>
      <use x="583.496094" xlink:href="#ArialMT-69"/>
      <use x="605.712891" xlink:href="#ArialMT-74"/>
     </g>
    </g>
    <g id="LineCollection_12">
     <path d="M 450.74625 409.025625 
L 462.74625 409.025625 
" style="fill:none;stroke:#911310;stroke-width:1.5;"/>
    </g>
    <g id="line2d_36"/>
    <g id="line2d_37">
     <g>
      <use style="fill:#911310;stroke:#911310;" x="456.74625" xlink:href="#mf9ac3f32e5" y="409.025625"/>
     </g>
    </g>
    <g id="text_15">
     <!-- SN 2018hmx -->
     <g transform="translate(478.34625 405.3915)scale(0.12 -0.12)">
      <use xlink:href="#ArialMT-53"/>
      <use x="66.699219" xlink:href="#ArialMT-4e"/>
      <use x="138.916016" xlink:href="#ArialMT-20"/>
      <use x="166.699219" xlink:href="#ArialMT-32"/>
      <use x="222.314453" xlink:href="#ArialMT-30"/>
      <use x="277.929688" xlink:href="#ArialMT-31"/>
      <use x="333.544922" xlink:href="#ArialMT-38"/>
      <use x="389.160156" xlink:href="#ArialMT-68"/>
      <use x="444.775391" xlink:href="#ArialMT-6d"/>
      <use x="528.076172" xlink:href="#ArialMT-78"/>
     </g>
     <!--  by ratio to 1987A -->
     <defs>
      <path d="M -0.140625 0 
L 27.34375 71.578125 
L 37.546875 71.578125 
L 66.84375 0 
L 56.0625 0 
L 47.703125 21.6875 
L 17.78125 21.6875 
L 9.90625 0 
z
M 20.515625 29.390625 
L 44.78125 29.390625 
L 37.3125 49.21875 
Q 33.890625 58.25 32.234375 64.0625 
Q 30.859375 57.171875 28.375 50.390625 
z
" id="ArialMT-41"/>
     </defs>
     <g transform="translate(478.34625 418.1265)scale(0.12 -0.12)">
      <use xlink:href="#ArialMT-20"/>
      <use x="27.783203" xlink:href="#ArialMT-62"/>
      <use x="83.398438" xlink:href="#ArialMT-79"/>
      <use x="133.398438" xlink:href="#ArialMT-20"/>
      <use x="161.181641" xlink:href="#ArialMT-72"/>
      <use x="194.482422" xlink:href="#ArialMT-61"/>
      <use x="250.097656" xlink:href="#ArialMT-74"/>
      <use x="277.880859" xlink:href="#ArialMT-69"/>
      <use x="300.097656" xlink:href="#ArialMT-6f"/>
      <use x="355.712891" xlink:href="#ArialMT-20"/>
      <use x="383.496094" xlink:href="#ArialMT-74"/>
      <use x="411.279297" xlink:href="#ArialMT-6f"/>
      <use x="466.894531" xlink:href="#ArialMT-20"/>
      <use x="494.677734" xlink:href="#ArialMT-31"/>
      <use x="550.292969" xlink:href="#ArialMT-39"/>
      <use x="605.908203" xlink:href="#ArialMT-38"/>
      <use x="661.523438" xlink:href="#ArialMT-37"/>
      <use x="717.138672" xlink:href="#ArialMT-41"/>
     </g>
    </g>
    <g id="LineCollection_13">
     <path d="M 450.74625 431.175 
L 462.74625 431.175 
" style="fill:none;stroke:#cc6600;stroke-opacity:0.6;stroke-width:1.5;"/>
    </g>
    <g id="LineCollection_14">
     <path d="M 456.74625 437.175 
L 456.74625 425.175 
" style="fill:none;stroke:#cc6600;stroke-opacity:0.6;stroke-width:1.5;"/>
    </g>
    <g id="line2d_38"/>
    <g id="line2d_39">
     <g>
      <use style="fill:#cc6600;opacity:0.6;stroke:#cc6600;" x="456.74625" xlink:href="#m99afb48f75" y="431.175"/>
     </g>
    </g>
    <g id="text_16">
     <!-- KSP-SN-2016kf -->
     <defs>
      <path d="M 7.328125 0 
L 7.328125 71.578125 
L 16.796875 71.578125 
L 16.796875 36.078125 
L 52.34375 71.578125 
L 65.1875 71.578125 
L 35.15625 42.578125 
L 66.5 0 
L 54 0 
L 28.515625 36.234375 
L 16.796875 24.8125 
L 16.796875 0 
z
" id="ArialMT-4b"/>
      <path d="M 7.71875 0 
L 7.71875 71.578125 
L 34.71875 71.578125 
Q 41.84375 71.578125 45.609375 70.90625 
Q 50.875 70.015625 54.4375 67.546875 
Q 58.015625 65.09375 60.1875 60.640625 
Q 62.359375 56.203125 62.359375 50.875 
Q 62.359375 41.75 56.546875 35.421875 
Q 50.734375 29.109375 35.546875 29.109375 
L 17.1875 29.109375 
L 17.1875 0 
z
M 17.1875 37.546875 
L 35.6875 37.546875 
Q 44.875 37.546875 48.734375 40.96875 
Q 52.59375 44.390625 52.59375 50.59375 
Q 52.59375 55.078125 50.3125 58.265625 
Q 48.046875 61.46875 44.34375 62.5 
Q 41.9375 63.140625 35.5 63.140625 
L 17.1875 63.140625 
z
" id="ArialMT-50"/>
      <path d="M 3.171875 21.484375 
L 3.171875 30.328125 
L 30.171875 30.328125 
L 30.171875 21.484375 
z
" id="ArialMT-2d"/>
      <path d="M 6.640625 0 
L 6.640625 71.578125 
L 15.4375 71.578125 
L 15.4375 30.765625 
L 36.234375 51.859375 
L 47.609375 51.859375 
L 27.78125 32.625 
L 49.609375 0 
L 38.765625 0 
L 21.625 26.515625 
L 15.4375 20.5625 
L 15.4375 0 
z
" id="ArialMT-6b"/>
     </defs>
     <g transform="translate(478.34625 435.375)scale(0.12 -0.12)">
      <use xlink:href="#ArialMT-4b"/>
      <use x="66.699219" xlink:href="#ArialMT-53"/>
      <use x="133.398438" xlink:href="#ArialMT-50"/>
      <use x="200.097656" xlink:href="#ArialMT-2d"/>
      <use x="233.398438" xlink:href="#ArialMT-53"/>
      <use x="300.097656" xlink:href="#ArialMT-4e"/>
      <use x="372.314453" xlink:href="#ArialMT-2d"/>
      <use x="405.615234" xlink:href="#ArialMT-32"/>
      <use x="461.230469" xlink:href="#ArialMT-30"/>
      <use x="516.845703" xlink:href="#ArialMT-31"/>
      <use x="572.460938" xlink:href="#ArialMT-36"/>
      <use x="628.076172" xlink:href="#ArialMT-6b"/>
      <use x="678.076172" xlink:href="#ArialMT-66"/>
     </g>
    </g>
   </g>
  </g>
 </g>
 <defs>
  <clipPath id="p331d27057b">
   <rect height="388.08" width="502.2" x="81" y="60.48"/>
  </clipPath>
 </defs>
</svg>
