<?xml version="1.0" encoding="utf-8" standalone="no"?>
<!DOCTYPE svg PUBLIC "-//W3C//DTD SVG 1.1//EN"
  "http://www.w3.org/Graphics/SVG/1.1/DTD/svg11.dtd">
<!-- Created with matplotlib (https://matplotlib.org/) -->
<svg height="720pt" version="1.1" viewBox="0 0 360 720" width="360pt" xmlns="http://www.w3.org/2000/svg" xmlns:xlink="http://www.w3.org/1999/xlink">
 <defs>
  <style type="text/css">
*{stroke-linecap:butt;stroke-linejoin:round;}
  </style>
 </defs>
 <g id="figure_1">
  <g id="patch_1">
   <path d="M 0 720 
L 360 720 
L 360 0 
L 0 0 
z
" style="fill:#ffffff;"/>
  </g>
  <g id="axes_1">
   <g id="patch_2">
    <path d="M 45 640.8 
L 252 640.8 
L 252 86.4 
L 45 86.4 
z
" style="fill:#ffffff;"/>
   </g>
   <g id="matplotlib.axis_1">
    <g id="xtick_1">
     <g id="line2d_1">
      <defs>
       <path d="M 0 0 
L 0 3.5 
" id="m2dc9999b43" style="stroke:#000000;stroke-width:0.8;"/>
      </defs>
      <g>
       <use style="stroke:#000000;stroke-width:0.8;" x="180.287646" xlink:href="#m2dc9999b43" y="640.8"/>
      </g>
     </g>
     <g id="text_1">
      <!-- 0 -->
      <defs>
       <path d="M 4.15625 35.296875 
Q 4.15625 48 6.765625 55.734375 
Q 9.375 63.484375 14.515625 67.671875 
Q 19.671875 71.875 27.484375 71.875 
Q 33.25 71.875 37.59375 69.546875 
Q 41.9375 67.234375 44.765625 62.859375 
Q 47.609375 58.5 49.21875 52.21875 
Q 50.828125 45.953125 50.828125 35.296875 
Q 50.828125 22.703125 48.234375 14.96875 
Q 45.65625 7.234375 40.5 3 
Q 35.359375 -1.21875 27.484375 -1.21875 
Q 17.140625 -1.21875 11.234375 6.203125 
Q 4.15625 15.140625 4.15625 35.296875 
z
M 13.1875 35.296875 
Q 13.1875 17.671875 17.3125 11.828125 
Q 21.4375 6 27.484375 6 
Q 33.546875 6 37.671875 11.859375 
Q 41.796875 17.71875 41.796875 35.296875 
Q 41.796875 52.984375 37.671875 58.78125 
Q 33.546875 64.59375 27.390625 64.59375 
Q 21.34375 64.59375 17.71875 59.46875 
Q 13.1875 52.9375 13.1875 35.296875 
z
" id="ArialMT-48"/>
      </defs>
      <g transform="translate(174.726708 662.115625)scale(0.2 -0.2)">
       <use xlink:href="#ArialMT-48"/>
      </g>
     </g>
    </g>
    <g id="xtick_2">
     <g id="line2d_2">
      <g>
       <use style="stroke:#000000;stroke-width:0.8;" x="54.700571" xlink:href="#m2dc9999b43" y="640.8"/>
      </g>
     </g>
     <g id="text_2">
      <!-- 20000 -->
      <defs>
       <path d="M 50.34375 8.453125 
L 50.34375 0 
L 3.03125 0 
Q 2.9375 3.171875 4.046875 6.109375 
Q 5.859375 10.9375 9.828125 15.625 
Q 13.8125 20.3125 21.34375 26.46875 
Q 33.015625 36.03125 37.109375 41.625 
Q 41.21875 47.21875 41.21875 52.203125 
Q 41.21875 57.421875 37.46875 61 
Q 33.734375 64.59375 27.734375 64.59375 
Q 21.390625 64.59375 17.578125 60.78125 
Q 13.765625 56.984375 13.71875 50.25 
L 4.6875 51.171875 
Q 5.609375 61.28125 11.65625 66.578125 
Q 17.71875 71.875 27.9375 71.875 
Q 38.234375 71.875 44.234375 66.15625 
Q 50.25 60.453125 50.25 52 
Q 50.25 47.703125 48.484375 43.546875 
Q 46.734375 39.40625 42.65625 34.8125 
Q 38.578125 30.21875 29.109375 22.21875 
Q 21.1875 15.578125 18.9375 13.203125 
Q 16.703125 10.84375 15.234375 8.453125 
z
" id="ArialMT-50"/>
      </defs>
      <g transform="translate(26.895884 662.115625)scale(0.2 -0.2)">
       <use xlink:href="#ArialMT-50"/>
       <use x="55.615234" xlink:href="#ArialMT-48"/>
       <use x="111.230469" xlink:href="#ArialMT-48"/>
       <use x="166.845703" xlink:href="#ArialMT-48"/>
       <use x="222.460938" xlink:href="#ArialMT-48"/>
      </g>
     </g>
    </g>
    <g id="text_3">
     <!-- Velocity (km/s) -->
     <defs>
      <path d="M 28.171875 0 
L 0.4375 71.578125 
L 10.6875 71.578125 
L 29.296875 19.578125 
Q 31.546875 13.328125 33.0625 7.859375 
Q 34.71875 13.71875 36.921875 19.578125 
L 56.25 71.578125 
L 65.921875 71.578125 
L 37.890625 0 
z
" id="ArialMT-86"/>
      <path d="M 42.09375 16.703125 
L 51.171875 15.578125 
Q 49.03125 7.625 43.21875 3.21875 
Q 37.40625 -1.171875 28.375 -1.171875 
Q 17 -1.171875 10.328125 5.828125 
Q 3.65625 12.84375 3.65625 25.484375 
Q 3.65625 38.578125 10.390625 45.796875 
Q 17.140625 53.03125 27.875 53.03125 
Q 38.28125 53.03125 44.875 45.953125 
Q 51.46875 38.875 51.46875 26.03125 
Q 51.46875 25.25 51.421875 23.6875 
L 12.75 23.6875 
Q 13.234375 15.140625 17.578125 10.59375 
Q 21.921875 6.0625 28.421875 6.0625 
Q 33.25 6.0625 36.671875 8.59375 
Q 40.09375 11.140625 42.09375 16.703125 
z
M 13.234375 30.90625 
L 42.1875 30.90625 
Q 41.609375 37.453125 38.875 40.71875 
Q 34.671875 45.796875 27.984375 45.796875 
Q 21.921875 45.796875 17.796875 41.75 
Q 13.671875 37.703125 13.234375 30.90625 
z
" id="ArialMT-101"/>
      <path d="M 6.390625 0 
L 6.390625 71.578125 
L 15.1875 71.578125 
L 15.1875 0 
z
" id="ArialMT-108"/>
      <path d="M 3.328125 25.921875 
Q 3.328125 40.328125 11.328125 47.265625 
Q 18.015625 53.03125 27.640625 53.03125 
Q 38.328125 53.03125 45.109375 46.015625 
Q 51.90625 39.015625 51.90625 26.65625 
Q 51.90625 16.65625 48.90625 10.90625 
Q 45.90625 5.171875 40.15625 2 
Q 34.421875 -1.171875 27.640625 -1.171875 
Q 16.75 -1.171875 10.03125 5.8125 
Q 3.328125 12.796875 3.328125 25.921875 
z
M 12.359375 25.921875 
Q 12.359375 15.96875 16.703125 11.015625 
Q 21.046875 6.0625 27.640625 6.0625 
Q 34.1875 6.0625 38.53125 11.03125 
Q 42.875 16.015625 42.875 26.21875 
Q 42.875 35.84375 38.5 40.796875 
Q 34.125 45.75 27.640625 45.75 
Q 21.046875 45.75 16.703125 40.8125 
Q 12.359375 35.890625 12.359375 25.921875 
z
" id="ArialMT-111"/>
      <path d="M 40.4375 19 
L 49.078125 17.875 
Q 47.65625 8.9375 41.8125 3.875 
Q 35.984375 -1.171875 27.484375 -1.171875 
Q 16.84375 -1.171875 10.375 5.78125 
Q 3.90625 12.75 3.90625 25.734375 
Q 3.90625 34.125 6.6875 40.421875 
Q 9.46875 46.734375 15.15625 49.875 
Q 20.84375 53.03125 27.546875 53.03125 
Q 35.984375 53.03125 41.359375 48.75 
Q 46.734375 44.484375 48.25 36.625 
L 39.703125 35.296875 
Q 38.484375 40.53125 35.375 43.15625 
Q 32.28125 45.796875 27.875 45.796875 
Q 21.234375 45.796875 17.078125 41.03125 
Q 12.9375 36.28125 12.9375 25.984375 
Q 12.9375 15.53125 16.9375 10.796875 
Q 20.953125 6.0625 27.390625 6.0625 
Q 32.5625 6.0625 36.03125 9.234375 
Q 39.5 12.40625 40.4375 19 
z
" id="ArialMT-99"/>
      <path d="M 6.640625 61.46875 
L 6.640625 71.578125 
L 15.4375 71.578125 
L 15.4375 61.46875 
z
M 6.640625 0 
L 6.640625 51.859375 
L 15.4375 51.859375 
L 15.4375 0 
z
" id="ArialMT-105"/>
      <path d="M 25.78125 7.859375 
L 27.046875 0.09375 
Q 23.34375 -0.6875 20.40625 -0.6875 
Q 15.625 -0.6875 12.984375 0.828125 
Q 10.359375 2.34375 9.28125 4.8125 
Q 8.203125 7.28125 8.203125 15.1875 
L 8.203125 45.015625 
L 1.765625 45.015625 
L 1.765625 51.859375 
L 8.203125 51.859375 
L 8.203125 64.703125 
L 16.9375 69.96875 
L 16.9375 51.859375 
L 25.78125 51.859375 
L 25.78125 45.015625 
L 16.9375 45.015625 
L 16.9375 14.703125 
Q 16.9375 10.9375 17.40625 9.859375 
Q 17.875 8.796875 18.921875 8.15625 
Q 19.96875 7.515625 21.921875 7.515625 
Q 23.390625 7.515625 25.78125 7.859375 
z
" id="ArialMT-116"/>
      <path d="M 6.203125 -19.96875 
L 5.21875 -11.71875 
Q 8.109375 -12.5 10.25 -12.5 
Q 13.1875 -12.5 14.9375 -11.515625 
Q 16.703125 -10.546875 17.828125 -8.796875 
Q 18.65625 -7.46875 20.515625 -2.25 
Q 20.75 -1.515625 21.296875 -0.09375 
L 1.609375 51.859375 
L 11.078125 51.859375 
L 21.875 21.828125 
Q 23.96875 16.109375 25.640625 9.8125 
Q 27.15625 15.875 29.25 21.625 
L 40.328125 51.859375 
L 49.125 51.859375 
L 29.390625 -0.875 
Q 26.21875 -9.421875 24.46875 -12.640625 
Q 22.125 -17 19.09375 -19.015625 
Q 16.0625 -21.046875 11.859375 -21.046875 
Q 9.328125 -21.046875 6.203125 -19.96875 
z
" id="ArialMT-121"/>
      <path id="ArialMT-32"/>
      <path d="M 23.390625 -21.046875 
Q 16.109375 -11.859375 11.078125 0.4375 
Q 6.0625 12.75 6.0625 25.921875 
Q 6.0625 37.546875 9.8125 48.1875 
Q 14.203125 60.546875 23.390625 72.796875 
L 29.6875 72.796875 
Q 23.78125 62.640625 21.875 58.296875 
Q 18.890625 51.5625 17.1875 44.234375 
Q 15.09375 35.109375 15.09375 25.875 
Q 15.09375 2.390625 29.6875 -21.046875 
z
" id="ArialMT-40"/>
      <path d="M 6.640625 0 
L 6.640625 71.578125 
L 15.4375 71.578125 
L 15.4375 30.765625 
L 36.234375 51.859375 
L 47.609375 51.859375 
L 27.78125 32.625 
L 49.609375 0 
L 38.765625 0 
L 21.625 26.515625 
L 15.4375 20.5625 
L 15.4375 0 
z
" id="ArialMT-107"/>
      <path d="M 6.59375 0 
L 6.59375 51.859375 
L 14.453125 51.859375 
L 14.453125 44.578125 
Q 16.890625 48.390625 20.9375 50.703125 
Q 25 53.03125 30.171875 53.03125 
Q 35.9375 53.03125 39.625 50.640625 
Q 43.3125 48.25 44.828125 43.953125 
Q 50.984375 53.03125 60.84375 53.03125 
Q 68.5625 53.03125 72.703125 48.75 
Q 76.859375 44.484375 76.859375 35.59375 
L 76.859375 0 
L 68.109375 0 
L 68.109375 32.671875 
Q 68.109375 37.9375 67.25 40.25 
Q 66.40625 42.578125 64.15625 43.984375 
Q 61.921875 45.40625 58.890625 45.40625 
Q 53.421875 45.40625 49.796875 41.765625 
Q 46.1875 38.140625 46.1875 30.125 
L 46.1875 0 
L 37.40625 0 
L 37.40625 33.6875 
Q 37.40625 39.546875 35.25 42.46875 
Q 33.109375 45.40625 28.21875 45.40625 
Q 24.515625 45.40625 21.359375 43.453125 
Q 18.21875 41.5 16.796875 37.734375 
Q 15.375 33.984375 15.375 26.90625 
L 15.375 0 
z
" id="ArialMT-109"/>
      <path d="M 0 -1.21875 
L 20.75 72.796875 
L 27.78125 72.796875 
L 7.078125 -1.21875 
z
" id="ArialMT-47"/>
      <path d="M 3.078125 15.484375 
L 11.765625 16.84375 
Q 12.5 11.625 15.84375 8.84375 
Q 19.1875 6.0625 25.203125 6.0625 
Q 31.25 6.0625 34.171875 8.515625 
Q 37.109375 10.984375 37.109375 14.3125 
Q 37.109375 17.28125 34.515625 19 
Q 32.71875 20.171875 25.53125 21.96875 
Q 15.875 24.421875 12.140625 26.203125 
Q 8.40625 27.984375 6.46875 31.125 
Q 4.546875 34.28125 4.546875 38.09375 
Q 4.546875 41.546875 6.125 44.5 
Q 7.71875 47.46875 10.453125 49.421875 
Q 12.5 50.921875 16.03125 51.96875 
Q 19.578125 53.03125 23.640625 53.03125 
Q 29.734375 53.03125 34.34375 51.265625 
Q 38.96875 49.515625 41.15625 46.5 
Q 43.359375 43.5 44.1875 38.484375 
L 35.59375 37.3125 
Q 35.015625 41.3125 32.203125 43.546875 
Q 29.390625 45.796875 24.265625 45.796875 
Q 18.21875 45.796875 15.625 43.796875 
Q 13.03125 41.796875 13.03125 39.109375 
Q 13.03125 37.40625 14.109375 36.03125 
Q 15.1875 34.625 17.484375 33.6875 
Q 18.796875 33.203125 25.25 31.453125 
Q 34.578125 28.953125 38.25 27.359375 
Q 41.9375 25.78125 44.03125 22.75 
Q 46.140625 19.734375 46.140625 15.234375 
Q 46.140625 10.84375 43.578125 6.953125 
Q 41.015625 3.078125 36.171875 0.953125 
Q 31.34375 -1.171875 25.25 -1.171875 
Q 15.140625 -1.171875 9.84375 3.03125 
Q 4.546875 7.234375 3.078125 15.484375 
z
" id="ArialMT-115"/>
      <path d="M 12.359375 -21.046875 
L 6.0625 -21.046875 
Q 20.65625 2.390625 20.65625 25.875 
Q 20.65625 35.0625 18.5625 44.09375 
Q 16.890625 51.421875 13.921875 58.15625 
Q 12.015625 62.546875 6.0625 72.796875 
L 12.359375 72.796875 
Q 21.53125 60.546875 25.921875 48.1875 
Q 29.6875 37.546875 29.6875 25.921875 
Q 29.6875 12.75 24.625 0.4375 
Q 19.578125 -11.859375 12.359375 -21.046875 
z
" id="ArialMT-41"/>
     </defs>
     <g transform="translate(83.490625 684.65)scale(0.2 -0.2)">
      <use xlink:href="#ArialMT-86"/>
      <use x="61.199219" xlink:href="#ArialMT-101"/>
      <use x="116.814453" xlink:href="#ArialMT-108"/>
      <use x="139.03125" xlink:href="#ArialMT-111"/>
      <use x="194.646484" xlink:href="#ArialMT-99"/>
      <use x="244.646484" xlink:href="#ArialMT-105"/>
      <use x="266.863281" xlink:href="#ArialMT-116"/>
      <use x="294.646484" xlink:href="#ArialMT-121"/>
      <use x="344.646484" xlink:href="#ArialMT-32"/>
      <use x="372.429688" xlink:href="#ArialMT-40"/>
      <use x="405.730469" xlink:href="#ArialMT-107"/>
      <use x="455.730469" xlink:href="#ArialMT-109"/>
      <use x="539.03125" xlink:href="#ArialMT-47"/>
      <use x="566.814453" xlink:href="#ArialMT-115"/>
      <use x="616.814453" xlink:href="#ArialMT-41"/>
     </g>
    </g>
   </g>
   <g id="matplotlib.axis_2">
    <g id="text_4">
     <!-- Normalized fλ + shift -->
     <defs>
      <path d="M 7.625 0 
L 7.625 71.578125 
L 17.328125 71.578125 
L 54.9375 15.375 
L 54.9375 71.578125 
L 64.015625 71.578125 
L 64.015625 0 
L 54.296875 0 
L 16.703125 56.25 
L 16.703125 0 
z
" id="ArialMT-78"/>
      <path d="M 6.5 0 
L 6.5 51.859375 
L 14.40625 51.859375 
L 14.40625 44 
Q 17.4375 49.515625 20 51.265625 
Q 22.5625 53.03125 25.640625 53.03125 
Q 30.078125 53.03125 34.671875 50.203125 
L 31.640625 42.046875 
Q 28.421875 43.953125 25.203125 43.953125 
Q 22.3125 43.953125 20.015625 42.21875 
Q 17.71875 40.484375 16.75 37.40625 
Q 15.28125 32.71875 15.28125 27.15625 
L 15.28125 0 
z
" id="ArialMT-114"/>
      <path d="M 40.4375 6.390625 
Q 35.546875 2.25 31.03125 0.53125 
Q 26.515625 -1.171875 21.34375 -1.171875 
Q 12.796875 -1.171875 8.203125 3 
Q 3.609375 7.171875 3.609375 13.671875 
Q 3.609375 17.484375 5.34375 20.625 
Q 7.078125 23.78125 9.890625 25.6875 
Q 12.703125 27.59375 16.21875 28.5625 
Q 18.796875 29.25 24.03125 29.890625 
Q 34.671875 31.15625 39.703125 32.90625 
Q 39.75 34.71875 39.75 35.203125 
Q 39.75 40.578125 37.25 42.78125 
Q 33.890625 45.75 27.25 45.75 
Q 21.046875 45.75 18.09375 43.578125 
Q 15.140625 41.40625 13.71875 35.890625 
L 5.125 37.0625 
Q 6.296875 42.578125 8.984375 45.96875 
Q 11.671875 49.359375 16.75 51.1875 
Q 21.828125 53.03125 28.515625 53.03125 
Q 35.15625 53.03125 39.296875 51.46875 
Q 43.453125 49.90625 45.40625 47.53125 
Q 47.359375 45.171875 48.140625 41.546875 
Q 48.578125 39.3125 48.578125 33.453125 
L 48.578125 21.734375 
Q 48.578125 9.46875 49.140625 6.21875 
Q 49.703125 2.984375 51.375 0 
L 42.1875 0 
Q 40.828125 2.734375 40.4375 6.390625 
z
M 39.703125 26.03125 
Q 34.90625 24.078125 25.34375 22.703125 
Q 19.921875 21.921875 17.671875 20.9375 
Q 15.4375 19.96875 14.203125 18.09375 
Q 12.984375 16.21875 12.984375 13.921875 
Q 12.984375 10.40625 15.640625 8.0625 
Q 18.3125 5.71875 23.4375 5.71875 
Q 28.515625 5.71875 32.46875 7.9375 
Q 36.421875 10.15625 38.28125 14.015625 
Q 39.703125 17 39.703125 22.796875 
z
" id="ArialMT-97"/>
      <path d="M 1.953125 0 
L 1.953125 7.125 
L 34.96875 45.015625 
Q 29.34375 44.734375 25.046875 44.734375 
L 3.90625 44.734375 
L 3.90625 51.859375 
L 46.296875 51.859375 
L 46.296875 46.046875 
L 18.21875 13.140625 
L 12.796875 7.125 
Q 18.703125 7.5625 23.875 7.5625 
L 47.859375 7.5625 
L 47.859375 0 
z
" id="ArialMT-122"/>
      <path d="M 40.234375 0 
L 40.234375 6.546875 
Q 35.296875 -1.171875 25.734375 -1.171875 
Q 19.53125 -1.171875 14.328125 2.25 
Q 9.125 5.671875 6.265625 11.796875 
Q 3.421875 17.921875 3.421875 25.875 
Q 3.421875 33.640625 6 39.96875 
Q 8.59375 46.296875 13.765625 49.65625 
Q 18.953125 53.03125 25.34375 53.03125 
Q 30.03125 53.03125 33.6875 51.046875 
Q 37.359375 49.078125 39.65625 45.90625 
L 39.65625 71.578125 
L 48.390625 71.578125 
L 48.390625 0 
z
M 12.453125 25.875 
Q 12.453125 15.921875 16.640625 10.984375 
Q 20.84375 6.0625 26.5625 6.0625 
Q 32.328125 6.0625 36.34375 10.765625 
Q 40.375 15.484375 40.375 25.140625 
Q 40.375 35.796875 36.265625 40.765625 
Q 32.171875 45.75 26.171875 45.75 
Q 20.3125 45.75 16.375 40.96875 
Q 12.453125 36.1875 12.453125 25.875 
z
" id="ArialMT-100"/>
      <path d="M 8.6875 0 
L 8.6875 45.015625 
L 0.921875 45.015625 
L 0.921875 51.859375 
L 8.6875 51.859375 
L 8.6875 57.375 
Q 8.6875 62.59375 9.625 65.140625 
Q 10.890625 68.5625 14.078125 70.671875 
Q 17.28125 72.796875 23.046875 72.796875 
Q 26.765625 72.796875 31.25 71.921875 
L 29.9375 64.265625 
Q 27.203125 64.75 24.75 64.75 
Q 20.75 64.75 19.09375 63.03125 
Q 17.4375 61.328125 17.4375 56.640625 
L 17.4375 51.859375 
L 27.546875 51.859375 
L 27.546875 45.015625 
L 17.4375 45.015625 
L 17.4375 0 
z
" id="ArialMT-102"/>
      <path d="M 24.953125 38.765625 
L 10.453125 0 
L 1.171875 0 
L 20.40625 50.875 
L 12.703125 71.578125 
L 21.96875 71.578125 
L 48.734375 0 
L 39.453125 0 
z
" id="ArialMT-955"/>
      <path d="M 25.046875 11.578125 
L 25.046875 31.203125 
L 5.5625 31.203125 
L 5.5625 39.40625 
L 25.046875 39.40625 
L 25.046875 58.890625 
L 33.34375 58.890625 
L 33.34375 39.40625 
L 52.828125 39.40625 
L 52.828125 31.203125 
L 33.34375 31.203125 
L 33.34375 11.578125 
z
" id="ArialMT-43"/>
      <path d="M 6.59375 0 
L 6.59375 71.578125 
L 15.375 71.578125 
L 15.375 45.90625 
Q 21.53125 53.03125 30.90625 53.03125 
Q 36.671875 53.03125 40.921875 50.75 
Q 45.171875 48.484375 47 44.484375 
Q 48.828125 40.484375 48.828125 32.859375 
L 48.828125 0 
L 40.046875 0 
L 40.046875 32.859375 
Q 40.046875 39.453125 37.1875 42.453125 
Q 34.328125 45.453125 29.109375 45.453125 
Q 25.203125 45.453125 21.75 43.421875 
Q 18.3125 41.40625 16.84375 37.9375 
Q 15.375 34.46875 15.375 28.375 
L 15.375 0 
z
" id="ArialMT-104"/>
     </defs>
     <g transform="translate(37.025 454.460938)rotate(-90)scale(0.2 -0.2)">
      <use xlink:href="#ArialMT-78"/>
      <use x="72.216797" xlink:href="#ArialMT-111"/>
      <use x="127.832031" xlink:href="#ArialMT-114"/>
      <use x="161.132812" xlink:href="#ArialMT-109"/>
      <use x="244.433594" xlink:href="#ArialMT-97"/>
      <use x="300.048828" xlink:href="#ArialMT-108"/>
      <use x="322.265625" xlink:href="#ArialMT-105"/>
      <use x="344.482422" xlink:href="#ArialMT-122"/>
      <use x="394.482422" xlink:href="#ArialMT-101"/>
      <use x="450.097656" xlink:href="#ArialMT-100"/>
      <use x="505.712891" xlink:href="#ArialMT-32"/>
      <use x="533.496094" xlink:href="#ArialMT-102"/>
      <use x="561.279297" xlink:href="#ArialMT-955"/>
      <use x="611.279297" xlink:href="#ArialMT-32"/>
      <use x="639.0625" xlink:href="#ArialMT-43"/>
      <use x="697.460938" xlink:href="#ArialMT-32"/>
      <use x="725.244141" xlink:href="#ArialMT-115"/>
      <use x="775.244141" xlink:href="#ArialMT-104"/>
      <use x="830.859375" xlink:href="#ArialMT-105"/>
      <use x="853.076172" xlink:href="#ArialMT-102"/>
      <use x="880.859375" xlink:href="#ArialMT-116"/>
     </g>
    </g>
   </g>
   <g id="line2d_3">
    <path clip-path="url(#p1046b16cd1)" d="M 180.287646 640.8 
L 180.287646 86.4 
" style="fill:none;stroke:#1d78ef;stroke-linecap:square;stroke-opacity:0.5;stroke-width:1.5;"/>
   </g>
   <g id="line2d_4">
    <path clip-path="url(#p1046b16cd1)" d="M 86.728171 470.558188 
L 86.961156 492.332354 
L 87.194086 419.648313 
L 87.426764 438.720244 
L 87.892547 492.788636 
L 88.125258 453.920951 
L 88.35811 441.635767 
L 88.590711 411.773954 
L 89.056142 442.463896 
L 89.288972 419.602482 
L 89.986936 506.992922 
L 90.452103 462.516075 
L 90.6848 431.815277 
L 90.917442 418.686701 
L 91.149834 391.076041 
L 91.382366 475.687472 
L 91.615041 416.393797 
L 91.847464 516.941323 
L 92.080028 369.27116 
L 92.312538 394.53405 
L 92.544796 539.48779 
L 92.777392 457.397929 
L 93.009737 461.582743 
L 93.242028 417.815459 
L 93.474459 419.87084 
L 93.706836 454.202437 
L 93.939157 460.04193 
L 94.171424 387.781594 
L 94.403832 377.545624 
L 94.63599 386.130106 
L 94.868288 411.506202 
L 95.100531 388.102082 
L 95.565049 429.420724 
L 95.797128 389.716918 
L 96.029348 434.202275 
L 96.261318 394.159101 
L 96.493428 461.399566 
L 96.725678 366.801548 
L 96.957679 426.350162 
L 97.18982 448.939167 
L 97.421711 427.614566 
L 97.653742 445.372907 
L 97.885719 445.251255 
L 98.117641 457.127394 
L 98.349703 462.201101 
L 98.581515 434.449035 
L 98.813468 468.70409 
L 99.045366 430.326121 
L 99.277209 488.629416 
L 99.508997 451.45903 
L 99.740925 394.140554 
L 99.972604 412.27457 
L 100.436187 473.684039 
L 100.667896 457.847617 
L 100.899551 417.31081 
L 101.131345 491.494284 
L 101.36289 424.991247 
L 101.594575 484.713021 
L 102.057781 456.673381 
L 102.289301 558.303414 
L 102.520768 494.344611 
L 102.752373 335.768556 
L 102.983924 487.615926 
L 103.215226 384.645703 
L 103.446667 480.246825 
L 103.678248 392.299343 
L 103.90958 434.173343 
L 104.140858 433.567967 
L 104.372274 439.915078 
L 104.603636 491.625564 
L 104.834944 395.91718 
L 105.066196 475.792335 
L 105.297394 423.392031 
L 105.528732 422.995639 
L 105.75982 444.63033 
L 106.222221 362.645817 
L 106.45334 382.951935 
L 106.684404 461.385207 
L 106.915606 413.873571 
L 107.146561 440.594693 
L 107.377655 450.493402 
L 107.608693 574.118306 
L 107.839678 453.621365 
L 108.070607 537.052883 
L 108.301482 504.826934 
L 108.763262 376.458832 
L 108.994166 482.392021 
L 109.225016 439.007107 
L 109.455811 426.093569 
L 109.686552 465.057125 
L 109.917238 476.13057 
L 110.148063 435.113756 
L 110.378832 442.550841 
L 110.609355 473.833594 
L 110.840016 484.73726 
L 111.301367 462.9271 
L 111.531864 588.345243 
L 111.762307 453.497661 
L 111.992888 433.704876 
L 112.453886 525.378342 
L 112.684303 523.238326 
L 112.914666 468.570435 
L 113.145166 445.383923 
L 113.37542 589.82584 
L 113.605812 485.165508 
L 113.836149 557.170569 
L 114.066432 459.198383 
L 114.29666 465.836024 
L 114.526834 506.344959 
L 114.756954 510.871752 
L 114.987211 615.6 
L 115.44737 340.315688 
L 115.677463 378.95508 
L 115.907503 442.779257 
L 116.137488 386.950063 
L 116.36761 376.980749 
L 116.597486 519.015361 
L 116.8275 508.619057 
L 117.057459 451.546967 
L 117.287172 444.661279 
L 117.517022 450.142549 
L 117.74701 422.830862 
L 117.976751 413.431788 
L 118.206439 505.527074 
L 118.436263 505.697415 
L 118.666033 552.602561 
L 118.895558 408.060708 
L 119.125219 555.228435 
L 119.355017 452.554583 
L 119.58457 461.797829 
L 119.814069 499.801856 
L 120.043704 436.05267 
L 120.273094 453.561039 
L 120.502621 399.680462 
L 120.732093 491.156848 
L 120.961511 336.519406 
L 121.190875 446.456617 
L 121.420185 488.815575 
L 121.649631 445.623355 
L 121.878833 560.744089 
L 122.10817 374.367893 
L 122.337454 574.325892 
L 122.566683 455.534156 
L 122.795858 567.769357 
L 123.024979 464.017366 
L 123.254046 467.014564 
L 123.483249 465.931469 
L 123.712208 455.300774 
L 123.941302 472.904988 
L 124.170343 532.959388 
L 124.399329 525.572983 
L 124.628261 446.421487 
L 124.857139 495.172585 
L 125.085964 400.094764 
L 125.314923 538.514288 
L 125.543639 445.503445 
L 125.772491 495.454171 
L 126.001289 582.442973 
L 126.230032 462.952053 
L 126.458722 423.559128 
L 126.687357 525.714407 
L 126.916128 557.239921 
L 127.373129 486.645239 
L 127.601738 486.790763 
L 127.830293 451.727971 
L 128.058794 457.699561 
L 128.287241 470.357776 
L 128.515633 468.347675 
L 128.972447 432.313758 
L 129.200678 437.765638 
L 129.429044 515.907984 
L 129.657356 526.434825 
L 129.885615 486.839074 
L 130.113819 511.304493 
L 130.34197 434.101739 
L 130.798109 473.352012 
L 131.026287 477.737895 
L 131.254222 380.336676 
L 131.482292 554.163595 
L 131.93827 537.576608 
L 132.394033 458.16914 
L 132.621834 380.177526 
L 132.849769 457.927567 
L 133.077462 443.171331 
L 133.30529 506.583769 
L 133.533064 504.314922 
L 133.760596 451.93216 
L 133.988262 458.52885 
L 134.216063 543.014706 
L 134.443622 482.309993 
L 134.671127 511.618372 
L 134.898579 509.852052 
L 135.126164 522.127419 
L 135.353696 434.513448 
L 135.808411 578.205312 
L 136.035782 405.462698 
L 136.490551 478.750677 
L 136.71776 438.975314 
L 137.172207 491.774665 
L 137.399443 442.495374 
L 137.626439 517.817412 
L 137.853568 450.686094 
L 138.080644 537.066293 
L 138.534635 426.285874 
L 138.761737 517.513619 
L 138.988598 485.371114 
L 139.215593 425.952258 
L 139.669236 569.641386 
L 139.89607 533.447097 
L 140.576253 379.255939 
L 140.802873 414.733987 
L 141.029627 385.690726 
L 141.25614 415.512104 
L 141.482787 375.080806 
L 141.709194 394.374211 
L 141.935734 457.040931 
L 142.16222 398.108501 
L 142.388653 482.103751 
L 143.294038 426.201088 
L 143.746503 523.353787 
L 143.972749 504.046396 
L 144.198941 543.643649 
L 144.425081 534.740554 
L 144.651166 548.891382 
L 145.103178 479.977331 
L 145.329104 430.55233 
L 145.780982 573.708138 
L 146.006934 452.823768 
L 146.232832 422.797005 
L 146.458678 433.668283 
L 146.68447 519.495152 
L 146.910209 328.201425 
L 147.135895 506.228875 
L 147.361528 485.904962 
L 147.587107 386.335592 
L 147.812819 487.821046 
L 148.038292 396.014659 
L 148.48945 477.396143 
L 148.940395 427.256831 
L 149.165787 491.195806 
L 149.391127 460.624994 
L 149.616414 447.127221 
L 149.841647 512.499436 
L 150.067013 385.728271 
L 150.29214 514.807582 
L 150.5174 516.934704 
L 150.742606 452.335631 
L 150.967575 453.242918 
L 151.192675 375.065685 
L 151.417722 522.029805 
L 151.642716 541.866238 
L 152.092731 337.734012 
L 152.542533 468.329215 
L 152.767263 475.091619 
L 152.992124 454.719 
L 153.216932 492.119254 
L 153.441687 395.633642 
L 153.666389 394.684111 
L 153.891038 401.168268 
L 154.115635 414.809732 
L 154.340178 530.190924 
L 154.564669 458.882119 
L 154.789291 426.34228 
L 155.013676 426.624057 
L 155.238193 468.347336 
L 155.462656 466.897364 
L 155.687067 478.297509 
L 155.911241 375.387125 
L 156.359982 480.231898 
L 156.584181 384.832202 
L 156.808328 353.84921 
L 157.032422 514.88117 
L 157.256647 396.887792 
L 157.480636 375.088538 
L 157.704755 468.172641 
L 157.928822 444.209241 
L 158.152653 449.112491 
L 158.376614 433.39616 
L 159.048365 111.6 
L 159.272116 199.842372 
L 159.495814 419.17184 
L 159.719643 451.93395 
L 159.943236 459.639268 
L 160.166959 494.658037 
L 160.39063 398.870974 
L 160.614065 414.625165 
L 160.837631 368.854835 
L 161.061144 386.167473 
L 161.284605 490.421488 
L 161.508195 479.886324 
L 161.731551 379.070011 
L 161.954854 459.917589 
L 162.401485 434.669296 
L 162.847907 379.498875 
L 163.07113 406.894722 
L 163.294301 402.782949 
L 163.517419 394.584741 
L 163.740485 452.10201 
L 163.963499 436.169421 
L 164.18646 429.071073 
L 164.409551 472.667076 
L 164.632408 478.135718 
L 164.855212 419.878228 
L 165.078146 450.822426 
L 165.523674 329.807231 
L 165.746451 427.766066 
L 165.969176 449.519685 
L 166.191848 399.491322 
L 166.414468 432.089559 
L 166.637036 370.73973 
L 166.859733 445.019644 
L 167.082196 466.41364 
L 167.304607 324.869755 
L 167.527147 429.375441 
L 167.749454 403.801693 
L 167.97189 398.677825 
L 168.194273 483.92274 
L 168.416605 406.678113 
L 168.861111 455.389187 
L 169.083286 436.404707 
L 169.305409 380.347168 
L 169.52748 427.467402 
L 169.971646 408.384824 
L 170.193561 539.228408 
L 170.415604 408.275437 
L 170.637596 474.903541 
L 170.859354 589.261471 
L 171.081242 463.735139 
L 171.303077 482.397419 
L 171.52486 426.842814 
L 171.746591 475.383258 
L 171.96827 354.131285 
L 172.190078 392.896766 
L 172.411654 408.815746 
L 172.633177 392.836559 
L 172.854829 421.673971 
L 173.076429 511.077133 
L 173.297796 434.750061 
L 173.519292 401.266794 
L 173.740736 426.811199 
L 173.962129 350.200312 
L 174.404758 449.348301 
L 174.625994 387.913906 
L 174.847179 495.034048 
L 175.068312 442.589825 
L 175.289573 448.150254 
L 175.510603 386.401427 
L 175.73176 488.262335 
L 175.952686 397.19316 
L 176.17374 403.415073 
L 176.394742 306.175344 
L 176.615692 484.983758 
L 176.836591 390.894264 
L 177.057438 454.984301 
L 177.278233 441.800395 
L 177.498977 411.160506 
L 177.719668 434.548697 
L 178.161076 360.599203 
L 178.381793 343.003432 
L 178.602278 487.795862 
L 178.822891 451.044608 
L 179.043452 493.389069 
L 179.263962 405.562806 
L 179.48424 438.476636 
L 179.704647 505.259275 
L 179.925181 407.838781 
L 180.145484 412.492946 
L 180.365736 483.349493 
L 180.585936 388.385097 
L 180.806264 418.463002 
L 181.026361 381.328463 
L 181.46658 410.087407 
L 181.686701 457.071261 
L 181.906771 449.841607 
L 182.126611 505.581417 
L 182.346578 460.11291 
L 182.566494 359.510782 
L 183.006349 408.857157 
L 183.226111 368.520559 
L 183.445821 493.619681 
L 183.885265 354.639212 
L 184.324504 460.441779 
L 184.544135 525.617041 
L 184.763716 404.428679 
L 184.983066 408.817043 
L 185.202544 395.176549 
L 185.42197 518.914137 
L 185.641345 462.624263 
L 185.860847 367.092021 
L 186.080119 405.388524 
L 186.299341 524.245281 
L 186.737807 388.679008 
L 186.956875 386.010655 
L 187.176069 451.408827 
L 187.395212 438.710744 
L 187.614304 458.552994 
L 187.833167 400.813281 
L 188.271095 423.674249 
L 188.489982 499.846045 
L 188.708818 444.723901 
L 188.92778 344.689253 
L 189.146514 437.287744 
L 189.365197 431.773651 
L 189.584006 524.832812 
L 189.802587 464.378479 
L 190.239772 516.369818 
L 190.458377 393.794525 
L 190.676931 367.409737 
L 190.895434 439.116922 
L 191.113886 441.474994 
L 191.332286 493.127906 
L 191.550636 439.792837 
L 191.768935 478.094084 
L 191.987183 465.654379 
L 192.423703 398.490779 
L 192.641975 489.516183 
L 192.860019 377.164155 
L 193.07819 559.738359 
L 193.296132 473.15287 
L 193.514201 465.36834 
L 193.732218 430.571953 
L 193.950185 365.370261 
L 194.168101 447.061059 
L 194.385966 425.998434 
L 194.60378 430.131324 
L 195.039432 384.413807 
L 195.257094 450.525177 
L 195.474882 475.588914 
L 195.692442 468.778972 
L 195.910128 409.956155 
L 196.127587 487.905062 
L 196.345171 490.035764 
L 196.780188 410.349597 
L 196.99762 473.413718 
L 197.215002 442.897025 
L 197.432333 431.697176 
L 197.866843 528.424037 
L 198.084022 476.327894 
L 198.301327 520.464002 
L 198.518405 394.552263 
L 198.735608 487.463935 
L 198.952584 422.83474 
L 199.386738 499.711019 
L 199.603738 386.512206 
L 199.820513 436.133958 
L 200.037413 459.056799 
L 200.254262 456.238058 
L 200.471061 436.797846 
L 200.687984 347.371299 
L 200.904682 437.491939 
L 201.121329 467.308451 
L 201.338101 444.40543 
L 201.554648 362.010254 
L 201.771319 480.969996 
L 201.987765 430.470935 
L 202.204335 417.544121 
L 202.420855 433.334376 
L 202.637149 491.274524 
L 202.853569 393.744572 
L 203.069937 403.862257 
L 203.286256 385.121307 
L 203.502524 376.532613 
L 203.718917 458.837341 
L 204.151201 406.723367 
L 204.367269 439.456926 
L 204.799426 408.491273 
L 205.231558 405.691632 
L 205.447373 464.321915 
L 205.663314 429.673641 
L 205.879203 454.062018 
L 206.310833 408.899365 
L 206.526572 408.977572 
L 206.742261 400.919253 
L 206.958074 404.229403 
L 207.173663 453.429257 
L 207.389202 461.591095 
L 207.820303 400.783064 
L 208.035866 482.393544 
L 208.251378 448.73838 
L 208.466667 478.773628 
L 208.682079 371.335475 
L 208.897442 437.477098 
L 209.112754 395.178987 
L 209.328016 407.480439 
L 209.543228 413.243445 
L 209.758391 435.131125 
L 209.973503 489.385903 
L 210.403751 347.765068 
L 210.618714 487.793604 
L 210.833799 500.337539 
L 211.048662 446.885106 
L 211.263648 511.648104 
L 211.478584 443.760046 
L 211.693471 498.774709 
L 211.908134 432.927194 
L 212.122921 423.53085 
L 212.337657 357.800669 
L 212.767154 485.824104 
L 213.196279 334.967122 
L 213.410767 492.90101 
L 213.625378 398.476967 
L 213.839766 435.363359 
L 214.268566 444.779029 
L 214.482978 384.016314 
L 214.911652 467.420949 
L 215.125742 461.58073 
L 215.339955 446.229801 
L 215.554118 376.365624 
L 215.982468 449.819218 
L 216.196482 439.733397 
L 216.410447 422.289215 
L 216.624535 367.074569 
L 216.8384 414.1446 
L 217.266155 447.564317 
L 217.480044 428.994995 
L 217.693883 452.366817 
L 217.907501 450.738669 
L 218.121242 464.069831 
L 218.334932 404.966049 
L 218.975708 447.65759 
L 219.189373 449.367947 
L 219.402816 418.078392 
L 219.61621 369.415796 
L 219.829727 435.185086 
L 220.043022 403.652085 
L 220.256439 564.437325 
L 220.469636 399.698211 
L 220.682954 532.423406 
L 220.896224 484.739871 
L 221.322443 345.595042 
L 221.535564 451.946643 
L 221.961658 367.314316 
L 222.387727 427.746134 
L 222.600601 415.969091 
L 222.813427 387.273346 
L 223.026374 389.210525 
L 223.239101 406.84189 
L 223.664749 407.612061 
L 223.877329 392.336686 
L 224.09003 410.525026 
L 224.302682 409.157933 
L 224.515284 412.333832 
L 224.727838 496.333558 
L 224.940342 398.041965 
L 225.365203 503.699894 
L 225.577731 433.592985 
L 226.002298 425.793733 
L 226.214678 474.653241 
L 226.426839 446.804086 
L 226.639121 487.630583 
L 226.851184 446.275561 
L 227.063368 448.709972 
L 227.487588 517.610774 
L 227.699625 394.044384 
L 228.123552 422.331299 
L 228.335442 543.278731 
L 228.547283 456.38493 
L 228.759246 438.775901 
L 228.970989 442.091368 
L 229.182683 539.37164 
L 229.394498 478.664152 
L 229.817812 424.430393 
L 230.029481 432.622284 
L 230.240931 467.448569 
L 230.452502 421.648079 
L 230.664024 427.647911 
L 230.875497 403.23984 
L 231.086921 442.073458 
L 231.298297 459.647881 
L 231.509624 452.929943 
L 231.721071 525.601846 
L 231.932301 406.068675 
L 232.143481 523.489593 
L 232.354782 451.273173 
L 232.565865 561.036513 
L 232.777069 462.979956 
L 232.988055 455.644929 
L 233.199161 409.82514 
L 233.410218 467.947547 
L 233.621227 469.082159 
L 233.832187 423.218654 
L 234.043099 470.06826 
L 234.253962 418.654628 
L 234.464776 440.459408 
L 234.675542 406.740046 
L 234.886259 500.657626 
L 235.518287 428.51101 
L 235.728979 466.736123 
L 235.939453 381.123156 
L 236.150047 419.788048 
L 236.360593 421.544462 
L 236.57109 446.987516 
L 236.781371 400.580052 
L 236.991771 487.210657 
L 237.202123 494.879761 
L 237.412426 472.659784 
L 237.622849 413.428273 
L 237.833056 467.933242 
L 238.043214 393.51339 
L 238.253324 460.323805 
L 238.463553 400.704369 
L 238.673566 440.412066 
L 238.883699 374.303034 
L 239.093615 418.701048 
L 239.303651 373.263673 
L 239.513638 375.025392 
L 239.9333 469.498999 
L 240.143143 470.394988 
L 240.352937 436.969832 
L 240.772548 484.310749 
L 240.982197 411.204261 
L 241.401351 480.020066 
L 241.611023 481.46641 
L 241.82048 429.326148 
L 242.030056 436.880091 
L 242.239416 466.629696 
L 242.448895 557.503759 
L 242.658326 470.073703 
L 243.077044 405.39251 
L 243.286331 464.179123 
L 243.495569 477.551973 
L 243.704759 415.82179 
L 243.913902 423.686074 
L 244.122996 448.985711 
L 244.332042 430.397279 
L 244.541207 426.518733 
L 244.750157 365.450276 
L 244.959226 498.848994 
L 245.16808 451.788529 
L 245.377053 475.321195 
L 245.585811 429.445052 
L 245.794688 491.110696 
L 246.003516 456.382795 
L 246.212297 476.707501 
L 246.42103 405.133467 
L 246.629715 445.388925 
L 246.838352 520.378001 
L 247.046941 478.931496 
L 247.255482 404.216424 
L 247.464142 460.361677 
L 247.672587 458.777365 
L 247.880984 447.486134 
L 248.0895 498.857937 
L 248.297802 461.776374 
L 248.506222 393.379723 
L 248.714594 405.234122 
L 248.922919 464.013009 
L 249.131029 433.214128 
L 249.339258 455.744728 
L 249.755572 451.276189 
L 249.963658 505.956782 
L 250.171861 413.802592 
L 250.379851 422.278306 
L 250.587793 409.894627 
L 250.795688 428.717733 
L 251.0037 430.896753 
L 251.2115 390.220966 
L 251.419417 476.280538 
L 251.627286 370.349041 
L 251.834942 418.279887 
L 252.042716 428.49385 
L 252.250443 458.558258 
L 252.250443 458.558258 
" style="fill:none;stroke:#000000;stroke-linecap:square;"/>
   </g>
   <g id="line2d_5">
    <path clip-path="url(#p1046b16cd1)" d="M 156.584181 385.101492 
L 156.808328 386.309164 
L 157.032422 387.501258 
L 157.256647 388.678732 
L 157.480636 389.839659 
L 157.704755 390.985939 
L 157.928822 392.116616 
L 158.152653 393.230784 
L 158.376614 394.330268 
L 158.600523 395.414149 
L 158.824379 396.482427 
L 159.048365 397.535956 
L 159.272116 398.573015 
L 159.495814 399.59447 
L 159.719643 400.601139 
L 159.943236 401.591376 
L 160.166959 402.5668 
L 160.39063 403.526596 
L 160.614065 404.469997 
L 160.837631 405.398548 
L 161.061144 406.311471 
L 161.284605 407.208765 
L 161.508195 408.091144 
L 161.731551 408.957168 
L 161.954854 409.807563 
L 162.178287 410.643006 
L 162.401485 411.46213 
L 162.624814 412.266277 
L 162.847907 413.054132 
L 163.07113 413.826983 
L 163.294301 414.58418 
L 163.517419 415.325722 
L 163.740485 416.051611 
L 163.963499 416.761845 
L 164.18646 417.456425 
L 164.409551 418.135898 
L 164.632408 418.799157 
L 164.855212 419.446761 
L 165.078146 420.079221 
L 165.301027 420.696001 
L 165.523674 421.296617 
L 165.746451 421.882051 
L 165.969176 422.451804 
L 166.191848 423.005877 
L 166.414468 423.544271 
L 166.637036 424.066985 
L 166.859733 424.574427 
L 167.082196 425.065768 
L 167.304607 425.54143 
L 167.527147 426.00178 
L 167.749454 426.446069 
L 167.97189 426.875022 
L 168.194273 427.288269 
L 168.416605 427.685811 
L 168.638884 428.067648 
L 168.861111 428.433779 
L 169.083286 428.784204 
L 169.305409 429.118924 
L 169.52748 429.437939 
L 169.749499 429.741248 
L 169.971646 430.02908 
L 170.193561 430.300965 
L 170.415604 430.557348 
L 170.637596 430.797999 
L 170.859354 431.022742 
L 171.081242 431.231945 
L 171.303077 431.425416 
L 171.52486 431.603156 
L 171.746591 431.765164 
L 171.96827 431.911442 
L 172.190078 432.042089 
L 172.411654 432.156892 
L 172.633177 432.255963 
L 172.854829 432.339366 
L 173.076429 432.407011 
L 173.297796 432.458864 
L 173.519292 432.495009 
L 173.740736 432.515397 
L 173.962129 432.520028 
L 174.183469 432.508903 
L 174.404758 432.482021 
L 174.625994 432.439382 
L 174.847179 432.380986 
L 175.068312 432.306834 
L 175.289573 432.216845 
L 175.510603 432.111166 
L 175.73176 431.989626 
L 175.952686 431.852421 
L 176.17374 431.699328 
L 176.394742 431.530453 
L 176.615692 431.345796 
L 176.836591 431.145356 
L 177.057438 430.929134 
L 177.278233 430.697129 
L 177.498977 430.449342 
L 177.719668 430.185773 
L 177.940488 429.906187 
L 178.161076 429.61104 
L 178.381793 429.299851 
L 178.602278 428.973126 
L 178.822891 428.630334 
L 179.043452 428.271734 
L 179.263962 427.897325 
L 179.48424 427.507432 
L 179.704647 427.10142 
L 179.925181 426.679251 
L 180.145484 426.24161 
L 180.365736 425.788161 
L 180.585936 425.318904 
L 180.806264 424.833438 
L 181.026361 424.332552 
L 181.246585 423.815431 
L 181.46658 423.282916 
L 181.686701 422.734141 
L 181.906771 422.169531 
L 182.126611 421.589566 
L 182.346578 420.993302 
L 182.566494 420.381204 
L 182.786358 419.753273 
L 183.006349 419.108978 
L 183.226111 418.449366 
L 183.445821 417.77392 
L 183.665658 417.082072 
" style="fill:none;stroke:#1d78ef;stroke-linecap:square;stroke-opacity:0.1;stroke-width:1.5;"/>
   </g>
   <g id="line2d_6">
    <defs>
     <path d="M 0 1.5 
C 0.397805 1.5 0.77937 1.341951 1.06066 1.06066 
C 1.341951 0.77937 1.5 0.397805 1.5 0 
C 1.5 -0.397805 1.341951 -0.77937 1.06066 -1.06066 
C 0.77937 -1.341951 0.397805 -1.5 0 -1.5 
C -0.397805 -1.5 -0.77937 -1.341951 -1.06066 -1.06066 
C -1.341951 -0.77937 -1.5 -0.397805 -1.5 0 
C -1.5 0.397805 -1.341951 0.77937 -1.06066 1.06066 
C -0.77937 1.341951 -0.397805 1.5 0 1.5 
z
" id="m51a260d221" style="stroke:#1d78ef;"/>
    </defs>
    <g clip-path="url(#p1046b16cd1)">
     <use style="fill:#1d78ef;stroke:#1d78ef;" x="173.962129" xlink:href="#m51a260d221" y="432.520028"/>
    </g>
   </g>
   <g id="line2d_7">
    <path clip-path="url(#p1046b16cd1)" d="M 155.238193 403.907299 
L 157.480636 408.751574 
L 159.719643 413.058448 
L 161.731551 416.473635 
L 163.740485 419.451319 
L 165.523674 421.730141 
L 167.304607 423.662129 
L 169.083286 425.246643 
L 170.637596 426.347435 
L 172.190078 427.18129 
L 173.740736 427.747834 
L 175.289573 428.046694 
L 176.615692 428.089521 
L 177.940488 427.935172 
L 179.263962 427.583405 
L 180.806264 426.923218 
L 182.346578 425.993777 
L 183.665658 424.982266 
L 183.665658 424.982266 
" style="fill:none;stroke:#1d78ef;stroke-linecap:square;stroke-opacity:0.1;stroke-width:1.5;"/>
   </g>
   <g id="line2d_8">
    <g clip-path="url(#p1046b16cd1)">
     <use style="fill:#1d78ef;stroke:#1d78ef;" x="176.17374" xlink:href="#m51a260d221" y="428.097142"/>
    </g>
   </g>
   <g id="line2d_9">
    <path clip-path="url(#p1046b16cd1)" d="M 156.359982 392.879852 
L 158.600523 401.09884 
L 160.614065 407.655734 
L 162.624814 413.414803 
L 164.409551 417.862199 
L 166.191848 421.67631 
L 167.749454 424.493558 
L 169.305409 426.824775 
L 170.637596 428.435284 
L 171.96827 429.687397 
L 173.076429 430.457081 
L 174.183469 430.977294 
L 175.289573 431.247938 
L 176.394742 431.268768 
L 177.498977 431.039542 
L 178.602278 430.560014 
L 179.704647 429.82994 
L 180.806264 428.848896 
L 182.126611 427.340615 
L 183.445821 425.470193 
L 184.544135 423.634732 
L 184.544135 423.634732 
" style="fill:none;stroke:#1d78ef;stroke-linecap:square;stroke-opacity:0.1;stroke-width:1.5;"/>
   </g>
   <g id="line2d_10">
    <g clip-path="url(#p1046b16cd1)">
     <use style="fill:#1d78ef;stroke:#1d78ef;" x="175.952686" xlink:href="#m51a260d221" y="431.29043"/>
    </g>
   </g>
   <g id="line2d_11">
    <path clip-path="url(#p1046b16cd1)" d="M 155.687067 396.983974 
L 157.928822 403.790383 
L 159.943236 409.244495 
L 161.954854 414.061491 
L 163.740485 417.807017 
L 165.523674 421.046727 
L 167.082196 423.466265 
L 168.638884 425.497342 
L 170.193561 427.139245 
L 171.52486 428.236756 
L 172.854829 429.04772 
L 174.183469 429.571787 
L 175.289573 429.789089 
L 176.394742 429.806741 
L 177.498977 429.624547 
L 178.602278 429.242313 
L 179.925181 428.51919 
L 181.246585 427.507452 
L 182.566494 426.206866 
L 183.885265 424.616726 
L 184.983066 423.070546 
L 184.983066 423.070546 
" style="fill:none;stroke:#1d78ef;stroke-linecap:square;stroke-opacity:0.1;stroke-width:1.5;"/>
   </g>
   <g id="line2d_12">
    <g clip-path="url(#p1046b16cd1)">
     <use style="fill:#1d78ef;stroke:#1d78ef;" x="175.952686" xlink:href="#m51a260d221" y="429.823651"/>
    </g>
   </g>
   <g id="line2d_13">
    <path clip-path="url(#p1046b16cd1)" d="M 155.238193 403.792564 
L 157.480636 408.702482 
L 159.719643 413.060789 
L 161.731551 416.510085 
L 163.740485 419.510317 
L 165.523674 421.799456 
L 167.304607 423.732593 
L 168.861111 425.13157 
L 170.415604 426.256843 
L 171.96827 427.108208 
L 173.519292 427.685334 
L 174.847179 427.961343 
L 176.17374 428.035296 
L 177.498977 427.906943 
L 178.822891 427.57604 
L 180.145484 427.042338 
L 181.686701 426.163135 
L 183.226111 425.007236 
L 183.445821 424.819548 
L 183.445821 424.819548 
" style="fill:none;stroke:#1d78ef;stroke-linecap:square;stroke-opacity:0.1;stroke-width:1.5;"/>
   </g>
   <g id="line2d_14">
    <g clip-path="url(#p1046b16cd1)">
     <use style="fill:#1d78ef;stroke:#1d78ef;" x="175.952686" xlink:href="#m51a260d221" y="428.037012"/>
    </g>
   </g>
   <g id="line2d_15">
    <path clip-path="url(#p1046b16cd1)" d="M 155.013676 406.012571 
L 157.480636 410.254244 
L 159.943236 414.060064 
L 162.178287 417.1409 
L 164.409551 419.859564 
L 166.637036 422.215342 
L 168.638884 424.024963 
L 170.637596 425.539387 
L 172.633177 426.75813 
L 174.404758 427.592984 
L 176.17374 428.193362 
L 177.940488 428.559027 
L 179.704647 428.689546 
L 181.46658 428.584588 
L 183.226111 428.243767 
L 184.763716 427.751792 
L 184.763716 427.751792 
" style="fill:none;stroke:#1d78ef;stroke-linecap:square;stroke-opacity:0.1;stroke-width:1.5;"/>
   </g>
   <g id="line2d_16">
    <g clip-path="url(#p1046b16cd1)">
     <use style="fill:#1d78ef;stroke:#1d78ef;" x="179.704647" xlink:href="#m51a260d221" y="428.689546"/>
    </g>
   </g>
   <g id="line2d_17">
    <path clip-path="url(#p1046b16cd1)" d="M 155.013676 404.948445 
L 157.256647 409.398738 
L 159.495814 413.372155 
L 161.731551 416.868287 
L 163.740485 419.605371 
L 165.746451 421.953939 
L 167.527147 423.714886 
L 169.305409 425.167642 
L 171.081242 426.311733 
L 172.633177 427.059268 
L 174.183469 427.569835 
L 175.73176 427.842981 
L 177.278233 427.87845 
L 178.822891 427.675909 
L 180.365736 427.235026 
L 181.906771 426.55547 
L 183.445821 425.637027 
L 183.665658 425.486212 
L 183.665658 425.486212 
" style="fill:none;stroke:#1d78ef;stroke-linecap:square;stroke-opacity:0.1;stroke-width:1.5;"/>
   </g>
   <g id="line2d_18">
    <g clip-path="url(#p1046b16cd1)">
     <use style="fill:#1d78ef;stroke:#1d78ef;" x="176.836591" xlink:href="#m51a260d221" y="427.892588"/>
    </g>
   </g>
   <g id="line2d_19">
    <path clip-path="url(#p1046b16cd1)" d="M 157.928822 383.227637 
L 158.152653 384.513688 
L 158.376614 385.784529 
L 158.600523 387.0391 
L 158.824379 388.2774 
L 159.048365 389.500423 
L 159.272116 390.70617 
L 159.495814 391.895645 
L 159.719643 393.069804 
L 159.943236 394.226726 
L 160.166959 395.368304 
L 160.39063 396.493585 
L 160.614065 397.601669 
L 160.837631 398.694369 
L 161.061144 399.770773 
L 161.284605 400.830879 
L 161.508195 401.875535 
L 161.731551 402.903034 
L 161.954854 403.914236 
L 162.178287 404.909948 
L 162.401485 405.888542 
L 162.624814 406.85162 
L 162.847907 407.797607 
L 163.07113 408.728051 
L 163.294301 409.642171 
L 163.517419 410.539967 
L 163.740485 411.421439 
L 163.963499 412.286588 
L 164.18646 413.135414 
L 164.409551 413.968589 
L 164.632408 414.784753 
L 164.855212 415.584594 
L 165.078146 416.368745 
L 165.301027 417.136545 
L 165.523674 417.887388 
L 165.746451 418.622501 
L 165.969176 419.341263 
L 166.191848 420.043675 
L 166.414468 420.729737 
L 166.637036 421.399448 
L 166.859733 422.053336 
L 167.082196 422.690333 
L 167.304607 423.31098 
L 167.527147 423.915764 
L 167.749454 424.503696 
L 167.97189 425.075739 
L 168.194273 425.631404 
L 168.416605 426.170692 
L 168.638884 426.693604 
L 168.861111 427.200138 
L 169.083286 427.690295 
L 169.305409 428.164075 
L 169.52748 428.621477 
L 169.749499 429.062503 
L 169.971646 429.487492 
L 170.193561 429.89575 
L 170.415604 430.287944 
L 170.637596 430.663735 
L 170.859354 431.022835 
L 171.081242 431.365831 
L 171.303077 431.692423 
L 171.52486 432.002612 
L 171.746591 432.296397 
L 171.96827 432.573778 
L 172.190078 432.834961 
L 172.411654 433.079521 
L 172.633177 433.307677 
L 172.854829 433.519595 
L 173.076429 433.715083 
L 173.297796 433.894001 
L 173.519292 434.056641 
L 173.740736 434.20285 
L 173.962129 434.332629 
L 174.183469 434.445978 
L 174.404758 434.542895 
L 174.625994 434.623383 
L 174.847179 434.687439 
L 175.068312 434.735066 
L 175.289573 434.76628 
L 175.510603 434.781032 
L 175.73176 434.779345 
L 175.952686 434.761222 
L 176.17374 434.726634 
L 176.394742 434.675588 
L 176.615692 434.608085 
L 176.836591 434.524125 
L 177.057438 434.423708 
L 177.278233 434.306833 
L 177.498977 434.173501 
L 177.719668 434.023711 
L 177.940488 433.857323 
L 178.161076 433.674605 
L 178.381793 433.475262 
L 178.602278 433.259616 
L 178.822891 433.027318 
L 179.043452 432.778535 
L 179.263962 432.513269 
L 179.48424 432.231754 
L 179.704647 431.933532 
L 179.925181 431.618564 
L 180.145484 431.287361 
L 180.365736 430.939674 
L 180.585936 430.575503 
L 180.806264 430.194531 
L 181.026361 429.797378 
L 181.246585 429.383398 
L 181.46658 428.953264 
L 181.686701 428.506275 
L 181.906771 428.042776 
L 182.126611 427.563162 
L 182.346578 427.066654 
L 182.566494 426.553635 
L 182.786358 426.024106 
L 183.006349 425.477615 
L 183.226111 424.91505 
L 183.445821 424.335974 
L 183.665658 423.739897 
L 183.885265 423.127786 
L 184.104999 422.498646 
L 184.324504 421.8535 
L 184.544135 421.191298 
L 184.763716 420.512559 
L 184.983066 419.817853 
L 185.202544 419.106051 
L 185.42197 418.377712 
L 185.641345 417.632835 
L 185.860847 416.870796 
" style="fill:none;stroke:#1d78ef;stroke-linecap:square;stroke-opacity:0.1;stroke-width:1.5;"/>
   </g>
   <g id="line2d_20">
    <g clip-path="url(#p1046b16cd1)">
     <use style="fill:#1d78ef;stroke:#1d78ef;" x="175.510603" xlink:href="#m51a260d221" y="434.781032"/>
    </g>
   </g>
   <g id="line2d_21">
    <path clip-path="url(#p1046b16cd1)" d="M 155.462656 400.241531 
L 157.704755 406.175541 
L 159.719643 410.931268 
L 161.731551 415.131398 
L 163.517419 418.397561 
L 165.301027 421.223264 
L 167.082196 423.607475 
L 168.638884 425.331127 
L 170.193561 426.715598 
L 171.52486 427.632247 
L 172.854829 428.299155 
L 174.183469 428.716017 
L 175.510603 428.882521 
L 176.836591 428.798407 
L 178.161076 428.463391 
L 179.48424 427.877172 
L 180.806264 427.039314 
L 182.126611 425.949903 
L 183.665658 424.359984 
L 185.202544 422.426878 
L 185.202544 422.426878 
" style="fill:none;stroke:#1d78ef;stroke-linecap:square;stroke-opacity:0.1;stroke-width:1.5;"/>
   </g>
   <g id="line2d_22">
    <g clip-path="url(#p1046b16cd1)">
     <use style="fill:#1d78ef;stroke:#1d78ef;" x="175.73176" xlink:href="#m51a260d221" y="428.885917"/>
    </g>
   </g>
   <g id="line2d_23">
    <path clip-path="url(#p1046b16cd1)" d="M 155.013676 404.977439 
L 157.256647 409.413416 
L 159.495814 413.374888 
L 161.731551 416.861447 
L 163.740485 419.591952 
L 165.746451 421.935872 
L 167.527147 423.694312 
L 169.305409 425.146092 
L 171.081242 426.290742 
L 172.633177 427.040027 
L 174.183469 427.553522 
L 175.73176 427.830776 
L 177.278233 427.871534 
L 178.822891 427.675465 
L 180.365736 427.24224 
L 181.906771 426.571527 
L 183.445821 425.663114 
L 184.983066 424.516609 
L 185.202544 424.333351 
L 185.202544 424.333351 
" style="fill:none;stroke:#1d78ef;stroke-linecap:square;stroke-opacity:0.1;stroke-width:1.5;"/>
   </g>
   <g id="line2d_24">
    <g clip-path="url(#p1046b16cd1)">
     <use style="fill:#1d78ef;stroke:#1d78ef;" x="176.836591" xlink:href="#m51a260d221" y="427.88404"/>
    </g>
   </g>
   <g id="line2d_25">
    <path clip-path="url(#p1046b16cd1)" style="fill:none;stroke:#000000;stroke-linecap:square;"/>
   </g>
   <g id="line2d_26">
    <path clip-path="url(#p1046b16cd1)" d="M 0 0 
" style="fill:none;stroke:#000000;stroke-linecap:square;"/>
   </g>
   <g id="line2d_27">
    <path clip-path="url(#p1046b16cd1)" style="fill:none;stroke:#1d78ef;stroke-linecap:square;stroke-opacity:0.1;stroke-width:1.5;"/>
   </g>
   <g id="line2d_28">
    <g clip-path="url(#p1046b16cd1)">
     <use style="fill:#1d78ef;stroke:#1d78ef;" x="0" xlink:href="#m51a260d221" y="0"/>
    </g>
   </g>
   <g id="line2d_29">
    <path clip-path="url(#p1046b16cd1)" d="M 0 0 
" style="fill:none;stroke:#1d78ef;stroke-linecap:square;stroke-opacity:0.1;stroke-width:1.5;"/>
   </g>
   <g id="line2d_30">
    <g clip-path="url(#p1046b16cd1)">
     <use style="fill:#1d78ef;stroke:#1d78ef;" x="0" xlink:href="#m51a260d221" y="0"/>
    </g>
   </g>
   <g id="line2d_31">
    <path clip-path="url(#p1046b16cd1)" style="fill:none;stroke:#1d78ef;stroke-linecap:square;stroke-opacity:0.1;stroke-width:1.5;"/>
   </g>
   <g id="line2d_32">
    <g clip-path="url(#p1046b16cd1)">
     <use style="fill:#1d78ef;stroke:#1d78ef;" x="0" xlink:href="#m51a260d221" y="0"/>
    </g>
   </g>
   <g id="line2d_33">
    <path clip-path="url(#p1046b16cd1)" d="M 0 0 
" style="fill:none;stroke:#1d78ef;stroke-linecap:square;stroke-opacity:0.1;stroke-width:1.5;"/>
   </g>
   <g id="line2d_34">
    <g clip-path="url(#p1046b16cd1)">
     <use style="fill:#1d78ef;stroke:#1d78ef;" x="0" xlink:href="#m51a260d221" y="0"/>
    </g>
   </g>
   <g id="line2d_35">
    <path clip-path="url(#p1046b16cd1)" d="M 0 0 
" style="fill:none;stroke:#1d78ef;stroke-linecap:square;stroke-opacity:0.1;stroke-width:1.5;"/>
   </g>
   <g id="line2d_36">
    <g clip-path="url(#p1046b16cd1)">
     <use style="fill:#1d78ef;stroke:#1d78ef;" x="0" xlink:href="#m51a260d221" y="0"/>
    </g>
   </g>
   <g id="line2d_37">
    <path clip-path="url(#p1046b16cd1)" style="fill:none;stroke:#1d78ef;stroke-linecap:square;stroke-opacity:0.1;stroke-width:1.5;"/>
   </g>
   <g id="line2d_38">
    <g clip-path="url(#p1046b16cd1)">
     <use style="fill:#1d78ef;stroke:#1d78ef;" x="0" xlink:href="#m51a260d221" y="0"/>
    </g>
   </g>
   <g id="line2d_39">
    <path clip-path="url(#p1046b16cd1)" d="M 0 0 
" style="fill:none;stroke:#1d78ef;stroke-linecap:square;stroke-opacity:0.1;stroke-width:1.5;"/>
   </g>
   <g id="line2d_40">
    <g clip-path="url(#p1046b16cd1)">
     <use style="fill:#1d78ef;stroke:#1d78ef;" x="0" xlink:href="#m51a260d221" y="0"/>
    </g>
   </g>
   <g id="line2d_41">
    <path clip-path="url(#p1046b16cd1)" d="M 0 0 
" style="fill:none;stroke:#1d78ef;stroke-linecap:square;stroke-opacity:0.1;stroke-width:1.5;"/>
   </g>
   <g id="line2d_42">
    <g clip-path="url(#p1046b16cd1)">
     <use style="fill:#1d78ef;stroke:#1d78ef;" x="0" xlink:href="#m51a260d221" y="0"/>
    </g>
   </g>
   <g id="line2d_43">
    <path clip-path="url(#p1046b16cd1)" style="fill:none;stroke:#1d78ef;stroke-linecap:square;stroke-opacity:0.1;stroke-width:1.5;"/>
   </g>
   <g id="line2d_44">
    <g clip-path="url(#p1046b16cd1)">
     <use style="fill:#1d78ef;stroke:#1d78ef;" x="0" xlink:href="#m51a260d221" y="0"/>
    </g>
   </g>
   <g id="line2d_45">
    <path clip-path="url(#p1046b16cd1)" style="fill:none;stroke:#1d78ef;stroke-linecap:square;stroke-opacity:0.1;stroke-width:1.5;"/>
   </g>
   <g id="line2d_46">
    <g clip-path="url(#p1046b16cd1)">
     <use style="fill:#1d78ef;stroke:#1d78ef;" x="0" xlink:href="#m51a260d221" y="0"/>
    </g>
   </g>
   <g id="line2d_47">
    <path clip-path="url(#p1046b16cd1)" style="fill:none;stroke:#000000;stroke-linecap:square;"/>
   </g>
   <g id="line2d_48">
    <path clip-path="url(#p1046b16cd1)" style="fill:none;stroke:#1d78ef;stroke-linecap:square;stroke-opacity:0.1;stroke-width:1.5;"/>
   </g>
   <g id="line2d_49">
    <g clip-path="url(#p1046b16cd1)">
     <use style="fill:#1d78ef;stroke:#1d78ef;" x="0" xlink:href="#m51a260d221" y="0"/>
    </g>
   </g>
   <g id="line2d_50">
    <path clip-path="url(#p1046b16cd1)" style="fill:none;stroke:#1d78ef;stroke-linecap:square;stroke-opacity:0.1;stroke-width:1.5;"/>
   </g>
   <g id="line2d_51">
    <g clip-path="url(#p1046b16cd1)">
     <use style="fill:#1d78ef;stroke:#1d78ef;" x="0" xlink:href="#m51a260d221" y="0"/>
    </g>
   </g>
   <g id="line2d_52">
    <path clip-path="url(#p1046b16cd1)" style="fill:none;stroke:#1d78ef;stroke-linecap:square;stroke-opacity:0.1;stroke-width:1.5;"/>
   </g>
   <g id="line2d_53">
    <g clip-path="url(#p1046b16cd1)">
     <use style="fill:#1d78ef;stroke:#1d78ef;" x="0" xlink:href="#m51a260d221" y="0"/>
    </g>
   </g>
   <g id="line2d_54">
    <path clip-path="url(#p1046b16cd1)" style="fill:none;stroke:#1d78ef;stroke-linecap:square;stroke-opacity:0.1;stroke-width:1.5;"/>
   </g>
   <g id="line2d_55">
    <g clip-path="url(#p1046b16cd1)">
     <use style="fill:#1d78ef;stroke:#1d78ef;" x="0" xlink:href="#m51a260d221" y="0"/>
    </g>
   </g>
   <g id="line2d_56">
    <path clip-path="url(#p1046b16cd1)" style="fill:none;stroke:#1d78ef;stroke-linecap:square;stroke-opacity:0.1;stroke-width:1.5;"/>
   </g>
   <g id="line2d_57">
    <g clip-path="url(#p1046b16cd1)">
     <use style="fill:#1d78ef;stroke:#1d78ef;" x="0" xlink:href="#m51a260d221" y="0"/>
    </g>
   </g>
   <g id="line2d_58">
    <path clip-path="url(#p1046b16cd1)" style="fill:none;stroke:#1d78ef;stroke-linecap:square;stroke-opacity:0.1;stroke-width:1.5;"/>
   </g>
   <g id="line2d_59">
    <g clip-path="url(#p1046b16cd1)">
     <use style="fill:#1d78ef;stroke:#1d78ef;" x="0" xlink:href="#m51a260d221" y="0"/>
    </g>
   </g>
   <g id="line2d_60">
    <path clip-path="url(#p1046b16cd1)" style="fill:none;stroke:#1d78ef;stroke-linecap:square;stroke-opacity:0.1;stroke-width:1.5;"/>
   </g>
   <g id="line2d_61">
    <g clip-path="url(#p1046b16cd1)">
     <use style="fill:#1d78ef;stroke:#1d78ef;" x="0" xlink:href="#m51a260d221" y="0"/>
    </g>
   </g>
   <g id="line2d_62">
    <path clip-path="url(#p1046b16cd1)" style="fill:none;stroke:#1d78ef;stroke-linecap:square;stroke-opacity:0.1;stroke-width:1.5;"/>
   </g>
   <g id="line2d_63">
    <g clip-path="url(#p1046b16cd1)">
     <use style="fill:#1d78ef;stroke:#1d78ef;" x="0" xlink:href="#m51a260d221" y="0"/>
    </g>
   </g>
   <g id="line2d_64">
    <path clip-path="url(#p1046b16cd1)" style="fill:none;stroke:#1d78ef;stroke-linecap:square;stroke-opacity:0.1;stroke-width:1.5;"/>
   </g>
   <g id="line2d_65">
    <g clip-path="url(#p1046b16cd1)">
     <use style="fill:#1d78ef;stroke:#1d78ef;" x="0" xlink:href="#m51a260d221" y="0"/>
    </g>
   </g>
   <g id="line2d_66">
    <path clip-path="url(#p1046b16cd1)" style="fill:none;stroke:#1d78ef;stroke-linecap:square;stroke-opacity:0.1;stroke-width:1.5;"/>
   </g>
   <g id="line2d_67">
    <g clip-path="url(#p1046b16cd1)">
     <use style="fill:#1d78ef;stroke:#1d78ef;" x="0" xlink:href="#m51a260d221" y="0"/>
    </g>
   </g>
   <g id="line2d_68">
    <path clip-path="url(#p1046b16cd1)" style="fill:none;stroke:#000000;stroke-linecap:square;"/>
   </g>
   <g id="line2d_69">
    <path clip-path="url(#p1046b16cd1)" style="fill:none;stroke:#1d78ef;stroke-linecap:square;stroke-opacity:0.1;stroke-width:1.5;"/>
   </g>
   <g id="line2d_70">
    <g clip-path="url(#p1046b16cd1)">
     <use style="fill:#1d78ef;stroke:#1d78ef;" x="0" xlink:href="#m51a260d221" y="0"/>
    </g>
   </g>
   <g id="line2d_71">
    <path clip-path="url(#p1046b16cd1)" style="fill:none;stroke:#1d78ef;stroke-linecap:square;stroke-opacity:0.1;stroke-width:1.5;"/>
   </g>
   <g id="line2d_72">
    <g clip-path="url(#p1046b16cd1)">
     <use style="fill:#1d78ef;stroke:#1d78ef;" x="0" xlink:href="#m51a260d221" y="0"/>
    </g>
   </g>
   <g id="line2d_73">
    <path clip-path="url(#p1046b16cd1)" style="fill:none;stroke:#1d78ef;stroke-linecap:square;stroke-opacity:0.1;stroke-width:1.5;"/>
   </g>
   <g id="line2d_74">
    <g clip-path="url(#p1046b16cd1)">
     <use style="fill:#1d78ef;stroke:#1d78ef;" x="0" xlink:href="#m51a260d221" y="0"/>
    </g>
   </g>
   <g id="line2d_75">
    <path clip-path="url(#p1046b16cd1)" style="fill:none;stroke:#1d78ef;stroke-linecap:square;stroke-opacity:0.1;stroke-width:1.5;"/>
   </g>
   <g id="line2d_76">
    <g clip-path="url(#p1046b16cd1)">
     <use style="fill:#1d78ef;stroke:#1d78ef;" x="0" xlink:href="#m51a260d221" y="0"/>
    </g>
   </g>
   <g id="line2d_77">
    <path clip-path="url(#p1046b16cd1)" style="fill:none;stroke:#1d78ef;stroke-linecap:square;stroke-opacity:0.1;stroke-width:1.5;"/>
   </g>
   <g id="line2d_78">
    <g clip-path="url(#p1046b16cd1)">
     <use style="fill:#1d78ef;stroke:#1d78ef;" x="0" xlink:href="#m51a260d221" y="0"/>
    </g>
   </g>
   <g id="line2d_79">
    <path clip-path="url(#p1046b16cd1)" style="fill:none;stroke:#1d78ef;stroke-linecap:square;stroke-opacity:0.1;stroke-width:1.5;"/>
   </g>
   <g id="line2d_80">
    <g clip-path="url(#p1046b16cd1)">
     <use style="fill:#1d78ef;stroke:#1d78ef;" x="0" xlink:href="#m51a260d221" y="0"/>
    </g>
   </g>
   <g id="line2d_81">
    <path clip-path="url(#p1046b16cd1)" style="fill:none;stroke:#000000;stroke-linecap:square;"/>
   </g>
   <g id="line2d_82">
    <path clip-path="url(#p1046b16cd1)" style="fill:none;stroke:#1d78ef;stroke-linecap:square;stroke-opacity:0.1;stroke-width:1.5;"/>
   </g>
   <g id="line2d_83">
    <g clip-path="url(#p1046b16cd1)">
     <use style="fill:#1d78ef;stroke:#1d78ef;" x="0" xlink:href="#m51a260d221" y="0"/>
    </g>
   </g>
   <g id="line2d_84">
    <path clip-path="url(#p1046b16cd1)" style="fill:none;stroke:#1d78ef;stroke-linecap:square;stroke-opacity:0.1;stroke-width:1.5;"/>
   </g>
   <g id="line2d_85">
    <g clip-path="url(#p1046b16cd1)">
     <use style="fill:#1d78ef;stroke:#1d78ef;" x="0" xlink:href="#m51a260d221" y="0"/>
    </g>
   </g>
   <g id="line2d_86">
    <path clip-path="url(#p1046b16cd1)" style="fill:none;stroke:#1d78ef;stroke-linecap:square;stroke-opacity:0.1;stroke-width:1.5;"/>
   </g>
   <g id="line2d_87">
    <g clip-path="url(#p1046b16cd1)">
     <use style="fill:#1d78ef;stroke:#1d78ef;" x="0" xlink:href="#m51a260d221" y="0"/>
    </g>
   </g>
   <g id="line2d_88">
    <path clip-path="url(#p1046b16cd1)" style="fill:none;stroke:#1d78ef;stroke-linecap:square;stroke-opacity:0.1;stroke-width:1.5;"/>
   </g>
   <g id="line2d_89">
    <g clip-path="url(#p1046b16cd1)">
     <use style="fill:#1d78ef;stroke:#1d78ef;" x="0" xlink:href="#m51a260d221" y="0"/>
    </g>
   </g>
   <g id="line2d_90">
    <path clip-path="url(#p1046b16cd1)" style="fill:none;stroke:#1d78ef;stroke-linecap:square;stroke-opacity:0.1;stroke-width:1.5;"/>
   </g>
   <g id="line2d_91">
    <g clip-path="url(#p1046b16cd1)">
     <use style="fill:#1d78ef;stroke:#1d78ef;" x="0" xlink:href="#m51a260d221" y="0"/>
    </g>
   </g>
   <g id="line2d_92">
    <path clip-path="url(#p1046b16cd1)" style="fill:none;stroke:#1d78ef;stroke-linecap:square;stroke-opacity:0.1;stroke-width:1.5;"/>
   </g>
   <g id="line2d_93">
    <g clip-path="url(#p1046b16cd1)">
     <use style="fill:#1d78ef;stroke:#1d78ef;" x="0" xlink:href="#m51a260d221" y="0"/>
    </g>
   </g>
   <g id="line2d_94">
    <path clip-path="url(#p1046b16cd1)" style="fill:none;stroke:#1d78ef;stroke-linecap:square;stroke-opacity:0.1;stroke-width:1.5;"/>
   </g>
   <g id="line2d_95">
    <g clip-path="url(#p1046b16cd1)">
     <use style="fill:#1d78ef;stroke:#1d78ef;" x="0" xlink:href="#m51a260d221" y="0"/>
    </g>
   </g>
   <g id="line2d_96">
    <path clip-path="url(#p1046b16cd1)" style="fill:none;stroke:#1d78ef;stroke-linecap:square;stroke-opacity:0.1;stroke-width:1.5;"/>
   </g>
   <g id="line2d_97">
    <g clip-path="url(#p1046b16cd1)">
     <use style="fill:#1d78ef;stroke:#1d78ef;" x="0" xlink:href="#m51a260d221" y="0"/>
    </g>
   </g>
   <g id="line2d_98">
    <path clip-path="url(#p1046b16cd1)" style="fill:none;stroke:#1d78ef;stroke-linecap:square;stroke-opacity:0.1;stroke-width:1.5;"/>
   </g>
   <g id="line2d_99">
    <g clip-path="url(#p1046b16cd1)">
     <use style="fill:#1d78ef;stroke:#1d78ef;" x="0" xlink:href="#m51a260d221" y="0"/>
    </g>
   </g>
   <g id="line2d_100">
    <path clip-path="url(#p1046b16cd1)" style="fill:none;stroke:#1d78ef;stroke-linecap:square;stroke-opacity:0.1;stroke-width:1.5;"/>
   </g>
   <g id="line2d_101">
    <g clip-path="url(#p1046b16cd1)">
     <use style="fill:#1d78ef;stroke:#1d78ef;" x="0" xlink:href="#m51a260d221" y="0"/>
    </g>
   </g>
   <g id="line2d_102">
    <path clip-path="url(#p1046b16cd1)" style="fill:none;stroke:#000000;stroke-linecap:square;"/>
   </g>
   <g id="line2d_103">
    <path clip-path="url(#p1046b16cd1)" style="fill:none;stroke:#1d78ef;stroke-linecap:square;stroke-opacity:0.1;stroke-width:1.5;"/>
   </g>
   <g id="line2d_104">
    <g clip-path="url(#p1046b16cd1)">
     <use style="fill:#1d78ef;stroke:#1d78ef;" x="0" xlink:href="#m51a260d221" y="0"/>
    </g>
   </g>
   <g id="line2d_105">
    <path clip-path="url(#p1046b16cd1)" style="fill:none;stroke:#1d78ef;stroke-linecap:square;stroke-opacity:0.1;stroke-width:1.5;"/>
   </g>
   <g id="line2d_106">
    <g clip-path="url(#p1046b16cd1)">
     <use style="fill:#1d78ef;stroke:#1d78ef;" x="0" xlink:href="#m51a260d221" y="0"/>
    </g>
   </g>
   <g id="line2d_107">
    <path clip-path="url(#p1046b16cd1)" style="fill:none;stroke:#1d78ef;stroke-linecap:square;stroke-opacity:0.1;stroke-width:1.5;"/>
   </g>
   <g id="line2d_108">
    <g clip-path="url(#p1046b16cd1)">
     <use style="fill:#1d78ef;stroke:#1d78ef;" x="0" xlink:href="#m51a260d221" y="0"/>
    </g>
   </g>
   <g id="line2d_109">
    <path clip-path="url(#p1046b16cd1)" style="fill:none;stroke:#1d78ef;stroke-linecap:square;stroke-opacity:0.1;stroke-width:1.5;"/>
   </g>
   <g id="line2d_110">
    <g clip-path="url(#p1046b16cd1)">
     <use style="fill:#1d78ef;stroke:#1d78ef;" x="0" xlink:href="#m51a260d221" y="0"/>
    </g>
   </g>
   <g id="line2d_111">
    <path clip-path="url(#p1046b16cd1)" style="fill:none;stroke:#1d78ef;stroke-linecap:square;stroke-opacity:0.1;stroke-width:1.5;"/>
   </g>
   <g id="line2d_112">
    <g clip-path="url(#p1046b16cd1)">
     <use style="fill:#1d78ef;stroke:#1d78ef;" x="0" xlink:href="#m51a260d221" y="0"/>
    </g>
   </g>
   <g id="line2d_113">
    <path clip-path="url(#p1046b16cd1)" style="fill:none;stroke:#1d78ef;stroke-linecap:square;stroke-opacity:0.1;stroke-width:1.5;"/>
   </g>
   <g id="line2d_114">
    <g clip-path="url(#p1046b16cd1)">
     <use style="fill:#1d78ef;stroke:#1d78ef;" x="0" xlink:href="#m51a260d221" y="0"/>
    </g>
   </g>
   <g id="line2d_115">
    <path clip-path="url(#p1046b16cd1)" style="fill:none;stroke:#1d78ef;stroke-linecap:square;stroke-opacity:0.1;stroke-width:1.5;"/>
   </g>
   <g id="line2d_116">
    <g clip-path="url(#p1046b16cd1)">
     <use style="fill:#1d78ef;stroke:#1d78ef;" x="0" xlink:href="#m51a260d221" y="0"/>
    </g>
   </g>
   <g id="line2d_117">
    <path clip-path="url(#p1046b16cd1)" style="fill:none;stroke:#1d78ef;stroke-linecap:square;stroke-opacity:0.1;stroke-width:1.5;"/>
   </g>
   <g id="line2d_118">
    <g clip-path="url(#p1046b16cd1)">
     <use style="fill:#1d78ef;stroke:#1d78ef;" x="0" xlink:href="#m51a260d221" y="0"/>
    </g>
   </g>
   <g id="line2d_119">
    <path clip-path="url(#p1046b16cd1)" style="fill:none;stroke:#1d78ef;stroke-linecap:square;stroke-opacity:0.1;stroke-width:1.5;"/>
   </g>
   <g id="line2d_120">
    <g clip-path="url(#p1046b16cd1)">
     <use style="fill:#1d78ef;stroke:#1d78ef;" x="0" xlink:href="#m51a260d221" y="0"/>
    </g>
   </g>
   <g id="line2d_121">
    <path clip-path="url(#p1046b16cd1)" style="fill:none;stroke:#1d78ef;stroke-linecap:square;stroke-opacity:0.1;stroke-width:1.5;"/>
   </g>
   <g id="line2d_122">
    <g clip-path="url(#p1046b16cd1)">
     <use style="fill:#1d78ef;stroke:#1d78ef;" x="0" xlink:href="#m51a260d221" y="0"/>
    </g>
   </g>
   <g id="line2d_123">
    <path clip-path="url(#p1046b16cd1)" style="fill:none;stroke:#000000;stroke-linecap:square;"/>
   </g>
   <g id="line2d_124">
    <path clip-path="url(#p1046b16cd1)" style="fill:none;stroke:#1d78ef;stroke-linecap:square;stroke-opacity:0.1;stroke-width:1.5;"/>
   </g>
   <g id="line2d_125">
    <g clip-path="url(#p1046b16cd1)">
     <use style="fill:#1d78ef;stroke:#1d78ef;" x="0" xlink:href="#m51a260d221" y="0"/>
    </g>
   </g>
   <g id="line2d_126">
    <path clip-path="url(#p1046b16cd1)" style="fill:none;stroke:#1d78ef;stroke-linecap:square;stroke-opacity:0.1;stroke-width:1.5;"/>
   </g>
   <g id="line2d_127">
    <g clip-path="url(#p1046b16cd1)">
     <use style="fill:#1d78ef;stroke:#1d78ef;" x="0" xlink:href="#m51a260d221" y="0"/>
    </g>
   </g>
   <g id="line2d_128">
    <path clip-path="url(#p1046b16cd1)" style="fill:none;stroke:#1d78ef;stroke-linecap:square;stroke-opacity:0.1;stroke-width:1.5;"/>
   </g>
   <g id="line2d_129">
    <g clip-path="url(#p1046b16cd1)">
     <use style="fill:#1d78ef;stroke:#1d78ef;" x="0" xlink:href="#m51a260d221" y="0"/>
    </g>
   </g>
   <g id="line2d_130">
    <path clip-path="url(#p1046b16cd1)" style="fill:none;stroke:#1d78ef;stroke-linecap:square;stroke-opacity:0.1;stroke-width:1.5;"/>
   </g>
   <g id="line2d_131">
    <g clip-path="url(#p1046b16cd1)">
     <use style="fill:#1d78ef;stroke:#1d78ef;" x="0" xlink:href="#m51a260d221" y="0"/>
    </g>
   </g>
   <g id="line2d_132">
    <path clip-path="url(#p1046b16cd1)" style="fill:none;stroke:#1d78ef;stroke-linecap:square;stroke-opacity:0.1;stroke-width:1.5;"/>
   </g>
   <g id="line2d_133">
    <g clip-path="url(#p1046b16cd1)">
     <use style="fill:#1d78ef;stroke:#1d78ef;" x="0" xlink:href="#m51a260d221" y="0"/>
    </g>
   </g>
   <g id="line2d_134">
    <path clip-path="url(#p1046b16cd1)" style="fill:none;stroke:#1d78ef;stroke-linecap:square;stroke-opacity:0.1;stroke-width:1.5;"/>
   </g>
   <g id="line2d_135">
    <g clip-path="url(#p1046b16cd1)">
     <use style="fill:#1d78ef;stroke:#1d78ef;" x="0" xlink:href="#m51a260d221" y="0"/>
    </g>
   </g>
   <g id="line2d_136">
    <path clip-path="url(#p1046b16cd1)" style="fill:none;stroke:#1d78ef;stroke-linecap:square;stroke-opacity:0.1;stroke-width:1.5;"/>
   </g>
   <g id="line2d_137">
    <g clip-path="url(#p1046b16cd1)">
     <use style="fill:#1d78ef;stroke:#1d78ef;" x="0" xlink:href="#m51a260d221" y="0"/>
    </g>
   </g>
   <g id="line2d_138">
    <path clip-path="url(#p1046b16cd1)" style="fill:none;stroke:#1d78ef;stroke-linecap:square;stroke-opacity:0.1;stroke-width:1.5;"/>
   </g>
   <g id="line2d_139">
    <g clip-path="url(#p1046b16cd1)">
     <use style="fill:#1d78ef;stroke:#1d78ef;" x="0" xlink:href="#m51a260d221" y="0"/>
    </g>
   </g>
   <g id="line2d_140">
    <path clip-path="url(#p1046b16cd1)" style="fill:none;stroke:#1d78ef;stroke-linecap:square;stroke-opacity:0.1;stroke-width:1.5;"/>
   </g>
   <g id="line2d_141">
    <g clip-path="url(#p1046b16cd1)">
     <use style="fill:#1d78ef;stroke:#1d78ef;" x="0" xlink:href="#m51a260d221" y="0"/>
    </g>
   </g>
   <g id="line2d_142">
    <path clip-path="url(#p1046b16cd1)" style="fill:none;stroke:#1d78ef;stroke-linecap:square;stroke-opacity:0.1;stroke-width:1.5;"/>
   </g>
   <g id="line2d_143">
    <g clip-path="url(#p1046b16cd1)">
     <use style="fill:#1d78ef;stroke:#1d78ef;" x="0" xlink:href="#m51a260d221" y="0"/>
    </g>
   </g>
   <g id="line2d_144">
    <path clip-path="url(#p1046b16cd1)" d="M 0 0 
" style="fill:none;stroke:#000000;stroke-linecap:square;"/>
   </g>
   <g id="line2d_145">
    <path clip-path="url(#p1046b16cd1)" style="fill:none;stroke:#1d78ef;stroke-linecap:square;stroke-opacity:0.1;stroke-width:1.5;"/>
   </g>
   <g id="line2d_146">
    <g clip-path="url(#p1046b16cd1)">
     <use style="fill:#1d78ef;stroke:#1d78ef;" x="0" xlink:href="#m51a260d221" y="0"/>
    </g>
   </g>
   <g id="line2d_147">
    <path clip-path="url(#p1046b16cd1)" style="fill:none;stroke:#1d78ef;stroke-linecap:square;stroke-opacity:0.1;stroke-width:1.5;"/>
   </g>
   <g id="line2d_148">
    <g clip-path="url(#p1046b16cd1)">
     <use style="fill:#1d78ef;stroke:#1d78ef;" x="0" xlink:href="#m51a260d221" y="0"/>
    </g>
   </g>
   <g id="line2d_149">
    <path clip-path="url(#p1046b16cd1)" style="fill:none;stroke:#1d78ef;stroke-linecap:square;stroke-opacity:0.1;stroke-width:1.5;"/>
   </g>
   <g id="line2d_150">
    <g clip-path="url(#p1046b16cd1)">
     <use style="fill:#1d78ef;stroke:#1d78ef;" x="0" xlink:href="#m51a260d221" y="0"/>
    </g>
   </g>
   <g id="line2d_151">
    <path clip-path="url(#p1046b16cd1)" style="fill:none;stroke:#1d78ef;stroke-linecap:square;stroke-opacity:0.1;stroke-width:1.5;"/>
   </g>
   <g id="line2d_152">
    <g clip-path="url(#p1046b16cd1)">
     <use style="fill:#1d78ef;stroke:#1d78ef;" x="0" xlink:href="#m51a260d221" y="0"/>
    </g>
   </g>
   <g id="line2d_153">
    <path clip-path="url(#p1046b16cd1)" style="fill:none;stroke:#1d78ef;stroke-linecap:square;stroke-opacity:0.1;stroke-width:1.5;"/>
   </g>
   <g id="line2d_154">
    <g clip-path="url(#p1046b16cd1)">
     <use style="fill:#1d78ef;stroke:#1d78ef;" x="0" xlink:href="#m51a260d221" y="0"/>
    </g>
   </g>
   <g id="line2d_155">
    <path clip-path="url(#p1046b16cd1)" style="fill:none;stroke:#1d78ef;stroke-linecap:square;stroke-opacity:0.1;stroke-width:1.5;"/>
   </g>
   <g id="line2d_156">
    <g clip-path="url(#p1046b16cd1)">
     <use style="fill:#1d78ef;stroke:#1d78ef;" x="0" xlink:href="#m51a260d221" y="0"/>
    </g>
   </g>
   <g id="line2d_157">
    <path clip-path="url(#p1046b16cd1)" style="fill:none;stroke:#1d78ef;stroke-linecap:square;stroke-opacity:0.1;stroke-width:1.5;"/>
   </g>
   <g id="line2d_158">
    <g clip-path="url(#p1046b16cd1)">
     <use style="fill:#1d78ef;stroke:#1d78ef;" x="0" xlink:href="#m51a260d221" y="0"/>
    </g>
   </g>
   <g id="line2d_159">
    <path clip-path="url(#p1046b16cd1)" style="fill:none;stroke:#1d78ef;stroke-linecap:square;stroke-opacity:0.1;stroke-width:1.5;"/>
   </g>
   <g id="line2d_160">
    <g clip-path="url(#p1046b16cd1)">
     <use style="fill:#1d78ef;stroke:#1d78ef;" x="0" xlink:href="#m51a260d221" y="0"/>
    </g>
   </g>
   <g id="line2d_161">
    <path clip-path="url(#p1046b16cd1)" style="fill:none;stroke:#1d78ef;stroke-linecap:square;stroke-opacity:0.1;stroke-width:1.5;"/>
   </g>
   <g id="line2d_162">
    <g clip-path="url(#p1046b16cd1)">
     <use style="fill:#1d78ef;stroke:#1d78ef;" x="0" xlink:href="#m51a260d221" y="0"/>
    </g>
   </g>
   <g id="line2d_163">
    <path clip-path="url(#p1046b16cd1)" style="fill:none;stroke:#1d78ef;stroke-linecap:square;stroke-opacity:0.1;stroke-width:1.5;"/>
   </g>
   <g id="line2d_164">
    <g clip-path="url(#p1046b16cd1)">
     <use style="fill:#1d78ef;stroke:#1d78ef;" x="0" xlink:href="#m51a260d221" y="0"/>
    </g>
   </g>
   <g id="line2d_165">
    <path clip-path="url(#p1046b16cd1)" style="fill:none;stroke:#000000;stroke-linecap:square;"/>
   </g>
   <g id="line2d_166">
    <path clip-path="url(#p1046b16cd1)" d="M 0 0 
" style="fill:none;stroke:#000000;stroke-linecap:square;"/>
   </g>
   <g id="line2d_167">
    <path clip-path="url(#p1046b16cd1)" d="M 0 0 
" style="fill:none;stroke:#000000;stroke-linecap:square;"/>
   </g>
   <g id="line2d_168">
    <path clip-path="url(#p1046b16cd1)" style="fill:none;stroke:#1d78ef;stroke-linecap:square;stroke-opacity:0.1;stroke-width:1.5;"/>
   </g>
   <g id="line2d_169">
    <g clip-path="url(#p1046b16cd1)">
     <use style="fill:#1d78ef;stroke:#1d78ef;" x="0" xlink:href="#m51a260d221" y="0"/>
    </g>
   </g>
   <g id="line2d_170">
    <path clip-path="url(#p1046b16cd1)" style="fill:none;stroke:#1d78ef;stroke-linecap:square;stroke-opacity:0.1;stroke-width:1.5;"/>
   </g>
   <g id="line2d_171">
    <g clip-path="url(#p1046b16cd1)">
     <use style="fill:#1d78ef;stroke:#1d78ef;" x="0" xlink:href="#m51a260d221" y="0"/>
    </g>
   </g>
   <g id="line2d_172">
    <path clip-path="url(#p1046b16cd1)" style="fill:none;stroke:#1d78ef;stroke-linecap:square;stroke-opacity:0.1;stroke-width:1.5;"/>
   </g>
   <g id="line2d_173">
    <g clip-path="url(#p1046b16cd1)">
     <use style="fill:#1d78ef;stroke:#1d78ef;" x="0" xlink:href="#m51a260d221" y="0"/>
    </g>
   </g>
   <g id="line2d_174">
    <path clip-path="url(#p1046b16cd1)" style="fill:none;stroke:#1d78ef;stroke-linecap:square;stroke-opacity:0.1;stroke-width:1.5;"/>
   </g>
   <g id="line2d_175">
    <g clip-path="url(#p1046b16cd1)">
     <use style="fill:#1d78ef;stroke:#1d78ef;" x="0" xlink:href="#m51a260d221" y="0"/>
    </g>
   </g>
   <g id="line2d_176">
    <path clip-path="url(#p1046b16cd1)" style="fill:none;stroke:#1d78ef;stroke-linecap:square;stroke-opacity:0.1;stroke-width:1.5;"/>
   </g>
   <g id="line2d_177">
    <g clip-path="url(#p1046b16cd1)">
     <use style="fill:#1d78ef;stroke:#1d78ef;" x="0" xlink:href="#m51a260d221" y="0"/>
    </g>
   </g>
   <g id="line2d_178">
    <path clip-path="url(#p1046b16cd1)" style="fill:none;stroke:#1d78ef;stroke-linecap:square;stroke-opacity:0.1;stroke-width:1.5;"/>
   </g>
   <g id="line2d_179">
    <g clip-path="url(#p1046b16cd1)">
     <use style="fill:#1d78ef;stroke:#1d78ef;" x="0" xlink:href="#m51a260d221" y="0"/>
    </g>
   </g>
   <g id="line2d_180">
    <path clip-path="url(#p1046b16cd1)" style="fill:none;stroke:#1d78ef;stroke-linecap:square;stroke-opacity:0.1;stroke-width:1.5;"/>
   </g>
   <g id="line2d_181">
    <g clip-path="url(#p1046b16cd1)">
     <use style="fill:#1d78ef;stroke:#1d78ef;" x="0" xlink:href="#m51a260d221" y="0"/>
    </g>
   </g>
   <g id="line2d_182">
    <path clip-path="url(#p1046b16cd1)" style="fill:none;stroke:#1d78ef;stroke-linecap:square;stroke-opacity:0.1;stroke-width:1.5;"/>
   </g>
   <g id="line2d_183">
    <g clip-path="url(#p1046b16cd1)">
     <use style="fill:#1d78ef;stroke:#1d78ef;" x="0" xlink:href="#m51a260d221" y="0"/>
    </g>
   </g>
   <g id="line2d_184">
    <path clip-path="url(#p1046b16cd1)" style="fill:none;stroke:#1d78ef;stroke-linecap:square;stroke-opacity:0.1;stroke-width:1.5;"/>
   </g>
   <g id="line2d_185">
    <g clip-path="url(#p1046b16cd1)">
     <use style="fill:#1d78ef;stroke:#1d78ef;" x="0" xlink:href="#m51a260d221" y="0"/>
    </g>
   </g>
   <g id="line2d_186">
    <path clip-path="url(#p1046b16cd1)" style="fill:none;stroke:#1d78ef;stroke-linecap:square;stroke-opacity:0.1;stroke-width:1.5;"/>
   </g>
   <g id="line2d_187">
    <g clip-path="url(#p1046b16cd1)">
     <use style="fill:#1d78ef;stroke:#1d78ef;" x="0" xlink:href="#m51a260d221" y="0"/>
    </g>
   </g>
   <g id="line2d_188">
    <path clip-path="url(#p1046b16cd1)" d="M 0 0 
" style="fill:none;stroke:#000000;stroke-linecap:square;"/>
   </g>
   <g id="line2d_189">
    <path clip-path="url(#p1046b16cd1)" style="fill:none;stroke:#1d78ef;stroke-linecap:square;stroke-opacity:0.1;stroke-width:1.5;"/>
   </g>
   <g id="line2d_190">
    <g clip-path="url(#p1046b16cd1)">
     <use style="fill:#1d78ef;stroke:#1d78ef;" x="0" xlink:href="#m51a260d221" y="0"/>
    </g>
   </g>
   <g id="line2d_191">
    <path clip-path="url(#p1046b16cd1)" style="fill:none;stroke:#1d78ef;stroke-linecap:square;stroke-opacity:0.1;stroke-width:1.5;"/>
   </g>
   <g id="line2d_192">
    <g clip-path="url(#p1046b16cd1)">
     <use style="fill:#1d78ef;stroke:#1d78ef;" x="0" xlink:href="#m51a260d221" y="0"/>
    </g>
   </g>
   <g id="line2d_193">
    <path clip-path="url(#p1046b16cd1)" style="fill:none;stroke:#1d78ef;stroke-linecap:square;stroke-opacity:0.1;stroke-width:1.5;"/>
   </g>
   <g id="line2d_194">
    <g clip-path="url(#p1046b16cd1)">
     <use style="fill:#1d78ef;stroke:#1d78ef;" x="0" xlink:href="#m51a260d221" y="0"/>
    </g>
   </g>
   <g id="line2d_195">
    <path clip-path="url(#p1046b16cd1)" style="fill:none;stroke:#1d78ef;stroke-linecap:square;stroke-opacity:0.1;stroke-width:1.5;"/>
   </g>
   <g id="line2d_196">
    <g clip-path="url(#p1046b16cd1)">
     <use style="fill:#1d78ef;stroke:#1d78ef;" x="0" xlink:href="#m51a260d221" y="0"/>
    </g>
   </g>
   <g id="line2d_197">
    <path clip-path="url(#p1046b16cd1)" style="fill:none;stroke:#1d78ef;stroke-linecap:square;stroke-opacity:0.1;stroke-width:1.5;"/>
   </g>
   <g id="line2d_198">
    <g clip-path="url(#p1046b16cd1)">
     <use style="fill:#1d78ef;stroke:#1d78ef;" x="0" xlink:href="#m51a260d221" y="0"/>
    </g>
   </g>
   <g id="line2d_199">
    <path clip-path="url(#p1046b16cd1)" style="fill:none;stroke:#1d78ef;stroke-linecap:square;stroke-opacity:0.1;stroke-width:1.5;"/>
   </g>
   <g id="line2d_200">
    <g clip-path="url(#p1046b16cd1)">
     <use style="fill:#1d78ef;stroke:#1d78ef;" x="0" xlink:href="#m51a260d221" y="0"/>
    </g>
   </g>
   <g id="line2d_201">
    <path clip-path="url(#p1046b16cd1)" d="M 0 0 
" style="fill:none;stroke:#000000;stroke-linecap:square;"/>
   </g>
   <g id="line2d_202">
    <path clip-path="url(#p1046b16cd1)" style="fill:none;stroke:#1d78ef;stroke-linecap:square;stroke-opacity:0.1;stroke-width:1.5;"/>
   </g>
   <g id="line2d_203">
    <g clip-path="url(#p1046b16cd1)">
     <use style="fill:#1d78ef;stroke:#1d78ef;" x="0" xlink:href="#m51a260d221" y="0"/>
    </g>
   </g>
   <g id="line2d_204">
    <path clip-path="url(#p1046b16cd1)" style="fill:none;stroke:#1d78ef;stroke-linecap:square;stroke-opacity:0.1;stroke-width:1.5;"/>
   </g>
   <g id="line2d_205">
    <g clip-path="url(#p1046b16cd1)">
     <use style="fill:#1d78ef;stroke:#1d78ef;" x="0" xlink:href="#m51a260d221" y="0"/>
    </g>
   </g>
   <g id="line2d_206">
    <path clip-path="url(#p1046b16cd1)" style="fill:none;stroke:#1d78ef;stroke-linecap:square;stroke-opacity:0.1;stroke-width:1.5;"/>
   </g>
   <g id="line2d_207">
    <g clip-path="url(#p1046b16cd1)">
     <use style="fill:#1d78ef;stroke:#1d78ef;" x="0" xlink:href="#m51a260d221" y="0"/>
    </g>
   </g>
   <g id="line2d_208">
    <path clip-path="url(#p1046b16cd1)" style="fill:none;stroke:#1d78ef;stroke-linecap:square;stroke-opacity:0.1;stroke-width:1.5;"/>
   </g>
   <g id="line2d_209">
    <g clip-path="url(#p1046b16cd1)">
     <use style="fill:#1d78ef;stroke:#1d78ef;" x="0" xlink:href="#m51a260d221" y="0"/>
    </g>
   </g>
   <g id="line2d_210">
    <path clip-path="url(#p1046b16cd1)" style="fill:none;stroke:#1d78ef;stroke-linecap:square;stroke-opacity:0.1;stroke-width:1.5;"/>
   </g>
   <g id="line2d_211">
    <g clip-path="url(#p1046b16cd1)">
     <use style="fill:#1d78ef;stroke:#1d78ef;" x="0" xlink:href="#m51a260d221" y="0"/>
    </g>
   </g>
   <g id="line2d_212">
    <path clip-path="url(#p1046b16cd1)" style="fill:none;stroke:#1d78ef;stroke-linecap:square;stroke-opacity:0.1;stroke-width:1.5;"/>
   </g>
   <g id="line2d_213">
    <g clip-path="url(#p1046b16cd1)">
     <use style="fill:#1d78ef;stroke:#1d78ef;" x="0" xlink:href="#m51a260d221" y="0"/>
    </g>
   </g>
   <g id="line2d_214">
    <path clip-path="url(#p1046b16cd1)" style="fill:none;stroke:#1d78ef;stroke-linecap:square;stroke-opacity:0.1;stroke-width:1.5;"/>
   </g>
   <g id="line2d_215">
    <g clip-path="url(#p1046b16cd1)">
     <use style="fill:#1d78ef;stroke:#1d78ef;" x="0" xlink:href="#m51a260d221" y="0"/>
    </g>
   </g>
   <g id="line2d_216">
    <path clip-path="url(#p1046b16cd1)" style="fill:none;stroke:#1d78ef;stroke-linecap:square;stroke-opacity:0.1;stroke-width:1.5;"/>
   </g>
   <g id="line2d_217">
    <g clip-path="url(#p1046b16cd1)">
     <use style="fill:#1d78ef;stroke:#1d78ef;" x="0" xlink:href="#m51a260d221" y="0"/>
    </g>
   </g>
   <g id="line2d_218">
    <path clip-path="url(#p1046b16cd1)" style="fill:none;stroke:#1d78ef;stroke-linecap:square;stroke-opacity:0.1;stroke-width:1.5;"/>
   </g>
   <g id="line2d_219">
    <g clip-path="url(#p1046b16cd1)">
     <use style="fill:#1d78ef;stroke:#1d78ef;" x="0" xlink:href="#m51a260d221" y="0"/>
    </g>
   </g>
   <g id="line2d_220">
    <path clip-path="url(#p1046b16cd1)" style="fill:none;stroke:#1d78ef;stroke-linecap:square;stroke-opacity:0.1;stroke-width:1.5;"/>
   </g>
   <g id="line2d_221">
    <g clip-path="url(#p1046b16cd1)">
     <use style="fill:#1d78ef;stroke:#1d78ef;" x="0" xlink:href="#m51a260d221" y="0"/>
    </g>
   </g>
   <g id="line2d_222">
    <path clip-path="url(#p1046b16cd1)" d="M 0 0 
" style="fill:none;stroke:#000000;stroke-linecap:square;"/>
   </g>
   <g id="line2d_223">
    <path clip-path="url(#p1046b16cd1)" style="fill:none;stroke:#1d78ef;stroke-linecap:square;stroke-opacity:0.1;stroke-width:1.5;"/>
   </g>
   <g id="line2d_224">
    <g clip-path="url(#p1046b16cd1)">
     <use style="fill:#1d78ef;stroke:#1d78ef;" x="0" xlink:href="#m51a260d221" y="0"/>
    </g>
   </g>
   <g id="line2d_225">
    <path clip-path="url(#p1046b16cd1)" style="fill:none;stroke:#1d78ef;stroke-linecap:square;stroke-opacity:0.1;stroke-width:1.5;"/>
   </g>
   <g id="line2d_226">
    <g clip-path="url(#p1046b16cd1)">
     <use style="fill:#1d78ef;stroke:#1d78ef;" x="0" xlink:href="#m51a260d221" y="0"/>
    </g>
   </g>
   <g id="line2d_227">
    <path clip-path="url(#p1046b16cd1)" style="fill:none;stroke:#1d78ef;stroke-linecap:square;stroke-opacity:0.1;stroke-width:1.5;"/>
   </g>
   <g id="line2d_228">
    <g clip-path="url(#p1046b16cd1)">
     <use style="fill:#1d78ef;stroke:#1d78ef;" x="0" xlink:href="#m51a260d221" y="0"/>
    </g>
   </g>
   <g id="line2d_229">
    <path clip-path="url(#p1046b16cd1)" style="fill:none;stroke:#1d78ef;stroke-linecap:square;stroke-opacity:0.1;stroke-width:1.5;"/>
   </g>
   <g id="line2d_230">
    <g clip-path="url(#p1046b16cd1)">
     <use style="fill:#1d78ef;stroke:#1d78ef;" x="0" xlink:href="#m51a260d221" y="0"/>
    </g>
   </g>
   <g id="line2d_231">
    <path clip-path="url(#p1046b16cd1)" style="fill:none;stroke:#1d78ef;stroke-linecap:square;stroke-opacity:0.1;stroke-width:1.5;"/>
   </g>
   <g id="line2d_232">
    <g clip-path="url(#p1046b16cd1)">
     <use style="fill:#1d78ef;stroke:#1d78ef;" x="0" xlink:href="#m51a260d221" y="0"/>
    </g>
   </g>
   <g id="line2d_233">
    <path clip-path="url(#p1046b16cd1)" style="fill:none;stroke:#1d78ef;stroke-linecap:square;stroke-opacity:0.1;stroke-width:1.5;"/>
   </g>
   <g id="line2d_234">
    <g clip-path="url(#p1046b16cd1)">
     <use style="fill:#1d78ef;stroke:#1d78ef;" x="0" xlink:href="#m51a260d221" y="0"/>
    </g>
   </g>
   <g id="line2d_235">
    <path clip-path="url(#p1046b16cd1)" style="fill:none;stroke:#1d78ef;stroke-linecap:square;stroke-opacity:0.1;stroke-width:1.5;"/>
   </g>
   <g id="line2d_236">
    <g clip-path="url(#p1046b16cd1)">
     <use style="fill:#1d78ef;stroke:#1d78ef;" x="0" xlink:href="#m51a260d221" y="0"/>
    </g>
   </g>
   <g id="line2d_237">
    <path clip-path="url(#p1046b16cd1)" style="fill:none;stroke:#1d78ef;stroke-linecap:square;stroke-opacity:0.1;stroke-width:1.5;"/>
   </g>
   <g id="line2d_238">
    <g clip-path="url(#p1046b16cd1)">
     <use style="fill:#1d78ef;stroke:#1d78ef;" x="0" xlink:href="#m51a260d221" y="0"/>
    </g>
   </g>
   <g id="line2d_239">
    <path clip-path="url(#p1046b16cd1)" style="fill:none;stroke:#1d78ef;stroke-linecap:square;stroke-opacity:0.1;stroke-width:1.5;"/>
   </g>
   <g id="line2d_240">
    <g clip-path="url(#p1046b16cd1)">
     <use style="fill:#1d78ef;stroke:#1d78ef;" x="0" xlink:href="#m51a260d221" y="0"/>
    </g>
   </g>
   <g id="line2d_241">
    <path clip-path="url(#p1046b16cd1)" style="fill:none;stroke:#1d78ef;stroke-linecap:square;stroke-opacity:0.1;stroke-width:1.5;"/>
   </g>
   <g id="line2d_242">
    <g clip-path="url(#p1046b16cd1)">
     <use style="fill:#1d78ef;stroke:#1d78ef;" x="0" xlink:href="#m51a260d221" y="0"/>
    </g>
   </g>
   <g id="line2d_243">
    <path clip-path="url(#p1046b16cd1)" d="M 0 0 
" style="fill:none;stroke:#000000;stroke-linecap:square;"/>
   </g>
   <g id="line2d_244">
    <path clip-path="url(#p1046b16cd1)" style="fill:none;stroke:#1d78ef;stroke-linecap:square;stroke-opacity:0.1;stroke-width:1.5;"/>
   </g>
   <g id="line2d_245">
    <g clip-path="url(#p1046b16cd1)">
     <use style="fill:#1d78ef;stroke:#1d78ef;" x="0" xlink:href="#m51a260d221" y="0"/>
    </g>
   </g>
   <g id="line2d_246">
    <path clip-path="url(#p1046b16cd1)" style="fill:none;stroke:#1d78ef;stroke-linecap:square;stroke-opacity:0.1;stroke-width:1.5;"/>
   </g>
   <g id="line2d_247">
    <g clip-path="url(#p1046b16cd1)">
     <use style="fill:#1d78ef;stroke:#1d78ef;" x="0" xlink:href="#m51a260d221" y="0"/>
    </g>
   </g>
   <g id="line2d_248">
    <path clip-path="url(#p1046b16cd1)" style="fill:none;stroke:#1d78ef;stroke-linecap:square;stroke-opacity:0.1;stroke-width:1.5;"/>
   </g>
   <g id="line2d_249">
    <g clip-path="url(#p1046b16cd1)">
     <use style="fill:#1d78ef;stroke:#1d78ef;" x="0" xlink:href="#m51a260d221" y="0"/>
    </g>
   </g>
   <g id="line2d_250">
    <path clip-path="url(#p1046b16cd1)" style="fill:none;stroke:#1d78ef;stroke-linecap:square;stroke-opacity:0.1;stroke-width:1.5;"/>
   </g>
   <g id="line2d_251">
    <g clip-path="url(#p1046b16cd1)">
     <use style="fill:#1d78ef;stroke:#1d78ef;" x="0" xlink:href="#m51a260d221" y="0"/>
    </g>
   </g>
   <g id="line2d_252">
    <path clip-path="url(#p1046b16cd1)" style="fill:none;stroke:#1d78ef;stroke-linecap:square;stroke-opacity:0.1;stroke-width:1.5;"/>
   </g>
   <g id="line2d_253">
    <g clip-path="url(#p1046b16cd1)">
     <use style="fill:#1d78ef;stroke:#1d78ef;" x="0" xlink:href="#m51a260d221" y="0"/>
    </g>
   </g>
   <g id="line2d_254">
    <path clip-path="url(#p1046b16cd1)" style="fill:none;stroke:#1d78ef;stroke-linecap:square;stroke-opacity:0.1;stroke-width:1.5;"/>
   </g>
   <g id="line2d_255">
    <g clip-path="url(#p1046b16cd1)">
     <use style="fill:#1d78ef;stroke:#1d78ef;" x="0" xlink:href="#m51a260d221" y="0"/>
    </g>
   </g>
   <g id="line2d_256">
    <path clip-path="url(#p1046b16cd1)" style="fill:none;stroke:#1d78ef;stroke-linecap:square;stroke-opacity:0.1;stroke-width:1.5;"/>
   </g>
   <g id="line2d_257">
    <g clip-path="url(#p1046b16cd1)">
     <use style="fill:#1d78ef;stroke:#1d78ef;" x="0" xlink:href="#m51a260d221" y="0"/>
    </g>
   </g>
   <g id="line2d_258">
    <path clip-path="url(#p1046b16cd1)" style="fill:none;stroke:#1d78ef;stroke-linecap:square;stroke-opacity:0.1;stroke-width:1.5;"/>
   </g>
   <g id="line2d_259">
    <g clip-path="url(#p1046b16cd1)">
     <use style="fill:#1d78ef;stroke:#1d78ef;" x="0" xlink:href="#m51a260d221" y="0"/>
    </g>
   </g>
   <g id="line2d_260">
    <path clip-path="url(#p1046b16cd1)" style="fill:none;stroke:#1d78ef;stroke-linecap:square;stroke-opacity:0.1;stroke-width:1.5;"/>
   </g>
   <g id="line2d_261">
    <g clip-path="url(#p1046b16cd1)">
     <use style="fill:#1d78ef;stroke:#1d78ef;" x="0" xlink:href="#m51a260d221" y="0"/>
    </g>
   </g>
   <g id="line2d_262">
    <path clip-path="url(#p1046b16cd1)" style="fill:none;stroke:#1d78ef;stroke-linecap:square;stroke-opacity:0.1;stroke-width:1.5;"/>
   </g>
   <g id="line2d_263">
    <g clip-path="url(#p1046b16cd1)">
     <use style="fill:#1d78ef;stroke:#1d78ef;" x="0" xlink:href="#m51a260d221" y="0"/>
    </g>
   </g>
   <g id="line2d_264">
    <path clip-path="url(#p1046b16cd1)" d="M 0 0 
" style="fill:none;stroke:#000000;stroke-linecap:square;"/>
   </g>
   <g id="patch_3">
    <path d="M 45 640.8 
L 45 86.4 
" style="fill:none;stroke:#000000;stroke-linecap:square;stroke-linejoin:miter;stroke-width:0.8;"/>
   </g>
   <g id="patch_4">
    <path d="M 252 640.8 
L 252 86.4 
" style="fill:none;stroke:#000000;stroke-linecap:square;stroke-linejoin:miter;stroke-width:0.8;"/>
   </g>
   <g id="patch_5">
    <path d="M 45 640.8 
L 252 640.8 
" style="fill:none;stroke:#000000;stroke-linecap:square;stroke-linejoin:miter;stroke-width:0.8;"/>
   </g>
   <g id="patch_6">
    <path d="M 45 86.4 
L 252 86.4 
" style="fill:none;stroke:#000000;stroke-linecap:square;stroke-linejoin:miter;stroke-width:0.8;"/>
   </g>
   <g id="text_5">
    <!-- 583d (Keck) -->
    <defs>
     <path d="M 4.15625 18.75 
L 13.375 19.53125 
Q 14.40625 12.796875 18.140625 9.390625 
Q 21.875 6 27.15625 6 
Q 33.5 6 37.890625 10.78125 
Q 42.28125 15.578125 42.28125 23.484375 
Q 42.28125 31 38.0625 35.34375 
Q 33.84375 39.703125 27 39.703125 
Q 22.75 39.703125 19.328125 37.765625 
Q 15.921875 35.84375 13.96875 32.765625 
L 5.71875 33.84375 
L 12.640625 70.609375 
L 48.25 70.609375 
L 48.25 62.203125 
L 19.671875 62.203125 
L 15.828125 42.96875 
Q 22.265625 47.46875 29.34375 47.46875 
Q 38.71875 47.46875 45.15625 40.96875 
Q 51.609375 34.46875 51.609375 24.265625 
Q 51.609375 14.546875 45.953125 7.46875 
Q 39.0625 -1.21875 27.15625 -1.21875 
Q 17.390625 -1.21875 11.203125 4.25 
Q 5.03125 9.71875 4.15625 18.75 
z
" id="ArialMT-53"/>
     <path d="M 17.671875 38.8125 
Q 12.203125 40.828125 9.5625 44.53125 
Q 6.9375 48.25 6.9375 53.421875 
Q 6.9375 61.234375 12.546875 66.546875 
Q 18.171875 71.875 27.484375 71.875 
Q 36.859375 71.875 42.578125 66.421875 
Q 48.296875 60.984375 48.296875 53.171875 
Q 48.296875 48.1875 45.671875 44.5 
Q 43.0625 40.828125 37.75 38.8125 
Q 44.34375 36.671875 47.78125 31.875 
Q 51.21875 27.09375 51.21875 20.453125 
Q 51.21875 11.28125 44.71875 5.03125 
Q 38.234375 -1.21875 27.640625 -1.21875 
Q 17.046875 -1.21875 10.546875 5.046875 
Q 4.046875 11.328125 4.046875 20.703125 
Q 4.046875 27.6875 7.59375 32.390625 
Q 11.140625 37.109375 17.671875 38.8125 
z
M 15.921875 53.71875 
Q 15.921875 48.640625 19.1875 45.40625 
Q 22.46875 42.1875 27.6875 42.1875 
Q 32.765625 42.1875 36.015625 45.375 
Q 39.265625 48.578125 39.265625 53.21875 
Q 39.265625 58.0625 35.90625 61.359375 
Q 32.5625 64.65625 27.59375 64.65625 
Q 22.5625 64.65625 19.234375 61.421875 
Q 15.921875 58.203125 15.921875 53.71875 
z
M 13.09375 20.65625 
Q 13.09375 16.890625 14.875 13.375 
Q 16.65625 9.859375 20.171875 7.921875 
Q 23.6875 6 27.734375 6 
Q 34.03125 6 38.125 10.046875 
Q 42.234375 14.109375 42.234375 20.359375 
Q 42.234375 26.703125 38.015625 30.859375 
Q 33.796875 35.015625 27.4375 35.015625 
Q 21.234375 35.015625 17.15625 30.90625 
Q 13.09375 26.8125 13.09375 20.65625 
z
" id="ArialMT-56"/>
     <path d="M 4.203125 18.890625 
L 12.984375 20.0625 
Q 14.5 12.59375 18.140625 9.296875 
Q 21.78125 6 27 6 
Q 33.203125 6 37.46875 10.296875 
Q 41.75 14.59375 41.75 20.953125 
Q 41.75 27 37.796875 30.921875 
Q 33.84375 34.859375 27.734375 34.859375 
Q 25.25 34.859375 21.53125 33.890625 
L 22.515625 41.609375 
Q 23.390625 41.5 23.921875 41.5 
Q 29.546875 41.5 34.03125 44.421875 
Q 38.53125 47.359375 38.53125 53.46875 
Q 38.53125 58.296875 35.25 61.46875 
Q 31.984375 64.65625 26.8125 64.65625 
Q 21.6875 64.65625 18.265625 61.421875 
Q 14.84375 58.203125 13.875 51.765625 
L 5.078125 53.328125 
Q 6.6875 62.15625 12.390625 67.015625 
Q 18.109375 71.875 26.609375 71.875 
Q 32.46875 71.875 37.390625 69.359375 
Q 42.328125 66.84375 44.9375 62.5 
Q 47.5625 58.15625 47.5625 53.265625 
Q 47.5625 48.640625 45.0625 44.828125 
Q 42.578125 41.015625 37.703125 38.765625 
Q 44.046875 37.3125 47.5625 32.6875 
Q 51.078125 28.078125 51.078125 21.140625 
Q 51.078125 11.765625 44.234375 5.25 
Q 37.40625 -1.265625 26.953125 -1.265625 
Q 17.53125 -1.265625 11.296875 4.34375 
Q 5.078125 9.96875 4.203125 18.890625 
z
" id="ArialMT-51"/>
     <path d="M 7.328125 0 
L 7.328125 71.578125 
L 16.796875 71.578125 
L 16.796875 36.078125 
L 52.34375 71.578125 
L 65.1875 71.578125 
L 35.15625 42.578125 
L 66.5 0 
L 54 0 
L 28.515625 36.234375 
L 16.796875 24.8125 
L 16.796875 0 
z
" id="ArialMT-75"/>
    </defs>
    <g transform="translate(253.192346 484.814077)scale(0.1 -0.1)">
     <use xlink:href="#ArialMT-53"/>
     <use x="55.615234" xlink:href="#ArialMT-56"/>
     <use x="111.230469" xlink:href="#ArialMT-51"/>
     <use x="166.845703" xlink:href="#ArialMT-100"/>
     <use x="222.460938" xlink:href="#ArialMT-32"/>
     <use x="250.244141" xlink:href="#ArialMT-40"/>
     <use x="283.544922" xlink:href="#ArialMT-75"/>
     <use x="350.244141" xlink:href="#ArialMT-101"/>
     <use x="405.859375" xlink:href="#ArialMT-99"/>
     <use x="455.859375" xlink:href="#ArialMT-107"/>
     <use x="505.859375" xlink:href="#ArialMT-41"/>
    </g>
   </g>
   <g id="text_6">
    <g id="text_7">
     <g id="text_8">
      <g id="text_9">
       <g id="text_10">
        <g id="text_11">
         <g id="text_12">
          <g id="text_13">
           <g id="text_14">
            <g id="text_15">
             <g id="text_16">
              <g id="text_17">
               <g id="text_18">
                <g id="text_19">
                 <g id="text_20">
                  <g id="text_21">
                   <g id="text_22">
                    <!-- FeII 5018 -->
                    <defs>
                     <path d="M 8.203125 0 
L 8.203125 71.578125 
L 56.5 71.578125 
L 56.5 63.140625 
L 17.671875 63.140625 
L 17.671875 40.96875 
L 51.265625 40.96875 
L 51.265625 32.515625 
L 17.671875 32.515625 
L 17.671875 0 
z
" id="ArialMT-70"/>
                     <path d="M 9.328125 0 
L 9.328125 71.578125 
L 18.796875 71.578125 
L 18.796875 0 
z
" id="ArialMT-73"/>
                     <path d="M 37.25 0 
L 28.46875 0 
L 28.46875 56 
Q 25.296875 52.984375 20.140625 49.953125 
Q 14.984375 46.921875 10.890625 45.40625 
L 10.890625 53.90625 
Q 18.265625 57.375 23.78125 62.296875 
Q 29.296875 67.234375 31.59375 71.875 
L 37.25 71.875 
z
" id="ArialMT-49"/>
                    </defs>
                    <g transform="translate(106.253125 80.4)scale(0.2 -0.2)">
                     <use xlink:href="#ArialMT-70"/>
                     <use x="61.083984" xlink:href="#ArialMT-101"/>
                     <use x="116.699219" xlink:href="#ArialMT-73"/>
                     <use x="144.482422" xlink:href="#ArialMT-73"/>
                     <use x="172.265625" xlink:href="#ArialMT-32"/>
                     <use x="200.048828" xlink:href="#ArialMT-53"/>
                     <use x="255.664062" xlink:href="#ArialMT-48"/>
                     <use x="311.279297" xlink:href="#ArialMT-49"/>
                     <use x="366.894531" xlink:href="#ArialMT-56"/>
                    </g>
                   </g>
                  </g>
                 </g>
                 <defs>
                  <clipPath id="p1046b16cd1">
                   <rect height="554.4" width="207" x="45" y="86.4"/>
                  </clipPath>
                 </defs>
                </g>
               </g>
              </g>
             </g>
            </g>
           </g>
          </g>
         </g>
        </g>
       </g>
      </g>
     </g>
    </g>
   </g>
  </g>
 </g>
</svg>
