<?xml version="1.0" encoding="utf-8" standalone="no"?>
<!DOCTYPE svg PUBLIC "-//W3C//DTD SVG 1.1//EN"
  "http://www.w3.org/Graphics/SVG/1.1/DTD/svg11.dtd">
<!-- Created with matplotlib (https://matplotlib.org/) -->
<svg height="360pt" version="1.1" viewBox="0 0 360 360" width="360pt" xmlns="http://www.w3.org/2000/svg" xmlns:xlink="http://www.w3.org/1999/xlink">
 <defs>
  <style type="text/css">
*{stroke-linecap:butt;stroke-linejoin:round;}
  </style>
 </defs>
 <g id="figure_1">
  <g id="patch_1">
   <path d="M 0 360 
L 360 360 
L 360 0 
L 0 0 
z
" style="fill:#ffffff;"/>
  </g>
  <g id="axes_1">
   <g id="patch_2">
    <path d="M 45 320.4 
L 324 320.4 
L 324 43.2 
L 45 43.2 
z
" style="fill:#ffffff;"/>
   </g>
   <g id="matplotlib.axis_1">
    <g id="xtick_1">
     <g id="line2d_1">
      <defs>
       <path d="M 0 0 
L 0 3.5 
" id="m6b3b396546" style="stroke:#000000;stroke-width:0.8;"/>
      </defs>
      <g>
       <use style="stroke:#000000;stroke-width:0.8;" x="57.673714" xlink:href="#m6b3b396546" y="320.4"/>
      </g>
     </g>
     <g id="text_1">
      <!-- 0 -->
      <defs>
       <path d="M 4.15625 35.296875 
Q 4.15625 48 6.765625 55.734375 
Q 9.375 63.484375 14.515625 67.671875 
Q 19.671875 71.875 27.484375 71.875 
Q 33.25 71.875 37.59375 69.546875 
Q 41.9375 67.234375 44.765625 62.859375 
Q 47.609375 58.5 49.21875 52.21875 
Q 50.828125 45.953125 50.828125 35.296875 
Q 50.828125 22.703125 48.234375 14.96875 
Q 45.65625 7.234375 40.5 3 
Q 35.359375 -1.21875 27.484375 -1.21875 
Q 17.140625 -1.21875 11.234375 6.203125 
Q 4.15625 15.140625 4.15625 35.296875 
z
M 13.1875 35.296875 
Q 13.1875 17.671875 17.3125 11.828125 
Q 21.4375 6 27.484375 6 
Q 33.546875 6 37.671875 11.859375 
Q 41.796875 17.71875 41.796875 35.296875 
Q 41.796875 52.984375 37.671875 58.78125 
Q 33.546875 64.59375 27.390625 64.59375 
Q 21.34375 64.59375 17.71875 59.46875 
Q 13.1875 52.9375 13.1875 35.296875 
z
" id="ArialMT-48"/>
      </defs>
      <g transform="translate(52.112776 341.715625)scale(0.2 -0.2)">
       <use xlink:href="#ArialMT-48"/>
      </g>
     </g>
    </g>
    <g id="xtick_2">
     <g id="line2d_2">
      <g>
       <use style="stroke:#000000;stroke-width:0.8;" x="189.451107" xlink:href="#m6b3b396546" y="320.4"/>
      </g>
     </g>
     <g id="text_2">
      <!-- 200 -->
      <defs>
       <path d="M 50.34375 8.453125 
L 50.34375 0 
L 3.03125 0 
Q 2.9375 3.171875 4.046875 6.109375 
Q 5.859375 10.9375 9.828125 15.625 
Q 13.8125 20.3125 21.34375 26.46875 
Q 33.015625 36.03125 37.109375 41.625 
Q 41.21875 47.21875 41.21875 52.203125 
Q 41.21875 57.421875 37.46875 61 
Q 33.734375 64.59375 27.734375 64.59375 
Q 21.390625 64.59375 17.578125 60.78125 
Q 13.765625 56.984375 13.71875 50.25 
L 4.6875 51.171875 
Q 5.609375 61.28125 11.65625 66.578125 
Q 17.71875 71.875 27.9375 71.875 
Q 38.234375 71.875 44.234375 66.15625 
Q 50.25 60.453125 50.25 52 
Q 50.25 47.703125 48.484375 43.546875 
Q 46.734375 39.40625 42.65625 34.8125 
Q 38.578125 30.21875 29.109375 22.21875 
Q 21.1875 15.578125 18.9375 13.203125 
Q 16.703125 10.84375 15.234375 8.453125 
z
" id="ArialMT-50"/>
      </defs>
      <g transform="translate(172.768295 341.715625)scale(0.2 -0.2)">
       <use xlink:href="#ArialMT-50"/>
       <use x="55.615234" xlink:href="#ArialMT-48"/>
       <use x="111.230469" xlink:href="#ArialMT-48"/>
      </g>
     </g>
    </g>
    <g id="xtick_3">
     <g id="line2d_3">
      <g>
       <use style="stroke:#000000;stroke-width:0.8;" x="321.228501" xlink:href="#m6b3b396546" y="320.4"/>
      </g>
     </g>
     <g id="text_3">
      <!-- 400 -->
      <defs>
       <path d="M 32.328125 0 
L 32.328125 17.140625 
L 1.265625 17.140625 
L 1.265625 25.203125 
L 33.9375 71.578125 
L 41.109375 71.578125 
L 41.109375 25.203125 
L 50.78125 25.203125 
L 50.78125 17.140625 
L 41.109375 17.140625 
L 41.109375 0 
z
M 32.328125 25.203125 
L 32.328125 57.46875 
L 9.90625 25.203125 
z
" id="ArialMT-52"/>
      </defs>
      <g transform="translate(304.545688 341.715625)scale(0.2 -0.2)">
       <use xlink:href="#ArialMT-52"/>
       <use x="55.615234" xlink:href="#ArialMT-48"/>
       <use x="111.230469" xlink:href="#ArialMT-48"/>
      </g>
     </g>
    </g>
    <g id="text_4">
     <!-- Rest-frame days from discovery -->
     <defs>
      <path d="M 7.859375 0 
L 7.859375 71.578125 
L 39.59375 71.578125 
Q 49.171875 71.578125 54.140625 69.640625 
Q 59.125 67.71875 62.109375 62.828125 
Q 65.09375 57.953125 65.09375 52.046875 
Q 65.09375 44.4375 60.15625 39.203125 
Q 55.21875 33.984375 44.921875 32.5625 
Q 48.6875 30.765625 50.640625 29 
Q 54.78125 25.203125 58.5 19.484375 
L 70.953125 0 
L 59.03125 0 
L 49.5625 14.890625 
Q 45.40625 21.34375 42.71875 24.75 
Q 40.046875 28.171875 37.921875 29.53125 
Q 35.796875 30.90625 33.59375 31.453125 
Q 31.984375 31.78125 28.328125 31.78125 
L 17.328125 31.78125 
L 17.328125 0 
z
M 17.328125 39.984375 
L 37.703125 39.984375 
Q 44.1875 39.984375 47.84375 41.328125 
Q 51.515625 42.671875 53.421875 45.625 
Q 55.328125 48.578125 55.328125 52.046875 
Q 55.328125 57.125 51.640625 60.390625 
Q 47.953125 63.671875 39.984375 63.671875 
L 17.328125 63.671875 
z
" id="ArialMT-82"/>
      <path d="M 42.09375 16.703125 
L 51.171875 15.578125 
Q 49.03125 7.625 43.21875 3.21875 
Q 37.40625 -1.171875 28.375 -1.171875 
Q 17 -1.171875 10.328125 5.828125 
Q 3.65625 12.84375 3.65625 25.484375 
Q 3.65625 38.578125 10.390625 45.796875 
Q 17.140625 53.03125 27.875 53.03125 
Q 38.28125 53.03125 44.875 45.953125 
Q 51.46875 38.875 51.46875 26.03125 
Q 51.46875 25.25 51.421875 23.6875 
L 12.75 23.6875 
Q 13.234375 15.140625 17.578125 10.59375 
Q 21.921875 6.0625 28.421875 6.0625 
Q 33.25 6.0625 36.671875 8.59375 
Q 40.09375 11.140625 42.09375 16.703125 
z
M 13.234375 30.90625 
L 42.1875 30.90625 
Q 41.609375 37.453125 38.875 40.71875 
Q 34.671875 45.796875 27.984375 45.796875 
Q 21.921875 45.796875 17.796875 41.75 
Q 13.671875 37.703125 13.234375 30.90625 
z
" id="ArialMT-101"/>
      <path d="M 3.078125 15.484375 
L 11.765625 16.84375 
Q 12.5 11.625 15.84375 8.84375 
Q 19.1875 6.0625 25.203125 6.0625 
Q 31.25 6.0625 34.171875 8.515625 
Q 37.109375 10.984375 37.109375 14.3125 
Q 37.109375 17.28125 34.515625 19 
Q 32.71875 20.171875 25.53125 21.96875 
Q 15.875 24.421875 12.140625 26.203125 
Q 8.40625 27.984375 6.46875 31.125 
Q 4.546875 34.28125 4.546875 38.09375 
Q 4.546875 41.546875 6.125 44.5 
Q 7.71875 47.46875 10.453125 49.421875 
Q 12.5 50.921875 16.03125 51.96875 
Q 19.578125 53.03125 23.640625 53.03125 
Q 29.734375 53.03125 34.34375 51.265625 
Q 38.96875 49.515625 41.15625 46.5 
Q 43.359375 43.5 44.1875 38.484375 
L 35.59375 37.3125 
Q 35.015625 41.3125 32.203125 43.546875 
Q 29.390625 45.796875 24.265625 45.796875 
Q 18.21875 45.796875 15.625 43.796875 
Q 13.03125 41.796875 13.03125 39.109375 
Q 13.03125 37.40625 14.109375 36.03125 
Q 15.1875 34.625 17.484375 33.6875 
Q 18.796875 33.203125 25.25 31.453125 
Q 34.578125 28.953125 38.25 27.359375 
Q 41.9375 25.78125 44.03125 22.75 
Q 46.140625 19.734375 46.140625 15.234375 
Q 46.140625 10.84375 43.578125 6.953125 
Q 41.015625 3.078125 36.171875 0.953125 
Q 31.34375 -1.171875 25.25 -1.171875 
Q 15.140625 -1.171875 9.84375 3.03125 
Q 4.546875 7.234375 3.078125 15.484375 
z
" id="ArialMT-115"/>
      <path d="M 25.78125 7.859375 
L 27.046875 0.09375 
Q 23.34375 -0.6875 20.40625 -0.6875 
Q 15.625 -0.6875 12.984375 0.828125 
Q 10.359375 2.34375 9.28125 4.8125 
Q 8.203125 7.28125 8.203125 15.1875 
L 8.203125 45.015625 
L 1.765625 45.015625 
L 1.765625 51.859375 
L 8.203125 51.859375 
L 8.203125 64.703125 
L 16.9375 69.96875 
L 16.9375 51.859375 
L 25.78125 51.859375 
L 25.78125 45.015625 
L 16.9375 45.015625 
L 16.9375 14.703125 
Q 16.9375 10.9375 17.40625 9.859375 
Q 17.875 8.796875 18.921875 8.15625 
Q 19.96875 7.515625 21.921875 7.515625 
Q 23.390625 7.515625 25.78125 7.859375 
z
" id="ArialMT-116"/>
      <path d="M 3.171875 21.484375 
L 3.171875 30.328125 
L 30.171875 30.328125 
L 30.171875 21.484375 
z
" id="ArialMT-45"/>
      <path d="M 8.6875 0 
L 8.6875 45.015625 
L 0.921875 45.015625 
L 0.921875 51.859375 
L 8.6875 51.859375 
L 8.6875 57.375 
Q 8.6875 62.59375 9.625 65.140625 
Q 10.890625 68.5625 14.078125 70.671875 
Q 17.28125 72.796875 23.046875 72.796875 
Q 26.765625 72.796875 31.25 71.921875 
L 29.9375 64.265625 
Q 27.203125 64.75 24.75 64.75 
Q 20.75 64.75 19.09375 63.03125 
Q 17.4375 61.328125 17.4375 56.640625 
L 17.4375 51.859375 
L 27.546875 51.859375 
L 27.546875 45.015625 
L 17.4375 45.015625 
L 17.4375 0 
z
" id="ArialMT-102"/>
      <path d="M 6.5 0 
L 6.5 51.859375 
L 14.40625 51.859375 
L 14.40625 44 
Q 17.4375 49.515625 20 51.265625 
Q 22.5625 53.03125 25.640625 53.03125 
Q 30.078125 53.03125 34.671875 50.203125 
L 31.640625 42.046875 
Q 28.421875 43.953125 25.203125 43.953125 
Q 22.3125 43.953125 20.015625 42.21875 
Q 17.71875 40.484375 16.75 37.40625 
Q 15.28125 32.71875 15.28125 27.15625 
L 15.28125 0 
z
" id="ArialMT-114"/>
      <path d="M 40.4375 6.390625 
Q 35.546875 2.25 31.03125 0.53125 
Q 26.515625 -1.171875 21.34375 -1.171875 
Q 12.796875 -1.171875 8.203125 3 
Q 3.609375 7.171875 3.609375 13.671875 
Q 3.609375 17.484375 5.34375 20.625 
Q 7.078125 23.78125 9.890625 25.6875 
Q 12.703125 27.59375 16.21875 28.5625 
Q 18.796875 29.25 24.03125 29.890625 
Q 34.671875 31.15625 39.703125 32.90625 
Q 39.75 34.71875 39.75 35.203125 
Q 39.75 40.578125 37.25 42.78125 
Q 33.890625 45.75 27.25 45.75 
Q 21.046875 45.75 18.09375 43.578125 
Q 15.140625 41.40625 13.71875 35.890625 
L 5.125 37.0625 
Q 6.296875 42.578125 8.984375 45.96875 
Q 11.671875 49.359375 16.75 51.1875 
Q 21.828125 53.03125 28.515625 53.03125 
Q 35.15625 53.03125 39.296875 51.46875 
Q 43.453125 49.90625 45.40625 47.53125 
Q 47.359375 45.171875 48.140625 41.546875 
Q 48.578125 39.3125 48.578125 33.453125 
L 48.578125 21.734375 
Q 48.578125 9.46875 49.140625 6.21875 
Q 49.703125 2.984375 51.375 0 
L 42.1875 0 
Q 40.828125 2.734375 40.4375 6.390625 
z
M 39.703125 26.03125 
Q 34.90625 24.078125 25.34375 22.703125 
Q 19.921875 21.921875 17.671875 20.9375 
Q 15.4375 19.96875 14.203125 18.09375 
Q 12.984375 16.21875 12.984375 13.921875 
Q 12.984375 10.40625 15.640625 8.0625 
Q 18.3125 5.71875 23.4375 5.71875 
Q 28.515625 5.71875 32.46875 7.9375 
Q 36.421875 10.15625 38.28125 14.015625 
Q 39.703125 17 39.703125 22.796875 
z
" id="ArialMT-97"/>
      <path d="M 6.59375 0 
L 6.59375 51.859375 
L 14.453125 51.859375 
L 14.453125 44.578125 
Q 16.890625 48.390625 20.9375 50.703125 
Q 25 53.03125 30.171875 53.03125 
Q 35.9375 53.03125 39.625 50.640625 
Q 43.3125 48.25 44.828125 43.953125 
Q 50.984375 53.03125 60.84375 53.03125 
Q 68.5625 53.03125 72.703125 48.75 
Q 76.859375 44.484375 76.859375 35.59375 
L 76.859375 0 
L 68.109375 0 
L 68.109375 32.671875 
Q 68.109375 37.9375 67.25 40.25 
Q 66.40625 42.578125 64.15625 43.984375 
Q 61.921875 45.40625 58.890625 45.40625 
Q 53.421875 45.40625 49.796875 41.765625 
Q 46.1875 38.140625 46.1875 30.125 
L 46.1875 0 
L 37.40625 0 
L 37.40625 33.6875 
Q 37.40625 39.546875 35.25 42.46875 
Q 33.109375 45.40625 28.21875 45.40625 
Q 24.515625 45.40625 21.359375 43.453125 
Q 18.21875 41.5 16.796875 37.734375 
Q 15.375 33.984375 15.375 26.90625 
L 15.375 0 
z
" id="ArialMT-109"/>
      <path id="ArialMT-32"/>
      <path d="M 40.234375 0 
L 40.234375 6.546875 
Q 35.296875 -1.171875 25.734375 -1.171875 
Q 19.53125 -1.171875 14.328125 2.25 
Q 9.125 5.671875 6.265625 11.796875 
Q 3.421875 17.921875 3.421875 25.875 
Q 3.421875 33.640625 6 39.96875 
Q 8.59375 46.296875 13.765625 49.65625 
Q 18.953125 53.03125 25.34375 53.03125 
Q 30.03125 53.03125 33.6875 51.046875 
Q 37.359375 49.078125 39.65625 45.90625 
L 39.65625 71.578125 
L 48.390625 71.578125 
L 48.390625 0 
z
M 12.453125 25.875 
Q 12.453125 15.921875 16.640625 10.984375 
Q 20.84375 6.0625 26.5625 6.0625 
Q 32.328125 6.0625 36.34375 10.765625 
Q 40.375 15.484375 40.375 25.140625 
Q 40.375 35.796875 36.265625 40.765625 
Q 32.171875 45.75 26.171875 45.75 
Q 20.3125 45.75 16.375 40.96875 
Q 12.453125 36.1875 12.453125 25.875 
z
" id="ArialMT-100"/>
      <path d="M 6.203125 -19.96875 
L 5.21875 -11.71875 
Q 8.109375 -12.5 10.25 -12.5 
Q 13.1875 -12.5 14.9375 -11.515625 
Q 16.703125 -10.546875 17.828125 -8.796875 
Q 18.65625 -7.46875 20.515625 -2.25 
Q 20.75 -1.515625 21.296875 -0.09375 
L 1.609375 51.859375 
L 11.078125 51.859375 
L 21.875 21.828125 
Q 23.96875 16.109375 25.640625 9.8125 
Q 27.15625 15.875 29.25 21.625 
L 40.328125 51.859375 
L 49.125 51.859375 
L 29.390625 -0.875 
Q 26.21875 -9.421875 24.46875 -12.640625 
Q 22.125 -17 19.09375 -19.015625 
Q 16.0625 -21.046875 11.859375 -21.046875 
Q 9.328125 -21.046875 6.203125 -19.96875 
z
" id="ArialMT-121"/>
      <path d="M 3.328125 25.921875 
Q 3.328125 40.328125 11.328125 47.265625 
Q 18.015625 53.03125 27.640625 53.03125 
Q 38.328125 53.03125 45.109375 46.015625 
Q 51.90625 39.015625 51.90625 26.65625 
Q 51.90625 16.65625 48.90625 10.90625 
Q 45.90625 5.171875 40.15625 2 
Q 34.421875 -1.171875 27.640625 -1.171875 
Q 16.75 -1.171875 10.03125 5.8125 
Q 3.328125 12.796875 3.328125 25.921875 
z
M 12.359375 25.921875 
Q 12.359375 15.96875 16.703125 11.015625 
Q 21.046875 6.0625 27.640625 6.0625 
Q 34.1875 6.0625 38.53125 11.03125 
Q 42.875 16.015625 42.875 26.21875 
Q 42.875 35.84375 38.5 40.796875 
Q 34.125 45.75 27.640625 45.75 
Q 21.046875 45.75 16.703125 40.8125 
Q 12.359375 35.890625 12.359375 25.921875 
z
" id="ArialMT-111"/>
      <path d="M 6.640625 61.46875 
L 6.640625 71.578125 
L 15.4375 71.578125 
L 15.4375 61.46875 
z
M 6.640625 0 
L 6.640625 51.859375 
L 15.4375 51.859375 
L 15.4375 0 
z
" id="ArialMT-105"/>
      <path d="M 40.4375 19 
L 49.078125 17.875 
Q 47.65625 8.9375 41.8125 3.875 
Q 35.984375 -1.171875 27.484375 -1.171875 
Q 16.84375 -1.171875 10.375 5.78125 
Q 3.90625 12.75 3.90625 25.734375 
Q 3.90625 34.125 6.6875 40.421875 
Q 9.46875 46.734375 15.15625 49.875 
Q 20.84375 53.03125 27.546875 53.03125 
Q 35.984375 53.03125 41.359375 48.75 
Q 46.734375 44.484375 48.25 36.625 
L 39.703125 35.296875 
Q 38.484375 40.53125 35.375 43.15625 
Q 32.28125 45.796875 27.875 45.796875 
Q 21.234375 45.796875 17.078125 41.03125 
Q 12.9375 36.28125 12.9375 25.984375 
Q 12.9375 15.53125 16.9375 10.796875 
Q 20.953125 6.0625 27.390625 6.0625 
Q 32.5625 6.0625 36.03125 9.234375 
Q 39.5 12.40625 40.4375 19 
z
" id="ArialMT-99"/>
      <path d="M 21 0 
L 1.265625 51.859375 
L 10.546875 51.859375 
L 21.6875 20.796875 
Q 23.484375 15.765625 25 10.359375 
Q 26.171875 14.453125 28.265625 20.21875 
L 39.796875 51.859375 
L 48.828125 51.859375 
L 29.203125 0 
z
" id="ArialMT-118"/>
     </defs>
     <g transform="translate(43.360938 364.25)scale(0.2 -0.2)">
      <use xlink:href="#ArialMT-82"/>
      <use x="72.216797" xlink:href="#ArialMT-101"/>
      <use x="127.832031" xlink:href="#ArialMT-115"/>
      <use x="177.832031" xlink:href="#ArialMT-116"/>
      <use x="205.615234" xlink:href="#ArialMT-45"/>
      <use x="238.916016" xlink:href="#ArialMT-102"/>
      <use x="266.699219" xlink:href="#ArialMT-114"/>
      <use x="300" xlink:href="#ArialMT-97"/>
      <use x="355.615234" xlink:href="#ArialMT-109"/>
      <use x="438.916016" xlink:href="#ArialMT-101"/>
      <use x="494.53125" xlink:href="#ArialMT-32"/>
      <use x="522.314453" xlink:href="#ArialMT-100"/>
      <use x="577.929688" xlink:href="#ArialMT-97"/>
      <use x="633.544922" xlink:href="#ArialMT-121"/>
      <use x="683.544922" xlink:href="#ArialMT-115"/>
      <use x="733.544922" xlink:href="#ArialMT-32"/>
      <use x="761.328125" xlink:href="#ArialMT-102"/>
      <use x="789.111328" xlink:href="#ArialMT-114"/>
      <use x="822.412109" xlink:href="#ArialMT-111"/>
      <use x="878.027344" xlink:href="#ArialMT-109"/>
      <use x="961.328125" xlink:href="#ArialMT-32"/>
      <use x="989.111328" xlink:href="#ArialMT-100"/>
      <use x="1044.726562" xlink:href="#ArialMT-105"/>
      <use x="1066.943359" xlink:href="#ArialMT-115"/>
      <use x="1116.943359" xlink:href="#ArialMT-99"/>
      <use x="1166.943359" xlink:href="#ArialMT-111"/>
      <use x="1222.558594" xlink:href="#ArialMT-118"/>
      <use x="1272.558594" xlink:href="#ArialMT-101"/>
      <use x="1328.173828" xlink:href="#ArialMT-114"/>
      <use x="1361.474609" xlink:href="#ArialMT-121"/>
     </g>
    </g>
   </g>
   <g id="matplotlib.axis_2">
    <g id="ytick_1">
     <g id="line2d_4">
      <defs>
       <path d="M 0 0 
L -3.5 0 
" id="mf730af2ad8" style="stroke:#000000;stroke-width:0.8;"/>
      </defs>
      <g>
       <use style="stroke:#000000;stroke-width:0.8;" x="45" xlink:href="#mf730af2ad8" y="295.850767"/>
      </g>
     </g>
     <g id="text_5">
      <!-- $\mathdefault{10^{-2}}$ -->
      <defs>
       <path d="M 37.25 0 
L 28.46875 0 
L 28.46875 56 
Q 25.296875 52.984375 20.140625 49.953125 
Q 14.984375 46.921875 10.890625 45.40625 
L 10.890625 53.90625 
Q 18.265625 57.375 23.78125 62.296875 
Q 29.296875 67.234375 31.59375 71.875 
L 37.25 71.875 
z
" id="ArialMT-49"/>
       <path d="M 52.828125 31.203125 
L 5.5625 31.203125 
L 5.5625 39.40625 
L 52.828125 39.40625 
z
" id="ArialMT-8722"/>
      </defs>
      <g transform="translate(-1.6 306.163267)scale(0.2 -0.2)">
       <use transform="translate(0 0.99375)" xlink:href="#ArialMT-49"/>
       <use transform="translate(55.615234 0.99375)" xlink:href="#ArialMT-48"/>
       <use transform="translate(112.972813 70.6875)scale(0.7)" xlink:href="#ArialMT-8722"/>
       <use transform="translate(153.851719 70.6875)scale(0.7)" xlink:href="#ArialMT-50"/>
      </g>
     </g>
    </g>
    <g id="ytick_2">
     <g id="line2d_5">
      <g>
       <use style="stroke:#000000;stroke-width:0.8;" x="45" xlink:href="#mf730af2ad8" y="183.243752"/>
      </g>
     </g>
     <g id="text_6">
      <!-- $\mathdefault{10^{-1}}$ -->
      <g transform="translate(-1.6 193.556252)scale(0.2 -0.2)">
       <use transform="translate(0 0.99375)" xlink:href="#ArialMT-49"/>
       <use transform="translate(55.615234 0.99375)" xlink:href="#ArialMT-48"/>
       <use transform="translate(112.972813 70.6875)scale(0.7)" xlink:href="#ArialMT-8722"/>
       <use transform="translate(153.851719 70.6875)scale(0.7)" xlink:href="#ArialMT-49"/>
      </g>
     </g>
    </g>
    <g id="ytick_3">
     <g id="line2d_6">
      <g>
       <use style="stroke:#000000;stroke-width:0.8;" x="45" xlink:href="#mf730af2ad8" y="70.636738"/>
      </g>
     </g>
     <g id="text_7">
      <!-- $\mathdefault{10^{0}}$ -->
      <g transform="translate(6.6 80.949238)scale(0.2 -0.2)">
       <use transform="translate(0 0.99375)" xlink:href="#ArialMT-49"/>
       <use transform="translate(55.615234 0.99375)" xlink:href="#ArialMT-48"/>
       <use transform="translate(112.972813 70.6875)scale(0.7)" xlink:href="#ArialMT-48"/>
      </g>
     </g>
    </g>
    <g id="ytick_4">
     <g id="line2d_7">
      <defs>
       <path d="M 0 0 
L -2 0 
" id="m0e195be1ae" style="stroke:#000000;stroke-width:0.6;"/>
      </defs>
      <g>
       <use style="stroke:#000000;stroke-width:0.6;" x="45" xlink:href="#m0e195be1ae" y="313.293814"/>
      </g>
     </g>
    </g>
    <g id="ytick_5">
     <g id="line2d_8">
      <g>
       <use style="stroke:#000000;stroke-width:0.6;" x="45" xlink:href="#m0e195be1ae" y="306.763514"/>
      </g>
     </g>
    </g>
    <g id="ytick_6">
     <g id="line2d_9">
      <g>
       <use style="stroke:#000000;stroke-width:0.6;" x="45" xlink:href="#m0e195be1ae" y="301.003381"/>
      </g>
     </g>
    </g>
    <g id="ytick_7">
     <g id="line2d_10">
      <g>
       <use style="stroke:#000000;stroke-width:0.6;" x="45" xlink:href="#m0e195be1ae" y="261.952678"/>
      </g>
     </g>
    </g>
    <g id="ytick_8">
     <g id="line2d_11">
      <g>
       <use style="stroke:#000000;stroke-width:0.6;" x="45" xlink:href="#m0e195be1ae" y="242.123567"/>
      </g>
     </g>
    </g>
    <g id="ytick_9">
     <g id="line2d_12">
      <g>
       <use style="stroke:#000000;stroke-width:0.6;" x="45" xlink:href="#m0e195be1ae" y="228.054589"/>
      </g>
     </g>
    </g>
    <g id="ytick_10">
     <g id="line2d_13">
      <g>
       <use style="stroke:#000000;stroke-width:0.6;" x="45" xlink:href="#m0e195be1ae" y="217.141841"/>
      </g>
     </g>
    </g>
    <g id="ytick_11">
     <g id="line2d_14">
      <g>
       <use style="stroke:#000000;stroke-width:0.6;" x="45" xlink:href="#m0e195be1ae" y="208.225478"/>
      </g>
     </g>
    </g>
    <g id="ytick_12">
     <g id="line2d_15">
      <g>
       <use style="stroke:#000000;stroke-width:0.6;" x="45" xlink:href="#m0e195be1ae" y="200.6868"/>
      </g>
     </g>
    </g>
    <g id="ytick_13">
     <g id="line2d_16">
      <g>
       <use style="stroke:#000000;stroke-width:0.6;" x="45" xlink:href="#m0e195be1ae" y="194.1565"/>
      </g>
     </g>
    </g>
    <g id="ytick_14">
     <g id="line2d_17">
      <g>
       <use style="stroke:#000000;stroke-width:0.6;" x="45" xlink:href="#m0e195be1ae" y="188.396367"/>
      </g>
     </g>
    </g>
    <g id="ytick_15">
     <g id="line2d_18">
      <g>
       <use style="stroke:#000000;stroke-width:0.6;" x="45" xlink:href="#m0e195be1ae" y="149.345663"/>
      </g>
     </g>
    </g>
    <g id="ytick_16">
     <g id="line2d_19">
      <g>
       <use style="stroke:#000000;stroke-width:0.6;" x="45" xlink:href="#m0e195be1ae" y="129.516553"/>
      </g>
     </g>
    </g>
    <g id="ytick_17">
     <g id="line2d_20">
      <g>
       <use style="stroke:#000000;stroke-width:0.6;" x="45" xlink:href="#m0e195be1ae" y="115.447574"/>
      </g>
     </g>
    </g>
    <g id="ytick_18">
     <g id="line2d_21">
      <g>
       <use style="stroke:#000000;stroke-width:0.6;" x="45" xlink:href="#m0e195be1ae" y="104.534827"/>
      </g>
     </g>
    </g>
    <g id="ytick_19">
     <g id="line2d_22">
      <g>
       <use style="stroke:#000000;stroke-width:0.6;" x="45" xlink:href="#m0e195be1ae" y="95.618463"/>
      </g>
     </g>
    </g>
    <g id="ytick_20">
     <g id="line2d_23">
      <g>
       <use style="stroke:#000000;stroke-width:0.6;" x="45" xlink:href="#m0e195be1ae" y="88.079785"/>
      </g>
     </g>
    </g>
    <g id="ytick_21">
     <g id="line2d_24">
      <g>
       <use style="stroke:#000000;stroke-width:0.6;" x="45" xlink:href="#m0e195be1ae" y="81.549485"/>
      </g>
     </g>
    </g>
    <g id="ytick_22">
     <g id="line2d_25">
      <g>
       <use style="stroke:#000000;stroke-width:0.6;" x="45" xlink:href="#m0e195be1ae" y="75.789353"/>
      </g>
     </g>
    </g>
    <g id="text_8">
     <!-- bolometric luminosity (10^43 erg/s) -->
     <defs>
      <path d="M 14.703125 0 
L 6.546875 0 
L 6.546875 71.578125 
L 15.328125 71.578125 
L 15.328125 46.046875 
Q 20.90625 53.03125 29.546875 53.03125 
Q 34.328125 53.03125 38.59375 51.09375 
Q 42.875 49.171875 45.625 45.671875 
Q 48.390625 42.1875 49.953125 37.25 
Q 51.515625 32.328125 51.515625 26.703125 
Q 51.515625 13.375 44.921875 6.09375 
Q 38.328125 -1.171875 29.109375 -1.171875 
Q 19.921875 -1.171875 14.703125 6.5 
z
M 14.59375 26.3125 
Q 14.59375 17 17.140625 12.84375 
Q 21.296875 6.0625 28.375 6.0625 
Q 34.125 6.0625 38.328125 11.0625 
Q 42.53125 16.0625 42.53125 25.984375 
Q 42.53125 36.140625 38.5 40.96875 
Q 34.46875 45.796875 28.765625 45.796875 
Q 23 45.796875 18.796875 40.796875 
Q 14.59375 35.796875 14.59375 26.3125 
z
" id="ArialMT-98"/>
      <path d="M 6.390625 0 
L 6.390625 71.578125 
L 15.1875 71.578125 
L 15.1875 0 
z
" id="ArialMT-108"/>
      <path d="M 40.578125 0 
L 40.578125 7.625 
Q 34.515625 -1.171875 24.125 -1.171875 
Q 19.53125 -1.171875 15.546875 0.578125 
Q 11.578125 2.34375 9.640625 5 
Q 7.71875 7.671875 6.9375 11.53125 
Q 6.390625 14.109375 6.390625 19.734375 
L 6.390625 51.859375 
L 15.1875 51.859375 
L 15.1875 23.09375 
Q 15.1875 16.21875 15.71875 13.8125 
Q 16.546875 10.359375 19.234375 8.375 
Q 21.921875 6.390625 25.875 6.390625 
Q 29.828125 6.390625 33.296875 8.421875 
Q 36.765625 10.453125 38.203125 13.9375 
Q 39.65625 17.4375 39.65625 24.078125 
L 39.65625 51.859375 
L 48.4375 51.859375 
L 48.4375 0 
z
" id="ArialMT-117"/>
      <path d="M 6.59375 0 
L 6.59375 51.859375 
L 14.5 51.859375 
L 14.5 44.484375 
Q 20.21875 53.03125 31 53.03125 
Q 35.6875 53.03125 39.625 51.34375 
Q 43.5625 49.65625 45.515625 46.921875 
Q 47.46875 44.1875 48.25 40.4375 
Q 48.734375 37.984375 48.734375 31.890625 
L 48.734375 0 
L 39.9375 0 
L 39.9375 31.546875 
Q 39.9375 36.921875 38.90625 39.578125 
Q 37.890625 42.234375 35.28125 43.8125 
Q 32.671875 45.40625 29.15625 45.40625 
Q 23.53125 45.40625 19.453125 41.84375 
Q 15.375 38.28125 15.375 28.328125 
L 15.375 0 
z
" id="ArialMT-110"/>
      <path d="M 23.390625 -21.046875 
Q 16.109375 -11.859375 11.078125 0.4375 
Q 6.0625 12.75 6.0625 25.921875 
Q 6.0625 37.546875 9.8125 48.1875 
Q 14.203125 60.546875 23.390625 72.796875 
L 29.6875 72.796875 
Q 23.78125 62.640625 21.875 58.296875 
Q 18.890625 51.5625 17.1875 44.234375 
Q 15.09375 35.109375 15.09375 25.875 
Q 15.09375 2.390625 29.6875 -21.046875 
z
" id="ArialMT-40"/>
      <path d="M 11.671875 33.6875 
L 2.640625 33.6875 
L 19.875 72.796875 
L 26.953125 72.796875 
L 44.28125 33.6875 
L 35.453125 33.6875 
L 23.390625 62.84375 
z
" id="ArialMT-94"/>
      <path d="M 4.203125 18.890625 
L 12.984375 20.0625 
Q 14.5 12.59375 18.140625 9.296875 
Q 21.78125 6 27 6 
Q 33.203125 6 37.46875 10.296875 
Q 41.75 14.59375 41.75 20.953125 
Q 41.75 27 37.796875 30.921875 
Q 33.84375 34.859375 27.734375 34.859375 
Q 25.25 34.859375 21.53125 33.890625 
L 22.515625 41.609375 
Q 23.390625 41.5 23.921875 41.5 
Q 29.546875 41.5 34.03125 44.421875 
Q 38.53125 47.359375 38.53125 53.46875 
Q 38.53125 58.296875 35.25 61.46875 
Q 31.984375 64.65625 26.8125 64.65625 
Q 21.6875 64.65625 18.265625 61.421875 
Q 14.84375 58.203125 13.875 51.765625 
L 5.078125 53.328125 
Q 6.6875 62.15625 12.390625 67.015625 
Q 18.109375 71.875 26.609375 71.875 
Q 32.46875 71.875 37.390625 69.359375 
Q 42.328125 66.84375 44.9375 62.5 
Q 47.5625 58.15625 47.5625 53.265625 
Q 47.5625 48.640625 45.0625 44.828125 
Q 42.578125 41.015625 37.703125 38.765625 
Q 44.046875 37.3125 47.5625 32.6875 
Q 51.078125 28.078125 51.078125 21.140625 
Q 51.078125 11.765625 44.234375 5.25 
Q 37.40625 -1.265625 26.953125 -1.265625 
Q 17.53125 -1.265625 11.296875 4.34375 
Q 5.078125 9.96875 4.203125 18.890625 
z
" id="ArialMT-51"/>
      <path d="M 4.984375 -4.296875 
L 13.53125 -5.5625 
Q 14.0625 -9.515625 16.5 -11.328125 
Q 19.78125 -13.765625 25.4375 -13.765625 
Q 31.546875 -13.765625 34.859375 -11.328125 
Q 38.1875 -8.890625 39.359375 -4.5 
Q 40.046875 -1.8125 39.984375 6.78125 
Q 34.234375 0 25.640625 0 
Q 14.9375 0 9.078125 7.71875 
Q 3.21875 15.4375 3.21875 26.21875 
Q 3.21875 33.640625 5.90625 39.90625 
Q 8.59375 46.1875 13.6875 49.609375 
Q 18.796875 53.03125 25.6875 53.03125 
Q 34.859375 53.03125 40.828125 45.609375 
L 40.828125 51.859375 
L 48.921875 51.859375 
L 48.921875 7.03125 
Q 48.921875 -5.078125 46.453125 -10.125 
Q 44 -15.1875 38.640625 -18.109375 
Q 33.296875 -21.046875 25.484375 -21.046875 
Q 16.21875 -21.046875 10.5 -16.875 
Q 4.78125 -12.703125 4.984375 -4.296875 
z
M 12.25 26.859375 
Q 12.25 16.65625 16.296875 11.96875 
Q 20.359375 7.28125 26.46875 7.28125 
Q 32.515625 7.28125 36.609375 11.9375 
Q 40.71875 16.609375 40.71875 26.5625 
Q 40.71875 36.078125 36.5 40.90625 
Q 32.28125 45.75 26.3125 45.75 
Q 20.453125 45.75 16.34375 40.984375 
Q 12.25 36.234375 12.25 26.859375 
z
" id="ArialMT-103"/>
      <path d="M 0 -1.21875 
L 20.75 72.796875 
L 27.78125 72.796875 
L 7.078125 -1.21875 
z
" id="ArialMT-47"/>
      <path d="M 12.359375 -21.046875 
L 6.0625 -21.046875 
Q 20.65625 2.390625 20.65625 25.875 
Q 20.65625 35.0625 18.5625 44.09375 
Q 16.890625 51.421875 13.921875 58.15625 
Q 12.015625 62.546875 6.0625 72.796875 
L 12.359375 72.796875 
Q 21.53125 60.546875 25.921875 48.1875 
Q 29.6875 37.546875 29.6875 25.921875 
Q 29.6875 12.75 24.625 0.4375 
Q 19.578125 -11.859375 12.359375 -21.046875 
z
" id="ArialMT-41"/>
     </defs>
     <g transform="translate(-9.809375 336.540625)rotate(-90)scale(0.2 -0.2)">
      <use xlink:href="#ArialMT-98"/>
      <use x="55.615234" xlink:href="#ArialMT-111"/>
      <use x="111.230469" xlink:href="#ArialMT-108"/>
      <use x="133.447266" xlink:href="#ArialMT-111"/>
      <use x="189.0625" xlink:href="#ArialMT-109"/>
      <use x="272.363281" xlink:href="#ArialMT-101"/>
      <use x="327.978516" xlink:href="#ArialMT-116"/>
      <use x="355.761719" xlink:href="#ArialMT-114"/>
      <use x="389.0625" xlink:href="#ArialMT-105"/>
      <use x="411.279297" xlink:href="#ArialMT-99"/>
      <use x="461.279297" xlink:href="#ArialMT-32"/>
      <use x="489.0625" xlink:href="#ArialMT-108"/>
      <use x="511.279297" xlink:href="#ArialMT-117"/>
      <use x="566.894531" xlink:href="#ArialMT-109"/>
      <use x="650.195312" xlink:href="#ArialMT-105"/>
      <use x="672.412109" xlink:href="#ArialMT-110"/>
      <use x="728.027344" xlink:href="#ArialMT-111"/>
      <use x="783.642578" xlink:href="#ArialMT-115"/>
      <use x="833.642578" xlink:href="#ArialMT-105"/>
      <use x="855.859375" xlink:href="#ArialMT-116"/>
      <use x="883.642578" xlink:href="#ArialMT-121"/>
      <use x="933.642578" xlink:href="#ArialMT-32"/>
      <use x="961.425781" xlink:href="#ArialMT-40"/>
      <use x="994.726562" xlink:href="#ArialMT-49"/>
      <use x="1050.341797" xlink:href="#ArialMT-48"/>
      <use x="1105.957031" xlink:href="#ArialMT-94"/>
      <use x="1152.880859" xlink:href="#ArialMT-52"/>
      <use x="1208.496094" xlink:href="#ArialMT-51"/>
      <use x="1264.111328" xlink:href="#ArialMT-32"/>
      <use x="1291.894531" xlink:href="#ArialMT-101"/>
      <use x="1347.509766" xlink:href="#ArialMT-114"/>
      <use x="1380.810547" xlink:href="#ArialMT-103"/>
      <use x="1436.425781" xlink:href="#ArialMT-47"/>
      <use x="1464.208984" xlink:href="#ArialMT-115"/>
      <use x="1514.208984" xlink:href="#ArialMT-41"/>
     </g>
    </g>
   </g>
   <g id="LineCollection_1">
    <path clip-path="url(#p0b2376b9fd)" d="M 57.681818 80.140709 
L 57.681818 78.90449 
" style="fill:none;stroke:#1f77b4;stroke-width:1.5;"/>
    <path clip-path="url(#p0b2376b9fd)" d="M 58.07916 80.623427 
L 58.07916 79.904462 
" style="fill:none;stroke:#1f77b4;stroke-width:1.5;"/>
    <path clip-path="url(#p0b2376b9fd)" d="M 59.654723 72.150225 
L 59.654723 71.275261 
" style="fill:none;stroke:#1f77b4;stroke-width:1.5;"/>
    <path clip-path="url(#p0b2376b9fd)" d="M 59.825375 73.101492 
L 59.825375 72.500899 
" style="fill:none;stroke:#1f77b4;stroke-width:1.5;"/>
    <path clip-path="url(#p0b2376b9fd)" d="M 62.058014 62.115457 
L 62.058014 61.22229 
" style="fill:none;stroke:#1f77b4;stroke-width:1.5;"/>
    <path clip-path="url(#p0b2376b9fd)" d="M 64.030029 57.992626 
L 64.030029 57.514391 
" style="fill:none;stroke:#1f77b4;stroke-width:1.5;"/>
    <path clip-path="url(#p0b2376b9fd)" d="M 67.288094 68.560659 
L 67.288094 68.0304 
" style="fill:none;stroke:#1f77b4;stroke-width:1.5;"/>
    <path clip-path="url(#p0b2376b9fd)" d="M 69.016519 70.034955 
L 69.016519 69.15609 
" style="fill:none;stroke:#1f77b4;stroke-width:1.5;"/>
    <path clip-path="url(#p0b2376b9fd)" d="M 72.550789 63.409875 
L 72.550789 62.426972 
" style="fill:none;stroke:#1f77b4;stroke-width:1.5;"/>
    <path clip-path="url(#p0b2376b9fd)" d="M 73.867377 65.858261 
L 73.867377 62.674388 
" style="fill:none;stroke:#1f77b4;stroke-width:1.5;"/>
    <path clip-path="url(#p0b2376b9fd)" d="M 74.272131 79.276944 
L 74.272131 78.363701 
" style="fill:none;stroke:#1f77b4;stroke-width:1.5;"/>
    <path clip-path="url(#p0b2376b9fd)" d="M 78.056382 77.388509 
L 78.056382 76.748718 
" style="fill:none;stroke:#1f77b4;stroke-width:1.5;"/>
    <path clip-path="url(#p0b2376b9fd)" d="M 80.19447 79.321167 
L 80.19447 77.795861 
" style="fill:none;stroke:#1f77b4;stroke-width:1.5;"/>
    <path clip-path="url(#p0b2376b9fd)" d="M 83.486467 86.197478 
L 83.486467 85.412457 
" style="fill:none;stroke:#1f77b4;stroke-width:1.5;"/>
    <path clip-path="url(#p0b2376b9fd)" d="M 84.93167 88.908528 
L 84.93167 87.999597 
" style="fill:none;stroke:#1f77b4;stroke-width:1.5;"/>
    <path clip-path="url(#p0b2376b9fd)" d="M 125.960034 143.787567 
L 125.960034 143.161756 
" style="fill:none;stroke:#1f77b4;stroke-width:1.5;"/>
    <path clip-path="url(#p0b2376b9fd)" d="M 128.429016 154.73704 
L 128.429016 153.276776 
" style="fill:none;stroke:#1f77b4;stroke-width:1.5;"/>
    <path clip-path="url(#p0b2376b9fd)" d="M 133.449537 168.121185 
L 133.449537 166.597316 
" style="fill:none;stroke:#1f77b4;stroke-width:1.5;"/>
    <path clip-path="url(#p0b2376b9fd)" d="M 138.501025 188.043564 
L 138.501025 187.064138 
" style="fill:none;stroke:#1f77b4;stroke-width:1.5;"/>
    <path clip-path="url(#p0b2376b9fd)" d="M 142.686209 187.360685 
L 142.686209 185.811853 
" style="fill:none;stroke:#1f77b4;stroke-width:1.5;"/>
    <path clip-path="url(#p0b2376b9fd)" d="M 144.392858 200.073879 
L 144.392858 198.899385 
" style="fill:none;stroke:#1f77b4;stroke-width:1.5;"/>
    <path clip-path="url(#p0b2376b9fd)" d="M 154.488028 199.171609 
L 154.488028 197.356316 
" style="fill:none;stroke:#1f77b4;stroke-width:1.5;"/>
    <path clip-path="url(#p0b2376b9fd)" d="M 165.470521 220.778197 
L 165.470521 219.770647 
" style="fill:none;stroke:#1f77b4;stroke-width:1.5;"/>
    <path clip-path="url(#p0b2376b9fd)" d="M 175.990738 223.930607 
L 175.990738 221.099522 
" style="fill:none;stroke:#1f77b4;stroke-width:1.5;"/>
    <path clip-path="url(#p0b2376b9fd)" d="M 186.108837 224.3611 
L 186.108837 223.406734 
" style="fill:none;stroke:#1f77b4;stroke-width:1.5;"/>
    <path clip-path="url(#p0b2376b9fd)" d="M 187.08175 212.102357 
L 187.08175 210.456266 
" style="fill:none;stroke:#1f77b4;stroke-width:1.5;"/>
    <path clip-path="url(#p0b2376b9fd)" d="M 199.158357 230.859159 
L 199.158357 228.97025 
" style="fill:none;stroke:#1f77b4;stroke-width:1.5;"/>
    <path clip-path="url(#p0b2376b9fd)" d="M 211.136527 218.497091 
L 211.136527 213.537119 
" style="fill:none;stroke:#1f77b4;stroke-width:1.5;"/>
    <path clip-path="url(#p0b2376b9fd)" d="M 215.06402 248.940267 
L 215.06402 247.713351 
" style="fill:none;stroke:#1f77b4;stroke-width:1.5;"/>
    <path clip-path="url(#p0b2376b9fd)" d="M 216.306286 249.578643 
L 216.306286 248.008414 
" style="fill:none;stroke:#1f77b4;stroke-width:1.5;"/>
    <path clip-path="url(#p0b2376b9fd)" d="M 217.43094 232.889489 
L 217.43094 231.871932 
" style="fill:none;stroke:#1f77b4;stroke-width:1.5;"/>
    <path clip-path="url(#p0b2376b9fd)" d="M 223.986997 252.392626 
L 223.986997 250.652319 
" style="fill:none;stroke:#1f77b4;stroke-width:1.5;"/>
    <path clip-path="url(#p0b2376b9fd)" d="M 225.037065 254.113184 
L 225.037065 252.438073 
" style="fill:none;stroke:#1f77b4;stroke-width:1.5;"/>
    <path clip-path="url(#p0b2376b9fd)" d="M 227.235705 261.977454 
L 227.235705 259.866203 
" style="fill:none;stroke:#1f77b4;stroke-width:1.5;"/>
    <path clip-path="url(#p0b2376b9fd)" d="M 228.176662 259.261322 
L 228.176662 254.592868 
" style="fill:none;stroke:#1f77b4;stroke-width:1.5;"/>
    <path clip-path="url(#p0b2376b9fd)" d="M 233.239813 245.970257 
L 233.239813 244.705013 
" style="fill:none;stroke:#1f77b4;stroke-width:1.5;"/>
    <path clip-path="url(#p0b2376b9fd)" d="M 235.912851 245.123299 
L 235.912851 243.523476 
" style="fill:none;stroke:#1f77b4;stroke-width:1.5;"/>
    <path clip-path="url(#p0b2376b9fd)" d="M 237.194848 249.756593 
L 237.194848 248.927946 
" style="fill:none;stroke:#1f77b4;stroke-width:1.5;"/>
    <path clip-path="url(#p0b2376b9fd)" d="M 238.328792 259.363325 
L 238.328792 257.986874 
" style="fill:none;stroke:#1f77b4;stroke-width:1.5;"/>
    <path clip-path="url(#p0b2376b9fd)" d="M 239.08638 258.320546 
L 239.08638 254.822639 
" style="fill:none;stroke:#1f77b4;stroke-width:1.5;"/>
    <path clip-path="url(#p0b2376b9fd)" d="M 240.50358 261.441684 
L 240.50358 259.471748 
" style="fill:none;stroke:#1f77b4;stroke-width:1.5;"/>
    <path clip-path="url(#p0b2376b9fd)" d="M 241.80475 269.009431 
L 241.80475 268.128997 
" style="fill:none;stroke:#1f77b4;stroke-width:1.5;"/>
    <path clip-path="url(#p0b2376b9fd)" d="M 242.914514 257.835515 
L 242.914514 256.500215 
" style="fill:none;stroke:#1f77b4;stroke-width:1.5;"/>
    <path clip-path="url(#p0b2376b9fd)" d="M 259.55108 273.618357 
L 259.55108 271.451889 
" style="fill:none;stroke:#1f77b4;stroke-width:1.5;"/>
    <path clip-path="url(#p0b2376b9fd)" d="M 266.598403 277.77096 
L 266.598403 276.048257 
" style="fill:none;stroke:#1f77b4;stroke-width:1.5;"/>
    <path clip-path="url(#p0b2376b9fd)" d="M 281.050891 289.30766 
L 281.050891 287.52664 
" style="fill:none;stroke:#1f77b4;stroke-width:1.5;"/>
    <path clip-path="url(#p0b2376b9fd)" d="M 295.522685 302.087648 
L 295.522685 299.351694 
" style="fill:none;stroke:#1f77b4;stroke-width:1.5;"/>
    <path clip-path="url(#p0b2376b9fd)" d="M 311.318182 304.400292 
L 311.318182 293.912246 
" style="fill:none;stroke:#1f77b4;stroke-width:1.5;"/>
   </g>
   <g id="line2d_26">
    <path clip-path="url(#p0b2376b9fd)" d="M 57.681818 55.8 
L 58.07916 58.569471 
L 59.654723 69.240543 
L 59.825375 70.364565 
L 62.058014 84.432396 
L 64.030029 95.770895 
L 67.288094 112.002028 
L 69.016519 119.293147 
L 72.550789 131.465771 
L 73.867377 135.146417 
L 74.272131 136.194698 
L 78.056382 144.370975 
L 80.19447 147.936811 
L 83.486467 152.385995 
L 84.93167 154.043423 
L 125.960034 184.185265 
L 128.429016 185.833138 
L 133.449537 189.182766 
L 138.501025 192.552183 
L 142.686209 195.343454 
L 144.392858 196.481644 
L 154.488028 203.214029 
L 165.470521 210.538004 
L 175.990738 217.553668 
L 186.108837 224.301165 
L 187.08175 224.949975 
L 199.158357 233.003548 
L 211.136527 240.991476 
L 215.06402 243.610619 
L 216.306286 244.439053 
L 217.43094 245.189056 
L 223.986997 249.561119 
L 225.037065 250.261382 
L 227.235705 251.727597 
L 228.176662 252.355096 
L 233.239813 255.731579 
L 235.912851 257.514159 
L 237.194848 258.369088 
L 238.328792 259.125286 
L 239.08638 259.630502 
L 240.50358 260.575596 
L 241.80475 261.443312 
L 242.914514 262.183384 
L 259.55108 273.277875 
L 266.598403 277.97755 
L 281.050891 287.615536 
L 295.522685 297.266396 
L 311.318182 307.8 
" style="fill:none;stroke:#ff7f0e;stroke-linecap:square;stroke-width:1.5;"/>
   </g>
   <g id="line2d_27">
    <defs>
     <path d="M 0 3 
C 0.795609 3 1.55874 2.683901 2.12132 2.12132 
C 2.683901 1.55874 3 0.795609 3 0 
C 3 -0.795609 2.683901 -1.55874 2.12132 -2.12132 
C 1.55874 -2.683901 0.795609 -3 0 -3 
C -0.795609 -3 -1.55874 -2.683901 -2.12132 -2.12132 
C -2.683901 -1.55874 -3 -0.795609 -3 0 
C -3 0.795609 -2.683901 1.55874 -2.12132 2.12132 
C -1.55874 2.683901 -0.795609 3 0 3 
z
" id="m58d71f099d" style="stroke:#1f77b4;"/>
    </defs>
    <g clip-path="url(#p0b2376b9fd)">
     <use style="fill:#1f77b4;stroke:#1f77b4;" x="57.681818" xlink:href="#m58d71f099d" y="79.518694"/>
     <use style="fill:#1f77b4;stroke:#1f77b4;" x="58.07916" xlink:href="#m58d71f099d" y="80.262624"/>
     <use style="fill:#1f77b4;stroke:#1f77b4;" x="59.654723" xlink:href="#m58d71f099d" y="71.710787"/>
     <use style="fill:#1f77b4;stroke:#1f77b4;" x="59.825375" xlink:href="#m58d71f099d" y="72.800274"/>
     <use style="fill:#1f77b4;stroke:#1f77b4;" x="62.058014" xlink:href="#m58d71f099d" y="61.666835"/>
     <use style="fill:#1f77b4;stroke:#1f77b4;" x="64.030029" xlink:href="#m58d71f099d" y="57.752924"/>
     <use style="fill:#1f77b4;stroke:#1f77b4;" x="67.288094" xlink:href="#m58d71f099d" y="68.294811"/>
     <use style="fill:#1f77b4;stroke:#1f77b4;" x="69.016519" xlink:href="#m58d71f099d" y="69.593548"/>
     <use style="fill:#1f77b4;stroke:#1f77b4;" x="72.550789" xlink:href="#m58d71f099d" y="62.915955"/>
     <use style="fill:#1f77b4;stroke:#1f77b4;" x="73.867377" xlink:href="#m58d71f099d" y="64.240419"/>
     <use style="fill:#1f77b4;stroke:#1f77b4;" x="74.272131" xlink:href="#m58d71f099d" y="78.818191"/>
     <use style="fill:#1f77b4;stroke:#1f77b4;" x="78.056382" xlink:href="#m58d71f099d" y="77.067567"/>
     <use style="fill:#1f77b4;stroke:#1f77b4;" x="80.19447" xlink:href="#m58d71f099d" y="78.552568"/>
     <use style="fill:#1f77b4;stroke:#1f77b4;" x="83.486467" xlink:href="#m58d71f099d" y="85.803392"/>
     <use style="fill:#1f77b4;stroke:#1f77b4;" x="84.93167" xlink:href="#m58d71f099d" y="88.451951"/>
     <use style="fill:#1f77b4;stroke:#1f77b4;" x="125.960034" xlink:href="#m58d71f099d" y="143.473661"/>
     <use style="fill:#1f77b4;stroke:#1f77b4;" x="128.429016" xlink:href="#m58d71f099d" y="154.001458"/>
     <use style="fill:#1f77b4;stroke:#1f77b4;" x="133.449537" xlink:href="#m58d71f099d" y="167.353316"/>
     <use style="fill:#1f77b4;stroke:#1f77b4;" x="138.501025" xlink:href="#m58d71f099d" y="187.551399"/>
     <use style="fill:#1f77b4;stroke:#1f77b4;" x="142.686209" xlink:href="#m58d71f099d" y="186.580137"/>
     <use style="fill:#1f77b4;stroke:#1f77b4;" x="144.392858" xlink:href="#m58d71f099d" y="199.483106"/>
     <use style="fill:#1f77b4;stroke:#1f77b4;" x="154.488028" xlink:href="#m58d71f099d" y="198.25554"/>
     <use style="fill:#1f77b4;stroke:#1f77b4;" x="165.470521" xlink:href="#m58d71f099d" y="220.271827"/>
     <use style="fill:#1f77b4;stroke:#1f77b4;" x="175.990738" xlink:href="#m58d71f099d" y="222.494581"/>
     <use style="fill:#1f77b4;stroke:#1f77b4;" x="186.108837" xlink:href="#m58d71f099d" y="223.881589"/>
     <use style="fill:#1f77b4;stroke:#1f77b4;" x="187.08175" xlink:href="#m58d71f099d" y="211.272386"/>
     <use style="fill:#1f77b4;stroke:#1f77b4;" x="199.158357" xlink:href="#m58d71f099d" y="229.905585"/>
     <use style="fill:#1f77b4;stroke:#1f77b4;" x="211.136527" xlink:href="#m58d71f099d" y="215.954251"/>
     <use style="fill:#1f77b4;stroke:#1f77b4;" x="215.06402" xlink:href="#m58d71f099d" y="248.322962"/>
     <use style="fill:#1f77b4;stroke:#1f77b4;" x="216.306286" xlink:href="#m58d71f099d" y="248.787227"/>
     <use style="fill:#1f77b4;stroke:#1f77b4;" x="217.43094" xlink:href="#m58d71f099d" y="232.378064"/>
     <use style="fill:#1f77b4;stroke:#1f77b4;" x="223.986997" xlink:href="#m58d71f099d" y="251.514732"/>
     <use style="fill:#1f77b4;stroke:#1f77b4;" x="225.037065" xlink:href="#m58d71f099d" y="253.268457"/>
     <use style="fill:#1f77b4;stroke:#1f77b4;" x="227.235705" xlink:href="#m58d71f099d" y="260.910436"/>
     <use style="fill:#1f77b4;stroke:#1f77b4;" x="228.176662" xlink:href="#m58d71f099d" y="256.87141"/>
     <use style="fill:#1f77b4;stroke:#1f77b4;" x="233.239813" xlink:href="#m58d71f099d" y="245.333543"/>
     <use style="fill:#1f77b4;stroke:#1f77b4;" x="235.912851" xlink:href="#m58d71f099d" y="244.316846"/>
     <use style="fill:#1f77b4;stroke:#1f77b4;" x="237.194848" xlink:href="#m58d71f099d" y="249.340514"/>
     <use style="fill:#1f77b4;stroke:#1f77b4;" x="238.328792" xlink:href="#m58d71f099d" y="258.670257"/>
     <use style="fill:#1f77b4;stroke:#1f77b4;" x="239.08638" xlink:href="#m58d71f099d" y="256.540326"/>
     <use style="fill:#1f77b4;stroke:#1f77b4;" x="240.50358" xlink:href="#m58d71f099d" y="260.446798"/>
     <use style="fill:#1f77b4;stroke:#1f77b4;" x="241.80475" xlink:href="#m58d71f099d" y="268.567233"/>
     <use style="fill:#1f77b4;stroke:#1f77b4;" x="242.914514" xlink:href="#m58d71f099d" y="257.163307"/>
     <use style="fill:#1f77b4;stroke:#1f77b4;" x="259.55108" xlink:href="#m58d71f099d" y="272.523127"/>
     <use style="fill:#1f77b4;stroke:#1f77b4;" x="266.598403" xlink:href="#m58d71f099d" y="276.902023"/>
     <use style="fill:#1f77b4;stroke:#1f77b4;" x="281.050891" xlink:href="#m58d71f099d" y="288.409043"/>
     <use style="fill:#1f77b4;stroke:#1f77b4;" x="295.522685" xlink:href="#m58d71f099d" y="300.700541"/>
     <use style="fill:#1f77b4;stroke:#1f77b4;" x="311.318182" xlink:href="#m58d71f099d" y="298.875649"/>
    </g>
   </g>
   <g id="patch_3">
    <path d="M 45 320.4 
L 45 43.2 
" style="fill:none;stroke:#000000;stroke-linecap:square;stroke-linejoin:miter;stroke-width:0.8;"/>
   </g>
   <g id="patch_4">
    <path d="M 324 320.4 
L 324 43.2 
" style="fill:none;stroke:#000000;stroke-linecap:square;stroke-linejoin:miter;stroke-width:0.8;"/>
   </g>
   <g id="patch_5">
    <path d="M 45 320.4 
L 324 320.4 
" style="fill:none;stroke:#000000;stroke-linecap:square;stroke-linejoin:miter;stroke-width:0.8;"/>
   </g>
   <g id="patch_6">
    <path d="M 45 43.2 
L 324 43.2 
" style="fill:none;stroke:#000000;stroke-linecap:square;stroke-linejoin:miter;stroke-width:0.8;"/>
   </g>
   <g id="legend_1">
    <g id="patch_7">
     <path d="M 138.696875 94.170937 
L 314.2 94.170937 
Q 317 94.170937 317 91.370937 
L 317 53 
Q 317 50.2 314.2 50.2 
L 138.696875 50.2 
Q 135.896875 50.2 135.896875 53 
L 135.896875 91.370937 
Q 135.896875 94.170937 138.696875 94.170937 
z
" style="fill:#ffffff;opacity:0.8;stroke:#cccccc;stroke-linejoin:miter;"/>
    </g>
    <g id="line2d_28">
     <path d="M 141.496875 60.920937 
L 169.496875 60.920937 
" style="fill:none;stroke:#ff7f0e;stroke-linecap:square;stroke-width:1.5;"/>
    </g>
    <g id="line2d_29"/>
    <g id="text_9">
     <!-- Ni fit -->
     <defs>
      <path d="M 7.625 0 
L 7.625 71.578125 
L 17.328125 71.578125 
L 54.9375 15.375 
L 54.9375 71.578125 
L 64.015625 71.578125 
L 64.015625 0 
L 54.296875 0 
L 16.703125 56.25 
L 16.703125 0 
z
" id="ArialMT-78"/>
     </defs>
     <g transform="translate(180.696875 65.820937)scale(0.14 -0.14)">
      <use xlink:href="#ArialMT-78"/>
      <use x="72.216797" xlink:href="#ArialMT-105"/>
      <use x="94.433594" xlink:href="#ArialMT-32"/>
      <use x="122.216797" xlink:href="#ArialMT-102"/>
      <use x="150" xlink:href="#ArialMT-105"/>
      <use x="172.216797" xlink:href="#ArialMT-116"/>
     </g>
    </g>
    <g id="LineCollection_2">
     <path d="M 155.496875 87.724375 
L 155.496875 73.724375 
" style="fill:none;stroke:#1f77b4;stroke-width:1.5;"/>
    </g>
    <g id="line2d_30"/>
    <g id="line2d_31">
     <g>
      <use style="fill:#1f77b4;stroke:#1f77b4;" x="155.496875" xlink:href="#m58d71f099d" y="80.724375"/>
     </g>
    </g>
    <g id="text_10">
     <!-- bolometric luminosity -->
     <g transform="translate(180.696875 85.624375)scale(0.14 -0.14)">
      <use xlink:href="#ArialMT-98"/>
      <use x="55.615234" xlink:href="#ArialMT-111"/>
      <use x="111.230469" xlink:href="#ArialMT-108"/>
      <use x="133.447266" xlink:href="#ArialMT-111"/>
      <use x="189.0625" xlink:href="#ArialMT-109"/>
      <use x="272.363281" xlink:href="#ArialMT-101"/>
      <use x="327.978516" xlink:href="#ArialMT-116"/>
      <use x="355.761719" xlink:href="#ArialMT-114"/>
      <use x="389.0625" xlink:href="#ArialMT-105"/>
      <use x="411.279297" xlink:href="#ArialMT-99"/>
      <use x="461.279297" xlink:href="#ArialMT-32"/>
      <use x="489.0625" xlink:href="#ArialMT-108"/>
      <use x="511.279297" xlink:href="#ArialMT-117"/>
      <use x="566.894531" xlink:href="#ArialMT-109"/>
      <use x="650.195312" xlink:href="#ArialMT-105"/>
      <use x="672.412109" xlink:href="#ArialMT-110"/>
      <use x="728.027344" xlink:href="#ArialMT-111"/>
      <use x="783.642578" xlink:href="#ArialMT-115"/>
      <use x="833.642578" xlink:href="#ArialMT-105"/>
      <use x="855.859375" xlink:href="#ArialMT-116"/>
      <use x="883.642578" xlink:href="#ArialMT-121"/>
     </g>
    </g>
   </g>
  </g>
 </g>
 <defs>
  <clipPath id="p0b2376b9fd">
   <rect height="277.2" width="279" x="45" y="43.2"/>
  </clipPath>
 </defs>
</svg>
