<?xml version="1.0" encoding="utf-8" standalone="no"?>
<!DOCTYPE svg PUBLIC "-//W3C//DTD SVG 1.1//EN"
  "http://www.w3.org/Graphics/SVG/1.1/DTD/svg11.dtd">
<!-- Created with matplotlib (https://matplotlib.org/) -->
<svg height="432pt" version="1.1" viewBox="0 0 648 432" width="648pt" xmlns="http://www.w3.org/2000/svg" xmlns:xlink="http://www.w3.org/1999/xlink">
 <defs>
  <style type="text/css">
*{stroke-linecap:butt;stroke-linejoin:round;}
  </style>
 </defs>
 <g id="figure_1">
  <g id="patch_1">
   <path d="M 0 432 
L 648 432 
L 648 0 
L 0 0 
z
" style="fill:#ffffff;"/>
  </g>
  <g id="axes_1">
   <g id="patch_2">
    <path d="M 81 384.48 
L 583.2 384.48 
L 583.2 51.84 
L 81 51.84 
z
" style="fill:#ffffff;"/>
   </g>
   <g id="matplotlib.axis_1">
    <g id="xtick_1">
     <g id="line2d_1">
      <defs>
       <path d="M 0 0 
L 0 3.5 
" id="mec03153600" style="stroke:#000000;stroke-width:0.8;"/>
      </defs>
      <g>
       <use style="stroke:#000000;stroke-width:0.8;" x="130.067261" xlink:href="#mec03153600" y="384.48"/>
      </g>
     </g>
     <g id="text_1">
      <!-- 20 -->
      <defs>
       <path d="M 50.34375 8.453125 
L 50.34375 0 
L 3.03125 0 
Q 2.9375 3.171875 4.046875 6.109375 
Q 5.859375 10.9375 9.828125 15.625 
Q 13.8125 20.3125 21.34375 26.46875 
Q 33.015625 36.03125 37.109375 41.625 
Q 41.21875 47.21875 41.21875 52.203125 
Q 41.21875 57.421875 37.46875 61 
Q 33.734375 64.59375 27.734375 64.59375 
Q 21.390625 64.59375 17.578125 60.78125 
Q 13.765625 56.984375 13.71875 50.25 
L 4.6875 51.171875 
Q 5.609375 61.28125 11.65625 66.578125 
Q 17.71875 71.875 27.9375 71.875 
Q 38.234375 71.875 44.234375 66.15625 
Q 50.25 60.453125 50.25 52 
Q 50.25 47.703125 48.484375 43.546875 
Q 46.734375 39.40625 42.65625 34.8125 
Q 38.578125 30.21875 29.109375 22.21875 
Q 21.1875 15.578125 18.9375 13.203125 
Q 16.703125 10.84375 15.234375 8.453125 
z
" id="ArialMT-50"/>
       <path d="M 4.15625 35.296875 
Q 4.15625 48 6.765625 55.734375 
Q 9.375 63.484375 14.515625 67.671875 
Q 19.671875 71.875 27.484375 71.875 
Q 33.25 71.875 37.59375 69.546875 
Q 41.9375 67.234375 44.765625 62.859375 
Q 47.609375 58.5 49.21875 52.21875 
Q 50.828125 45.953125 50.828125 35.296875 
Q 50.828125 22.703125 48.234375 14.96875 
Q 45.65625 7.234375 40.5 3 
Q 35.359375 -1.21875 27.484375 -1.21875 
Q 17.140625 -1.21875 11.234375 6.203125 
Q 4.15625 15.140625 4.15625 35.296875 
z
M 13.1875 35.296875 
Q 13.1875 17.671875 17.3125 11.828125 
Q 21.4375 6 27.484375 6 
Q 33.546875 6 37.671875 11.859375 
Q 41.796875 17.71875 41.796875 35.296875 
Q 41.796875 52.984375 37.671875 58.78125 
Q 33.546875 64.59375 27.390625 64.59375 
Q 21.34375 64.59375 17.71875 59.46875 
Q 13.1875 52.9375 13.1875 35.296875 
z
" id="ArialMT-48"/>
      </defs>
      <g transform="translate(123.394136 400.069375)scale(0.12 -0.12)">
       <use xlink:href="#ArialMT-50"/>
       <use x="55.615234" xlink:href="#ArialMT-48"/>
      </g>
     </g>
    </g>
    <g id="xtick_2">
     <g id="line2d_2">
      <g>
       <use style="stroke:#000000;stroke-width:0.8;" x="190.601354" xlink:href="#mec03153600" y="384.48"/>
      </g>
     </g>
     <g id="text_2">
      <!-- 40 -->
      <defs>
       <path d="M 32.328125 0 
L 32.328125 17.140625 
L 1.265625 17.140625 
L 1.265625 25.203125 
L 33.9375 71.578125 
L 41.109375 71.578125 
L 41.109375 25.203125 
L 50.78125 25.203125 
L 50.78125 17.140625 
L 41.109375 17.140625 
L 41.109375 0 
z
M 32.328125 25.203125 
L 32.328125 57.46875 
L 9.90625 25.203125 
z
" id="ArialMT-52"/>
      </defs>
      <g transform="translate(183.928229 400.069375)scale(0.12 -0.12)">
       <use xlink:href="#ArialMT-52"/>
       <use x="55.615234" xlink:href="#ArialMT-48"/>
      </g>
     </g>
    </g>
    <g id="xtick_3">
     <g id="line2d_3">
      <g>
       <use style="stroke:#000000;stroke-width:0.8;" x="251.135448" xlink:href="#mec03153600" y="384.48"/>
      </g>
     </g>
     <g id="text_3">
      <!-- 60 -->
      <defs>
       <path d="M 49.75 54.046875 
L 41.015625 53.375 
Q 39.84375 58.546875 37.703125 60.890625 
Q 34.125 64.65625 28.90625 64.65625 
Q 24.703125 64.65625 21.53125 62.3125 
Q 17.390625 59.28125 14.984375 53.46875 
Q 12.59375 47.65625 12.5 36.921875 
Q 15.671875 41.75 20.265625 44.09375 
Q 24.859375 46.4375 29.890625 46.4375 
Q 38.671875 46.4375 44.84375 39.96875 
Q 51.03125 33.5 51.03125 23.25 
Q 51.03125 16.5 48.125 10.71875 
Q 45.21875 4.9375 40.140625 1.859375 
Q 35.0625 -1.21875 28.609375 -1.21875 
Q 17.625 -1.21875 10.6875 6.859375 
Q 3.765625 14.9375 3.765625 33.5 
Q 3.765625 54.25 11.421875 63.671875 
Q 18.109375 71.875 29.4375 71.875 
Q 37.890625 71.875 43.28125 67.140625 
Q 48.6875 62.40625 49.75 54.046875 
z
M 13.875 23.1875 
Q 13.875 18.65625 15.796875 14.5 
Q 17.71875 10.359375 21.1875 8.171875 
Q 24.65625 6 28.46875 6 
Q 34.03125 6 38.03125 10.484375 
Q 42.046875 14.984375 42.046875 22.703125 
Q 42.046875 30.125 38.078125 34.390625 
Q 34.125 38.671875 28.125 38.671875 
Q 22.171875 38.671875 18.015625 34.390625 
Q 13.875 30.125 13.875 23.1875 
z
" id="ArialMT-54"/>
      </defs>
      <g transform="translate(244.462323 400.069375)scale(0.12 -0.12)">
       <use xlink:href="#ArialMT-54"/>
       <use x="55.615234" xlink:href="#ArialMT-48"/>
      </g>
     </g>
    </g>
    <g id="xtick_4">
     <g id="line2d_4">
      <g>
       <use style="stroke:#000000;stroke-width:0.8;" x="311.669541" xlink:href="#mec03153600" y="384.48"/>
      </g>
     </g>
     <g id="text_4">
      <!-- 80 -->
      <defs>
       <path d="M 17.671875 38.8125 
Q 12.203125 40.828125 9.5625 44.53125 
Q 6.9375 48.25 6.9375 53.421875 
Q 6.9375 61.234375 12.546875 66.546875 
Q 18.171875 71.875 27.484375 71.875 
Q 36.859375 71.875 42.578125 66.421875 
Q 48.296875 60.984375 48.296875 53.171875 
Q 48.296875 48.1875 45.671875 44.5 
Q 43.0625 40.828125 37.75 38.8125 
Q 44.34375 36.671875 47.78125 31.875 
Q 51.21875 27.09375 51.21875 20.453125 
Q 51.21875 11.28125 44.71875 5.03125 
Q 38.234375 -1.21875 27.640625 -1.21875 
Q 17.046875 -1.21875 10.546875 5.046875 
Q 4.046875 11.328125 4.046875 20.703125 
Q 4.046875 27.6875 7.59375 32.390625 
Q 11.140625 37.109375 17.671875 38.8125 
z
M 15.921875 53.71875 
Q 15.921875 48.640625 19.1875 45.40625 
Q 22.46875 42.1875 27.6875 42.1875 
Q 32.765625 42.1875 36.015625 45.375 
Q 39.265625 48.578125 39.265625 53.21875 
Q 39.265625 58.0625 35.90625 61.359375 
Q 32.5625 64.65625 27.59375 64.65625 
Q 22.5625 64.65625 19.234375 61.421875 
Q 15.921875 58.203125 15.921875 53.71875 
z
M 13.09375 20.65625 
Q 13.09375 16.890625 14.875 13.375 
Q 16.65625 9.859375 20.171875 7.921875 
Q 23.6875 6 27.734375 6 
Q 34.03125 6 38.125 10.046875 
Q 42.234375 14.109375 42.234375 20.359375 
Q 42.234375 26.703125 38.015625 30.859375 
Q 33.796875 35.015625 27.4375 35.015625 
Q 21.234375 35.015625 17.15625 30.90625 
Q 13.09375 26.8125 13.09375 20.65625 
z
" id="ArialMT-56"/>
      </defs>
      <g transform="translate(304.996416 400.069375)scale(0.12 -0.12)">
       <use xlink:href="#ArialMT-56"/>
       <use x="55.615234" xlink:href="#ArialMT-48"/>
      </g>
     </g>
    </g>
    <g id="xtick_5">
     <g id="line2d_5">
      <g>
       <use style="stroke:#000000;stroke-width:0.8;" x="372.203635" xlink:href="#mec03153600" y="384.48"/>
      </g>
     </g>
     <g id="text_5">
      <!-- 100 -->
      <defs>
       <path d="M 37.25 0 
L 28.46875 0 
L 28.46875 56 
Q 25.296875 52.984375 20.140625 49.953125 
Q 14.984375 46.921875 10.890625 45.40625 
L 10.890625 53.90625 
Q 18.265625 57.375 23.78125 62.296875 
Q 29.296875 67.234375 31.59375 71.875 
L 37.25 71.875 
z
" id="ArialMT-49"/>
      </defs>
      <g transform="translate(362.193947 400.069375)scale(0.12 -0.12)">
       <use xlink:href="#ArialMT-49"/>
       <use x="55.615234" xlink:href="#ArialMT-48"/>
       <use x="111.230469" xlink:href="#ArialMT-48"/>
      </g>
     </g>
    </g>
    <g id="xtick_6">
     <g id="line2d_6">
      <g>
       <use style="stroke:#000000;stroke-width:0.8;" x="432.737729" xlink:href="#mec03153600" y="384.48"/>
      </g>
     </g>
     <g id="text_6">
      <!-- 120 -->
      <g transform="translate(422.728041 400.069375)scale(0.12 -0.12)">
       <use xlink:href="#ArialMT-49"/>
       <use x="55.615234" xlink:href="#ArialMT-50"/>
       <use x="111.230469" xlink:href="#ArialMT-48"/>
      </g>
     </g>
    </g>
    <g id="xtick_7">
     <g id="line2d_7">
      <g>
       <use style="stroke:#000000;stroke-width:0.8;" x="493.271822" xlink:href="#mec03153600" y="384.48"/>
      </g>
     </g>
     <g id="text_7">
      <!-- 140 -->
      <g transform="translate(483.262135 400.069375)scale(0.12 -0.12)">
       <use xlink:href="#ArialMT-49"/>
       <use x="55.615234" xlink:href="#ArialMT-52"/>
       <use x="111.230469" xlink:href="#ArialMT-48"/>
      </g>
     </g>
    </g>
    <g id="xtick_8">
     <g id="line2d_8">
      <g>
       <use style="stroke:#000000;stroke-width:0.8;" x="553.805916" xlink:href="#mec03153600" y="384.48"/>
      </g>
     </g>
     <g id="text_8">
      <!-- 160 -->
      <g transform="translate(543.796228 400.069375)scale(0.12 -0.12)">
       <use xlink:href="#ArialMT-49"/>
       <use x="55.615234" xlink:href="#ArialMT-54"/>
       <use x="111.230469" xlink:href="#ArialMT-48"/>
      </g>
     </g>
    </g>
    <g id="text_9">
     <!-- Rest-frame days from discovery -->
     <defs>
      <path d="M 7.859375 0 
L 7.859375 71.578125 
L 39.59375 71.578125 
Q 49.171875 71.578125 54.140625 69.640625 
Q 59.125 67.71875 62.109375 62.828125 
Q 65.09375 57.953125 65.09375 52.046875 
Q 65.09375 44.4375 60.15625 39.203125 
Q 55.21875 33.984375 44.921875 32.5625 
Q 48.6875 30.765625 50.640625 29 
Q 54.78125 25.203125 58.5 19.484375 
L 70.953125 0 
L 59.03125 0 
L 49.5625 14.890625 
Q 45.40625 21.34375 42.71875 24.75 
Q 40.046875 28.171875 37.921875 29.53125 
Q 35.796875 30.90625 33.59375 31.453125 
Q 31.984375 31.78125 28.328125 31.78125 
L 17.328125 31.78125 
L 17.328125 0 
z
M 17.328125 39.984375 
L 37.703125 39.984375 
Q 44.1875 39.984375 47.84375 41.328125 
Q 51.515625 42.671875 53.421875 45.625 
Q 55.328125 48.578125 55.328125 52.046875 
Q 55.328125 57.125 51.640625 60.390625 
Q 47.953125 63.671875 39.984375 63.671875 
L 17.328125 63.671875 
z
" id="ArialMT-82"/>
      <path d="M 42.09375 16.703125 
L 51.171875 15.578125 
Q 49.03125 7.625 43.21875 3.21875 
Q 37.40625 -1.171875 28.375 -1.171875 
Q 17 -1.171875 10.328125 5.828125 
Q 3.65625 12.84375 3.65625 25.484375 
Q 3.65625 38.578125 10.390625 45.796875 
Q 17.140625 53.03125 27.875 53.03125 
Q 38.28125 53.03125 44.875 45.953125 
Q 51.46875 38.875 51.46875 26.03125 
Q 51.46875 25.25 51.421875 23.6875 
L 12.75 23.6875 
Q 13.234375 15.140625 17.578125 10.59375 
Q 21.921875 6.0625 28.421875 6.0625 
Q 33.25 6.0625 36.671875 8.59375 
Q 40.09375 11.140625 42.09375 16.703125 
z
M 13.234375 30.90625 
L 42.1875 30.90625 
Q 41.609375 37.453125 38.875 40.71875 
Q 34.671875 45.796875 27.984375 45.796875 
Q 21.921875 45.796875 17.796875 41.75 
Q 13.671875 37.703125 13.234375 30.90625 
z
" id="ArialMT-101"/>
      <path d="M 3.078125 15.484375 
L 11.765625 16.84375 
Q 12.5 11.625 15.84375 8.84375 
Q 19.1875 6.0625 25.203125 6.0625 
Q 31.25 6.0625 34.171875 8.515625 
Q 37.109375 10.984375 37.109375 14.3125 
Q 37.109375 17.28125 34.515625 19 
Q 32.71875 20.171875 25.53125 21.96875 
Q 15.875 24.421875 12.140625 26.203125 
Q 8.40625 27.984375 6.46875 31.125 
Q 4.546875 34.28125 4.546875 38.09375 
Q 4.546875 41.546875 6.125 44.5 
Q 7.71875 47.46875 10.453125 49.421875 
Q 12.5 50.921875 16.03125 51.96875 
Q 19.578125 53.03125 23.640625 53.03125 
Q 29.734375 53.03125 34.34375 51.265625 
Q 38.96875 49.515625 41.15625 46.5 
Q 43.359375 43.5 44.1875 38.484375 
L 35.59375 37.3125 
Q 35.015625 41.3125 32.203125 43.546875 
Q 29.390625 45.796875 24.265625 45.796875 
Q 18.21875 45.796875 15.625 43.796875 
Q 13.03125 41.796875 13.03125 39.109375 
Q 13.03125 37.40625 14.109375 36.03125 
Q 15.1875 34.625 17.484375 33.6875 
Q 18.796875 33.203125 25.25 31.453125 
Q 34.578125 28.953125 38.25 27.359375 
Q 41.9375 25.78125 44.03125 22.75 
Q 46.140625 19.734375 46.140625 15.234375 
Q 46.140625 10.84375 43.578125 6.953125 
Q 41.015625 3.078125 36.171875 0.953125 
Q 31.34375 -1.171875 25.25 -1.171875 
Q 15.140625 -1.171875 9.84375 3.03125 
Q 4.546875 7.234375 3.078125 15.484375 
z
" id="ArialMT-115"/>
      <path d="M 25.78125 7.859375 
L 27.046875 0.09375 
Q 23.34375 -0.6875 20.40625 -0.6875 
Q 15.625 -0.6875 12.984375 0.828125 
Q 10.359375 2.34375 9.28125 4.8125 
Q 8.203125 7.28125 8.203125 15.1875 
L 8.203125 45.015625 
L 1.765625 45.015625 
L 1.765625 51.859375 
L 8.203125 51.859375 
L 8.203125 64.703125 
L 16.9375 69.96875 
L 16.9375 51.859375 
L 25.78125 51.859375 
L 25.78125 45.015625 
L 16.9375 45.015625 
L 16.9375 14.703125 
Q 16.9375 10.9375 17.40625 9.859375 
Q 17.875 8.796875 18.921875 8.15625 
Q 19.96875 7.515625 21.921875 7.515625 
Q 23.390625 7.515625 25.78125 7.859375 
z
" id="ArialMT-116"/>
      <path d="M 3.171875 21.484375 
L 3.171875 30.328125 
L 30.171875 30.328125 
L 30.171875 21.484375 
z
" id="ArialMT-45"/>
      <path d="M 8.6875 0 
L 8.6875 45.015625 
L 0.921875 45.015625 
L 0.921875 51.859375 
L 8.6875 51.859375 
L 8.6875 57.375 
Q 8.6875 62.59375 9.625 65.140625 
Q 10.890625 68.5625 14.078125 70.671875 
Q 17.28125 72.796875 23.046875 72.796875 
Q 26.765625 72.796875 31.25 71.921875 
L 29.9375 64.265625 
Q 27.203125 64.75 24.75 64.75 
Q 20.75 64.75 19.09375 63.03125 
Q 17.4375 61.328125 17.4375 56.640625 
L 17.4375 51.859375 
L 27.546875 51.859375 
L 27.546875 45.015625 
L 17.4375 45.015625 
L 17.4375 0 
z
" id="ArialMT-102"/>
      <path d="M 6.5 0 
L 6.5 51.859375 
L 14.40625 51.859375 
L 14.40625 44 
Q 17.4375 49.515625 20 51.265625 
Q 22.5625 53.03125 25.640625 53.03125 
Q 30.078125 53.03125 34.671875 50.203125 
L 31.640625 42.046875 
Q 28.421875 43.953125 25.203125 43.953125 
Q 22.3125 43.953125 20.015625 42.21875 
Q 17.71875 40.484375 16.75 37.40625 
Q 15.28125 32.71875 15.28125 27.15625 
L 15.28125 0 
z
" id="ArialMT-114"/>
      <path d="M 40.4375 6.390625 
Q 35.546875 2.25 31.03125 0.53125 
Q 26.515625 -1.171875 21.34375 -1.171875 
Q 12.796875 -1.171875 8.203125 3 
Q 3.609375 7.171875 3.609375 13.671875 
Q 3.609375 17.484375 5.34375 20.625 
Q 7.078125 23.78125 9.890625 25.6875 
Q 12.703125 27.59375 16.21875 28.5625 
Q 18.796875 29.25 24.03125 29.890625 
Q 34.671875 31.15625 39.703125 32.90625 
Q 39.75 34.71875 39.75 35.203125 
Q 39.75 40.578125 37.25 42.78125 
Q 33.890625 45.75 27.25 45.75 
Q 21.046875 45.75 18.09375 43.578125 
Q 15.140625 41.40625 13.71875 35.890625 
L 5.125 37.0625 
Q 6.296875 42.578125 8.984375 45.96875 
Q 11.671875 49.359375 16.75 51.1875 
Q 21.828125 53.03125 28.515625 53.03125 
Q 35.15625 53.03125 39.296875 51.46875 
Q 43.453125 49.90625 45.40625 47.53125 
Q 47.359375 45.171875 48.140625 41.546875 
Q 48.578125 39.3125 48.578125 33.453125 
L 48.578125 21.734375 
Q 48.578125 9.46875 49.140625 6.21875 
Q 49.703125 2.984375 51.375 0 
L 42.1875 0 
Q 40.828125 2.734375 40.4375 6.390625 
z
M 39.703125 26.03125 
Q 34.90625 24.078125 25.34375 22.703125 
Q 19.921875 21.921875 17.671875 20.9375 
Q 15.4375 19.96875 14.203125 18.09375 
Q 12.984375 16.21875 12.984375 13.921875 
Q 12.984375 10.40625 15.640625 8.0625 
Q 18.3125 5.71875 23.4375 5.71875 
Q 28.515625 5.71875 32.46875 7.9375 
Q 36.421875 10.15625 38.28125 14.015625 
Q 39.703125 17 39.703125 22.796875 
z
" id="ArialMT-97"/>
      <path d="M 6.59375 0 
L 6.59375 51.859375 
L 14.453125 51.859375 
L 14.453125 44.578125 
Q 16.890625 48.390625 20.9375 50.703125 
Q 25 53.03125 30.171875 53.03125 
Q 35.9375 53.03125 39.625 50.640625 
Q 43.3125 48.25 44.828125 43.953125 
Q 50.984375 53.03125 60.84375 53.03125 
Q 68.5625 53.03125 72.703125 48.75 
Q 76.859375 44.484375 76.859375 35.59375 
L 76.859375 0 
L 68.109375 0 
L 68.109375 32.671875 
Q 68.109375 37.9375 67.25 40.25 
Q 66.40625 42.578125 64.15625 43.984375 
Q 61.921875 45.40625 58.890625 45.40625 
Q 53.421875 45.40625 49.796875 41.765625 
Q 46.1875 38.140625 46.1875 30.125 
L 46.1875 0 
L 37.40625 0 
L 37.40625 33.6875 
Q 37.40625 39.546875 35.25 42.46875 
Q 33.109375 45.40625 28.21875 45.40625 
Q 24.515625 45.40625 21.359375 43.453125 
Q 18.21875 41.5 16.796875 37.734375 
Q 15.375 33.984375 15.375 26.90625 
L 15.375 0 
z
" id="ArialMT-109"/>
      <path id="ArialMT-32"/>
      <path d="M 40.234375 0 
L 40.234375 6.546875 
Q 35.296875 -1.171875 25.734375 -1.171875 
Q 19.53125 -1.171875 14.328125 2.25 
Q 9.125 5.671875 6.265625 11.796875 
Q 3.421875 17.921875 3.421875 25.875 
Q 3.421875 33.640625 6 39.96875 
Q 8.59375 46.296875 13.765625 49.65625 
Q 18.953125 53.03125 25.34375 53.03125 
Q 30.03125 53.03125 33.6875 51.046875 
Q 37.359375 49.078125 39.65625 45.90625 
L 39.65625 71.578125 
L 48.390625 71.578125 
L 48.390625 0 
z
M 12.453125 25.875 
Q 12.453125 15.921875 16.640625 10.984375 
Q 20.84375 6.0625 26.5625 6.0625 
Q 32.328125 6.0625 36.34375 10.765625 
Q 40.375 15.484375 40.375 25.140625 
Q 40.375 35.796875 36.265625 40.765625 
Q 32.171875 45.75 26.171875 45.75 
Q 20.3125 45.75 16.375 40.96875 
Q 12.453125 36.1875 12.453125 25.875 
z
" id="ArialMT-100"/>
      <path d="M 6.203125 -19.96875 
L 5.21875 -11.71875 
Q 8.109375 -12.5 10.25 -12.5 
Q 13.1875 -12.5 14.9375 -11.515625 
Q 16.703125 -10.546875 17.828125 -8.796875 
Q 18.65625 -7.46875 20.515625 -2.25 
Q 20.75 -1.515625 21.296875 -0.09375 
L 1.609375 51.859375 
L 11.078125 51.859375 
L 21.875 21.828125 
Q 23.96875 16.109375 25.640625 9.8125 
Q 27.15625 15.875 29.25 21.625 
L 40.328125 51.859375 
L 49.125 51.859375 
L 29.390625 -0.875 
Q 26.21875 -9.421875 24.46875 -12.640625 
Q 22.125 -17 19.09375 -19.015625 
Q 16.0625 -21.046875 11.859375 -21.046875 
Q 9.328125 -21.046875 6.203125 -19.96875 
z
" id="ArialMT-121"/>
      <path d="M 3.328125 25.921875 
Q 3.328125 40.328125 11.328125 47.265625 
Q 18.015625 53.03125 27.640625 53.03125 
Q 38.328125 53.03125 45.109375 46.015625 
Q 51.90625 39.015625 51.90625 26.65625 
Q 51.90625 16.65625 48.90625 10.90625 
Q 45.90625 5.171875 40.15625 2 
Q 34.421875 -1.171875 27.640625 -1.171875 
Q 16.75 -1.171875 10.03125 5.8125 
Q 3.328125 12.796875 3.328125 25.921875 
z
M 12.359375 25.921875 
Q 12.359375 15.96875 16.703125 11.015625 
Q 21.046875 6.0625 27.640625 6.0625 
Q 34.1875 6.0625 38.53125 11.03125 
Q 42.875 16.015625 42.875 26.21875 
Q 42.875 35.84375 38.5 40.796875 
Q 34.125 45.75 27.640625 45.75 
Q 21.046875 45.75 16.703125 40.8125 
Q 12.359375 35.890625 12.359375 25.921875 
z
" id="ArialMT-111"/>
      <path d="M 6.640625 61.46875 
L 6.640625 71.578125 
L 15.4375 71.578125 
L 15.4375 61.46875 
z
M 6.640625 0 
L 6.640625 51.859375 
L 15.4375 51.859375 
L 15.4375 0 
z
" id="ArialMT-105"/>
      <path d="M 40.4375 19 
L 49.078125 17.875 
Q 47.65625 8.9375 41.8125 3.875 
Q 35.984375 -1.171875 27.484375 -1.171875 
Q 16.84375 -1.171875 10.375 5.78125 
Q 3.90625 12.75 3.90625 25.734375 
Q 3.90625 34.125 6.6875 40.421875 
Q 9.46875 46.734375 15.15625 49.875 
Q 20.84375 53.03125 27.546875 53.03125 
Q 35.984375 53.03125 41.359375 48.75 
Q 46.734375 44.484375 48.25 36.625 
L 39.703125 35.296875 
Q 38.484375 40.53125 35.375 43.15625 
Q 32.28125 45.796875 27.875 45.796875 
Q 21.234375 45.796875 17.078125 41.03125 
Q 12.9375 36.28125 12.9375 25.984375 
Q 12.9375 15.53125 16.9375 10.796875 
Q 20.953125 6.0625 27.390625 6.0625 
Q 32.5625 6.0625 36.03125 9.234375 
Q 39.5 12.40625 40.4375 19 
z
" id="ArialMT-99"/>
      <path d="M 21 0 
L 1.265625 51.859375 
L 10.546875 51.859375 
L 21.6875 20.796875 
Q 23.484375 15.765625 25 10.359375 
Q 26.171875 14.453125 28.265625 20.21875 
L 39.796875 51.859375 
L 48.828125 51.859375 
L 29.203125 0 
z
" id="ArialMT-118"/>
     </defs>
     <g transform="translate(247.416563 415.19)scale(0.12 -0.12)">
      <use xlink:href="#ArialMT-82"/>
      <use x="72.216797" xlink:href="#ArialMT-101"/>
      <use x="127.832031" xlink:href="#ArialMT-115"/>
      <use x="177.832031" xlink:href="#ArialMT-116"/>
      <use x="205.615234" xlink:href="#ArialMT-45"/>
      <use x="238.916016" xlink:href="#ArialMT-102"/>
      <use x="266.699219" xlink:href="#ArialMT-114"/>
      <use x="300" xlink:href="#ArialMT-97"/>
      <use x="355.615234" xlink:href="#ArialMT-109"/>
      <use x="438.916016" xlink:href="#ArialMT-101"/>
      <use x="494.53125" xlink:href="#ArialMT-32"/>
      <use x="522.314453" xlink:href="#ArialMT-100"/>
      <use x="577.929688" xlink:href="#ArialMT-97"/>
      <use x="633.544922" xlink:href="#ArialMT-121"/>
      <use x="683.544922" xlink:href="#ArialMT-115"/>
      <use x="733.544922" xlink:href="#ArialMT-32"/>
      <use x="761.328125" xlink:href="#ArialMT-102"/>
      <use x="789.111328" xlink:href="#ArialMT-114"/>
      <use x="822.412109" xlink:href="#ArialMT-111"/>
      <use x="878.027344" xlink:href="#ArialMT-109"/>
      <use x="961.328125" xlink:href="#ArialMT-32"/>
      <use x="989.111328" xlink:href="#ArialMT-100"/>
      <use x="1044.726562" xlink:href="#ArialMT-105"/>
      <use x="1066.943359" xlink:href="#ArialMT-115"/>
      <use x="1116.943359" xlink:href="#ArialMT-99"/>
      <use x="1166.943359" xlink:href="#ArialMT-111"/>
      <use x="1222.558594" xlink:href="#ArialMT-118"/>
      <use x="1272.558594" xlink:href="#ArialMT-101"/>
      <use x="1328.173828" xlink:href="#ArialMT-114"/>
      <use x="1361.474609" xlink:href="#ArialMT-121"/>
     </g>
    </g>
   </g>
   <g id="matplotlib.axis_2">
    <g id="ytick_1">
     <g id="line2d_9">
      <defs>
       <path d="M 0 0 
L -3.5 0 
" id="m0abd2b7fca" style="stroke:#000000;stroke-width:0.8;"/>
      </defs>
      <g>
       <use style="stroke:#000000;stroke-width:0.8;" x="81" xlink:href="#m0abd2b7fca" y="384.48"/>
      </g>
     </g>
     <g id="text_10">
      <!-- 0 -->
      <g transform="translate(67.326875 388.774688)scale(0.12 -0.12)">
       <use xlink:href="#ArialMT-48"/>
      </g>
     </g>
    </g>
    <g id="ytick_2">
     <g id="line2d_10">
      <g>
       <use style="stroke:#000000;stroke-width:0.8;" x="81" xlink:href="#m0abd2b7fca" y="342.406635"/>
      </g>
     </g>
     <g id="text_11">
      <!-- 2500 -->
      <defs>
       <path d="M 4.15625 18.75 
L 13.375 19.53125 
Q 14.40625 12.796875 18.140625 9.390625 
Q 21.875 6 27.15625 6 
Q 33.5 6 37.890625 10.78125 
Q 42.28125 15.578125 42.28125 23.484375 
Q 42.28125 31 38.0625 35.34375 
Q 33.84375 39.703125 27 39.703125 
Q 22.75 39.703125 19.328125 37.765625 
Q 15.921875 35.84375 13.96875 32.765625 
L 5.71875 33.84375 
L 12.640625 70.609375 
L 48.25 70.609375 
L 48.25 62.203125 
L 19.671875 62.203125 
L 15.828125 42.96875 
Q 22.265625 47.46875 29.34375 47.46875 
Q 38.71875 47.46875 45.15625 40.96875 
Q 51.609375 34.46875 51.609375 24.265625 
Q 51.609375 14.546875 45.953125 7.46875 
Q 39.0625 -1.21875 27.15625 -1.21875 
Q 17.390625 -1.21875 11.203125 4.25 
Q 5.03125 9.71875 4.15625 18.75 
z
" id="ArialMT-53"/>
      </defs>
      <g transform="translate(47.3075 346.701322)scale(0.12 -0.12)">
       <use xlink:href="#ArialMT-50"/>
       <use x="55.615234" xlink:href="#ArialMT-53"/>
       <use x="111.230469" xlink:href="#ArialMT-48"/>
       <use x="166.845703" xlink:href="#ArialMT-48"/>
      </g>
     </g>
    </g>
    <g id="ytick_3">
     <g id="line2d_11">
      <g>
       <use style="stroke:#000000;stroke-width:0.8;" x="81" xlink:href="#m0abd2b7fca" y="300.333269"/>
      </g>
     </g>
     <g id="text_12">
      <!-- 5000 -->
      <g transform="translate(47.3075 304.627957)scale(0.12 -0.12)">
       <use xlink:href="#ArialMT-53"/>
       <use x="55.615234" xlink:href="#ArialMT-48"/>
       <use x="111.230469" xlink:href="#ArialMT-48"/>
       <use x="166.845703" xlink:href="#ArialMT-48"/>
      </g>
     </g>
    </g>
    <g id="ytick_4">
     <g id="line2d_12">
      <g>
       <use style="stroke:#000000;stroke-width:0.8;" x="81" xlink:href="#m0abd2b7fca" y="258.259904"/>
      </g>
     </g>
     <g id="text_13">
      <!-- 7500 -->
      <defs>
       <path d="M 4.734375 62.203125 
L 4.734375 70.65625 
L 51.078125 70.65625 
L 51.078125 63.8125 
Q 44.234375 56.546875 37.515625 44.484375 
Q 30.8125 32.421875 27.15625 19.671875 
Q 24.515625 10.6875 23.78125 0 
L 14.75 0 
Q 14.890625 8.453125 18.0625 20.40625 
Q 21.234375 32.375 27.171875 43.484375 
Q 33.109375 54.59375 39.796875 62.203125 
z
" id="ArialMT-55"/>
      </defs>
      <g transform="translate(47.3075 262.554591)scale(0.12 -0.12)">
       <use xlink:href="#ArialMT-55"/>
       <use x="55.615234" xlink:href="#ArialMT-53"/>
       <use x="111.230469" xlink:href="#ArialMT-48"/>
       <use x="166.845703" xlink:href="#ArialMT-48"/>
      </g>
     </g>
    </g>
    <g id="ytick_5">
     <g id="line2d_13">
      <g>
       <use style="stroke:#000000;stroke-width:0.8;" x="81" xlink:href="#m0abd2b7fca" y="216.186538"/>
      </g>
     </g>
     <g id="text_14">
      <!-- 10000 -->
      <g transform="translate(40.634375 220.481226)scale(0.12 -0.12)">
       <use xlink:href="#ArialMT-49"/>
       <use x="55.615234" xlink:href="#ArialMT-48"/>
       <use x="111.230469" xlink:href="#ArialMT-48"/>
       <use x="166.845703" xlink:href="#ArialMT-48"/>
       <use x="222.460938" xlink:href="#ArialMT-48"/>
      </g>
     </g>
    </g>
    <g id="ytick_6">
     <g id="line2d_14">
      <g>
       <use style="stroke:#000000;stroke-width:0.8;" x="81" xlink:href="#m0abd2b7fca" y="174.113173"/>
      </g>
     </g>
     <g id="text_15">
      <!-- 12500 -->
      <g transform="translate(40.634375 178.40786)scale(0.12 -0.12)">
       <use xlink:href="#ArialMT-49"/>
       <use x="55.615234" xlink:href="#ArialMT-50"/>
       <use x="111.230469" xlink:href="#ArialMT-53"/>
       <use x="166.845703" xlink:href="#ArialMT-48"/>
       <use x="222.460938" xlink:href="#ArialMT-48"/>
      </g>
     </g>
    </g>
    <g id="ytick_7">
     <g id="line2d_15">
      <g>
       <use style="stroke:#000000;stroke-width:0.8;" x="81" xlink:href="#m0abd2b7fca" y="132.039807"/>
      </g>
     </g>
     <g id="text_16">
      <!-- 15000 -->
      <g transform="translate(40.634375 136.334495)scale(0.12 -0.12)">
       <use xlink:href="#ArialMT-49"/>
       <use x="55.615234" xlink:href="#ArialMT-53"/>
       <use x="111.230469" xlink:href="#ArialMT-48"/>
       <use x="166.845703" xlink:href="#ArialMT-48"/>
       <use x="222.460938" xlink:href="#ArialMT-48"/>
      </g>
     </g>
    </g>
    <g id="ytick_8">
     <g id="line2d_16">
      <g>
       <use style="stroke:#000000;stroke-width:0.8;" x="81" xlink:href="#m0abd2b7fca" y="89.966442"/>
      </g>
     </g>
     <g id="text_17">
      <!-- 17500 -->
      <g transform="translate(40.634375 94.261129)scale(0.12 -0.12)">
       <use xlink:href="#ArialMT-49"/>
       <use x="55.615234" xlink:href="#ArialMT-55"/>
       <use x="111.230469" xlink:href="#ArialMT-53"/>
       <use x="166.845703" xlink:href="#ArialMT-48"/>
       <use x="222.460938" xlink:href="#ArialMT-48"/>
      </g>
     </g>
    </g>
    <g id="text_18">
     <!-- Expansion velocity (km/s) -->
     <defs>
      <path d="M 7.90625 0 
L 7.90625 71.578125 
L 59.671875 71.578125 
L 59.671875 63.140625 
L 17.390625 63.140625 
L 17.390625 41.21875 
L 56.984375 41.21875 
L 56.984375 32.8125 
L 17.390625 32.8125 
L 17.390625 8.453125 
L 61.328125 8.453125 
L 61.328125 0 
z
" id="ArialMT-69"/>
      <path d="M 0.734375 0 
L 19.671875 26.953125 
L 2.15625 51.859375 
L 13.140625 51.859375 
L 21.09375 39.703125 
Q 23.34375 36.234375 24.703125 33.890625 
Q 26.859375 37.109375 28.65625 39.59375 
L 37.40625 51.859375 
L 47.90625 51.859375 
L 29.984375 27.4375 
L 49.265625 0 
L 38.484375 0 
L 27.828125 16.109375 
L 25 20.453125 
L 11.375 0 
z
" id="ArialMT-120"/>
      <path d="M 6.59375 -19.875 
L 6.59375 51.859375 
L 14.59375 51.859375 
L 14.59375 45.125 
Q 17.4375 49.078125 21 51.046875 
Q 24.5625 53.03125 29.640625 53.03125 
Q 36.28125 53.03125 41.359375 49.609375 
Q 46.4375 46.1875 49.015625 39.953125 
Q 51.609375 33.734375 51.609375 26.3125 
Q 51.609375 18.359375 48.75 11.984375 
Q 45.90625 5.609375 40.453125 2.21875 
Q 35.015625 -1.171875 29 -1.171875 
Q 24.609375 -1.171875 21.109375 0.6875 
Q 17.625 2.546875 15.375 5.375 
L 15.375 -19.875 
z
M 14.546875 25.640625 
Q 14.546875 15.625 18.59375 10.84375 
Q 22.65625 6.0625 28.421875 6.0625 
Q 34.28125 6.0625 38.453125 11.015625 
Q 42.625 15.96875 42.625 26.375 
Q 42.625 36.28125 38.546875 41.203125 
Q 34.46875 46.140625 28.8125 46.140625 
Q 23.1875 46.140625 18.859375 40.890625 
Q 14.546875 35.640625 14.546875 25.640625 
z
" id="ArialMT-112"/>
      <path d="M 6.59375 0 
L 6.59375 51.859375 
L 14.5 51.859375 
L 14.5 44.484375 
Q 20.21875 53.03125 31 53.03125 
Q 35.6875 53.03125 39.625 51.34375 
Q 43.5625 49.65625 45.515625 46.921875 
Q 47.46875 44.1875 48.25 40.4375 
Q 48.734375 37.984375 48.734375 31.890625 
L 48.734375 0 
L 39.9375 0 
L 39.9375 31.546875 
Q 39.9375 36.921875 38.90625 39.578125 
Q 37.890625 42.234375 35.28125 43.8125 
Q 32.671875 45.40625 29.15625 45.40625 
Q 23.53125 45.40625 19.453125 41.84375 
Q 15.375 38.28125 15.375 28.328125 
L 15.375 0 
z
" id="ArialMT-110"/>
      <path d="M 6.390625 0 
L 6.390625 71.578125 
L 15.1875 71.578125 
L 15.1875 0 
z
" id="ArialMT-108"/>
      <path d="M 23.390625 -21.046875 
Q 16.109375 -11.859375 11.078125 0.4375 
Q 6.0625 12.75 6.0625 25.921875 
Q 6.0625 37.546875 9.8125 48.1875 
Q 14.203125 60.546875 23.390625 72.796875 
L 29.6875 72.796875 
Q 23.78125 62.640625 21.875 58.296875 
Q 18.890625 51.5625 17.1875 44.234375 
Q 15.09375 35.109375 15.09375 25.875 
Q 15.09375 2.390625 29.6875 -21.046875 
z
" id="ArialMT-40"/>
      <path d="M 6.640625 0 
L 6.640625 71.578125 
L 15.4375 71.578125 
L 15.4375 30.765625 
L 36.234375 51.859375 
L 47.609375 51.859375 
L 27.78125 32.625 
L 49.609375 0 
L 38.765625 0 
L 21.625 26.515625 
L 15.4375 20.5625 
L 15.4375 0 
z
" id="ArialMT-107"/>
      <path d="M 0 -1.21875 
L 20.75 72.796875 
L 27.78125 72.796875 
L 7.078125 -1.21875 
z
" id="ArialMT-47"/>
      <path d="M 12.359375 -21.046875 
L 6.0625 -21.046875 
Q 20.65625 2.390625 20.65625 25.875 
Q 20.65625 35.0625 18.5625 44.09375 
Q 16.890625 51.421875 13.921875 58.15625 
Q 12.015625 62.546875 6.0625 72.796875 
L 12.359375 72.796875 
Q 21.53125 60.546875 25.921875 48.1875 
Q 29.6875 37.546875 29.6875 25.921875 
Q 29.6875 12.75 24.625 0.4375 
Q 19.578125 -11.859375 12.359375 -21.046875 
z
" id="ArialMT-41"/>
     </defs>
     <g transform="translate(34.10875 286.178437)rotate(-90)scale(0.12 -0.12)">
      <use xlink:href="#ArialMT-69"/>
      <use x="66.699219" xlink:href="#ArialMT-120"/>
      <use x="116.699219" xlink:href="#ArialMT-112"/>
      <use x="172.314453" xlink:href="#ArialMT-97"/>
      <use x="227.929688" xlink:href="#ArialMT-110"/>
      <use x="283.544922" xlink:href="#ArialMT-115"/>
      <use x="333.544922" xlink:href="#ArialMT-105"/>
      <use x="355.761719" xlink:href="#ArialMT-111"/>
      <use x="411.376953" xlink:href="#ArialMT-110"/>
      <use x="466.992188" xlink:href="#ArialMT-32"/>
      <use x="494.775391" xlink:href="#ArialMT-118"/>
      <use x="544.775391" xlink:href="#ArialMT-101"/>
      <use x="600.390625" xlink:href="#ArialMT-108"/>
      <use x="622.607422" xlink:href="#ArialMT-111"/>
      <use x="678.222656" xlink:href="#ArialMT-99"/>
      <use x="728.222656" xlink:href="#ArialMT-105"/>
      <use x="750.439453" xlink:href="#ArialMT-116"/>
      <use x="778.222656" xlink:href="#ArialMT-121"/>
      <use x="828.222656" xlink:href="#ArialMT-32"/>
      <use x="856.005859" xlink:href="#ArialMT-40"/>
      <use x="889.306641" xlink:href="#ArialMT-107"/>
      <use x="939.306641" xlink:href="#ArialMT-109"/>
      <use x="1022.607422" xlink:href="#ArialMT-47"/>
      <use x="1050.390625" xlink:href="#ArialMT-115"/>
      <use x="1100.390625" xlink:href="#ArialMT-41"/>
     </g>
    </g>
   </g>
   <g id="LineCollection_1">
    <path clip-path="url(#pfc373f2096)" d="M 127.115654 68.329122 
L 127.115654 68.329122 
" style="fill:none;stroke:#1b9e77;stroke-width:1.5;"/>
    <path clip-path="url(#pfc373f2096)" d="M 139.430912 117.484512 
L 139.430912 113.633957 
" style="fill:none;stroke:#1b9e77;stroke-width:1.5;"/>
    <path clip-path="url(#pfc373f2096)" d="M 171.202584 157.383189 
L 171.202584 151.277675 
" style="fill:none;stroke:#1b9e77;stroke-width:1.5;"/>
    <path clip-path="url(#pfc373f2096)" d="M 188.737912 171.836312 
L 188.737912 163.933541 
" style="fill:none;stroke:#1b9e77;stroke-width:1.5;"/>
    <path clip-path="url(#pfc373f2096)" d="M 206.24111 183.189531 
L 206.24111 178.550726 
" style="fill:none;stroke:#1b9e77;stroke-width:1.5;"/>
    <path clip-path="url(#pfc373f2096)" d="M 206.517648 183.857505 
L 206.517648 178.317119 
" style="fill:none;stroke:#1b9e77;stroke-width:1.5;"/>
    <path clip-path="url(#pfc373f2096)" d="M 211.69624 184.999878 
L 211.69624 177.938885 
" style="fill:none;stroke:#1b9e77;stroke-width:1.5;"/>
    <path clip-path="url(#pfc373f2096)" d="M 241.487496 195.101767 
L 241.487496 187.943341 
" style="fill:none;stroke:#1b9e77;stroke-width:1.5;"/>
    <path clip-path="url(#pfc373f2096)" d="M 264.25889 201.144721 
L 264.25889 193.812143 
" style="fill:none;stroke:#1b9e77;stroke-width:1.5;"/>
    <path clip-path="url(#pfc373f2096)" d="M 319.595905 207.346195 
L 319.595905 199.885575 
" style="fill:none;stroke:#1b9e77;stroke-width:1.5;"/>
    <path clip-path="url(#pfc373f2096)" d="M 323.101086 210.181861 
L 323.101086 203.918525 
" style="fill:none;stroke:#1b9e77;stroke-width:1.5;"/>
    <path clip-path="url(#pfc373f2096)" d="M 355.00502 210.37554 
L 355.00502 205.244599 
" style="fill:none;stroke:#1b9e77;stroke-width:1.5;"/>
    <path clip-path="url(#pfc373f2096)" d="M 392.656719 217.752202 
L 392.656719 212.500232 
" style="fill:none;stroke:#1b9e77;stroke-width:1.5;"/>
   </g>
   <g id="LineCollection_2">
    <path clip-path="url(#pfc373f2096)" d="M 127.115654 209.190024 
L 127.115654 209.190024 
" style="fill:none;stroke:#7570b3;stroke-width:1.5;"/>
    <path clip-path="url(#pfc373f2096)" d="M 139.430912 231.680399 
L 139.430912 218.611498 
" style="fill:none;stroke:#7570b3;stroke-width:1.5;"/>
    <path clip-path="url(#pfc373f2096)" d="M 171.202584 234.254517 
L 171.202584 228.411805 
" style="fill:none;stroke:#7570b3;stroke-width:1.5;"/>
    <path clip-path="url(#pfc373f2096)" d="M 188.737912 227.2608 
L 188.737912 221.138971 
" style="fill:none;stroke:#7570b3;stroke-width:1.5;"/>
    <path clip-path="url(#pfc373f2096)" d="M 206.24111 228.16936 
L 206.24111 221.956177 
" style="fill:none;stroke:#7570b3;stroke-width:1.5;"/>
    <path clip-path="url(#pfc373f2096)" d="M 206.517648 225.368883 
L 206.517648 218.955058 
" style="fill:none;stroke:#7570b3;stroke-width:1.5;"/>
    <path clip-path="url(#pfc373f2096)" d="M 211.69624 227.623758 
L 211.69624 221.692427 
" style="fill:none;stroke:#7570b3;stroke-width:1.5;"/>
    <path clip-path="url(#pfc373f2096)" d="M 241.487496 228.710157 
L 241.487496 222.340795 
" style="fill:none;stroke:#7570b3;stroke-width:1.5;"/>
    <path clip-path="url(#pfc373f2096)" d="M 264.25889 248.007786 
L 264.25889 230.956196 
" style="fill:none;stroke:#7570b3;stroke-width:1.5;"/>
    <path clip-path="url(#pfc373f2096)" d="M 319.595905 248.027785 
L 319.595905 241.780897 
" style="fill:none;stroke:#7570b3;stroke-width:1.5;"/>
    <path clip-path="url(#pfc373f2096)" d="M 323.101086 247.160404 
L 323.101086 235.558665 
" style="fill:none;stroke:#7570b3;stroke-width:1.5;"/>
    <path clip-path="url(#pfc373f2096)" d="M 355.00502 260.551414 
L 355.00502 253.117861 
" style="fill:none;stroke:#7570b3;stroke-width:1.5;"/>
    <path clip-path="url(#pfc373f2096)" d="M 392.656719 261.130036 
L 392.656719 256.580622 
" style="fill:none;stroke:#7570b3;stroke-width:1.5;"/>
   </g>
   <g id="LineCollection_3">
    <path clip-path="url(#pfc373f2096)" d="M 127.115654 313.254838 
L 127.115654 295.452797 
" style="fill:none;stroke:#d95f02;stroke-width:1.5;"/>
    <path clip-path="url(#pfc373f2096)" d="M 139.430912 256.978262 
L 139.430912 216.661533 
" style="fill:none;stroke:#d95f02;stroke-width:1.5;"/>
    <path clip-path="url(#pfc373f2096)" d="M 171.202584 259.746267 
L 171.202584 248.667197 
" style="fill:none;stroke:#d95f02;stroke-width:1.5;"/>
    <path clip-path="url(#pfc373f2096)" d="M 188.737912 276.787781 
L 188.737912 269.594098 
" style="fill:none;stroke:#d95f02;stroke-width:1.5;"/>
    <path clip-path="url(#pfc373f2096)" d="M 206.24111 283.810799 
L 206.24111 274.648477 
" style="fill:none;stroke:#d95f02;stroke-width:1.5;"/>
    <path clip-path="url(#pfc373f2096)" d="M 206.517648 279.675623 
L 206.517648 270.990615 
" style="fill:none;stroke:#d95f02;stroke-width:1.5;"/>
    <path clip-path="url(#pfc373f2096)" d="M 211.69624 284.508854 
L 211.69624 277.092681 
" style="fill:none;stroke:#d95f02;stroke-width:1.5;"/>
    <path clip-path="url(#pfc373f2096)" d="M 241.487496 294.798721 
L 241.487496 286.172771 
" style="fill:none;stroke:#d95f02;stroke-width:1.5;"/>
    <path clip-path="url(#pfc373f2096)" d="M 264.25889 310.047427 
L 264.25889 298.102294 
" style="fill:none;stroke:#d95f02;stroke-width:1.5;"/>
    <path clip-path="url(#pfc373f2096)" d="M 319.595905 313.027993 
L 319.595905 285.471556 
" style="fill:none;stroke:#d95f02;stroke-width:1.5;"/>
    <path clip-path="url(#pfc373f2096)" d="M 323.101086 307.920125 
L 323.101086 299.462774 
" style="fill:none;stroke:#d95f02;stroke-width:1.5;"/>
    <path clip-path="url(#pfc373f2096)" d="M 355.00502 311.368761 
L 355.00502 303.987316 
" style="fill:none;stroke:#d95f02;stroke-width:1.5;"/>
    <path clip-path="url(#pfc373f2096)" d="M 392.656719 319.563154 
L 392.656719 311.568115 
" style="fill:none;stroke:#d95f02;stroke-width:1.5;"/>
   </g>
   <g id="LineCollection_4"/>
   <g id="LineCollection_5">
    <path clip-path="url(#pfc373f2096)" d="M 103.827273 76.567132 
L 103.827273 66.954414 
" style="fill:none;stroke:#1b9e77;stroke-width:1.5;"/>
    <path clip-path="url(#pfc373f2096)" d="M 448.155749 227.190605 
L 448.155749 217.819245 
" style="fill:none;stroke:#1b9e77;stroke-width:1.5;"/>
    <path clip-path="url(#pfc373f2096)" d="M 457.027812 224.842523 
L 457.027812 216.662024 
" style="fill:none;stroke:#1b9e77;stroke-width:1.5;"/>
    <path clip-path="url(#pfc373f2096)" d="M 560.372727 231.300138 
L 560.372727 218.526824 
" style="fill:none;stroke:#1b9e77;stroke-width:1.5;"/>
   </g>
   <g id="LineCollection_6">
    <path clip-path="url(#pfc373f2096)" d="M 103.827273 209.656472 
L 103.827273 146.816263 
" style="fill:none;stroke:#7570b3;stroke-width:1.5;"/>
    <path clip-path="url(#pfc373f2096)" d="M 448.155749 292.134398 
L 448.155749 286.09286 
" style="fill:none;stroke:#7570b3;stroke-width:1.5;"/>
    <path clip-path="url(#pfc373f2096)" d="M 457.027812 285.962983 
L 457.027812 266.860718 
" style="fill:none;stroke:#7570b3;stroke-width:1.5;"/>
    <path clip-path="url(#pfc373f2096)" d="M 560.372727 291.092718 
L 560.372727 280.073898 
" style="fill:none;stroke:#7570b3;stroke-width:1.5;"/>
   </g>
   <g id="LineCollection_7">
    <path clip-path="url(#pfc373f2096)" d="M 103.827273 319.740962 
L 103.827273 270.714152 
" style="fill:none;stroke:#d95f02;stroke-width:1.5;"/>
    <path clip-path="url(#pfc373f2096)" d="M 448.155749 360.690724 
L 448.155749 342.881187 
" style="fill:none;stroke:#d95f02;stroke-width:1.5;"/>
    <path clip-path="url(#pfc373f2096)" d="M 457.027812 365.780621 
L 457.027812 311.541472 
" style="fill:none;stroke:#d95f02;stroke-width:1.5;"/>
    <path clip-path="url(#pfc373f2096)" d="M 560.372727 369.242689 
L 560.372727 334.736447 
" style="fill:none;stroke:#d95f02;stroke-width:1.5;"/>
   </g>
   <g id="LineCollection_8"/>
   <g id="line2d_17">
    <defs>
     <path d="M -3 3 
L 3 3 
L 3 -3 
L -3 -3 
z
" id="m7f9bcbf097" style="stroke:#1b9e77;stroke-linejoin:miter;"/>
    </defs>
    <g clip-path="url(#pfc373f2096)">
     <use style="fill:#1b9e77;stroke:#1b9e77;stroke-linejoin:miter;" x="127.115654" xlink:href="#m7f9bcbf097" y="68.329122"/>
     <use style="fill:#1b9e77;stroke:#1b9e77;stroke-linejoin:miter;" x="139.430912" xlink:href="#m7f9bcbf097" y="115.559234"/>
     <use style="fill:#1b9e77;stroke:#1b9e77;stroke-linejoin:miter;" x="171.202584" xlink:href="#m7f9bcbf097" y="154.330432"/>
     <use style="fill:#1b9e77;stroke:#1b9e77;stroke-linejoin:miter;" x="188.737912" xlink:href="#m7f9bcbf097" y="167.884927"/>
     <use style="fill:#1b9e77;stroke:#1b9e77;stroke-linejoin:miter;" x="206.24111" xlink:href="#m7f9bcbf097" y="180.870128"/>
     <use style="fill:#1b9e77;stroke:#1b9e77;stroke-linejoin:miter;" x="206.517648" xlink:href="#m7f9bcbf097" y="181.087312"/>
     <use style="fill:#1b9e77;stroke:#1b9e77;stroke-linejoin:miter;" x="211.69624" xlink:href="#m7f9bcbf097" y="181.469381"/>
     <use style="fill:#1b9e77;stroke:#1b9e77;stroke-linejoin:miter;" x="241.487496" xlink:href="#m7f9bcbf097" y="191.522554"/>
     <use style="fill:#1b9e77;stroke:#1b9e77;stroke-linejoin:miter;" x="264.25889" xlink:href="#m7f9bcbf097" y="197.478432"/>
     <use style="fill:#1b9e77;stroke:#1b9e77;stroke-linejoin:miter;" x="319.595905" xlink:href="#m7f9bcbf097" y="203.615885"/>
     <use style="fill:#1b9e77;stroke:#1b9e77;stroke-linejoin:miter;" x="323.101086" xlink:href="#m7f9bcbf097" y="207.050193"/>
     <use style="fill:#1b9e77;stroke:#1b9e77;stroke-linejoin:miter;" x="355.00502" xlink:href="#m7f9bcbf097" y="207.810069"/>
     <use style="fill:#1b9e77;stroke:#1b9e77;stroke-linejoin:miter;" x="392.656719" xlink:href="#m7f9bcbf097" y="215.126217"/>
    </g>
   </g>
   <g id="line2d_18">
    <defs>
     <path d="M -3 3 
L 3 3 
L 3 -3 
L -3 -3 
z
" id="m300fa6e5bd" style="stroke:#7570b3;stroke-linejoin:miter;"/>
    </defs>
    <g clip-path="url(#pfc373f2096)">
     <use style="fill:#7570b3;stroke:#7570b3;stroke-linejoin:miter;" x="127.115654" xlink:href="#m300fa6e5bd" y="209.190024"/>
     <use style="fill:#7570b3;stroke:#7570b3;stroke-linejoin:miter;" x="139.430912" xlink:href="#m300fa6e5bd" y="225.145948"/>
     <use style="fill:#7570b3;stroke:#7570b3;stroke-linejoin:miter;" x="171.202584" xlink:href="#m300fa6e5bd" y="231.333161"/>
     <use style="fill:#7570b3;stroke:#7570b3;stroke-linejoin:miter;" x="188.737912" xlink:href="#m300fa6e5bd" y="224.199886"/>
     <use style="fill:#7570b3;stroke:#7570b3;stroke-linejoin:miter;" x="206.24111" xlink:href="#m300fa6e5bd" y="225.062768"/>
     <use style="fill:#7570b3;stroke:#7570b3;stroke-linejoin:miter;" x="206.517648" xlink:href="#m300fa6e5bd" y="222.16197"/>
     <use style="fill:#7570b3;stroke:#7570b3;stroke-linejoin:miter;" x="211.69624" xlink:href="#m300fa6e5bd" y="224.658093"/>
     <use style="fill:#7570b3;stroke:#7570b3;stroke-linejoin:miter;" x="241.487496" xlink:href="#m300fa6e5bd" y="225.525476"/>
     <use style="fill:#7570b3;stroke:#7570b3;stroke-linejoin:miter;" x="264.25889" xlink:href="#m300fa6e5bd" y="239.481991"/>
     <use style="fill:#7570b3;stroke:#7570b3;stroke-linejoin:miter;" x="319.595905" xlink:href="#m300fa6e5bd" y="244.904341"/>
     <use style="fill:#7570b3;stroke:#7570b3;stroke-linejoin:miter;" x="323.101086" xlink:href="#m300fa6e5bd" y="241.359534"/>
     <use style="fill:#7570b3;stroke:#7570b3;stroke-linejoin:miter;" x="355.00502" xlink:href="#m300fa6e5bd" y="256.834638"/>
     <use style="fill:#7570b3;stroke:#7570b3;stroke-linejoin:miter;" x="392.656719" xlink:href="#m300fa6e5bd" y="258.855329"/>
    </g>
   </g>
   <g id="line2d_19">
    <defs>
     <path d="M -3 3 
L 3 3 
L 3 -3 
L -3 -3 
z
" id="m816014d780" style="stroke:#d95f02;stroke-linejoin:miter;"/>
    </defs>
    <g clip-path="url(#pfc373f2096)">
     <use style="fill:#d95f02;stroke:#d95f02;stroke-linejoin:miter;" x="127.115654" xlink:href="#m816014d780" y="304.353818"/>
     <use style="fill:#d95f02;stroke:#d95f02;stroke-linejoin:miter;" x="139.430912" xlink:href="#m816014d780" y="236.819898"/>
     <use style="fill:#d95f02;stroke:#d95f02;stroke-linejoin:miter;" x="171.202584" xlink:href="#m816014d780" y="254.206732"/>
     <use style="fill:#d95f02;stroke:#d95f02;stroke-linejoin:miter;" x="188.737912" xlink:href="#m816014d780" y="273.190939"/>
     <use style="fill:#d95f02;stroke:#d95f02;stroke-linejoin:miter;" x="206.24111" xlink:href="#m816014d780" y="279.229638"/>
     <use style="fill:#d95f02;stroke:#d95f02;stroke-linejoin:miter;" x="206.517648" xlink:href="#m816014d780" y="275.333119"/>
     <use style="fill:#d95f02;stroke:#d95f02;stroke-linejoin:miter;" x="211.69624" xlink:href="#m816014d780" y="280.800767"/>
     <use style="fill:#d95f02;stroke:#d95f02;stroke-linejoin:miter;" x="241.487496" xlink:href="#m816014d780" y="290.485746"/>
     <use style="fill:#d95f02;stroke:#d95f02;stroke-linejoin:miter;" x="264.25889" xlink:href="#m816014d780" y="304.07486"/>
     <use style="fill:#d95f02;stroke:#d95f02;stroke-linejoin:miter;" x="319.595905" xlink:href="#m816014d780" y="299.249774"/>
     <use style="fill:#d95f02;stroke:#d95f02;stroke-linejoin:miter;" x="323.101086" xlink:href="#m816014d780" y="303.691449"/>
     <use style="fill:#d95f02;stroke:#d95f02;stroke-linejoin:miter;" x="355.00502" xlink:href="#m816014d780" y="307.678039"/>
     <use style="fill:#d95f02;stroke:#d95f02;stroke-linejoin:miter;" x="392.656719" xlink:href="#m816014d780" y="315.565635"/>
    </g>
   </g>
   <g id="line2d_20"/>
   <g id="line2d_21">
    <defs>
     <path d="M -3 3 
L 3 3 
L 3 -3 
L -3 -3 
z
" id="m9ec97edb42" style="stroke:#1b9e77;stroke-linejoin:miter;"/>
    </defs>
    <g clip-path="url(#pfc373f2096)">
     <use style="fill-opacity:0;stroke:#1b9e77;stroke-linejoin:miter;" x="103.827273" xlink:href="#m9ec97edb42" y="71.760773"/>
     <use style="fill-opacity:0;stroke:#1b9e77;stroke-linejoin:miter;" x="448.155749" xlink:href="#m9ec97edb42" y="222.504925"/>
     <use style="fill-opacity:0;stroke:#1b9e77;stroke-linejoin:miter;" x="457.027812" xlink:href="#m9ec97edb42" y="220.752273"/>
     <use style="fill-opacity:0;stroke:#1b9e77;stroke-linejoin:miter;" x="560.372727" xlink:href="#m9ec97edb42" y="224.913481"/>
    </g>
   </g>
   <g id="line2d_22">
    <defs>
     <path d="M -3 3 
L 3 3 
L 3 -3 
L -3 -3 
z
" id="md0d20d1d7c" style="stroke:#7570b3;stroke-linejoin:miter;"/>
    </defs>
    <g clip-path="url(#pfc373f2096)">
     <use style="fill-opacity:0;stroke:#7570b3;stroke-linejoin:miter;" x="103.827273" xlink:href="#md0d20d1d7c" y="178.236368"/>
     <use style="fill-opacity:0;stroke:#7570b3;stroke-linejoin:miter;" x="448.155749" xlink:href="#md0d20d1d7c" y="289.113629"/>
     <use style="fill-opacity:0;stroke:#7570b3;stroke-linejoin:miter;" x="457.027812" xlink:href="#md0d20d1d7c" y="276.41185"/>
     <use style="fill-opacity:0;stroke:#7570b3;stroke-linejoin:miter;" x="560.372727" xlink:href="#md0d20d1d7c" y="285.583308"/>
    </g>
   </g>
   <g id="line2d_23">
    <defs>
     <path d="M -3 3 
L 3 3 
L 3 -3 
L -3 -3 
z
" id="mc8042123d5" style="stroke:#d95f02;stroke-linejoin:miter;"/>
    </defs>
    <g clip-path="url(#pfc373f2096)">
     <use style="fill-opacity:0;stroke:#d95f02;stroke-linejoin:miter;" x="103.827273" xlink:href="#mc8042123d5" y="295.227557"/>
     <use style="fill-opacity:0;stroke:#d95f02;stroke-linejoin:miter;" x="448.155749" xlink:href="#mc8042123d5" y="351.785956"/>
     <use style="fill-opacity:0;stroke:#d95f02;stroke-linejoin:miter;" x="457.027812" xlink:href="#mc8042123d5" y="338.661046"/>
     <use style="fill-opacity:0;stroke:#d95f02;stroke-linejoin:miter;" x="560.372727" xlink:href="#mc8042123d5" y="351.989568"/>
    </g>
   </g>
   <g id="line2d_24"/>
   <g id="patch_3">
    <path d="M 81 384.48 
L 81 51.84 
" style="fill:none;stroke:#000000;stroke-linecap:square;stroke-linejoin:miter;stroke-width:0.8;"/>
   </g>
   <g id="patch_4">
    <path d="M 583.2 384.48 
L 583.2 51.84 
" style="fill:none;stroke:#000000;stroke-linecap:square;stroke-linejoin:miter;stroke-width:0.8;"/>
   </g>
   <g id="patch_5">
    <path d="M 81 384.48 
L 583.2 384.48 
" style="fill:none;stroke:#000000;stroke-linecap:square;stroke-linejoin:miter;stroke-width:0.8;"/>
   </g>
   <g id="patch_6">
    <path d="M 81 51.84 
L 583.2 51.84 
" style="fill:none;stroke:#000000;stroke-linecap:square;stroke-linejoin:miter;stroke-width:0.8;"/>
   </g>
   <g id="text_19">
    <!-- Expansion velocity over time - absorption - ['SN2018hmx', 'SN2018aad'] -->
    <defs>
     <path d="M 14.703125 0 
L 6.546875 0 
L 6.546875 71.578125 
L 15.328125 71.578125 
L 15.328125 46.046875 
Q 20.90625 53.03125 29.546875 53.03125 
Q 34.328125 53.03125 38.59375 51.09375 
Q 42.875 49.171875 45.625 45.671875 
Q 48.390625 42.1875 49.953125 37.25 
Q 51.515625 32.328125 51.515625 26.703125 
Q 51.515625 13.375 44.921875 6.09375 
Q 38.328125 -1.171875 29.109375 -1.171875 
Q 19.921875 -1.171875 14.703125 6.5 
z
M 14.59375 26.3125 
Q 14.59375 17 17.140625 12.84375 
Q 21.296875 6.0625 28.375 6.0625 
Q 34.125 6.0625 38.328125 11.0625 
Q 42.53125 16.0625 42.53125 25.984375 
Q 42.53125 36.140625 38.5 40.96875 
Q 34.46875 45.796875 28.765625 45.796875 
Q 23 45.796875 18.796875 40.796875 
Q 14.59375 35.796875 14.59375 26.3125 
z
" id="ArialMT-98"/>
     <path d="M 6.78125 -19.875 
L 6.78125 71.578125 
L 26.171875 71.578125 
L 26.171875 64.3125 
L 15.578125 64.3125 
L 15.578125 -12.59375 
L 26.171875 -12.59375 
L 26.171875 -19.875 
z
" id="ArialMT-91"/>
     <path d="M 6.640625 46.234375 
L 4.390625 59.625 
L 4.390625 71.578125 
L 14.40625 71.578125 
L 14.40625 59.625 
L 12.0625 46.234375 
z
" id="ArialMT-39"/>
     <path d="M 4.5 23 
L 13.421875 23.78125 
Q 14.0625 18.40625 16.375 14.96875 
Q 18.703125 11.53125 23.578125 9.40625 
Q 28.46875 7.28125 34.578125 7.28125 
Q 39.984375 7.28125 44.140625 8.890625 
Q 48.296875 10.5 50.3125 13.296875 
Q 52.34375 16.109375 52.34375 19.4375 
Q 52.34375 22.796875 50.390625 25.3125 
Q 48.4375 27.828125 43.953125 29.546875 
Q 41.0625 30.671875 31.203125 33.03125 
Q 21.34375 35.40625 17.390625 37.5 
Q 12.25 40.1875 9.734375 44.15625 
Q 7.234375 48.140625 7.234375 53.078125 
Q 7.234375 58.5 10.296875 63.203125 
Q 13.375 67.921875 19.28125 70.359375 
Q 25.203125 72.796875 32.421875 72.796875 
Q 40.375 72.796875 46.453125 70.234375 
Q 52.546875 67.671875 55.8125 62.6875 
Q 59.078125 57.71875 59.328125 51.421875 
L 50.25 50.734375 
Q 49.515625 57.515625 45.28125 60.984375 
Q 41.0625 64.453125 32.8125 64.453125 
Q 24.21875 64.453125 20.28125 61.296875 
Q 16.359375 58.15625 16.359375 53.71875 
Q 16.359375 49.859375 19.140625 47.359375 
Q 21.875 44.875 33.421875 42.265625 
Q 44.96875 39.65625 49.265625 37.703125 
Q 55.515625 34.8125 58.484375 30.390625 
Q 61.46875 25.984375 61.46875 20.21875 
Q 61.46875 14.5 58.203125 9.4375 
Q 54.9375 4.390625 48.796875 1.578125 
Q 42.671875 -1.21875 35.015625 -1.21875 
Q 25.296875 -1.21875 18.71875 1.609375 
Q 12.15625 4.4375 8.421875 10.125 
Q 4.6875 15.828125 4.5 23 
z
" id="ArialMT-83"/>
     <path d="M 7.625 0 
L 7.625 71.578125 
L 17.328125 71.578125 
L 54.9375 15.375 
L 54.9375 71.578125 
L 64.015625 71.578125 
L 64.015625 0 
L 54.296875 0 
L 16.703125 56.25 
L 16.703125 0 
z
" id="ArialMT-78"/>
     <path d="M 6.59375 0 
L 6.59375 71.578125 
L 15.375 71.578125 
L 15.375 45.90625 
Q 21.53125 53.03125 30.90625 53.03125 
Q 36.671875 53.03125 40.921875 50.75 
Q 45.171875 48.484375 47 44.484375 
Q 48.828125 40.484375 48.828125 32.859375 
L 48.828125 0 
L 40.046875 0 
L 40.046875 32.859375 
Q 40.046875 39.453125 37.1875 42.453125 
Q 34.328125 45.453125 29.109375 45.453125 
Q 25.203125 45.453125 21.75 43.421875 
Q 18.3125 41.40625 16.84375 37.9375 
Q 15.375 34.46875 15.375 28.375 
L 15.375 0 
z
" id="ArialMT-104"/>
     <path d="M 8.890625 0 
L 8.890625 10.015625 
L 18.890625 10.015625 
L 18.890625 0 
Q 18.890625 -5.515625 16.9375 -8.90625 
Q 14.984375 -12.3125 10.75 -14.15625 
L 8.296875 -10.40625 
Q 11.078125 -9.1875 12.390625 -6.8125 
Q 13.71875 -4.4375 13.875 0 
z
" id="ArialMT-44"/>
     <path d="M 21.296875 -19.875 
L 1.90625 -19.875 
L 1.90625 -12.59375 
L 12.5 -12.59375 
L 12.5 64.3125 
L 1.90625 64.3125 
L 1.90625 71.578125 
L 21.296875 71.578125 
z
" id="ArialMT-93"/>
    </defs>
    <g transform="translate(141.432188 45.84)scale(0.12 -0.12)">
     <use xlink:href="#ArialMT-69"/>
     <use x="66.699219" xlink:href="#ArialMT-120"/>
     <use x="116.699219" xlink:href="#ArialMT-112"/>
     <use x="172.314453" xlink:href="#ArialMT-97"/>
     <use x="227.929688" xlink:href="#ArialMT-110"/>
     <use x="283.544922" xlink:href="#ArialMT-115"/>
     <use x="333.544922" xlink:href="#ArialMT-105"/>
     <use x="355.761719" xlink:href="#ArialMT-111"/>
     <use x="411.376953" xlink:href="#ArialMT-110"/>
     <use x="466.992188" xlink:href="#ArialMT-32"/>
     <use x="494.775391" xlink:href="#ArialMT-118"/>
     <use x="544.775391" xlink:href="#ArialMT-101"/>
     <use x="600.390625" xlink:href="#ArialMT-108"/>
     <use x="622.607422" xlink:href="#ArialMT-111"/>
     <use x="678.222656" xlink:href="#ArialMT-99"/>
     <use x="728.222656" xlink:href="#ArialMT-105"/>
     <use x="750.439453" xlink:href="#ArialMT-116"/>
     <use x="778.222656" xlink:href="#ArialMT-121"/>
     <use x="828.222656" xlink:href="#ArialMT-32"/>
     <use x="856.005859" xlink:href="#ArialMT-111"/>
     <use x="911.621094" xlink:href="#ArialMT-118"/>
     <use x="961.621094" xlink:href="#ArialMT-101"/>
     <use x="1017.236328" xlink:href="#ArialMT-114"/>
     <use x="1050.537109" xlink:href="#ArialMT-32"/>
     <use x="1078.320312" xlink:href="#ArialMT-116"/>
     <use x="1106.103516" xlink:href="#ArialMT-105"/>
     <use x="1128.320312" xlink:href="#ArialMT-109"/>
     <use x="1211.621094" xlink:href="#ArialMT-101"/>
     <use x="1267.236328" xlink:href="#ArialMT-32"/>
     <use x="1295.019531" xlink:href="#ArialMT-45"/>
     <use x="1328.320312" xlink:href="#ArialMT-32"/>
     <use x="1356.103516" xlink:href="#ArialMT-97"/>
     <use x="1411.71875" xlink:href="#ArialMT-98"/>
     <use x="1467.333984" xlink:href="#ArialMT-115"/>
     <use x="1517.333984" xlink:href="#ArialMT-111"/>
     <use x="1572.949219" xlink:href="#ArialMT-114"/>
     <use x="1606.25" xlink:href="#ArialMT-112"/>
     <use x="1661.865234" xlink:href="#ArialMT-116"/>
     <use x="1689.648438" xlink:href="#ArialMT-105"/>
     <use x="1711.865234" xlink:href="#ArialMT-111"/>
     <use x="1767.480469" xlink:href="#ArialMT-110"/>
     <use x="1823.095703" xlink:href="#ArialMT-32"/>
     <use x="1850.878906" xlink:href="#ArialMT-45"/>
     <use x="1884.179688" xlink:href="#ArialMT-32"/>
     <use x="1911.962891" xlink:href="#ArialMT-91"/>
     <use x="1939.746094" xlink:href="#ArialMT-39"/>
     <use x="1958.837891" xlink:href="#ArialMT-83"/>
     <use x="2025.537109" xlink:href="#ArialMT-78"/>
     <use x="2097.753906" xlink:href="#ArialMT-50"/>
     <use x="2153.369141" xlink:href="#ArialMT-48"/>
     <use x="2208.984375" xlink:href="#ArialMT-49"/>
     <use x="2264.599609" xlink:href="#ArialMT-56"/>
     <use x="2320.214844" xlink:href="#ArialMT-104"/>
     <use x="2375.830078" xlink:href="#ArialMT-109"/>
     <use x="2459.130859" xlink:href="#ArialMT-120"/>
     <use x="2509.130859" xlink:href="#ArialMT-39"/>
     <use x="2528.222656" xlink:href="#ArialMT-44"/>
     <use x="2556.005859" xlink:href="#ArialMT-32"/>
     <use x="2583.789062" xlink:href="#ArialMT-39"/>
     <use x="2602.880859" xlink:href="#ArialMT-83"/>
     <use x="2669.580078" xlink:href="#ArialMT-78"/>
     <use x="2741.796875" xlink:href="#ArialMT-50"/>
     <use x="2797.412109" xlink:href="#ArialMT-48"/>
     <use x="2853.027344" xlink:href="#ArialMT-49"/>
     <use x="2908.642578" xlink:href="#ArialMT-56"/>
     <use x="2964.257812" xlink:href="#ArialMT-97"/>
     <use x="3019.873047" xlink:href="#ArialMT-97"/>
     <use x="3075.488281" xlink:href="#ArialMT-100"/>
     <use x="3131.103516" xlink:href="#ArialMT-39"/>
     <use x="3150.195312" xlink:href="#ArialMT-93"/>
    </g>
   </g>
   <g id="legend_1">
    <g id="patch_7">
     <path d="M 430.243281 185.386875 
L 575.5 185.386875 
Q 577.7 185.386875 577.7 183.186875 
L 577.7 59.54 
Q 577.7 57.34 575.5 57.34 
L 430.243281 57.34 
Q 428.043281 57.34 428.043281 59.54 
L 428.043281 183.186875 
Q 428.043281 185.386875 430.243281 185.386875 
z
" style="fill:#ffffff;opacity:0.8;stroke:#cccccc;stroke-linejoin:miter;"/>
    </g>
    <g id="LineCollection_9">
     <path d="M 443.443281 71.397656 
L 443.443281 60.397656 
" style="fill:none;stroke:#1b9e77;stroke-width:1.5;"/>
    </g>
    <g id="line2d_25"/>
    <g id="line2d_26">
     <g>
      <use style="fill:#1b9e77;stroke:#1b9e77;stroke-linejoin:miter;" x="443.443281" xlink:href="#m7f9bcbf097" y="65.897656"/>
     </g>
    </g>
    <g id="text_20">
     <!-- SN2018hmx Halpha -->
     <defs>
      <path d="M 8.015625 0 
L 8.015625 71.578125 
L 17.484375 71.578125 
L 17.484375 42.1875 
L 54.6875 42.1875 
L 54.6875 71.578125 
L 64.15625 71.578125 
L 64.15625 0 
L 54.6875 0 
L 54.6875 33.734375 
L 17.484375 33.734375 
L 17.484375 0 
z
" id="ArialMT-72"/>
     </defs>
     <g transform="translate(463.243281 69.747656)scale(0.11 -0.11)">
      <use xlink:href="#ArialMT-83"/>
      <use x="66.699219" xlink:href="#ArialMT-78"/>
      <use x="138.916016" xlink:href="#ArialMT-50"/>
      <use x="194.53125" xlink:href="#ArialMT-48"/>
      <use x="250.146484" xlink:href="#ArialMT-49"/>
      <use x="305.761719" xlink:href="#ArialMT-56"/>
      <use x="361.376953" xlink:href="#ArialMT-104"/>
      <use x="416.992188" xlink:href="#ArialMT-109"/>
      <use x="500.292969" xlink:href="#ArialMT-120"/>
      <use x="550.292969" xlink:href="#ArialMT-32"/>
      <use x="578.076172" xlink:href="#ArialMT-72"/>
      <use x="650.292969" xlink:href="#ArialMT-97"/>
      <use x="705.908203" xlink:href="#ArialMT-108"/>
      <use x="728.125" xlink:href="#ArialMT-112"/>
      <use x="783.740234" xlink:href="#ArialMT-104"/>
      <use x="839.355469" xlink:href="#ArialMT-97"/>
     </g>
    </g>
    <g id="LineCollection_10">
     <path d="M 443.443281 86.9575 
L 443.443281 75.9575 
" style="fill:none;stroke:#7570b3;stroke-width:1.5;"/>
    </g>
    <g id="line2d_27"/>
    <g id="line2d_28">
     <g>
      <use style="fill:#7570b3;stroke:#7570b3;stroke-linejoin:miter;" x="443.443281" xlink:href="#m300fa6e5bd" y="81.4575"/>
     </g>
    </g>
    <g id="text_21">
     <!-- SN2018hmx Hbeta -->
     <g transform="translate(463.243281 85.3075)scale(0.11 -0.11)">
      <use xlink:href="#ArialMT-83"/>
      <use x="66.699219" xlink:href="#ArialMT-78"/>
      <use x="138.916016" xlink:href="#ArialMT-50"/>
      <use x="194.53125" xlink:href="#ArialMT-48"/>
      <use x="250.146484" xlink:href="#ArialMT-49"/>
      <use x="305.761719" xlink:href="#ArialMT-56"/>
      <use x="361.376953" xlink:href="#ArialMT-104"/>
      <use x="416.992188" xlink:href="#ArialMT-109"/>
      <use x="500.292969" xlink:href="#ArialMT-120"/>
      <use x="550.292969" xlink:href="#ArialMT-32"/>
      <use x="578.076172" xlink:href="#ArialMT-72"/>
      <use x="650.292969" xlink:href="#ArialMT-98"/>
      <use x="705.908203" xlink:href="#ArialMT-101"/>
      <use x="761.523438" xlink:href="#ArialMT-116"/>
      <use x="789.306641" xlink:href="#ArialMT-97"/>
     </g>
    </g>
    <g id="LineCollection_11">
     <path d="M 443.443281 102.517344 
L 443.443281 91.517344 
" style="fill:none;stroke:#d95f02;stroke-width:1.5;"/>
    </g>
    <g id="line2d_29"/>
    <g id="line2d_30">
     <g>
      <use style="fill:#d95f02;stroke:#d95f02;stroke-linejoin:miter;" x="443.443281" xlink:href="#m816014d780" y="97.017344"/>
     </g>
    </g>
    <g id="text_22">
     <!-- SN2018hmx FeII 5169 -->
     <defs>
      <path d="M 8.203125 0 
L 8.203125 71.578125 
L 56.5 71.578125 
L 56.5 63.140625 
L 17.671875 63.140625 
L 17.671875 40.96875 
L 51.265625 40.96875 
L 51.265625 32.515625 
L 17.671875 32.515625 
L 17.671875 0 
z
" id="ArialMT-70"/>
      <path d="M 9.328125 0 
L 9.328125 71.578125 
L 18.796875 71.578125 
L 18.796875 0 
z
" id="ArialMT-73"/>
      <path d="M 5.46875 16.546875 
L 13.921875 17.328125 
Q 14.984375 11.375 18.015625 8.6875 
Q 21.046875 6 25.78125 6 
Q 29.828125 6 32.875 7.859375 
Q 35.9375 9.71875 37.890625 12.8125 
Q 39.84375 15.921875 41.15625 21.1875 
Q 42.484375 26.46875 42.484375 31.9375 
Q 42.484375 32.515625 42.4375 33.6875 
Q 39.796875 29.5 35.234375 26.875 
Q 30.671875 24.265625 25.34375 24.265625 
Q 16.453125 24.265625 10.296875 30.703125 
Q 4.15625 37.15625 4.15625 47.703125 
Q 4.15625 58.59375 10.578125 65.234375 
Q 17 71.875 26.65625 71.875 
Q 33.640625 71.875 39.421875 68.109375 
Q 45.21875 64.359375 48.21875 57.390625 
Q 51.21875 50.4375 51.21875 37.25 
Q 51.21875 23.53125 48.234375 15.40625 
Q 45.265625 7.28125 39.375 3.03125 
Q 33.5 -1.21875 25.59375 -1.21875 
Q 17.1875 -1.21875 11.859375 3.4375 
Q 6.546875 8.109375 5.46875 16.546875 
z
M 41.453125 48.140625 
Q 41.453125 55.71875 37.421875 60.15625 
Q 33.40625 64.59375 27.734375 64.59375 
Q 21.875 64.59375 17.53125 59.8125 
Q 13.1875 55.03125 13.1875 47.40625 
Q 13.1875 40.578125 17.3125 36.296875 
Q 21.4375 32.03125 27.484375 32.03125 
Q 33.59375 32.03125 37.515625 36.296875 
Q 41.453125 40.578125 41.453125 48.140625 
z
" id="ArialMT-57"/>
     </defs>
     <g transform="translate(463.243281 100.867344)scale(0.11 -0.11)">
      <use xlink:href="#ArialMT-83"/>
      <use x="66.699219" xlink:href="#ArialMT-78"/>
      <use x="138.916016" xlink:href="#ArialMT-50"/>
      <use x="194.53125" xlink:href="#ArialMT-48"/>
      <use x="250.146484" xlink:href="#ArialMT-49"/>
      <use x="305.761719" xlink:href="#ArialMT-56"/>
      <use x="361.376953" xlink:href="#ArialMT-104"/>
      <use x="416.992188" xlink:href="#ArialMT-109"/>
      <use x="500.292969" xlink:href="#ArialMT-120"/>
      <use x="550.292969" xlink:href="#ArialMT-32"/>
      <use x="578.076172" xlink:href="#ArialMT-70"/>
      <use x="639.160156" xlink:href="#ArialMT-101"/>
      <use x="694.775391" xlink:href="#ArialMT-73"/>
      <use x="722.558594" xlink:href="#ArialMT-73"/>
      <use x="750.341797" xlink:href="#ArialMT-32"/>
      <use x="778.125" xlink:href="#ArialMT-53"/>
      <use x="833.740234" xlink:href="#ArialMT-49"/>
      <use x="889.355469" xlink:href="#ArialMT-54"/>
      <use x="944.970703" xlink:href="#ArialMT-57"/>
     </g>
    </g>
    <g id="LineCollection_12">
     <path d="M 443.443281 118.077188 
L 443.443281 107.077188 
" style="fill:none;stroke:#1d78ef;stroke-width:1.5;"/>
    </g>
    <g id="line2d_31"/>
    <g id="line2d_32">
     <defs>
      <path d="M -3 3 
L 3 3 
L 3 -3 
L -3 -3 
z
" id="m7e54daab74" style="stroke:#1d78ef;stroke-linejoin:miter;"/>
     </defs>
     <g>
      <use style="fill:#1d78ef;stroke:#1d78ef;stroke-linejoin:miter;" x="443.443281" xlink:href="#m7e54daab74" y="112.577188"/>
     </g>
    </g>
    <g id="text_23">
     <!-- SN2018hmx FeII 5018 -->
     <g transform="translate(463.243281 116.427188)scale(0.11 -0.11)">
      <use xlink:href="#ArialMT-83"/>
      <use x="66.699219" xlink:href="#ArialMT-78"/>
      <use x="138.916016" xlink:href="#ArialMT-50"/>
      <use x="194.53125" xlink:href="#ArialMT-48"/>
      <use x="250.146484" xlink:href="#ArialMT-49"/>
      <use x="305.761719" xlink:href="#ArialMT-56"/>
      <use x="361.376953" xlink:href="#ArialMT-104"/>
      <use x="416.992188" xlink:href="#ArialMT-109"/>
      <use x="500.292969" xlink:href="#ArialMT-120"/>
      <use x="550.292969" xlink:href="#ArialMT-32"/>
      <use x="578.076172" xlink:href="#ArialMT-70"/>
      <use x="639.160156" xlink:href="#ArialMT-101"/>
      <use x="694.775391" xlink:href="#ArialMT-73"/>
      <use x="722.558594" xlink:href="#ArialMT-73"/>
      <use x="750.341797" xlink:href="#ArialMT-32"/>
      <use x="778.125" xlink:href="#ArialMT-53"/>
      <use x="833.740234" xlink:href="#ArialMT-48"/>
      <use x="889.355469" xlink:href="#ArialMT-49"/>
      <use x="944.970703" xlink:href="#ArialMT-56"/>
     </g>
    </g>
    <g id="LineCollection_13">
     <path d="M 443.443281 133.771094 
L 443.443281 122.771094 
" style="fill:none;stroke:#1b9e77;stroke-width:1.5;"/>
    </g>
    <g id="line2d_33"/>
    <g id="line2d_34">
     <g>
      <use style="fill-opacity:0;stroke:#1b9e77;stroke-linejoin:miter;" x="443.443281" xlink:href="#m9ec97edb42" y="128.271094"/>
     </g>
    </g>
    <g id="text_24">
     <!-- SN2018aad Halpha -->
     <g transform="translate(463.243281 132.121094)scale(0.11 -0.11)">
      <use xlink:href="#ArialMT-83"/>
      <use x="66.699219" xlink:href="#ArialMT-78"/>
      <use x="138.916016" xlink:href="#ArialMT-50"/>
      <use x="194.53125" xlink:href="#ArialMT-48"/>
      <use x="250.146484" xlink:href="#ArialMT-49"/>
      <use x="305.761719" xlink:href="#ArialMT-56"/>
      <use x="361.376953" xlink:href="#ArialMT-97"/>
      <use x="416.992188" xlink:href="#ArialMT-97"/>
      <use x="472.607422" xlink:href="#ArialMT-100"/>
      <use x="528.222656" xlink:href="#ArialMT-32"/>
      <use x="556.005859" xlink:href="#ArialMT-72"/>
      <use x="628.222656" xlink:href="#ArialMT-97"/>
      <use x="683.837891" xlink:href="#ArialMT-108"/>
      <use x="706.054688" xlink:href="#ArialMT-112"/>
      <use x="761.669922" xlink:href="#ArialMT-104"/>
      <use x="817.285156" xlink:href="#ArialMT-97"/>
     </g>
    </g>
    <g id="LineCollection_14">
     <path d="M 443.443281 149.330937 
L 443.443281 138.330937 
" style="fill:none;stroke:#7570b3;stroke-width:1.5;"/>
    </g>
    <g id="line2d_35"/>
    <g id="line2d_36">
     <g>
      <use style="fill-opacity:0;stroke:#7570b3;stroke-linejoin:miter;" x="443.443281" xlink:href="#md0d20d1d7c" y="143.830937"/>
     </g>
    </g>
    <g id="text_25">
     <!-- SN2018aad Hbeta -->
     <g transform="translate(463.243281 147.680937)scale(0.11 -0.11)">
      <use xlink:href="#ArialMT-83"/>
      <use x="66.699219" xlink:href="#ArialMT-78"/>
      <use x="138.916016" xlink:href="#ArialMT-50"/>
      <use x="194.53125" xlink:href="#ArialMT-48"/>
      <use x="250.146484" xlink:href="#ArialMT-49"/>
      <use x="305.761719" xlink:href="#ArialMT-56"/>
      <use x="361.376953" xlink:href="#ArialMT-97"/>
      <use x="416.992188" xlink:href="#ArialMT-97"/>
      <use x="472.607422" xlink:href="#ArialMT-100"/>
      <use x="528.222656" xlink:href="#ArialMT-32"/>
      <use x="556.005859" xlink:href="#ArialMT-72"/>
      <use x="628.222656" xlink:href="#ArialMT-98"/>
      <use x="683.837891" xlink:href="#ArialMT-101"/>
      <use x="739.453125" xlink:href="#ArialMT-116"/>
      <use x="767.236328" xlink:href="#ArialMT-97"/>
     </g>
    </g>
    <g id="LineCollection_15">
     <path d="M 443.443281 164.890781 
L 443.443281 153.890781 
" style="fill:none;stroke:#d95f02;stroke-width:1.5;"/>
    </g>
    <g id="line2d_37"/>
    <g id="line2d_38">
     <g>
      <use style="fill-opacity:0;stroke:#d95f02;stroke-linejoin:miter;" x="443.443281" xlink:href="#mc8042123d5" y="159.390781"/>
     </g>
    </g>
    <g id="text_26">
     <!-- SN2018aad FeII 5169 -->
     <g transform="translate(463.243281 163.240781)scale(0.11 -0.11)">
      <use xlink:href="#ArialMT-83"/>
      <use x="66.699219" xlink:href="#ArialMT-78"/>
      <use x="138.916016" xlink:href="#ArialMT-50"/>
      <use x="194.53125" xlink:href="#ArialMT-48"/>
      <use x="250.146484" xlink:href="#ArialMT-49"/>
      <use x="305.761719" xlink:href="#ArialMT-56"/>
      <use x="361.376953" xlink:href="#ArialMT-97"/>
      <use x="416.992188" xlink:href="#ArialMT-97"/>
      <use x="472.607422" xlink:href="#ArialMT-100"/>
      <use x="528.222656" xlink:href="#ArialMT-32"/>
      <use x="556.005859" xlink:href="#ArialMT-70"/>
      <use x="617.089844" xlink:href="#ArialMT-101"/>
      <use x="672.705078" xlink:href="#ArialMT-73"/>
      <use x="700.488281" xlink:href="#ArialMT-73"/>
      <use x="728.271484" xlink:href="#ArialMT-32"/>
      <use x="756.054688" xlink:href="#ArialMT-53"/>
      <use x="811.669922" xlink:href="#ArialMT-49"/>
      <use x="867.285156" xlink:href="#ArialMT-54"/>
      <use x="922.900391" xlink:href="#ArialMT-57"/>
     </g>
    </g>
    <g id="LineCollection_16">
     <path d="M 443.443281 180.450625 
L 443.443281 169.450625 
" style="fill:none;stroke:#1d78ef;stroke-width:1.5;"/>
    </g>
    <g id="line2d_39"/>
    <g id="line2d_40">
     <defs>
      <path d="M -3 3 
L 3 3 
L 3 -3 
L -3 -3 
z
" id="m580759b005" style="stroke:#1d78ef;stroke-linejoin:miter;"/>
     </defs>
     <g>
      <use style="fill-opacity:0;stroke:#1d78ef;stroke-linejoin:miter;" x="443.443281" xlink:href="#m580759b005" y="174.950625"/>
     </g>
    </g>
    <g id="text_27">
     <!-- SN2018aad FeII 5018 -->
     <g transform="translate(463.243281 178.800625)scale(0.11 -0.11)">
      <use xlink:href="#ArialMT-83"/>
      <use x="66.699219" xlink:href="#ArialMT-78"/>
      <use x="138.916016" xlink:href="#ArialMT-50"/>
      <use x="194.53125" xlink:href="#ArialMT-48"/>
      <use x="250.146484" xlink:href="#ArialMT-49"/>
      <use x="305.761719" xlink:href="#ArialMT-56"/>
      <use x="361.376953" xlink:href="#ArialMT-97"/>
      <use x="416.992188" xlink:href="#ArialMT-97"/>
      <use x="472.607422" xlink:href="#ArialMT-100"/>
      <use x="528.222656" xlink:href="#ArialMT-32"/>
      <use x="556.005859" xlink:href="#ArialMT-70"/>
      <use x="617.089844" xlink:href="#ArialMT-101"/>
      <use x="672.705078" xlink:href="#ArialMT-73"/>
      <use x="700.488281" xlink:href="#ArialMT-73"/>
      <use x="728.271484" xlink:href="#ArialMT-32"/>
      <use x="756.054688" xlink:href="#ArialMT-53"/>
      <use x="811.669922" xlink:href="#ArialMT-48"/>
      <use x="867.285156" xlink:href="#ArialMT-49"/>
      <use x="922.900391" xlink:href="#ArialMT-56"/>
     </g>
    </g>
   </g>
  </g>
 </g>
 <defs>
  <clipPath id="pfc373f2096">
   <rect height="332.64" width="502.2" x="81" y="51.84"/>
  </clipPath>
 </defs>
</svg>
